M48
; DRILL file {KiCad 6.0.11+dfsg-1} date Sa 19 Apr 2025 12:41:31
; FORMAT={-:-/ absolute / inch / decimal}
; #@! TF.CreationDate,2025-04-19T12:41:31+02:00
; #@! TF.GenerationSoftware,Kicad,Pcbnew,6.0.11+dfsg-1
; #@! TF.FileFunction,Plated,1,2,PTH
FMAT,2
INCH
; #@! TA.AperFunction,Plated,PTH,ViaDrill
T1C0.0157
; #@! TA.AperFunction,Plated,PTH,ComponentDrill
T2C0.0315
; #@! TA.AperFunction,Plated,PTH,ComponentDrill
T3C0.0394
; #@! TA.AperFunction,Plated,PTH,ComponentDrill
T4C0.0472
%
G90
G05
T1
X7.105Y-6.12
X7.18Y-6.705
X7.2Y-7.855
X7.23Y-6.495
X7.54Y-6.14
X7.63Y-6.16
X7.715Y-5.84
X8.39Y-7.275
X9.57Y-7.615
X10.72Y-6.7865
X14.56Y-6.27
X14.62Y-8.885
T2
X1.57Y-7.725
X1.57Y-8.025
X1.575Y-6.345
X1.575Y-6.645
X1.96Y-7.04
X1.96Y-7.34
X1.96Y-8.41
X1.96Y-8.71
X1.97Y-5.655
X1.97Y-5.955
X2.36Y-6.35
X2.36Y-6.65
X2.36Y-7.735
X2.36Y-8.035
X2.755Y-5.655
X2.755Y-5.955
X2.755Y-7.035
X2.755Y-7.335
X2.76Y-8.405
X2.76Y-8.705
X3.14Y-7.72
X3.14Y-8.02
X3.15Y-6.345
X3.15Y-6.645
X3.54Y-7.035
X3.54Y-7.335
X3.545Y-5.655
X3.545Y-5.955
X3.545Y-8.415
X3.545Y-8.715
X3.935Y-7.735
X3.935Y-8.035
X3.94Y-6.34
X3.94Y-6.64
X4.33Y-5.655
X4.33Y-5.955
X4.33Y-7.035
X4.33Y-7.335
X4.33Y-8.42
X4.33Y-8.72
X4.72Y-6.345
X4.72Y-6.645
X4.725Y-7.725
X4.725Y-8.025
X4.7654Y-5.0954
X4.7654Y-5.3954
X4.8654Y-5.0954
X4.8654Y-5.3954
X4.9654Y-5.0954
X4.9654Y-5.3954
X5.0654Y-5.0954
X5.0654Y-5.3954
X5.115Y-7.035
X5.115Y-7.335
X5.115Y-8.405
X5.115Y-8.705
X5.12Y-5.655
X5.12Y-5.955
X5.1654Y-5.0954
X5.1654Y-5.3954
X5.2654Y-5.0954
X5.2654Y-5.3954
X5.3654Y-5.0954
X5.3654Y-5.3954
X5.4654Y-5.0954
X5.4654Y-5.3954
X5.505Y-7.725
X5.505Y-8.025
X5.515Y-6.35
X5.515Y-6.65
X5.6Y-5.1966
X5.6Y-5.3934
X5.825Y-5.06
X5.825Y-5.225
X5.825Y-5.39
X5.9Y-7.035
X5.9Y-7.335
X5.905Y-5.65
X5.905Y-5.95
X5.905Y-8.405
X5.905Y-8.705
X6.225Y-5.06
X6.225Y-5.225
X6.225Y-5.39
X6.3Y-7.72
X6.3Y-8.02
X6.305Y-6.35
X6.305Y-6.65
X6.69Y-7.03
X6.69Y-7.33
X6.69Y-8.405
X6.69Y-8.705
X6.695Y-5.655
X6.695Y-5.955
X7.09Y-6.345
X7.09Y-6.645
X7.095Y-7.725
X7.095Y-8.025
X7.475Y-7.03
X7.475Y-7.33
X7.48Y-5.655
X7.48Y-5.955
X7.485Y-8.405
X7.485Y-8.705
X7.87Y-6.35
X7.87Y-6.65
X7.88Y-7.72
X7.88Y-8.02
X8.27Y-5.66
X8.27Y-5.96
X8.27Y-7.035
X8.27Y-7.335
X8.27Y-8.405
X8.27Y-8.705
X8.66Y-6.34
X8.66Y-6.64
X8.665Y-7.72
X8.665Y-8.02
X9.055Y-5.655
X9.055Y-5.955
X9.06Y-7.03
X9.06Y-7.33
X9.06Y-8.4
X9.06Y-8.7
X9.445Y-6.345
X9.445Y-6.645
X9.45Y-7.72
X9.45Y-8.02
X9.83Y-7.02
X9.83Y-7.32
X9.845Y-5.66
X9.845Y-5.96
X9.845Y-8.415
X9.845Y-8.715
X10.235Y-6.35
X10.235Y-6.65
X10.235Y-7.725
X10.235Y-8.025
X10.63Y-5.66
X10.63Y-5.96
X10.63Y-7.04
X10.63Y-7.34
X10.63Y-8.41
X10.63Y-8.71
X11.025Y-7.725
X11.025Y-8.025
X11.03Y-6.35
X11.03Y-6.65
X11.415Y-7.025
X11.415Y-7.325
X11.415Y-8.415
X11.415Y-8.715
X11.425Y-5.8537
X11.425Y-6.1537
X11.815Y-7.72
X11.815Y-8.02
X11.82Y-6.355
X11.82Y-6.655
X12.205Y-5.655
X12.205Y-5.955
X12.205Y-7.035
X12.205Y-7.335
X12.205Y-8.41
X12.205Y-8.71
X12.6Y-6.34
X12.6Y-6.64
X12.6Y-7.725
X12.6Y-8.025
X12.99Y-7.025
X12.99Y-7.325
X12.99Y-8.41
X12.99Y-8.71
X12.995Y-5.575
X12.995Y-5.875
X13.385Y-6.34
X13.385Y-6.64
X13.385Y-7.72
X13.385Y-8.02
X13.775Y-8.41
X13.775Y-8.71
X13.78Y-5.565
X13.78Y-5.865
X13.785Y-7.03
X13.785Y-7.33
X14.17Y-7.72
X14.17Y-8.02
X14.175Y-6.34
X14.175Y-6.64
X14.565Y-5.57
X14.565Y-5.87
X14.57Y-7.045
X14.57Y-7.345
X14.57Y-8.41
X14.57Y-8.71
X14.96Y-6.34
X14.96Y-6.64
X14.96Y-7.68
X14.96Y-7.98
X15.395Y-7.105
X15.395Y-7.405
X15.4Y-5.855
X15.4Y-6.155
X15.505Y-7.11
X15.505Y-7.41
X15.51Y-5.855
X15.51Y-6.155
X15.535Y-8.58
X15.535Y-8.88
T3
X9.3494Y-5.3937
X9.3494Y-5.4937
X9.4494Y-5.3937
X9.4494Y-5.4937
X9.5494Y-5.3937
X9.5494Y-5.4937
X9.6494Y-5.3937
X9.6494Y-5.4937
X9.7494Y-5.3937
X9.7494Y-5.4937
X9.8494Y-5.3937
X9.8494Y-5.4937
X9.9494Y-5.3937
X9.9494Y-5.4937
X10.0494Y-5.3937
X10.0494Y-5.4937
X10.1494Y-5.3937
X10.1494Y-5.4937
X10.2494Y-5.3937
X10.2494Y-5.4937
T4
X1.2811Y-6.4445
X1.2811Y-7.8224
X1.3811Y-6.6945
X1.3811Y-8.0724
X1.6748Y-5.7555
X1.6748Y-7.1335
X1.6748Y-8.5114
X1.7748Y-6.0055
X1.7748Y-7.3835
X1.7748Y-8.7614
X2.0685Y-6.4445
X2.0685Y-7.8224
X2.1685Y-6.6945
X2.1685Y-8.0724
X2.4622Y-5.7555
X2.4622Y-7.1335
X2.4622Y-8.5114
X2.5622Y-6.0055
X2.5622Y-7.3835
X2.5622Y-8.7614
X2.8559Y-6.4445
X2.8559Y-7.8224
X2.9559Y-6.6945
X2.9559Y-8.0724
X3.2496Y-5.7555
X3.2496Y-7.1335
X3.2496Y-8.5114
X3.3496Y-6.0055
X3.3496Y-7.3835
X3.3496Y-8.7614
X3.6433Y-6.4445
X3.6433Y-7.8224
X3.7433Y-6.6945
X3.7433Y-8.0724
X4.037Y-5.7555
X4.037Y-7.1335
X4.037Y-8.5114
X4.137Y-6.0055
X4.137Y-7.3835
X4.137Y-8.7614
X4.4307Y-6.4445
X4.4307Y-7.8224
X4.5307Y-6.6945
X4.5307Y-8.0724
X4.8244Y-5.7555
X4.8244Y-7.1335
X4.8244Y-8.5114
X4.9244Y-6.0055
X4.9244Y-7.3835
X4.9244Y-8.7614
X5.2181Y-6.4445
X5.2181Y-7.8224
X5.3181Y-6.6945
X5.3181Y-8.0724
X5.6118Y-5.7555
X5.6118Y-7.1335
X5.6118Y-8.5114
X5.7118Y-6.0055
X5.7118Y-7.3835
X5.7118Y-8.7614
X6.0055Y-6.4445
X6.0055Y-7.8224
X6.1055Y-6.6945
X6.1055Y-8.0724
X6.3992Y-5.7555
X6.3992Y-7.1335
X6.3992Y-8.5114
X6.4992Y-6.0055
X6.4992Y-7.3835
X6.4992Y-8.7614
X6.7929Y-6.4445
X6.7929Y-7.8224
X6.8929Y-6.6945
X6.8929Y-8.0724
X7.1866Y-5.7555
X7.1866Y-7.1335
X7.1866Y-8.5114
X7.2866Y-6.0055
X7.2866Y-7.3835
X7.2866Y-8.7614
X7.5803Y-6.4445
X7.5803Y-7.8224
X7.6803Y-6.6945
X7.6803Y-8.0724
X7.974Y-5.7555
X7.974Y-7.1335
X7.974Y-8.5114
X8.074Y-6.0055
X8.074Y-7.3835
X8.074Y-8.7614
X8.3677Y-6.4445
X8.3677Y-7.8224
X8.4677Y-6.6945
X8.4677Y-8.0724
X8.7614Y-5.7555
X8.7614Y-7.1335
X8.7614Y-8.5114
X8.8614Y-6.0055
X8.8614Y-7.3835
X8.8614Y-8.7614
X9.1551Y-6.4445
X9.1551Y-7.8224
X9.2551Y-6.6945
X9.2551Y-8.0724
X9.5488Y-5.7555
X9.5488Y-7.1335
X9.5488Y-8.5114
X9.6488Y-6.0055
X9.6488Y-7.3835
X9.6488Y-8.7614
X9.9425Y-6.4445
X9.9425Y-7.8224
X10.0425Y-6.6945
X10.0425Y-8.0724
X10.3362Y-5.7555
X10.3362Y-7.1335
X10.3362Y-8.5114
X10.4362Y-6.0055
X10.4362Y-7.3835
X10.4362Y-8.7614
X10.7299Y-6.4445
X10.7299Y-7.8224
X10.8299Y-6.6945
X10.8299Y-8.0724
X11.1236Y-5.7555
X11.1236Y-7.1335
X11.1236Y-8.5114
X11.2236Y-6.0055
X11.2236Y-7.3835
X11.2236Y-8.7614
X11.5173Y-6.4445
X11.5173Y-7.8224
X11.6173Y-6.6945
X11.6173Y-8.0724
X11.911Y-5.7555
X11.911Y-7.1335
X11.911Y-8.5114
X12.011Y-6.0055
X12.011Y-7.3835
X12.011Y-8.7614
X12.3047Y-6.4445
X12.3047Y-7.8224
X12.4047Y-6.6945
X12.4047Y-8.0724
X12.6984Y-5.7555
X12.6984Y-7.1335
X12.6984Y-8.5114
X12.7984Y-6.0055
X12.7984Y-7.3835
X12.7984Y-8.7614
X13.0921Y-6.4445
X13.0921Y-7.8224
X13.1921Y-6.6945
X13.1921Y-8.0724
X13.4858Y-5.7555
X13.4858Y-7.1335
X13.4858Y-8.5114
X13.5858Y-6.0055
X13.5858Y-7.3835
X13.5858Y-8.7614
X13.8795Y-6.4445
X13.8795Y-7.8224
X13.9795Y-6.6945
X13.9795Y-8.0724
X14.2732Y-5.7555
X14.2732Y-7.1335
X14.2732Y-8.5114
X14.3732Y-6.0055
X14.3732Y-7.3835
X14.3732Y-8.7614
X14.6669Y-6.4445
X14.6669Y-7.8224
X14.7669Y-6.6945
X14.7669Y-8.0724
X15.0606Y-5.7555
X15.0606Y-7.1335
X15.0606Y-8.5114
X15.1606Y-6.0055
X15.1606Y-7.3835
X15.1606Y-8.7614
X15.4543Y-6.4445
X15.4543Y-7.8224
X15.5543Y-6.6945
X15.5543Y-8.0724
T0
M30
