M48
; DRILL file {KiCad 6.0.11+dfsg-1} date Sa 19 Apr 2025 12:41:31
; FORMAT={-:-/ absolute / inch / decimal}
; #@! TF.CreationDate,2025-04-19T12:41:31+02:00
; #@! TF.GenerationSoftware,Kicad,Pcbnew,6.0.11+dfsg-1
; #@! TF.FileFunction,NonPlated,1,2,NPTH
FMAT,2
INCH
; #@! TA.AperFunction,NonPlated,NPTH,ComponentDrill
T1C0.1260
; #@! TA.AperFunction,NonPlated,NPTH,ComponentDrill
T2C0.1535
%
G90
G05
T1
X1.1811Y-4.7244
X1.1811Y-9.0157
X4.3307Y-4.7244
X4.3307Y-9.0157
X8.2677Y-4.7244
X8.2677Y-9.0157
X11.4173Y-4.7244
X12.2047Y-9.0157
X15.3543Y-4.7244
X15.3543Y-9.0157
T2
X1.1811Y-6.5945
X1.1811Y-7.9724
X1.5748Y-5.9055
X1.5748Y-7.2835
X1.5748Y-8.6614
X1.9685Y-6.5945
X1.9685Y-7.9724
X2.3622Y-5.9055
X2.3622Y-7.2835
X2.3622Y-8.6614
X2.7559Y-6.5945
X2.7559Y-7.9724
X3.1496Y-5.9055
X3.1496Y-7.2835
X3.1496Y-8.6614
X3.5433Y-6.5945
X3.5433Y-7.9724
X3.937Y-5.9055
X3.937Y-7.2835
X3.937Y-8.6614
X4.3307Y-6.5945
X4.3307Y-7.9724
X4.7244Y-5.9055
X4.7244Y-7.2835
X4.7244Y-8.6614
X5.1181Y-6.5945
X5.1181Y-7.9724
X5.5118Y-5.9055
X5.5118Y-7.2835
X5.5118Y-8.6614
X5.9055Y-6.5945
X5.9055Y-7.9724
X6.2992Y-5.9055
X6.2992Y-7.2835
X6.2992Y-8.6614
X6.6929Y-6.5945
X6.6929Y-7.9724
X7.0866Y-5.9055
X7.0866Y-7.2835
X7.0866Y-8.6614
X7.4803Y-6.5945
X7.4803Y-7.9724
X7.874Y-5.9055
X7.874Y-7.2835
X7.874Y-8.6614
X8.2677Y-6.5945
X8.2677Y-7.9724
X8.6614Y-5.9055
X8.6614Y-7.2835
X8.6614Y-8.6614
X9.0551Y-6.5945
X9.0551Y-7.9724
X9.4488Y-5.9055
X9.4488Y-7.2835
X9.4488Y-8.6614
X9.8425Y-6.5945
X9.8425Y-7.9724
X10.2362Y-5.9055
X10.2362Y-7.2835
X10.2362Y-8.6614
X10.6299Y-6.5945
X10.6299Y-7.9724
X11.0236Y-5.9055
X11.0236Y-7.2835
X11.0236Y-8.6614
X11.4173Y-6.5945
X11.4173Y-7.9724
X11.811Y-5.9055
X11.811Y-7.2835
X11.811Y-8.6614
X12.2047Y-6.5945
X12.2047Y-7.9724
X12.5984Y-5.9055
X12.5984Y-7.2835
X12.5984Y-8.6614
X12.9921Y-6.5945
X12.9921Y-7.9724
X13.3858Y-5.9055
X13.3858Y-7.2835
X13.3858Y-8.6614
X13.7795Y-6.5945
X13.7795Y-7.9724
X14.1732Y-5.9055
X14.1732Y-7.2835
X14.1732Y-8.6614
X14.5669Y-6.5945
X14.5669Y-7.9724
X14.9606Y-5.9055
X14.9606Y-7.2835
X14.9606Y-8.6614
X15.3543Y-6.5945
X15.3543Y-7.9724
T0
M30
