%TF.GenerationSoftware,KiCad,Pcbnew,6.0.11+dfsg-1*%
%TF.CreationDate,2025-05-09T07:28:30+02:00*%
%TF.ProjectId,AkkordeonDiskant,416b6b6f-7264-4656-9f6e-4469736b616e,rev?*%
%TF.SameCoordinates,Original*%
%TF.FileFunction,Legend,Top*%
%TF.FilePolarity,Positive*%
%FSLAX46Y46*%
G04 Gerber Fmt 4.6, Leading zero omitted, Abs format (unit mm)*
G04 Created by KiCad (PCBNEW 6.0.11+dfsg-1) date 2025-05-09 07:28:30*
%MOMM*%
%LPD*%
G01*
G04 APERTURE LIST*
%ADD10C,0.300000*%
%ADD11C,0.150000*%
%ADD12C,0.120000*%
G04 APERTURE END LIST*
D10*
X328328428Y-126948333D02*
X329280809Y-126948333D01*
X328137952Y-127519761D02*
X328804619Y-125519761D01*
X329471285Y-127519761D01*
X330137952Y-127519761D02*
X330137952Y-125519761D01*
X330328428Y-126757857D02*
X330899857Y-127519761D01*
X330899857Y-126186428D02*
X330137952Y-126948333D01*
X331757000Y-127519761D02*
X331757000Y-125519761D01*
X331947476Y-126757857D02*
X332518904Y-127519761D01*
X332518904Y-126186428D02*
X331757000Y-126948333D01*
X333661761Y-127519761D02*
X333471285Y-127424523D01*
X333376047Y-127329285D01*
X333280809Y-127138809D01*
X333280809Y-126567380D01*
X333376047Y-126376904D01*
X333471285Y-126281666D01*
X333661761Y-126186428D01*
X333947476Y-126186428D01*
X334137952Y-126281666D01*
X334233190Y-126376904D01*
X334328428Y-126567380D01*
X334328428Y-127138809D01*
X334233190Y-127329285D01*
X334137952Y-127424523D01*
X333947476Y-127519761D01*
X333661761Y-127519761D01*
X335185571Y-127519761D02*
X335185571Y-126186428D01*
X335185571Y-126567380D02*
X335280809Y-126376904D01*
X335376047Y-126281666D01*
X335566523Y-126186428D01*
X335757000Y-126186428D01*
X337280809Y-127519761D02*
X337280809Y-125519761D01*
X337280809Y-127424523D02*
X337090333Y-127519761D01*
X336709380Y-127519761D01*
X336518904Y-127424523D01*
X336423666Y-127329285D01*
X336328428Y-127138809D01*
X336328428Y-126567380D01*
X336423666Y-126376904D01*
X336518904Y-126281666D01*
X336709380Y-126186428D01*
X337090333Y-126186428D01*
X337280809Y-126281666D01*
X338995095Y-127424523D02*
X338804619Y-127519761D01*
X338423666Y-127519761D01*
X338233190Y-127424523D01*
X338137952Y-127234047D01*
X338137952Y-126472142D01*
X338233190Y-126281666D01*
X338423666Y-126186428D01*
X338804619Y-126186428D01*
X338995095Y-126281666D01*
X339090333Y-126472142D01*
X339090333Y-126662619D01*
X338137952Y-126853095D01*
X340233190Y-127519761D02*
X340042714Y-127424523D01*
X339947476Y-127329285D01*
X339852238Y-127138809D01*
X339852238Y-126567380D01*
X339947476Y-126376904D01*
X340042714Y-126281666D01*
X340233190Y-126186428D01*
X340518904Y-126186428D01*
X340709380Y-126281666D01*
X340804619Y-126376904D01*
X340899857Y-126567380D01*
X340899857Y-127138809D01*
X340804619Y-127329285D01*
X340709380Y-127424523D01*
X340518904Y-127519761D01*
X340233190Y-127519761D01*
X341757000Y-126186428D02*
X341757000Y-127519761D01*
X341757000Y-126376904D02*
X341852238Y-126281666D01*
X342042714Y-126186428D01*
X342328428Y-126186428D01*
X342518904Y-126281666D01*
X342614142Y-126472142D01*
X342614142Y-127519761D01*
X345090333Y-127519761D02*
X345090333Y-125519761D01*
X345566523Y-125519761D01*
X345852238Y-125615000D01*
X346042714Y-125805476D01*
X346137952Y-125995952D01*
X346233190Y-126376904D01*
X346233190Y-126662619D01*
X346137952Y-127043571D01*
X346042714Y-127234047D01*
X345852238Y-127424523D01*
X345566523Y-127519761D01*
X345090333Y-127519761D01*
X347090333Y-127519761D02*
X347090333Y-126186428D01*
X347090333Y-125519761D02*
X346995095Y-125615000D01*
X347090333Y-125710238D01*
X347185571Y-125615000D01*
X347090333Y-125519761D01*
X347090333Y-125710238D01*
X347947476Y-127424523D02*
X348137952Y-127519761D01*
X348518904Y-127519761D01*
X348709380Y-127424523D01*
X348804619Y-127234047D01*
X348804619Y-127138809D01*
X348709380Y-126948333D01*
X348518904Y-126853095D01*
X348233190Y-126853095D01*
X348042714Y-126757857D01*
X347947476Y-126567380D01*
X347947476Y-126472142D01*
X348042714Y-126281666D01*
X348233190Y-126186428D01*
X348518904Y-126186428D01*
X348709380Y-126281666D01*
X349661761Y-127519761D02*
X349661761Y-125519761D01*
X349852238Y-126757857D02*
X350423666Y-127519761D01*
X350423666Y-126186428D02*
X349661761Y-126948333D01*
X352137952Y-127519761D02*
X352137952Y-126472142D01*
X352042714Y-126281666D01*
X351852238Y-126186428D01*
X351471285Y-126186428D01*
X351280809Y-126281666D01*
X352137952Y-127424523D02*
X351947476Y-127519761D01*
X351471285Y-127519761D01*
X351280809Y-127424523D01*
X351185571Y-127234047D01*
X351185571Y-127043571D01*
X351280809Y-126853095D01*
X351471285Y-126757857D01*
X351947476Y-126757857D01*
X352137952Y-126662619D01*
X353090333Y-126186428D02*
X353090333Y-127519761D01*
X353090333Y-126376904D02*
X353185571Y-126281666D01*
X353376047Y-126186428D01*
X353661761Y-126186428D01*
X353852238Y-126281666D01*
X353947476Y-126472142D01*
X353947476Y-127519761D01*
X354614142Y-126186428D02*
X355376047Y-126186428D01*
X354899857Y-125519761D02*
X354899857Y-127234047D01*
X354995095Y-127424523D01*
X355185571Y-127519761D01*
X355376047Y-127519761D01*
X303995095Y-130549285D02*
X303899857Y-130644523D01*
X303614142Y-130739761D01*
X303423666Y-130739761D01*
X303137952Y-130644523D01*
X302947476Y-130454047D01*
X302852238Y-130263571D01*
X302757000Y-129882619D01*
X302757000Y-129596904D01*
X302852238Y-129215952D01*
X302947476Y-129025476D01*
X303137952Y-128835000D01*
X303423666Y-128739761D01*
X303614142Y-128739761D01*
X303899857Y-128835000D01*
X303995095Y-128930238D01*
X305137952Y-130739761D02*
X304947476Y-130644523D01*
X304852238Y-130549285D01*
X304757000Y-130358809D01*
X304757000Y-129787380D01*
X304852238Y-129596904D01*
X304947476Y-129501666D01*
X305137952Y-129406428D01*
X305423666Y-129406428D01*
X305614142Y-129501666D01*
X305709380Y-129596904D01*
X305804619Y-129787380D01*
X305804619Y-130358809D01*
X305709380Y-130549285D01*
X305614142Y-130644523D01*
X305423666Y-130739761D01*
X305137952Y-130739761D01*
X306661761Y-129406428D02*
X306661761Y-131406428D01*
X306661761Y-129501666D02*
X306852238Y-129406428D01*
X307233190Y-129406428D01*
X307423666Y-129501666D01*
X307518904Y-129596904D01*
X307614142Y-129787380D01*
X307614142Y-130358809D01*
X307518904Y-130549285D01*
X307423666Y-130644523D01*
X307233190Y-130739761D01*
X306852238Y-130739761D01*
X306661761Y-130644523D01*
X308280809Y-129406428D02*
X308757000Y-130739761D01*
X309233190Y-129406428D02*
X308757000Y-130739761D01*
X308566523Y-131215952D01*
X308471285Y-131311190D01*
X308280809Y-131406428D01*
X309995095Y-130739761D02*
X309995095Y-129406428D01*
X309995095Y-129787380D02*
X310090333Y-129596904D01*
X310185571Y-129501666D01*
X310376047Y-129406428D01*
X310566523Y-129406428D01*
X311233190Y-130739761D02*
X311233190Y-129406428D01*
X311233190Y-128739761D02*
X311137952Y-128835000D01*
X311233190Y-128930238D01*
X311328428Y-128835000D01*
X311233190Y-128739761D01*
X311233190Y-128930238D01*
X313042714Y-129406428D02*
X313042714Y-131025476D01*
X312947476Y-131215952D01*
X312852238Y-131311190D01*
X312661761Y-131406428D01*
X312376047Y-131406428D01*
X312185571Y-131311190D01*
X313042714Y-130644523D02*
X312852238Y-130739761D01*
X312471285Y-130739761D01*
X312280809Y-130644523D01*
X312185571Y-130549285D01*
X312090333Y-130358809D01*
X312090333Y-129787380D01*
X312185571Y-129596904D01*
X312280809Y-129501666D01*
X312471285Y-129406428D01*
X312852238Y-129406428D01*
X313042714Y-129501666D01*
X313995095Y-130739761D02*
X313995095Y-128739761D01*
X314852238Y-130739761D02*
X314852238Y-129692142D01*
X314757000Y-129501666D01*
X314566523Y-129406428D01*
X314280809Y-129406428D01*
X314090333Y-129501666D01*
X313995095Y-129596904D01*
X315518904Y-129406428D02*
X316280809Y-129406428D01*
X315804619Y-128739761D02*
X315804619Y-130454047D01*
X315899857Y-130644523D01*
X316090333Y-130739761D01*
X316280809Y-130739761D01*
X318376047Y-128930238D02*
X318471285Y-128835000D01*
X318661761Y-128739761D01*
X319137952Y-128739761D01*
X319328428Y-128835000D01*
X319423666Y-128930238D01*
X319518904Y-129120714D01*
X319518904Y-129311190D01*
X319423666Y-129596904D01*
X318280809Y-130739761D01*
X319518904Y-130739761D01*
X320757000Y-128739761D02*
X320947476Y-128739761D01*
X321137952Y-128835000D01*
X321233190Y-128930238D01*
X321328428Y-129120714D01*
X321423666Y-129501666D01*
X321423666Y-129977857D01*
X321328428Y-130358809D01*
X321233190Y-130549285D01*
X321137952Y-130644523D01*
X320947476Y-130739761D01*
X320757000Y-130739761D01*
X320566523Y-130644523D01*
X320471285Y-130549285D01*
X320376047Y-130358809D01*
X320280809Y-129977857D01*
X320280809Y-129501666D01*
X320376047Y-129120714D01*
X320471285Y-128930238D01*
X320566523Y-128835000D01*
X320757000Y-128739761D01*
X322185571Y-128930238D02*
X322280809Y-128835000D01*
X322471285Y-128739761D01*
X322947476Y-128739761D01*
X323137952Y-128835000D01*
X323233190Y-128930238D01*
X323328428Y-129120714D01*
X323328428Y-129311190D01*
X323233190Y-129596904D01*
X322090333Y-130739761D01*
X323328428Y-130739761D01*
X325137952Y-128739761D02*
X324185571Y-128739761D01*
X324090333Y-129692142D01*
X324185571Y-129596904D01*
X324376047Y-129501666D01*
X324852238Y-129501666D01*
X325042714Y-129596904D01*
X325137952Y-129692142D01*
X325233190Y-129882619D01*
X325233190Y-130358809D01*
X325137952Y-130549285D01*
X325042714Y-130644523D01*
X324852238Y-130739761D01*
X324376047Y-130739761D01*
X324185571Y-130644523D01*
X324090333Y-130549285D01*
X328185571Y-128739761D02*
X328185571Y-130168333D01*
X328090333Y-130454047D01*
X327899857Y-130644523D01*
X327614142Y-130739761D01*
X327423666Y-130739761D01*
X329995095Y-129406428D02*
X329995095Y-130739761D01*
X329137952Y-129406428D02*
X329137952Y-130454047D01*
X329233190Y-130644523D01*
X329423666Y-130739761D01*
X329709380Y-130739761D01*
X329899857Y-130644523D01*
X329995095Y-130549285D01*
X329233190Y-128739761D02*
X329328428Y-128835000D01*
X329233190Y-128930238D01*
X329137952Y-128835000D01*
X329233190Y-128739761D01*
X329233190Y-128930238D01*
X329995095Y-128739761D02*
X330090333Y-128835000D01*
X329995095Y-128930238D01*
X329899857Y-128835000D01*
X329995095Y-128739761D01*
X329995095Y-128930238D01*
X330947476Y-130739761D02*
X330947476Y-129406428D01*
X330947476Y-129787380D02*
X331042714Y-129596904D01*
X331137952Y-129501666D01*
X331328428Y-129406428D01*
X331518904Y-129406428D01*
X333042714Y-129406428D02*
X333042714Y-131025476D01*
X332947476Y-131215952D01*
X332852238Y-131311190D01*
X332661761Y-131406428D01*
X332376047Y-131406428D01*
X332185571Y-131311190D01*
X333042714Y-130644523D02*
X332852238Y-130739761D01*
X332471285Y-130739761D01*
X332280809Y-130644523D01*
X332185571Y-130549285D01*
X332090333Y-130358809D01*
X332090333Y-129787380D01*
X332185571Y-129596904D01*
X332280809Y-129501666D01*
X332471285Y-129406428D01*
X332852238Y-129406428D01*
X333042714Y-129501666D01*
X335518904Y-130739761D02*
X335518904Y-128739761D01*
X336185571Y-130168333D01*
X336852238Y-128739761D01*
X336852238Y-130739761D01*
X338661761Y-129406428D02*
X338661761Y-130739761D01*
X337804619Y-129406428D02*
X337804619Y-130454047D01*
X337899857Y-130644523D01*
X338090333Y-130739761D01*
X338376047Y-130739761D01*
X338566523Y-130644523D01*
X338661761Y-130549285D01*
X337899857Y-128739761D02*
X337995095Y-128835000D01*
X337899857Y-128930238D01*
X337804619Y-128835000D01*
X337899857Y-128739761D01*
X337899857Y-128930238D01*
X338661761Y-128739761D02*
X338757000Y-128835000D01*
X338661761Y-128930238D01*
X338566523Y-128835000D01*
X338661761Y-128739761D01*
X338661761Y-128930238D01*
X339899857Y-130739761D02*
X339709380Y-130644523D01*
X339614142Y-130454047D01*
X339614142Y-128739761D01*
X340947476Y-130739761D02*
X340757000Y-130644523D01*
X340661761Y-130454047D01*
X340661761Y-128739761D01*
X342471285Y-130644523D02*
X342280809Y-130739761D01*
X341899857Y-130739761D01*
X341709380Y-130644523D01*
X341614142Y-130454047D01*
X341614142Y-129692142D01*
X341709380Y-129501666D01*
X341899857Y-129406428D01*
X342280809Y-129406428D01*
X342471285Y-129501666D01*
X342566523Y-129692142D01*
X342566523Y-129882619D01*
X341614142Y-130073095D01*
X343423666Y-130739761D02*
X343423666Y-129406428D01*
X343423666Y-129787380D02*
X343518904Y-129596904D01*
X343614142Y-129501666D01*
X343804619Y-129406428D01*
X343995095Y-129406428D01*
X344757000Y-130644523D02*
X344757000Y-130739761D01*
X344661761Y-130930238D01*
X344566523Y-131025476D01*
X348280809Y-130549285D02*
X348185571Y-130644523D01*
X347899857Y-130739761D01*
X347709380Y-130739761D01*
X347423666Y-130644523D01*
X347233190Y-130454047D01*
X347137952Y-130263571D01*
X347042714Y-129882619D01*
X347042714Y-129596904D01*
X347137952Y-129215952D01*
X347233190Y-129025476D01*
X347423666Y-128835000D01*
X347709380Y-128739761D01*
X347899857Y-128739761D01*
X348185571Y-128835000D01*
X348280809Y-128930238D01*
X349137952Y-130739761D02*
X349137952Y-128739761D01*
X349137952Y-129692142D02*
X350280809Y-129692142D01*
X350280809Y-130739761D02*
X350280809Y-128739761D01*
X351233190Y-129977857D02*
X352757000Y-129977857D01*
X354661761Y-128739761D02*
X353709380Y-128739761D01*
X353614142Y-129692142D01*
X353709380Y-129596904D01*
X353899857Y-129501666D01*
X354376047Y-129501666D01*
X354566523Y-129596904D01*
X354661761Y-129692142D01*
X354757000Y-129882619D01*
X354757000Y-130358809D01*
X354661761Y-130549285D01*
X354566523Y-130644523D01*
X354376047Y-130739761D01*
X353899857Y-130739761D01*
X353709380Y-130644523D01*
X353614142Y-130549285D01*
X356566523Y-128739761D02*
X355614142Y-128739761D01*
X355518904Y-129692142D01*
X355614142Y-129596904D01*
X355804619Y-129501666D01*
X356280809Y-129501666D01*
X356471285Y-129596904D01*
X356566523Y-129692142D01*
X356661761Y-129882619D01*
X356661761Y-130358809D01*
X356566523Y-130549285D01*
X356471285Y-130644523D01*
X356280809Y-130739761D01*
X355804619Y-130739761D01*
X355614142Y-130644523D01*
X355518904Y-130549285D01*
X357423666Y-128930238D02*
X357518904Y-128835000D01*
X357709380Y-128739761D01*
X358185571Y-128739761D01*
X358376047Y-128835000D01*
X358471285Y-128930238D01*
X358566523Y-129120714D01*
X358566523Y-129311190D01*
X358471285Y-129596904D01*
X357328428Y-130739761D01*
X358566523Y-130739761D01*
X360280809Y-129406428D02*
X360280809Y-130739761D01*
X359804619Y-128644523D02*
X359328428Y-130073095D01*
X360566523Y-130073095D01*
X362852238Y-130739761D02*
X362852238Y-128739761D01*
X363995095Y-130739761D01*
X363995095Y-128739761D01*
X365709380Y-130644523D02*
X365518904Y-130739761D01*
X365137952Y-130739761D01*
X364947476Y-130644523D01*
X364852238Y-130454047D01*
X364852238Y-129692142D01*
X364947476Y-129501666D01*
X365137952Y-129406428D01*
X365518904Y-129406428D01*
X365709380Y-129501666D01*
X365804619Y-129692142D01*
X365804619Y-129882619D01*
X364852238Y-130073095D01*
X366566523Y-130644523D02*
X366757000Y-130739761D01*
X367137952Y-130739761D01*
X367328428Y-130644523D01*
X367423666Y-130454047D01*
X367423666Y-130358809D01*
X367328428Y-130168333D01*
X367137952Y-130073095D01*
X366852238Y-130073095D01*
X366661761Y-129977857D01*
X366566523Y-129787380D01*
X366566523Y-129692142D01*
X366661761Y-129501666D01*
X366852238Y-129406428D01*
X367137952Y-129406428D01*
X367328428Y-129501666D01*
X368185571Y-130644523D02*
X368376047Y-130739761D01*
X368757000Y-130739761D01*
X368947476Y-130644523D01*
X369042714Y-130454047D01*
X369042714Y-130358809D01*
X368947476Y-130168333D01*
X368757000Y-130073095D01*
X368471285Y-130073095D01*
X368280809Y-129977857D01*
X368185571Y-129787380D01*
X368185571Y-129692142D01*
X368280809Y-129501666D01*
X368471285Y-129406428D01*
X368757000Y-129406428D01*
X368947476Y-129501666D01*
X370661761Y-130644523D02*
X370471285Y-130739761D01*
X370090333Y-130739761D01*
X369899857Y-130644523D01*
X369804619Y-130454047D01*
X369804619Y-129692142D01*
X369899857Y-129501666D01*
X370090333Y-129406428D01*
X370471285Y-129406428D01*
X370661761Y-129501666D01*
X370757000Y-129692142D01*
X370757000Y-129882619D01*
X369804619Y-130073095D01*
X371899857Y-130739761D02*
X371709380Y-130644523D01*
X371614142Y-130454047D01*
X371614142Y-128739761D01*
X372661761Y-129406428D02*
X372661761Y-130739761D01*
X372661761Y-129596904D02*
X372757000Y-129501666D01*
X372947476Y-129406428D01*
X373233190Y-129406428D01*
X373423666Y-129501666D01*
X373518904Y-129692142D01*
X373518904Y-130739761D01*
X374471285Y-130739761D02*
X374471285Y-128739761D01*
X374471285Y-129501666D02*
X374661761Y-129406428D01*
X375042714Y-129406428D01*
X375233190Y-129501666D01*
X375328428Y-129596904D01*
X375423666Y-129787380D01*
X375423666Y-130358809D01*
X375328428Y-130549285D01*
X375233190Y-130644523D01*
X375042714Y-130739761D01*
X374661761Y-130739761D01*
X374471285Y-130644523D01*
X377137952Y-130739761D02*
X377137952Y-129692142D01*
X377042714Y-129501666D01*
X376852238Y-129406428D01*
X376471285Y-129406428D01*
X376280809Y-129501666D01*
X377137952Y-130644523D02*
X376947476Y-130739761D01*
X376471285Y-130739761D01*
X376280809Y-130644523D01*
X376185571Y-130454047D01*
X376185571Y-130263571D01*
X376280809Y-130073095D01*
X376471285Y-129977857D01*
X376947476Y-129977857D01*
X377137952Y-129882619D01*
X378947476Y-130644523D02*
X378757000Y-130739761D01*
X378376047Y-130739761D01*
X378185571Y-130644523D01*
X378090333Y-130549285D01*
X377995095Y-130358809D01*
X377995095Y-129787380D01*
X378090333Y-129596904D01*
X378185571Y-129501666D01*
X378376047Y-129406428D01*
X378757000Y-129406428D01*
X378947476Y-129501666D01*
X379804619Y-130739761D02*
X379804619Y-128739761D01*
X380661761Y-130739761D02*
X380661761Y-129692142D01*
X380566523Y-129501666D01*
X380376047Y-129406428D01*
X380090333Y-129406428D01*
X379899857Y-129501666D01*
X379804619Y-129596904D01*
X325804619Y-132150238D02*
X325899857Y-132055000D01*
X326090333Y-131959761D01*
X326566523Y-131959761D01*
X326757000Y-132055000D01*
X326852238Y-132150238D01*
X326947476Y-132340714D01*
X326947476Y-132531190D01*
X326852238Y-132816904D01*
X325709380Y-133959761D01*
X326947476Y-133959761D01*
X328185571Y-131959761D02*
X328376047Y-131959761D01*
X328566523Y-132055000D01*
X328661761Y-132150238D01*
X328757000Y-132340714D01*
X328852238Y-132721666D01*
X328852238Y-133197857D01*
X328757000Y-133578809D01*
X328661761Y-133769285D01*
X328566523Y-133864523D01*
X328376047Y-133959761D01*
X328185571Y-133959761D01*
X327995095Y-133864523D01*
X327899857Y-133769285D01*
X327804619Y-133578809D01*
X327709380Y-133197857D01*
X327709380Y-132721666D01*
X327804619Y-132340714D01*
X327899857Y-132150238D01*
X327995095Y-132055000D01*
X328185571Y-131959761D01*
X331233190Y-133959761D02*
X331233190Y-132626428D01*
X331233190Y-132816904D02*
X331328428Y-132721666D01*
X331518904Y-132626428D01*
X331804619Y-132626428D01*
X331995095Y-132721666D01*
X332090333Y-132912142D01*
X332090333Y-133959761D01*
X332090333Y-132912142D02*
X332185571Y-132721666D01*
X332376047Y-132626428D01*
X332661761Y-132626428D01*
X332852238Y-132721666D01*
X332947476Y-132912142D01*
X332947476Y-133959761D01*
X333899857Y-133959761D02*
X333899857Y-132626428D01*
X333899857Y-132816904D02*
X333995095Y-132721666D01*
X334185571Y-132626428D01*
X334471285Y-132626428D01*
X334661761Y-132721666D01*
X334757000Y-132912142D01*
X334757000Y-133959761D01*
X334757000Y-132912142D02*
X334852238Y-132721666D01*
X335042714Y-132626428D01*
X335328428Y-132626428D01*
X335518904Y-132721666D01*
X335614142Y-132912142D01*
X335614142Y-133959761D01*
X338947476Y-132626428D02*
X338947476Y-133959761D01*
X338090333Y-132626428D02*
X338090333Y-133674047D01*
X338185571Y-133864523D01*
X338376047Y-133959761D01*
X338661761Y-133959761D01*
X338852238Y-133864523D01*
X338947476Y-133769285D01*
X339899857Y-132626428D02*
X339899857Y-133959761D01*
X339899857Y-132816904D02*
X339995095Y-132721666D01*
X340185571Y-132626428D01*
X340471285Y-132626428D01*
X340661761Y-132721666D01*
X340757000Y-132912142D01*
X340757000Y-133959761D01*
X342566523Y-133959761D02*
X342566523Y-131959761D01*
X342566523Y-133864523D02*
X342376047Y-133959761D01*
X341995095Y-133959761D01*
X341804619Y-133864523D01*
X341709380Y-133769285D01*
X341614142Y-133578809D01*
X341614142Y-133007380D01*
X341709380Y-132816904D01*
X341804619Y-132721666D01*
X341995095Y-132626428D01*
X342376047Y-132626428D01*
X342566523Y-132721666D01*
X346090333Y-133959761D02*
X344947476Y-133959761D01*
X345518904Y-133959761D02*
X345518904Y-131959761D01*
X345328428Y-132245476D01*
X345137952Y-132435952D01*
X344947476Y-132531190D01*
X346757000Y-131959761D02*
X348090333Y-131959761D01*
X347233190Y-133959761D01*
X348852238Y-133769285D02*
X348947476Y-133864523D01*
X348852238Y-133959761D01*
X348757000Y-133864523D01*
X348852238Y-133769285D01*
X348852238Y-133959761D01*
X350757000Y-131959761D02*
X349804619Y-131959761D01*
X349709380Y-132912142D01*
X349804619Y-132816904D01*
X349995095Y-132721666D01*
X350471285Y-132721666D01*
X350661761Y-132816904D01*
X350757000Y-132912142D01*
X350852238Y-133102619D01*
X350852238Y-133578809D01*
X350757000Y-133769285D01*
X350661761Y-133864523D01*
X350471285Y-133959761D01*
X349995095Y-133959761D01*
X349804619Y-133864523D01*
X349709380Y-133769285D01*
X353233190Y-133959761D02*
X353233190Y-132626428D01*
X353233190Y-132816904D02*
X353328428Y-132721666D01*
X353518904Y-132626428D01*
X353804619Y-132626428D01*
X353995095Y-132721666D01*
X354090333Y-132912142D01*
X354090333Y-133959761D01*
X354090333Y-132912142D02*
X354185571Y-132721666D01*
X354376047Y-132626428D01*
X354661761Y-132626428D01*
X354852238Y-132721666D01*
X354947476Y-132912142D01*
X354947476Y-133959761D01*
X355899857Y-133959761D02*
X355899857Y-132626428D01*
X355899857Y-132816904D02*
X355995095Y-132721666D01*
X356185571Y-132626428D01*
X356471285Y-132626428D01*
X356661761Y-132721666D01*
X356757000Y-132912142D01*
X356757000Y-133959761D01*
X356757000Y-132912142D02*
X356852238Y-132721666D01*
X357042714Y-132626428D01*
X357328428Y-132626428D01*
X357518904Y-132721666D01*
X357614142Y-132912142D01*
X357614142Y-133959761D01*
X329995095Y-137941666D02*
X329899857Y-137846428D01*
X329709380Y-137560714D01*
X329614142Y-137370238D01*
X329518904Y-137084523D01*
X329423666Y-136608333D01*
X329423666Y-136227380D01*
X329518904Y-135751190D01*
X329614142Y-135465476D01*
X329709380Y-135275000D01*
X329899857Y-134989285D01*
X329995095Y-134894047D01*
X331899857Y-137179761D02*
X331233190Y-136227380D01*
X330757000Y-137179761D02*
X330757000Y-135179761D01*
X331518904Y-135179761D01*
X331709380Y-135275000D01*
X331804619Y-135370238D01*
X331899857Y-135560714D01*
X331899857Y-135846428D01*
X331804619Y-136036904D01*
X331709380Y-136132142D01*
X331518904Y-136227380D01*
X330757000Y-136227380D01*
X333518904Y-137084523D02*
X333328428Y-137179761D01*
X332947476Y-137179761D01*
X332757000Y-137084523D01*
X332661761Y-136894047D01*
X332661761Y-136132142D01*
X332757000Y-135941666D01*
X332947476Y-135846428D01*
X333328428Y-135846428D01*
X333518904Y-135941666D01*
X333614142Y-136132142D01*
X333614142Y-136322619D01*
X332661761Y-136513095D01*
X334280809Y-135846428D02*
X334757000Y-137179761D01*
X335233190Y-135846428D01*
X335995095Y-136989285D02*
X336090333Y-137084523D01*
X335995095Y-137179761D01*
X335899857Y-137084523D01*
X335995095Y-136989285D01*
X335995095Y-137179761D01*
X338376047Y-135370238D02*
X338471285Y-135275000D01*
X338661761Y-135179761D01*
X339137952Y-135179761D01*
X339328428Y-135275000D01*
X339423666Y-135370238D01*
X339518904Y-135560714D01*
X339518904Y-135751190D01*
X339423666Y-136036904D01*
X338280809Y-137179761D01*
X339518904Y-137179761D01*
X340757000Y-135179761D02*
X340947476Y-135179761D01*
X341137952Y-135275000D01*
X341233190Y-135370238D01*
X341328428Y-135560714D01*
X341423666Y-135941666D01*
X341423666Y-136417857D01*
X341328428Y-136798809D01*
X341233190Y-136989285D01*
X341137952Y-137084523D01*
X340947476Y-137179761D01*
X340757000Y-137179761D01*
X340566523Y-137084523D01*
X340471285Y-136989285D01*
X340376047Y-136798809D01*
X340280809Y-136417857D01*
X340280809Y-135941666D01*
X340376047Y-135560714D01*
X340471285Y-135370238D01*
X340566523Y-135275000D01*
X340757000Y-135179761D01*
X342185571Y-135370238D02*
X342280809Y-135275000D01*
X342471285Y-135179761D01*
X342947476Y-135179761D01*
X343137952Y-135275000D01*
X343233190Y-135370238D01*
X343328428Y-135560714D01*
X343328428Y-135751190D01*
X343233190Y-136036904D01*
X342090333Y-137179761D01*
X343328428Y-137179761D01*
X345137952Y-135179761D02*
X344185571Y-135179761D01*
X344090333Y-136132142D01*
X344185571Y-136036904D01*
X344376047Y-135941666D01*
X344852238Y-135941666D01*
X345042714Y-136036904D01*
X345137952Y-136132142D01*
X345233190Y-136322619D01*
X345233190Y-136798809D01*
X345137952Y-136989285D01*
X345042714Y-137084523D01*
X344852238Y-137179761D01*
X344376047Y-137179761D01*
X344185571Y-137084523D01*
X344090333Y-136989285D01*
X346471285Y-135179761D02*
X346661761Y-135179761D01*
X346852238Y-135275000D01*
X346947476Y-135370238D01*
X347042714Y-135560714D01*
X347137952Y-135941666D01*
X347137952Y-136417857D01*
X347042714Y-136798809D01*
X346947476Y-136989285D01*
X346852238Y-137084523D01*
X346661761Y-137179761D01*
X346471285Y-137179761D01*
X346280809Y-137084523D01*
X346185571Y-136989285D01*
X346090333Y-136798809D01*
X345995095Y-136417857D01*
X345995095Y-135941666D01*
X346090333Y-135560714D01*
X346185571Y-135370238D01*
X346280809Y-135275000D01*
X346471285Y-135179761D01*
X348947476Y-135179761D02*
X347995095Y-135179761D01*
X347899857Y-136132142D01*
X347995095Y-136036904D01*
X348185571Y-135941666D01*
X348661761Y-135941666D01*
X348852238Y-136036904D01*
X348947476Y-136132142D01*
X349042714Y-136322619D01*
X349042714Y-136798809D01*
X348947476Y-136989285D01*
X348852238Y-137084523D01*
X348661761Y-137179761D01*
X348185571Y-137179761D01*
X347995095Y-137084523D01*
X347899857Y-136989285D01*
X350280809Y-135179761D02*
X350471285Y-135179761D01*
X350661761Y-135275000D01*
X350757000Y-135370238D01*
X350852238Y-135560714D01*
X350947476Y-135941666D01*
X350947476Y-136417857D01*
X350852238Y-136798809D01*
X350757000Y-136989285D01*
X350661761Y-137084523D01*
X350471285Y-137179761D01*
X350280809Y-137179761D01*
X350090333Y-137084523D01*
X349995095Y-136989285D01*
X349899857Y-136798809D01*
X349804619Y-136417857D01*
X349804619Y-135941666D01*
X349899857Y-135560714D01*
X349995095Y-135370238D01*
X350090333Y-135275000D01*
X350280809Y-135179761D01*
X351899857Y-137179761D02*
X352280809Y-137179761D01*
X352471285Y-137084523D01*
X352566523Y-136989285D01*
X352757000Y-136703571D01*
X352852238Y-136322619D01*
X352852238Y-135560714D01*
X352757000Y-135370238D01*
X352661761Y-135275000D01*
X352471285Y-135179761D01*
X352090333Y-135179761D01*
X351899857Y-135275000D01*
X351804619Y-135370238D01*
X351709380Y-135560714D01*
X351709380Y-136036904D01*
X351804619Y-136227380D01*
X351899857Y-136322619D01*
X352090333Y-136417857D01*
X352471285Y-136417857D01*
X352661761Y-136322619D01*
X352757000Y-136227380D01*
X352852238Y-136036904D01*
X353518904Y-137941666D02*
X353614142Y-137846428D01*
X353804619Y-137560714D01*
X353899857Y-137370238D01*
X353995095Y-137084523D01*
X354090333Y-136608333D01*
X354090333Y-136227380D01*
X353995095Y-135751190D01*
X353899857Y-135465476D01*
X353804619Y-135275000D01*
X353614142Y-134989285D01*
X353518904Y-134894047D01*
D11*
%TO.C,R3*%
X151963571Y-137358380D02*
X151392142Y-137358380D01*
X151677857Y-137358380D02*
X151677857Y-136358380D01*
X151582619Y-136501238D01*
X151487380Y-136596476D01*
X151392142Y-136644095D01*
X152582619Y-136358380D02*
X152677857Y-136358380D01*
X152773095Y-136406000D01*
X152820714Y-136453619D01*
X152868333Y-136548857D01*
X152915952Y-136739333D01*
X152915952Y-136977428D01*
X152868333Y-137167904D01*
X152820714Y-137263142D01*
X152773095Y-137310761D01*
X152677857Y-137358380D01*
X152582619Y-137358380D01*
X152487380Y-137310761D01*
X152439761Y-137263142D01*
X152392142Y-137167904D01*
X152344523Y-136977428D01*
X152344523Y-136739333D01*
X152392142Y-136548857D01*
X152439761Y-136453619D01*
X152487380Y-136406000D01*
X152582619Y-136358380D01*
X153535000Y-136358380D02*
X153630238Y-136358380D01*
X153725476Y-136406000D01*
X153773095Y-136453619D01*
X153820714Y-136548857D01*
X153868333Y-136739333D01*
X153868333Y-136977428D01*
X153820714Y-137167904D01*
X153773095Y-137263142D01*
X153725476Y-137310761D01*
X153630238Y-137358380D01*
X153535000Y-137358380D01*
X153439761Y-137310761D01*
X153392142Y-137263142D01*
X153344523Y-137167904D01*
X153296904Y-136977428D01*
X153296904Y-136739333D01*
X153344523Y-136548857D01*
X153392142Y-136453619D01*
X153439761Y-136406000D01*
X153535000Y-136358380D01*
X154296904Y-137358380D02*
X154296904Y-136358380D01*
X154392142Y-136977428D02*
X154677857Y-137358380D01*
X154677857Y-136691714D02*
X154296904Y-137072666D01*
%TO.C,R1*%
X152217571Y-129738380D02*
X151646142Y-129738380D01*
X151931857Y-129738380D02*
X151931857Y-128738380D01*
X151836619Y-128881238D01*
X151741380Y-128976476D01*
X151646142Y-129024095D01*
X152836619Y-128738380D02*
X152931857Y-128738380D01*
X153027095Y-128786000D01*
X153074714Y-128833619D01*
X153122333Y-128928857D01*
X153169952Y-129119333D01*
X153169952Y-129357428D01*
X153122333Y-129547904D01*
X153074714Y-129643142D01*
X153027095Y-129690761D01*
X152931857Y-129738380D01*
X152836619Y-129738380D01*
X152741380Y-129690761D01*
X152693761Y-129643142D01*
X152646142Y-129547904D01*
X152598523Y-129357428D01*
X152598523Y-129119333D01*
X152646142Y-128928857D01*
X152693761Y-128833619D01*
X152741380Y-128786000D01*
X152836619Y-128738380D01*
X153789000Y-128738380D02*
X153884238Y-128738380D01*
X153979476Y-128786000D01*
X154027095Y-128833619D01*
X154074714Y-128928857D01*
X154122333Y-129119333D01*
X154122333Y-129357428D01*
X154074714Y-129547904D01*
X154027095Y-129643142D01*
X153979476Y-129690761D01*
X153884238Y-129738380D01*
X153789000Y-129738380D01*
X153693761Y-129690761D01*
X153646142Y-129643142D01*
X153598523Y-129547904D01*
X153550904Y-129357428D01*
X153550904Y-129119333D01*
X153598523Y-128928857D01*
X153646142Y-128833619D01*
X153693761Y-128786000D01*
X153789000Y-128738380D01*
X154550904Y-129738380D02*
X154550904Y-128738380D01*
X154646142Y-129357428D02*
X154931857Y-129738380D01*
X154931857Y-129071714D02*
X154550904Y-129452666D01*
%TO.C,C1*%
X145192380Y-135612047D02*
X145192380Y-136183476D01*
X145192380Y-135897761D02*
X144192380Y-135897761D01*
X144335238Y-135993000D01*
X144430476Y-136088238D01*
X144478095Y-136183476D01*
X144192380Y-134993000D02*
X144192380Y-134897761D01*
X144240000Y-134802523D01*
X144287619Y-134754904D01*
X144382857Y-134707285D01*
X144573333Y-134659666D01*
X144811428Y-134659666D01*
X145001904Y-134707285D01*
X145097142Y-134754904D01*
X145144761Y-134802523D01*
X145192380Y-134897761D01*
X145192380Y-134993000D01*
X145144761Y-135088238D01*
X145097142Y-135135857D01*
X145001904Y-135183476D01*
X144811428Y-135231095D01*
X144573333Y-135231095D01*
X144382857Y-135183476D01*
X144287619Y-135135857D01*
X144240000Y-135088238D01*
X144192380Y-134993000D01*
X144192380Y-134040619D02*
X144192380Y-133945380D01*
X144240000Y-133850142D01*
X144287619Y-133802523D01*
X144382857Y-133754904D01*
X144573333Y-133707285D01*
X144811428Y-133707285D01*
X145001904Y-133754904D01*
X145097142Y-133802523D01*
X145144761Y-133850142D01*
X145192380Y-133945380D01*
X145192380Y-134040619D01*
X145144761Y-134135857D01*
X145097142Y-134183476D01*
X145001904Y-134231095D01*
X144811428Y-134278714D01*
X144573333Y-134278714D01*
X144382857Y-134231095D01*
X144287619Y-134183476D01*
X144240000Y-134135857D01*
X144192380Y-134040619D01*
X144525714Y-133278714D02*
X145192380Y-133278714D01*
X144620952Y-133278714D02*
X144573333Y-133231095D01*
X144525714Y-133135857D01*
X144525714Y-132993000D01*
X144573333Y-132897761D01*
X144668571Y-132850142D01*
X145192380Y-132850142D01*
%TO.C,R2*%
X151963571Y-133167380D02*
X151392142Y-133167380D01*
X151677857Y-133167380D02*
X151677857Y-132167380D01*
X151582619Y-132310238D01*
X151487380Y-132405476D01*
X151392142Y-132453095D01*
X152582619Y-132167380D02*
X152677857Y-132167380D01*
X152773095Y-132215000D01*
X152820714Y-132262619D01*
X152868333Y-132357857D01*
X152915952Y-132548333D01*
X152915952Y-132786428D01*
X152868333Y-132976904D01*
X152820714Y-133072142D01*
X152773095Y-133119761D01*
X152677857Y-133167380D01*
X152582619Y-133167380D01*
X152487380Y-133119761D01*
X152439761Y-133072142D01*
X152392142Y-132976904D01*
X152344523Y-132786428D01*
X152344523Y-132548333D01*
X152392142Y-132357857D01*
X152439761Y-132262619D01*
X152487380Y-132215000D01*
X152582619Y-132167380D01*
X153535000Y-132167380D02*
X153630238Y-132167380D01*
X153725476Y-132215000D01*
X153773095Y-132262619D01*
X153820714Y-132357857D01*
X153868333Y-132548333D01*
X153868333Y-132786428D01*
X153820714Y-132976904D01*
X153773095Y-133072142D01*
X153725476Y-133119761D01*
X153630238Y-133167380D01*
X153535000Y-133167380D01*
X153439761Y-133119761D01*
X153392142Y-133072142D01*
X153344523Y-132976904D01*
X153296904Y-132786428D01*
X153296904Y-132548333D01*
X153344523Y-132357857D01*
X153392142Y-132262619D01*
X153439761Y-132215000D01*
X153535000Y-132167380D01*
X154296904Y-133167380D02*
X154296904Y-132167380D01*
X154392142Y-132786428D02*
X154677857Y-133167380D01*
X154677857Y-132500714D02*
X154296904Y-132881666D01*
D12*
%TO.C,D76*%
X271002000Y-146274000D02*
X269002000Y-146274000D01*
X270002000Y-150324000D02*
X270002000Y-149674000D01*
X271002000Y-146154000D02*
X269002000Y-146154000D01*
X269002000Y-149674000D02*
X271002000Y-149674000D01*
X271002000Y-149674000D02*
X271002000Y-145434000D01*
X269002000Y-145434000D02*
X269002000Y-149674000D01*
X271002000Y-146034000D02*
X269002000Y-146034000D01*
X271002000Y-145434000D02*
X269002000Y-145434000D01*
X270002000Y-144784000D02*
X270002000Y-145434000D01*
%TO.C,D39*%
X170053000Y-144657000D02*
X170053000Y-145307000D01*
X171053000Y-149547000D02*
X171053000Y-145307000D01*
X169053000Y-149547000D02*
X171053000Y-149547000D01*
X169053000Y-145307000D02*
X169053000Y-149547000D01*
X170053000Y-150197000D02*
X170053000Y-149547000D01*
X171053000Y-146147000D02*
X169053000Y-146147000D01*
X171053000Y-145907000D02*
X169053000Y-145907000D01*
X171053000Y-145307000D02*
X169053000Y-145307000D01*
X171053000Y-146027000D02*
X169053000Y-146027000D01*
%TO.C,D47*%
X329946000Y-220174000D02*
X329946000Y-219524000D01*
X330946000Y-216124000D02*
X328946000Y-216124000D01*
X328946000Y-219524000D02*
X330946000Y-219524000D01*
X330946000Y-216004000D02*
X328946000Y-216004000D01*
X329946000Y-214634000D02*
X329946000Y-215284000D01*
X330946000Y-215884000D02*
X328946000Y-215884000D01*
X330946000Y-215284000D02*
X328946000Y-215284000D01*
X328946000Y-215284000D02*
X328946000Y-219524000D01*
X330946000Y-219524000D02*
X330946000Y-215284000D01*
%TO.C,SW406*%
X122700000Y-160200000D02*
X137300000Y-160200000D01*
X137300000Y-160200000D02*
X137300000Y-174800000D01*
X137300000Y-174800000D02*
X122700000Y-174800000D01*
X122700000Y-174800000D02*
X122700000Y-160200000D01*
%TO.C,SW307*%
X167300000Y-177700000D02*
X167300000Y-192300000D01*
X152700000Y-177700000D02*
X167300000Y-177700000D01*
X167300000Y-192300000D02*
X152700000Y-192300000D01*
X152700000Y-192300000D02*
X152700000Y-177700000D01*
%TO.C,SW205*%
X117300000Y-195200000D02*
X117300000Y-209800000D01*
X102700000Y-209800000D02*
X102700000Y-195200000D01*
X102700000Y-195200000D02*
X117300000Y-195200000D01*
X117300000Y-209800000D02*
X102700000Y-209800000D01*
%TO.C,D73*%
X211058000Y-145434000D02*
X209058000Y-145434000D01*
X211058000Y-146274000D02*
X209058000Y-146274000D01*
X210058000Y-144784000D02*
X210058000Y-145434000D01*
X210058000Y-150324000D02*
X210058000Y-149674000D01*
X209058000Y-145434000D02*
X209058000Y-149674000D01*
X211058000Y-146154000D02*
X209058000Y-146154000D01*
X211058000Y-146034000D02*
X209058000Y-146034000D01*
X211058000Y-149674000D02*
X211058000Y-145434000D01*
X209058000Y-149674000D02*
X211058000Y-149674000D01*
%TO.C,D26*%
X59944000Y-162310000D02*
X59944000Y-162960000D01*
X58944000Y-167200000D02*
X60944000Y-167200000D01*
X59944000Y-167850000D02*
X59944000Y-167200000D01*
X60944000Y-163560000D02*
X58944000Y-163560000D01*
X60944000Y-162960000D02*
X58944000Y-162960000D01*
X60944000Y-167200000D02*
X60944000Y-162960000D01*
X60944000Y-163680000D02*
X58944000Y-163680000D01*
X60944000Y-163800000D02*
X58944000Y-163800000D01*
X58944000Y-162960000D02*
X58944000Y-167200000D01*
%TO.C,D79*%
X331073000Y-144115000D02*
X329073000Y-144115000D01*
X331073000Y-143275000D02*
X329073000Y-143275000D01*
X331073000Y-143875000D02*
X329073000Y-143875000D01*
X331073000Y-147515000D02*
X331073000Y-143275000D01*
X329073000Y-147515000D02*
X331073000Y-147515000D01*
X330073000Y-142625000D02*
X330073000Y-143275000D01*
X330073000Y-148165000D02*
X330073000Y-147515000D01*
X329073000Y-143275000D02*
X329073000Y-147515000D01*
X331073000Y-143995000D02*
X329073000Y-143995000D01*
%TO.C,D68*%
X258969000Y-162960000D02*
X258969000Y-167200000D01*
X260969000Y-163560000D02*
X258969000Y-163560000D01*
X259969000Y-167850000D02*
X259969000Y-167200000D01*
X260969000Y-163680000D02*
X258969000Y-163680000D01*
X260969000Y-162960000D02*
X258969000Y-162960000D01*
X260969000Y-167200000D02*
X260969000Y-162960000D01*
X259969000Y-162310000D02*
X259969000Y-162960000D01*
X260969000Y-163800000D02*
X258969000Y-163800000D01*
X258969000Y-167200000D02*
X260969000Y-167200000D01*
%TO.C,D82*%
X380984000Y-200982000D02*
X380984000Y-196742000D01*
X380984000Y-196742000D02*
X378984000Y-196742000D01*
X378984000Y-200982000D02*
X380984000Y-200982000D01*
X380984000Y-197582000D02*
X378984000Y-197582000D01*
X379984000Y-201632000D02*
X379984000Y-200982000D01*
X380984000Y-197462000D02*
X378984000Y-197462000D01*
X379984000Y-196092000D02*
X379984000Y-196742000D01*
X378984000Y-196742000D02*
X378984000Y-200982000D01*
X380984000Y-197342000D02*
X378984000Y-197342000D01*
%TO.C,D65*%
X200898000Y-163800000D02*
X198898000Y-163800000D01*
X200898000Y-163680000D02*
X198898000Y-163680000D01*
X200898000Y-163560000D02*
X198898000Y-163560000D01*
X200898000Y-162960000D02*
X198898000Y-162960000D01*
X200898000Y-167200000D02*
X200898000Y-162960000D01*
X198898000Y-167200000D02*
X200898000Y-167200000D01*
X199898000Y-167850000D02*
X199898000Y-167200000D01*
X199898000Y-162310000D02*
X199898000Y-162960000D01*
X198898000Y-162960000D02*
X198898000Y-167200000D01*
%TO.C,D53*%
X281035000Y-202125000D02*
X281035000Y-197885000D01*
X280035000Y-197235000D02*
X280035000Y-197885000D01*
X281035000Y-198485000D02*
X279035000Y-198485000D01*
X281035000Y-198605000D02*
X279035000Y-198605000D01*
X281035000Y-197885000D02*
X279035000Y-197885000D01*
X281035000Y-198725000D02*
X279035000Y-198725000D01*
X279035000Y-202125000D02*
X281035000Y-202125000D01*
X279035000Y-197885000D02*
X279035000Y-202125000D01*
X280035000Y-202775000D02*
X280035000Y-202125000D01*
%TO.C,SW211*%
X222700000Y-209800000D02*
X222700000Y-195200000D01*
X237300000Y-195200000D02*
X237300000Y-209800000D01*
X222700000Y-195200000D02*
X237300000Y-195200000D01*
X237300000Y-209800000D02*
X222700000Y-209800000D01*
%TO.C,D90*%
X390033000Y-182137000D02*
X390033000Y-186377000D01*
X392033000Y-182857000D02*
X390033000Y-182857000D01*
X392033000Y-182737000D02*
X390033000Y-182737000D01*
X392033000Y-182137000D02*
X390033000Y-182137000D01*
X392033000Y-186377000D02*
X392033000Y-182137000D01*
X391033000Y-181487000D02*
X391033000Y-182137000D01*
X390033000Y-186377000D02*
X392033000Y-186377000D01*
X391033000Y-187027000D02*
X391033000Y-186377000D01*
X392033000Y-182977000D02*
X390033000Y-182977000D01*
%TO.C,SW202*%
X42700000Y-195200000D02*
X57300000Y-195200000D01*
X57300000Y-195200000D02*
X57300000Y-209800000D01*
X42700000Y-209800000D02*
X42700000Y-195200000D01*
X57300000Y-209800000D02*
X42700000Y-209800000D01*
%TO.C,D81*%
X360918000Y-198478000D02*
X358918000Y-198478000D01*
X360918000Y-197758000D02*
X358918000Y-197758000D01*
X360918000Y-201998000D02*
X360918000Y-197758000D01*
X359918000Y-202648000D02*
X359918000Y-201998000D01*
X358918000Y-201998000D02*
X360918000Y-201998000D01*
X360918000Y-198358000D02*
X358918000Y-198358000D01*
X358918000Y-197758000D02*
X358918000Y-201998000D01*
X359918000Y-197108000D02*
X359918000Y-197758000D01*
X360918000Y-198598000D02*
X358918000Y-198598000D01*
%TO.C,D32*%
X181086000Y-163553000D02*
X179086000Y-163553000D01*
X179086000Y-167073000D02*
X181086000Y-167073000D01*
X180086000Y-167723000D02*
X180086000Y-167073000D01*
X181086000Y-162833000D02*
X179086000Y-162833000D01*
X180086000Y-162183000D02*
X180086000Y-162833000D01*
X181086000Y-163433000D02*
X179086000Y-163433000D01*
X181086000Y-163673000D02*
X179086000Y-163673000D01*
X179086000Y-162833000D02*
X179086000Y-167073000D01*
X181086000Y-167073000D02*
X181086000Y-162833000D01*
%TO.C,D69*%
X279162000Y-162960000D02*
X279162000Y-167200000D01*
X281162000Y-163560000D02*
X279162000Y-163560000D01*
X281162000Y-162960000D02*
X279162000Y-162960000D01*
X281162000Y-163800000D02*
X279162000Y-163800000D01*
X279162000Y-167200000D02*
X281162000Y-167200000D01*
X281162000Y-163680000D02*
X279162000Y-163680000D01*
X281162000Y-167200000D02*
X281162000Y-162960000D01*
X280162000Y-162310000D02*
X280162000Y-162960000D01*
X280162000Y-167850000D02*
X280162000Y-167200000D01*
%TO.C,SW302*%
X52700000Y-192300000D02*
X52700000Y-177700000D01*
X52700000Y-177700000D02*
X67300000Y-177700000D01*
X67300000Y-192300000D02*
X52700000Y-192300000D01*
X67300000Y-177700000D02*
X67300000Y-192300000D01*
%TO.C,SW108*%
X187300000Y-212700000D02*
X187300000Y-227300000D01*
X187300000Y-227300000D02*
X172700000Y-227300000D01*
X172700000Y-227300000D02*
X172700000Y-212700000D01*
X172700000Y-212700000D02*
X187300000Y-212700000D01*
%TO.C,D1*%
X49784000Y-220174000D02*
X49784000Y-219524000D01*
X50784000Y-215884000D02*
X48784000Y-215884000D01*
X50784000Y-215284000D02*
X48784000Y-215284000D01*
X50784000Y-216004000D02*
X48784000Y-216004000D01*
X49784000Y-214634000D02*
X49784000Y-215284000D01*
X50784000Y-216124000D02*
X48784000Y-216124000D01*
X48784000Y-215284000D02*
X48784000Y-219524000D01*
X50784000Y-219524000D02*
X50784000Y-215284000D01*
X48784000Y-219524000D02*
X50784000Y-219524000D01*
%TO.C,D62*%
X311007000Y-184599000D02*
X311007000Y-180359000D01*
X311007000Y-181079000D02*
X309007000Y-181079000D01*
X309007000Y-184599000D02*
X311007000Y-184599000D01*
X311007000Y-181199000D02*
X309007000Y-181199000D01*
X311007000Y-180359000D02*
X309007000Y-180359000D01*
X311007000Y-180959000D02*
X309007000Y-180959000D01*
X310007000Y-179709000D02*
X310007000Y-180359000D01*
X309007000Y-180359000D02*
X309007000Y-184599000D01*
X310007000Y-185249000D02*
X310007000Y-184599000D01*
%TO.C,SW405*%
X102700000Y-174800000D02*
X102700000Y-160200000D01*
X117300000Y-174800000D02*
X102700000Y-174800000D01*
X117300000Y-160200000D02*
X117300000Y-174800000D01*
X102700000Y-160200000D02*
X117300000Y-160200000D01*
%TO.C,D48*%
X349885000Y-214634000D02*
X349885000Y-215284000D01*
X348885000Y-215284000D02*
X348885000Y-219524000D01*
X349885000Y-220174000D02*
X349885000Y-219524000D01*
X350885000Y-216124000D02*
X348885000Y-216124000D01*
X350885000Y-219524000D02*
X350885000Y-215284000D01*
X350885000Y-215884000D02*
X348885000Y-215884000D01*
X348885000Y-219524000D02*
X350885000Y-219524000D01*
X350885000Y-215284000D02*
X348885000Y-215284000D01*
X350885000Y-216004000D02*
X348885000Y-216004000D01*
%TO.C,SW313*%
X272700000Y-177700000D02*
X287300000Y-177700000D01*
X287300000Y-177700000D02*
X287300000Y-192300000D01*
X272700000Y-192300000D02*
X272700000Y-177700000D01*
X287300000Y-192300000D02*
X272700000Y-192300000D01*
%TO.C,SW303*%
X87300000Y-177700000D02*
X87300000Y-192300000D01*
X72700000Y-192300000D02*
X72700000Y-177700000D01*
X72700000Y-177700000D02*
X87300000Y-177700000D01*
X87300000Y-192300000D02*
X72700000Y-192300000D01*
%TO.C,SW511*%
X247300000Y-142700000D02*
X247300000Y-157300000D01*
X232700000Y-157300000D02*
X232700000Y-142700000D01*
X232700000Y-142700000D02*
X247300000Y-142700000D01*
X247300000Y-157300000D02*
X232700000Y-157300000D01*
%TO.C,SW402*%
X57300000Y-160200000D02*
X57300000Y-174800000D01*
X42700000Y-160200000D02*
X57300000Y-160200000D01*
X57300000Y-174800000D02*
X42700000Y-174800000D01*
X42700000Y-174800000D02*
X42700000Y-160200000D01*
%TO.C,SW502*%
X67300000Y-157300000D02*
X52700000Y-157300000D01*
X67300000Y-142700000D02*
X67300000Y-157300000D01*
X52700000Y-142700000D02*
X67300000Y-142700000D01*
X52700000Y-157300000D02*
X52700000Y-142700000D01*
%TO.C,D12*%
X100949000Y-202379000D02*
X100949000Y-198139000D01*
X98949000Y-198139000D02*
X98949000Y-202379000D01*
X100949000Y-198859000D02*
X98949000Y-198859000D01*
X100949000Y-198979000D02*
X98949000Y-198979000D01*
X100949000Y-198739000D02*
X98949000Y-198739000D01*
X99949000Y-197489000D02*
X99949000Y-198139000D01*
X99949000Y-203029000D02*
X99949000Y-202379000D01*
X98949000Y-202379000D02*
X100949000Y-202379000D01*
X100949000Y-198139000D02*
X98949000Y-198139000D01*
%TO.C,D50*%
X219091000Y-201998000D02*
X221091000Y-201998000D01*
X220091000Y-197108000D02*
X220091000Y-197758000D01*
X220091000Y-202648000D02*
X220091000Y-201998000D01*
X221091000Y-201998000D02*
X221091000Y-197758000D01*
X219091000Y-197758000D02*
X219091000Y-201998000D01*
X221091000Y-198598000D02*
X219091000Y-198598000D01*
X221091000Y-198358000D02*
X219091000Y-198358000D01*
X221091000Y-198478000D02*
X219091000Y-198478000D01*
X221091000Y-197758000D02*
X219091000Y-197758000D01*
%TO.C,D23*%
X170926000Y-180232000D02*
X168926000Y-180232000D01*
X168926000Y-180232000D02*
X168926000Y-184472000D01*
X168926000Y-184472000D02*
X170926000Y-184472000D01*
X170926000Y-181072000D02*
X168926000Y-181072000D01*
X170926000Y-180952000D02*
X168926000Y-180952000D01*
X169926000Y-179582000D02*
X169926000Y-180232000D01*
X169926000Y-185122000D02*
X169926000Y-184472000D01*
X170926000Y-184472000D02*
X170926000Y-180232000D01*
X170926000Y-180832000D02*
X168926000Y-180832000D01*
%TO.C,SW403*%
X62700000Y-174800000D02*
X62700000Y-160200000D01*
X77300000Y-174800000D02*
X62700000Y-174800000D01*
X62700000Y-160200000D02*
X77300000Y-160200000D01*
X77300000Y-160200000D02*
X77300000Y-174800000D01*
%TO.C,D20*%
X110982000Y-180959000D02*
X108982000Y-180959000D01*
X109982000Y-185249000D02*
X109982000Y-184599000D01*
X110982000Y-181199000D02*
X108982000Y-181199000D01*
X110982000Y-180359000D02*
X108982000Y-180359000D01*
X108982000Y-180359000D02*
X108982000Y-184599000D01*
X109982000Y-179709000D02*
X109982000Y-180359000D01*
X110982000Y-181079000D02*
X108982000Y-181079000D01*
X108982000Y-184599000D02*
X110982000Y-184599000D01*
X110982000Y-184599000D02*
X110982000Y-180359000D01*
%TO.C,D60*%
X269002000Y-180486000D02*
X269002000Y-184726000D01*
X271002000Y-181086000D02*
X269002000Y-181086000D01*
X271002000Y-181326000D02*
X269002000Y-181326000D01*
X271002000Y-181206000D02*
X269002000Y-181206000D01*
X269002000Y-184726000D02*
X271002000Y-184726000D01*
X271002000Y-180486000D02*
X269002000Y-180486000D01*
X270002000Y-185376000D02*
X270002000Y-184726000D01*
X271002000Y-184726000D02*
X271002000Y-180486000D01*
X270002000Y-179836000D02*
X270002000Y-180486000D01*
%TO.C,SW505*%
X127300000Y-157300000D02*
X112700000Y-157300000D01*
X112700000Y-142700000D02*
X127300000Y-142700000D01*
X127300000Y-142700000D02*
X127300000Y-157300000D01*
X112700000Y-157300000D02*
X112700000Y-142700000D01*
%TO.C,D7*%
X169926000Y-214507000D02*
X169926000Y-215157000D01*
X168926000Y-215157000D02*
X168926000Y-219397000D01*
X170926000Y-215757000D02*
X168926000Y-215757000D01*
X168926000Y-219397000D02*
X170926000Y-219397000D01*
X170926000Y-219397000D02*
X170926000Y-215157000D01*
X170926000Y-215877000D02*
X168926000Y-215877000D01*
X170926000Y-215157000D02*
X168926000Y-215157000D01*
X170926000Y-215997000D02*
X168926000Y-215997000D01*
X169926000Y-220047000D02*
X169926000Y-219397000D01*
%TO.C,SW317*%
X367300000Y-192300000D02*
X352700000Y-192300000D01*
X352700000Y-192300000D02*
X352700000Y-177700000D01*
X352700000Y-177700000D02*
X367300000Y-177700000D01*
X367300000Y-177700000D02*
X367300000Y-192300000D01*
%TO.C,D70*%
X301228000Y-163087000D02*
X299228000Y-163087000D01*
X301228000Y-167327000D02*
X301228000Y-163087000D01*
X299228000Y-167327000D02*
X301228000Y-167327000D01*
X301228000Y-163927000D02*
X299228000Y-163927000D01*
X300228000Y-162437000D02*
X300228000Y-163087000D01*
X301228000Y-163807000D02*
X299228000Y-163807000D01*
X300228000Y-167977000D02*
X300228000Y-167327000D01*
X299228000Y-163087000D02*
X299228000Y-167327000D01*
X301228000Y-163687000D02*
X299228000Y-163687000D01*
%TO.C,D2*%
X71104000Y-215877000D02*
X69104000Y-215877000D01*
X70104000Y-220047000D02*
X70104000Y-219397000D01*
X71104000Y-215757000D02*
X69104000Y-215757000D01*
X71104000Y-215997000D02*
X69104000Y-215997000D01*
X71104000Y-219397000D02*
X71104000Y-215157000D01*
X69104000Y-219397000D02*
X71104000Y-219397000D01*
X70104000Y-214507000D02*
X70104000Y-215157000D01*
X71104000Y-215157000D02*
X69104000Y-215157000D01*
X69104000Y-215157000D02*
X69104000Y-219397000D01*
%TO.C,D14*%
X139827000Y-202775000D02*
X139827000Y-202125000D01*
X138827000Y-197885000D02*
X138827000Y-202125000D01*
X140827000Y-198485000D02*
X138827000Y-198485000D01*
X140827000Y-198605000D02*
X138827000Y-198605000D01*
X140827000Y-202125000D02*
X140827000Y-197885000D01*
X139827000Y-197235000D02*
X139827000Y-197885000D01*
X140827000Y-198725000D02*
X138827000Y-198725000D01*
X138827000Y-202125000D02*
X140827000Y-202125000D01*
X140827000Y-197885000D02*
X138827000Y-197885000D01*
%TO.C,SW103*%
X72700000Y-227300000D02*
X72700000Y-212700000D01*
X87300000Y-212700000D02*
X87300000Y-227300000D01*
X87300000Y-227300000D02*
X72700000Y-227300000D01*
X72700000Y-212700000D02*
X87300000Y-212700000D01*
%TO.C,SW101*%
X32700000Y-227300000D02*
X32700000Y-212700000D01*
X47300000Y-212700000D02*
X47300000Y-227300000D01*
X47300000Y-227300000D02*
X32700000Y-227300000D01*
X32700000Y-212700000D02*
X47300000Y-212700000D01*
%TO.C,D44*%
X269002000Y-219524000D02*
X271002000Y-219524000D01*
X271002000Y-215284000D02*
X269002000Y-215284000D01*
X269002000Y-215284000D02*
X269002000Y-219524000D01*
X271002000Y-216004000D02*
X269002000Y-216004000D01*
X270002000Y-214634000D02*
X270002000Y-215284000D01*
X271002000Y-219524000D02*
X271002000Y-215284000D01*
X270002000Y-220174000D02*
X270002000Y-219524000D01*
X271002000Y-216124000D02*
X269002000Y-216124000D01*
X271002000Y-215884000D02*
X269002000Y-215884000D01*
%TO.C,SW419*%
X382700000Y-174800000D02*
X382700000Y-160200000D01*
X397300000Y-174800000D02*
X382700000Y-174800000D01*
X382700000Y-160200000D02*
X397300000Y-160200000D01*
X397300000Y-160200000D02*
X397300000Y-174800000D01*
%TO.C,D43*%
X251063000Y-219651000D02*
X251063000Y-215411000D01*
X250063000Y-220301000D02*
X250063000Y-219651000D01*
X251063000Y-216251000D02*
X249063000Y-216251000D01*
X251063000Y-215411000D02*
X249063000Y-215411000D01*
X249063000Y-219651000D02*
X251063000Y-219651000D01*
X250063000Y-214761000D02*
X250063000Y-215411000D01*
X251063000Y-216131000D02*
X249063000Y-216131000D01*
X251063000Y-216011000D02*
X249063000Y-216011000D01*
X249063000Y-215411000D02*
X249063000Y-219651000D01*
%TO.C,D85*%
X380984000Y-163546000D02*
X378984000Y-163546000D01*
X378984000Y-166946000D02*
X380984000Y-166946000D01*
X380984000Y-163306000D02*
X378984000Y-163306000D01*
X379984000Y-162056000D02*
X379984000Y-162706000D01*
X380984000Y-163426000D02*
X378984000Y-163426000D01*
X379984000Y-167596000D02*
X379984000Y-166946000D01*
X380984000Y-166946000D02*
X380984000Y-162706000D01*
X380984000Y-162706000D02*
X378984000Y-162706000D01*
X378984000Y-162706000D02*
X378984000Y-166946000D01*
%TO.C,D3*%
X91043000Y-216011000D02*
X89043000Y-216011000D01*
X91043000Y-216131000D02*
X89043000Y-216131000D01*
X91043000Y-219651000D02*
X91043000Y-215411000D01*
X90043000Y-220301000D02*
X90043000Y-219651000D01*
X91043000Y-216251000D02*
X89043000Y-216251000D01*
X89043000Y-219651000D02*
X91043000Y-219651000D01*
X90043000Y-214761000D02*
X90043000Y-215411000D01*
X89043000Y-215411000D02*
X89043000Y-219651000D01*
X91043000Y-215411000D02*
X89043000Y-215411000D01*
%TO.C,D25*%
X41005000Y-167073000D02*
X41005000Y-162833000D01*
X41005000Y-163673000D02*
X39005000Y-163673000D01*
X41005000Y-162833000D02*
X39005000Y-162833000D01*
X39005000Y-162833000D02*
X39005000Y-167073000D01*
X41005000Y-163553000D02*
X39005000Y-163553000D01*
X41005000Y-163433000D02*
X39005000Y-163433000D01*
X39005000Y-167073000D02*
X41005000Y-167073000D01*
X40005000Y-162183000D02*
X40005000Y-162833000D01*
X40005000Y-167723000D02*
X40005000Y-167073000D01*
%TO.C,U1*%
X140151000Y-132233000D02*
X140151000Y-130983000D01*
X140211000Y-138483000D02*
X140211000Y-127983000D01*
X140151000Y-130983000D02*
X119711000Y-130983000D01*
X119711000Y-130983000D02*
X119711000Y-135483000D01*
X140151000Y-135483000D02*
X140151000Y-134233000D01*
X119651000Y-138483000D02*
X140211000Y-138483000D01*
X140211000Y-127983000D02*
X119651000Y-127983000D01*
X119711000Y-135483000D02*
X140151000Y-135483000D01*
X119651000Y-127983000D02*
X119651000Y-138483000D01*
X140151000Y-132233000D02*
G75*
G03*
X140151000Y-134233000I0J-1000000D01*
G01*
%TO.C,D86*%
X393954000Y-149737000D02*
X393954000Y-150387000D01*
X394954000Y-151107000D02*
X392954000Y-151107000D01*
X392954000Y-150387000D02*
X392954000Y-154627000D01*
X394954000Y-151227000D02*
X392954000Y-151227000D01*
X394954000Y-150387000D02*
X392954000Y-150387000D01*
X393954000Y-155277000D02*
X393954000Y-154627000D01*
X394954000Y-150987000D02*
X392954000Y-150987000D01*
X394954000Y-154627000D02*
X394954000Y-150387000D01*
X392954000Y-154627000D02*
X394954000Y-154627000D01*
%TO.C,D42*%
X231124000Y-215870000D02*
X229124000Y-215870000D01*
X231124000Y-215030000D02*
X229124000Y-215030000D01*
X229124000Y-219270000D02*
X231124000Y-219270000D01*
X229124000Y-215030000D02*
X229124000Y-219270000D01*
X230124000Y-219920000D02*
X230124000Y-219270000D01*
X230124000Y-214380000D02*
X230124000Y-215030000D01*
X231124000Y-215750000D02*
X229124000Y-215750000D01*
X231124000Y-215630000D02*
X229124000Y-215630000D01*
X231124000Y-219270000D02*
X231124000Y-215030000D01*
%TO.C,SW515*%
X312700000Y-142700000D02*
X327300000Y-142700000D01*
X327300000Y-157300000D02*
X312700000Y-157300000D01*
X312700000Y-157300000D02*
X312700000Y-142700000D01*
X327300000Y-142700000D02*
X327300000Y-157300000D01*
%TO.C,SW116*%
X332700000Y-227300000D02*
X332700000Y-212700000D01*
X347300000Y-212700000D02*
X347300000Y-227300000D01*
X347300000Y-227300000D02*
X332700000Y-227300000D01*
X332700000Y-212700000D02*
X347300000Y-212700000D01*
%TO.C,D31*%
X159147000Y-162960000D02*
X159147000Y-167200000D01*
X160147000Y-167850000D02*
X160147000Y-167200000D01*
X161147000Y-167200000D02*
X161147000Y-162960000D01*
X161147000Y-162960000D02*
X159147000Y-162960000D01*
X161147000Y-163680000D02*
X159147000Y-163680000D01*
X159147000Y-167200000D02*
X161147000Y-167200000D01*
X161147000Y-163560000D02*
X159147000Y-163560000D01*
X160147000Y-162310000D02*
X160147000Y-162960000D01*
X161147000Y-163800000D02*
X159147000Y-163800000D01*
%TO.C,SW215*%
X317300000Y-209800000D02*
X302700000Y-209800000D01*
X302700000Y-195200000D02*
X317300000Y-195200000D01*
X302700000Y-209800000D02*
X302700000Y-195200000D01*
X317300000Y-195200000D02*
X317300000Y-209800000D01*
%TO.C,D17*%
X50784000Y-180486000D02*
X48784000Y-180486000D01*
X50784000Y-181326000D02*
X48784000Y-181326000D01*
X49784000Y-185376000D02*
X49784000Y-184726000D01*
X50784000Y-184726000D02*
X50784000Y-180486000D01*
X50784000Y-181086000D02*
X48784000Y-181086000D01*
X48784000Y-184726000D02*
X50784000Y-184726000D01*
X49784000Y-179836000D02*
X49784000Y-180486000D01*
X50784000Y-181206000D02*
X48784000Y-181206000D01*
X48784000Y-180486000D02*
X48784000Y-184726000D01*
%TO.C,D57*%
X211058000Y-184599000D02*
X211058000Y-180359000D01*
X211058000Y-181199000D02*
X209058000Y-181199000D01*
X209058000Y-184599000D02*
X211058000Y-184599000D01*
X210058000Y-185249000D02*
X210058000Y-184599000D01*
X211058000Y-180959000D02*
X209058000Y-180959000D01*
X210058000Y-179709000D02*
X210058000Y-180359000D01*
X211058000Y-181079000D02*
X209058000Y-181079000D01*
X211058000Y-180359000D02*
X209058000Y-180359000D01*
X209058000Y-180359000D02*
X209058000Y-184599000D01*
%TO.C,R3*%
X149765000Y-135536000D02*
X149765000Y-138276000D01*
X157075000Y-136906000D02*
X156305000Y-136906000D01*
X156305000Y-138276000D02*
X156305000Y-135536000D01*
X149765000Y-138276000D02*
X156305000Y-138276000D01*
X156305000Y-135536000D02*
X149765000Y-135536000D01*
X148995000Y-136906000D02*
X149765000Y-136906000D01*
%TO.C,SW315*%
X312700000Y-177700000D02*
X327300000Y-177700000D01*
X327300000Y-192300000D02*
X312700000Y-192300000D01*
X327300000Y-177700000D02*
X327300000Y-192300000D01*
X312700000Y-192300000D02*
X312700000Y-177700000D01*
%TO.C,SW503*%
X87300000Y-142700000D02*
X87300000Y-157300000D01*
X72700000Y-142700000D02*
X87300000Y-142700000D01*
X72700000Y-157300000D02*
X72700000Y-142700000D01*
X87300000Y-157300000D02*
X72700000Y-157300000D01*
%TO.C,SW411*%
X237300000Y-160200000D02*
X237300000Y-174800000D01*
X222700000Y-174800000D02*
X222700000Y-160200000D01*
X222700000Y-160200000D02*
X237300000Y-160200000D01*
X237300000Y-174800000D02*
X222700000Y-174800000D01*
%TO.C,D4*%
X109982000Y-214888000D02*
X109982000Y-215538000D01*
X110982000Y-215538000D02*
X108982000Y-215538000D01*
X108982000Y-219778000D02*
X110982000Y-219778000D01*
X109982000Y-220428000D02*
X109982000Y-219778000D01*
X110982000Y-216258000D02*
X108982000Y-216258000D01*
X110982000Y-216378000D02*
X108982000Y-216378000D01*
X110982000Y-219778000D02*
X110982000Y-215538000D01*
X108982000Y-215538000D02*
X108982000Y-219778000D01*
X110982000Y-216138000D02*
X108982000Y-216138000D01*
%TO.C,SW208*%
X177300000Y-195200000D02*
X177300000Y-209800000D01*
X162700000Y-209800000D02*
X162700000Y-195200000D01*
X177300000Y-209800000D02*
X162700000Y-209800000D01*
X162700000Y-195200000D02*
X177300000Y-195200000D01*
%TO.C,SW410*%
X202700000Y-160200000D02*
X217300000Y-160200000D01*
X217300000Y-160200000D02*
X217300000Y-174800000D01*
X202700000Y-174800000D02*
X202700000Y-160200000D01*
X217300000Y-174800000D02*
X202700000Y-174800000D01*
%TO.C,D88*%
X394827000Y-217154000D02*
X392827000Y-217154000D01*
X393827000Y-221444000D02*
X393827000Y-220794000D01*
X394827000Y-217394000D02*
X392827000Y-217394000D01*
X394827000Y-220794000D02*
X394827000Y-216554000D01*
X392827000Y-216554000D02*
X392827000Y-220794000D01*
X394827000Y-217274000D02*
X392827000Y-217274000D01*
X392827000Y-220794000D02*
X394827000Y-220794000D01*
X394827000Y-216554000D02*
X392827000Y-216554000D01*
X393827000Y-215904000D02*
X393827000Y-216554000D01*
%TO.C,D15*%
X160020000Y-202648000D02*
X160020000Y-201998000D01*
X161020000Y-201998000D02*
X161020000Y-197758000D01*
X159020000Y-201998000D02*
X161020000Y-201998000D01*
X161020000Y-198598000D02*
X159020000Y-198598000D01*
X161020000Y-198358000D02*
X159020000Y-198358000D01*
X160020000Y-197108000D02*
X160020000Y-197758000D01*
X161020000Y-197758000D02*
X159020000Y-197758000D01*
X161020000Y-198478000D02*
X159020000Y-198478000D01*
X159020000Y-197758000D02*
X159020000Y-201998000D01*
%TO.C,SW509*%
X192700000Y-157300000D02*
X192700000Y-142700000D01*
X192700000Y-142700000D02*
X207300000Y-142700000D01*
X207300000Y-142700000D02*
X207300000Y-157300000D01*
X207300000Y-157300000D02*
X192700000Y-157300000D01*
%TO.C,SW107*%
X152700000Y-227300000D02*
X152700000Y-212700000D01*
X167300000Y-227300000D02*
X152700000Y-227300000D01*
X152700000Y-212700000D02*
X167300000Y-212700000D01*
X167300000Y-212700000D02*
X167300000Y-227300000D01*
%TO.C,SW218*%
X362700000Y-209800000D02*
X362700000Y-195200000D01*
X377300000Y-195200000D02*
X377300000Y-209800000D01*
X377300000Y-209800000D02*
X362700000Y-209800000D01*
X362700000Y-195200000D02*
X377300000Y-195200000D01*
%TO.C,D87*%
X369078000Y-219524000D02*
X371078000Y-219524000D01*
X371078000Y-215284000D02*
X369078000Y-215284000D01*
X371078000Y-215884000D02*
X369078000Y-215884000D01*
X371078000Y-216124000D02*
X369078000Y-216124000D01*
X370078000Y-220174000D02*
X370078000Y-219524000D01*
X370078000Y-214634000D02*
X370078000Y-215284000D01*
X371078000Y-216004000D02*
X369078000Y-216004000D01*
X371078000Y-219524000D02*
X371078000Y-215284000D01*
X369078000Y-215284000D02*
X369078000Y-219524000D01*
%TO.C,SW305*%
X127300000Y-192300000D02*
X112700000Y-192300000D01*
X112700000Y-177700000D02*
X127300000Y-177700000D01*
X112700000Y-192300000D02*
X112700000Y-177700000D01*
X127300000Y-177700000D02*
X127300000Y-192300000D01*
%TO.C,SW414*%
X282700000Y-160200000D02*
X297300000Y-160200000D01*
X297300000Y-160200000D02*
X297300000Y-174800000D01*
X297300000Y-174800000D02*
X282700000Y-174800000D01*
X282700000Y-174800000D02*
X282700000Y-160200000D01*
%TO.C,D56*%
X338979000Y-197758000D02*
X338979000Y-201998000D01*
X340979000Y-198598000D02*
X338979000Y-198598000D01*
X339979000Y-197108000D02*
X339979000Y-197758000D01*
X340979000Y-198358000D02*
X338979000Y-198358000D01*
X340979000Y-201998000D02*
X340979000Y-197758000D01*
X338979000Y-201998000D02*
X340979000Y-201998000D01*
X340979000Y-197758000D02*
X338979000Y-197758000D01*
X340979000Y-198478000D02*
X338979000Y-198478000D01*
X339979000Y-202648000D02*
X339979000Y-201998000D01*
%TO.C,D72*%
X339979000Y-167596000D02*
X339979000Y-166946000D01*
X338979000Y-166946000D02*
X340979000Y-166946000D01*
X340979000Y-163306000D02*
X338979000Y-163306000D01*
X339979000Y-162056000D02*
X339979000Y-162706000D01*
X340979000Y-163426000D02*
X338979000Y-163426000D01*
X340979000Y-162706000D02*
X338979000Y-162706000D01*
X340979000Y-166946000D02*
X340979000Y-162706000D01*
X340979000Y-163546000D02*
X338979000Y-163546000D01*
X338979000Y-162706000D02*
X338979000Y-166946000D01*
%TO.C,SW513*%
X272700000Y-142700000D02*
X287300000Y-142700000D01*
X272700000Y-157300000D02*
X272700000Y-142700000D01*
X287300000Y-157300000D02*
X272700000Y-157300000D01*
X287300000Y-142700000D02*
X287300000Y-157300000D01*
%TO.C,SW418*%
X362700000Y-174800000D02*
X362700000Y-160200000D01*
X377300000Y-174800000D02*
X362700000Y-174800000D01*
X362700000Y-160200000D02*
X377300000Y-160200000D01*
X377300000Y-160200000D02*
X377300000Y-174800000D01*
%TO.C,SW104*%
X107300000Y-227300000D02*
X92700000Y-227300000D01*
X92700000Y-227300000D02*
X92700000Y-212700000D01*
X92700000Y-212700000D02*
X107300000Y-212700000D01*
X107300000Y-212700000D02*
X107300000Y-227300000D01*
%TO.C,SW216*%
X322700000Y-195200000D02*
X337300000Y-195200000D01*
X337300000Y-195200000D02*
X337300000Y-209800000D01*
X337300000Y-209800000D02*
X322700000Y-209800000D01*
X322700000Y-209800000D02*
X322700000Y-195200000D01*
%TO.C,SW417*%
X342700000Y-160200000D02*
X357300000Y-160200000D01*
X342700000Y-174800000D02*
X342700000Y-160200000D01*
X357300000Y-174800000D02*
X342700000Y-174800000D01*
X357300000Y-160200000D02*
X357300000Y-174800000D01*
%TO.C,SW412*%
X242700000Y-174800000D02*
X242700000Y-160200000D01*
X257300000Y-174800000D02*
X242700000Y-174800000D01*
X257300000Y-160200000D02*
X257300000Y-174800000D01*
X242700000Y-160200000D02*
X257300000Y-160200000D01*
%TO.C,D22*%
X150860000Y-181079000D02*
X148860000Y-181079000D01*
X150860000Y-180359000D02*
X148860000Y-180359000D01*
X150860000Y-181199000D02*
X148860000Y-181199000D01*
X148860000Y-184599000D02*
X150860000Y-184599000D01*
X150860000Y-180959000D02*
X148860000Y-180959000D01*
X150860000Y-184599000D02*
X150860000Y-180359000D01*
X149860000Y-179709000D02*
X149860000Y-180359000D01*
X148860000Y-180359000D02*
X148860000Y-184599000D01*
X149860000Y-185249000D02*
X149860000Y-184599000D01*
%TO.C,SW407*%
X157300000Y-174800000D02*
X142700000Y-174800000D01*
X142700000Y-174800000D02*
X142700000Y-160200000D01*
X157300000Y-160200000D02*
X157300000Y-174800000D01*
X142700000Y-160200000D02*
X157300000Y-160200000D01*
%TO.C,SW213*%
X277300000Y-195200000D02*
X277300000Y-209800000D01*
X262700000Y-209800000D02*
X262700000Y-195200000D01*
X277300000Y-209800000D02*
X262700000Y-209800000D01*
X262700000Y-195200000D02*
X277300000Y-195200000D01*
%TO.C,D84*%
X359045000Y-166946000D02*
X361045000Y-166946000D01*
X360045000Y-162056000D02*
X360045000Y-162706000D01*
X361045000Y-163546000D02*
X359045000Y-163546000D01*
X361045000Y-162706000D02*
X359045000Y-162706000D01*
X361045000Y-166946000D02*
X361045000Y-162706000D01*
X359045000Y-162706000D02*
X359045000Y-166946000D01*
X361045000Y-163306000D02*
X359045000Y-163306000D01*
X361045000Y-163426000D02*
X359045000Y-163426000D01*
X360045000Y-167596000D02*
X360045000Y-166946000D01*
%TO.C,D66*%
X219964000Y-162056000D02*
X219964000Y-162706000D01*
X220964000Y-163306000D02*
X218964000Y-163306000D01*
X220964000Y-163426000D02*
X218964000Y-163426000D01*
X219964000Y-167596000D02*
X219964000Y-166946000D01*
X220964000Y-166946000D02*
X220964000Y-162706000D01*
X218964000Y-166946000D02*
X220964000Y-166946000D01*
X218964000Y-162706000D02*
X218964000Y-166946000D01*
X220964000Y-163546000D02*
X218964000Y-163546000D01*
X220964000Y-162706000D02*
X218964000Y-162706000D01*
%TO.C,D46*%
X311007000Y-216124000D02*
X309007000Y-216124000D01*
X309007000Y-215284000D02*
X309007000Y-219524000D01*
X310007000Y-214634000D02*
X310007000Y-215284000D01*
X311007000Y-216004000D02*
X309007000Y-216004000D01*
X311007000Y-215884000D02*
X309007000Y-215884000D01*
X311007000Y-219524000D02*
X311007000Y-215284000D01*
X310007000Y-220174000D02*
X310007000Y-219524000D01*
X309007000Y-219524000D02*
X311007000Y-219524000D01*
X311007000Y-215284000D02*
X309007000Y-215284000D01*
%TO.C,SW209*%
X197300000Y-209800000D02*
X182700000Y-209800000D01*
X182700000Y-195200000D02*
X197300000Y-195200000D01*
X182700000Y-209800000D02*
X182700000Y-195200000D01*
X197300000Y-195200000D02*
X197300000Y-209800000D01*
%TO.C,SW314*%
X292700000Y-177700000D02*
X307300000Y-177700000D01*
X292700000Y-192300000D02*
X292700000Y-177700000D01*
X307300000Y-177700000D02*
X307300000Y-192300000D01*
X307300000Y-192300000D02*
X292700000Y-192300000D01*
%TO.C,SW112*%
X267300000Y-227300000D02*
X252700000Y-227300000D01*
X252700000Y-212700000D02*
X267300000Y-212700000D01*
X252700000Y-227300000D02*
X252700000Y-212700000D01*
X267300000Y-212700000D02*
X267300000Y-227300000D01*
%TO.C,SW113*%
X272700000Y-212700000D02*
X287300000Y-212700000D01*
X287300000Y-212700000D02*
X287300000Y-227300000D01*
X272700000Y-227300000D02*
X272700000Y-212700000D01*
X287300000Y-227300000D02*
X272700000Y-227300000D01*
%TO.C,SW114*%
X307300000Y-212700000D02*
X307300000Y-227300000D01*
X292700000Y-212700000D02*
X307300000Y-212700000D01*
X307300000Y-227300000D02*
X292700000Y-227300000D01*
X292700000Y-227300000D02*
X292700000Y-212700000D01*
%TO.C,SW512*%
X267300000Y-142700000D02*
X267300000Y-157300000D01*
X267300000Y-157300000D02*
X252700000Y-157300000D01*
X252700000Y-142700000D02*
X267300000Y-142700000D01*
X252700000Y-157300000D02*
X252700000Y-142700000D01*
%TO.C,SW106*%
X147300000Y-212700000D02*
X147300000Y-227300000D01*
X147300000Y-227300000D02*
X132700000Y-227300000D01*
X132700000Y-227300000D02*
X132700000Y-212700000D01*
X132700000Y-212700000D02*
X147300000Y-212700000D01*
%TO.C,D29*%
X118888000Y-162833000D02*
X118888000Y-167073000D01*
X120888000Y-163553000D02*
X118888000Y-163553000D01*
X119888000Y-167723000D02*
X119888000Y-167073000D01*
X120888000Y-163433000D02*
X118888000Y-163433000D01*
X120888000Y-162833000D02*
X118888000Y-162833000D01*
X119888000Y-162183000D02*
X119888000Y-162833000D01*
X120888000Y-163673000D02*
X118888000Y-163673000D01*
X118888000Y-167073000D02*
X120888000Y-167073000D01*
X120888000Y-167073000D02*
X120888000Y-162833000D01*
%TO.C,D91*%
X368951000Y-143148000D02*
X368951000Y-147388000D01*
X369951000Y-148038000D02*
X369951000Y-147388000D01*
X368951000Y-147388000D02*
X370951000Y-147388000D01*
X370951000Y-143748000D02*
X368951000Y-143748000D01*
X369951000Y-142498000D02*
X369951000Y-143148000D01*
X370951000Y-143148000D02*
X368951000Y-143148000D01*
X370951000Y-143988000D02*
X368951000Y-143988000D01*
X370951000Y-147388000D02*
X370951000Y-143148000D01*
X370951000Y-143868000D02*
X368951000Y-143868000D01*
%TO.C,SW510*%
X212700000Y-142700000D02*
X227300000Y-142700000D01*
X212700000Y-157300000D02*
X212700000Y-142700000D01*
X227300000Y-157300000D02*
X212700000Y-157300000D01*
X227300000Y-142700000D02*
X227300000Y-157300000D01*
%TO.C,SW413*%
X277300000Y-174800000D02*
X262700000Y-174800000D01*
X262700000Y-160200000D02*
X277300000Y-160200000D01*
X277300000Y-160200000D02*
X277300000Y-174800000D01*
X262700000Y-174800000D02*
X262700000Y-160200000D01*
%TO.C,R1*%
X149765000Y-130656000D02*
X156305000Y-130656000D01*
X156305000Y-130656000D02*
X156305000Y-127916000D01*
X148995000Y-129286000D02*
X149765000Y-129286000D01*
X157075000Y-129286000D02*
X156305000Y-129286000D01*
X149765000Y-127916000D02*
X149765000Y-130656000D01*
X156305000Y-127916000D02*
X149765000Y-127916000D01*
%TO.C,SW204*%
X82700000Y-195200000D02*
X97300000Y-195200000D01*
X82700000Y-209800000D02*
X82700000Y-195200000D01*
X97300000Y-195200000D02*
X97300000Y-209800000D01*
X97300000Y-209800000D02*
X82700000Y-209800000D01*
%TO.C,D33*%
X51038000Y-145907000D02*
X49038000Y-145907000D01*
X49038000Y-149547000D02*
X51038000Y-149547000D01*
X50038000Y-150197000D02*
X50038000Y-149547000D01*
X51038000Y-145307000D02*
X49038000Y-145307000D01*
X49038000Y-145307000D02*
X49038000Y-149547000D01*
X51038000Y-146027000D02*
X49038000Y-146027000D01*
X51038000Y-149547000D02*
X51038000Y-145307000D01*
X50038000Y-144657000D02*
X50038000Y-145307000D01*
X51038000Y-146147000D02*
X49038000Y-146147000D01*
%TO.C,SW312*%
X267300000Y-177700000D02*
X267300000Y-192300000D01*
X252700000Y-177700000D02*
X267300000Y-177700000D01*
X252700000Y-192300000D02*
X252700000Y-177700000D01*
X267300000Y-192300000D02*
X252700000Y-192300000D01*
%TO.C,SW514*%
X292700000Y-142700000D02*
X307300000Y-142700000D01*
X307300000Y-142700000D02*
X307300000Y-157300000D01*
X292700000Y-157300000D02*
X292700000Y-142700000D01*
X307300000Y-157300000D02*
X292700000Y-157300000D01*
%TO.C,D11*%
X80756000Y-198478000D02*
X78756000Y-198478000D01*
X80756000Y-201998000D02*
X80756000Y-197758000D01*
X80756000Y-198598000D02*
X78756000Y-198598000D01*
X80756000Y-198358000D02*
X78756000Y-198358000D01*
X79756000Y-202648000D02*
X79756000Y-201998000D01*
X78756000Y-197758000D02*
X78756000Y-201998000D01*
X78756000Y-201998000D02*
X80756000Y-201998000D01*
X80756000Y-197758000D02*
X78756000Y-197758000D01*
X79756000Y-197108000D02*
X79756000Y-197758000D01*
%TO.C,D92*%
X392160000Y-151227000D02*
X390160000Y-151227000D01*
X391160000Y-149737000D02*
X391160000Y-150387000D01*
X392160000Y-150387000D02*
X390160000Y-150387000D01*
X392160000Y-154627000D02*
X392160000Y-150387000D01*
X392160000Y-150987000D02*
X390160000Y-150987000D01*
X391160000Y-155277000D02*
X391160000Y-154627000D01*
X390160000Y-150387000D02*
X390160000Y-154627000D01*
X390160000Y-154627000D02*
X392160000Y-154627000D01*
X392160000Y-151107000D02*
X390160000Y-151107000D01*
%TO.C,D77*%
X291195000Y-151074000D02*
X289195000Y-151074000D01*
X289195000Y-154594000D02*
X291195000Y-154594000D01*
X289195000Y-150354000D02*
X289195000Y-154594000D01*
X290195000Y-155244000D02*
X290195000Y-154594000D01*
X290195000Y-149704000D02*
X290195000Y-150354000D01*
X291195000Y-150354000D02*
X289195000Y-150354000D01*
X291195000Y-150954000D02*
X289195000Y-150954000D01*
X291195000Y-151194000D02*
X289195000Y-151194000D01*
X291195000Y-154594000D02*
X291195000Y-150354000D01*
%TO.C,SW401*%
X22700000Y-160200000D02*
X37300000Y-160200000D01*
X22700000Y-174800000D02*
X22700000Y-160200000D01*
X37300000Y-160200000D02*
X37300000Y-174800000D01*
X37300000Y-174800000D02*
X22700000Y-174800000D01*
%TO.C,SW110*%
X227300000Y-212700000D02*
X227300000Y-227300000D01*
X227300000Y-227300000D02*
X212700000Y-227300000D01*
X212700000Y-212700000D02*
X227300000Y-212700000D01*
X212700000Y-227300000D02*
X212700000Y-212700000D01*
%TO.C,D27*%
X80010000Y-162183000D02*
X80010000Y-162833000D01*
X80010000Y-167723000D02*
X80010000Y-167073000D01*
X81010000Y-163553000D02*
X79010000Y-163553000D01*
X79010000Y-162833000D02*
X79010000Y-167073000D01*
X81010000Y-162833000D02*
X79010000Y-162833000D01*
X79010000Y-167073000D02*
X81010000Y-167073000D01*
X81010000Y-167073000D02*
X81010000Y-162833000D01*
X81010000Y-163433000D02*
X79010000Y-163433000D01*
X81010000Y-163673000D02*
X79010000Y-163673000D01*
%TO.C,SW311*%
X247300000Y-177700000D02*
X247300000Y-192300000D01*
X247300000Y-192300000D02*
X232700000Y-192300000D01*
X232700000Y-177700000D02*
X247300000Y-177700000D01*
X232700000Y-192300000D02*
X232700000Y-177700000D01*
%TO.C,D16*%
X181213000Y-198725000D02*
X179213000Y-198725000D01*
X180213000Y-202775000D02*
X180213000Y-202125000D01*
X179213000Y-197885000D02*
X179213000Y-202125000D01*
X181213000Y-197885000D02*
X179213000Y-197885000D01*
X181213000Y-198485000D02*
X179213000Y-198485000D01*
X181213000Y-198605000D02*
X179213000Y-198605000D01*
X181213000Y-202125000D02*
X181213000Y-197885000D01*
X179213000Y-202125000D02*
X181213000Y-202125000D01*
X180213000Y-197235000D02*
X180213000Y-197885000D01*
%TO.C,SW316*%
X347300000Y-177700000D02*
X347300000Y-192300000D01*
X332700000Y-177700000D02*
X347300000Y-177700000D01*
X347300000Y-192300000D02*
X332700000Y-192300000D01*
X332700000Y-192300000D02*
X332700000Y-177700000D01*
%TO.C,D49*%
X200152000Y-197108000D02*
X200152000Y-197758000D01*
X201152000Y-197758000D02*
X199152000Y-197758000D01*
X199152000Y-197758000D02*
X199152000Y-201998000D01*
X201152000Y-198478000D02*
X199152000Y-198478000D01*
X200152000Y-202648000D02*
X200152000Y-201998000D01*
X199152000Y-201998000D02*
X201152000Y-201998000D01*
X201152000Y-201998000D02*
X201152000Y-197758000D01*
X201152000Y-198598000D02*
X199152000Y-198598000D01*
X201152000Y-198358000D02*
X199152000Y-198358000D01*
%TO.C,SW105*%
X127300000Y-227300000D02*
X112700000Y-227300000D01*
X112700000Y-227300000D02*
X112700000Y-212700000D01*
X127300000Y-212700000D02*
X127300000Y-227300000D01*
X112700000Y-212700000D02*
X127300000Y-212700000D01*
%TO.C,D41*%
X211058000Y-215157000D02*
X209058000Y-215157000D01*
X209058000Y-219397000D02*
X211058000Y-219397000D01*
X209058000Y-215157000D02*
X209058000Y-219397000D01*
X210058000Y-214507000D02*
X210058000Y-215157000D01*
X211058000Y-215997000D02*
X209058000Y-215997000D01*
X210058000Y-220047000D02*
X210058000Y-219397000D01*
X211058000Y-219397000D02*
X211058000Y-215157000D01*
X211058000Y-215757000D02*
X209058000Y-215757000D01*
X211058000Y-215877000D02*
X209058000Y-215877000D01*
%TO.C,D63*%
X330946000Y-180705000D02*
X328946000Y-180705000D01*
X330946000Y-184345000D02*
X330946000Y-180105000D01*
X330946000Y-180825000D02*
X328946000Y-180825000D01*
X329946000Y-184995000D02*
X329946000Y-184345000D01*
X330946000Y-180105000D02*
X328946000Y-180105000D01*
X328946000Y-184345000D02*
X330946000Y-184345000D01*
X329946000Y-179455000D02*
X329946000Y-180105000D01*
X328946000Y-180105000D02*
X328946000Y-184345000D01*
X330946000Y-180945000D02*
X328946000Y-180945000D01*
%TO.C,SW516*%
X332700000Y-142700000D02*
X347300000Y-142700000D01*
X332700000Y-157300000D02*
X332700000Y-142700000D01*
X347300000Y-157300000D02*
X332700000Y-157300000D01*
X347300000Y-142700000D02*
X347300000Y-157300000D01*
%TO.C,D80*%
X351012000Y-143741000D02*
X349012000Y-143741000D01*
X349012000Y-147261000D02*
X351012000Y-147261000D01*
X351012000Y-143861000D02*
X349012000Y-143861000D01*
X351012000Y-143021000D02*
X349012000Y-143021000D01*
X351012000Y-143621000D02*
X349012000Y-143621000D01*
X351012000Y-147261000D02*
X351012000Y-143021000D01*
X349012000Y-143021000D02*
X349012000Y-147261000D01*
X350012000Y-147911000D02*
X350012000Y-147261000D01*
X350012000Y-142371000D02*
X350012000Y-143021000D01*
%TO.C,D52*%
X260969000Y-202125000D02*
X260969000Y-197885000D01*
X258969000Y-197885000D02*
X258969000Y-202125000D01*
X260969000Y-197885000D02*
X258969000Y-197885000D01*
X259969000Y-202775000D02*
X259969000Y-202125000D01*
X260969000Y-198485000D02*
X258969000Y-198485000D01*
X258969000Y-202125000D02*
X260969000Y-202125000D01*
X260969000Y-198725000D02*
X258969000Y-198725000D01*
X260969000Y-198605000D02*
X258969000Y-198605000D01*
X259969000Y-197235000D02*
X259969000Y-197885000D01*
%TO.C,D28*%
X101076000Y-163426000D02*
X99076000Y-163426000D01*
X100076000Y-167596000D02*
X100076000Y-166946000D01*
X99076000Y-166946000D02*
X101076000Y-166946000D01*
X101076000Y-162706000D02*
X99076000Y-162706000D01*
X101076000Y-163546000D02*
X99076000Y-163546000D01*
X101076000Y-166946000D02*
X101076000Y-162706000D01*
X101076000Y-163306000D02*
X99076000Y-163306000D01*
X100076000Y-162056000D02*
X100076000Y-162706000D01*
X99076000Y-162706000D02*
X99076000Y-166946000D01*
%TO.C,D75*%
X251063000Y-149674000D02*
X251063000Y-145434000D01*
X249063000Y-149674000D02*
X251063000Y-149674000D01*
X251063000Y-146034000D02*
X249063000Y-146034000D01*
X250063000Y-144784000D02*
X250063000Y-145434000D01*
X250063000Y-150324000D02*
X250063000Y-149674000D01*
X251063000Y-146154000D02*
X249063000Y-146154000D01*
X251063000Y-145434000D02*
X249063000Y-145434000D01*
X251063000Y-146274000D02*
X249063000Y-146274000D01*
X249063000Y-145434000D02*
X249063000Y-149674000D01*
%TO.C,D19*%
X90916000Y-181199000D02*
X88916000Y-181199000D01*
X89916000Y-179709000D02*
X89916000Y-180359000D01*
X90916000Y-180959000D02*
X88916000Y-180959000D01*
X88916000Y-184599000D02*
X90916000Y-184599000D01*
X90916000Y-184599000D02*
X90916000Y-180359000D01*
X89916000Y-185249000D02*
X89916000Y-184599000D01*
X90916000Y-181079000D02*
X88916000Y-181079000D01*
X88916000Y-180359000D02*
X88916000Y-184599000D01*
X90916000Y-180359000D02*
X88916000Y-180359000D01*
%TO.C,D55*%
X319040000Y-197885000D02*
X319040000Y-202125000D01*
X321040000Y-198725000D02*
X319040000Y-198725000D01*
X320040000Y-202775000D02*
X320040000Y-202125000D01*
X319040000Y-202125000D02*
X321040000Y-202125000D01*
X320040000Y-197235000D02*
X320040000Y-197885000D01*
X321040000Y-197885000D02*
X319040000Y-197885000D01*
X321040000Y-198605000D02*
X319040000Y-198605000D01*
X321040000Y-198485000D02*
X319040000Y-198485000D01*
X321040000Y-202125000D02*
X321040000Y-197885000D01*
%TO.C,D74*%
X230997000Y-145907000D02*
X228997000Y-145907000D01*
X229997000Y-144657000D02*
X229997000Y-145307000D01*
X228997000Y-145307000D02*
X228997000Y-149547000D01*
X228997000Y-149547000D02*
X230997000Y-149547000D01*
X229997000Y-150197000D02*
X229997000Y-149547000D01*
X230997000Y-146147000D02*
X228997000Y-146147000D01*
X230997000Y-145307000D02*
X228997000Y-145307000D01*
X230997000Y-146027000D02*
X228997000Y-146027000D01*
X230997000Y-149547000D02*
X230997000Y-145307000D01*
%TO.C,SW201*%
X37300000Y-209800000D02*
X22700000Y-209800000D01*
X22700000Y-195200000D02*
X37300000Y-195200000D01*
X37300000Y-195200000D02*
X37300000Y-209800000D01*
X22700000Y-209800000D02*
X22700000Y-195200000D01*
%TO.C,D61*%
X290941000Y-180945000D02*
X288941000Y-180945000D01*
X289941000Y-184995000D02*
X289941000Y-184345000D01*
X290941000Y-180825000D02*
X288941000Y-180825000D01*
X289941000Y-179455000D02*
X289941000Y-180105000D01*
X290941000Y-184345000D02*
X290941000Y-180105000D01*
X290941000Y-180105000D02*
X288941000Y-180105000D01*
X290941000Y-180705000D02*
X288941000Y-180705000D01*
X288941000Y-180105000D02*
X288941000Y-184345000D01*
X288941000Y-184345000D02*
X290941000Y-184345000D01*
%TO.C,SW206*%
X137300000Y-195200000D02*
X137300000Y-209800000D01*
X122700000Y-195200000D02*
X137300000Y-195200000D01*
X137300000Y-209800000D02*
X122700000Y-209800000D01*
X122700000Y-209800000D02*
X122700000Y-195200000D01*
%TO.C,D67*%
X238903000Y-167073000D02*
X240903000Y-167073000D01*
X240903000Y-162833000D02*
X238903000Y-162833000D01*
X240903000Y-163433000D02*
X238903000Y-163433000D01*
X240903000Y-163553000D02*
X238903000Y-163553000D01*
X240903000Y-167073000D02*
X240903000Y-162833000D01*
X238903000Y-162833000D02*
X238903000Y-167073000D01*
X240903000Y-163673000D02*
X238903000Y-163673000D01*
X239903000Y-167723000D02*
X239903000Y-167073000D01*
X239903000Y-162183000D02*
X239903000Y-162833000D01*
%TO.C,D54*%
X299101000Y-197758000D02*
X299101000Y-201998000D01*
X299101000Y-201998000D02*
X301101000Y-201998000D01*
X300101000Y-197108000D02*
X300101000Y-197758000D01*
X301101000Y-198358000D02*
X299101000Y-198358000D01*
X301101000Y-197758000D02*
X299101000Y-197758000D01*
X301101000Y-198478000D02*
X299101000Y-198478000D01*
X301101000Y-198598000D02*
X299101000Y-198598000D01*
X301101000Y-201998000D02*
X301101000Y-197758000D01*
X300101000Y-202648000D02*
X300101000Y-201998000D01*
%TO.C,SW102*%
X67300000Y-227300000D02*
X52700000Y-227300000D01*
X67300000Y-212700000D02*
X67300000Y-227300000D01*
X52700000Y-227300000D02*
X52700000Y-212700000D01*
X52700000Y-212700000D02*
X67300000Y-212700000D01*
%TO.C,D36*%
X108982000Y-145307000D02*
X108982000Y-149547000D01*
X110982000Y-146147000D02*
X108982000Y-146147000D01*
X110982000Y-149547000D02*
X110982000Y-145307000D01*
X110982000Y-145907000D02*
X108982000Y-145907000D01*
X109982000Y-144657000D02*
X109982000Y-145307000D01*
X110982000Y-146027000D02*
X108982000Y-146027000D01*
X108982000Y-149547000D02*
X110982000Y-149547000D01*
X109982000Y-150197000D02*
X109982000Y-149547000D01*
X110982000Y-145307000D02*
X108982000Y-145307000D01*
%TO.C,D78*%
X310007000Y-150197000D02*
X310007000Y-149547000D01*
X311007000Y-146147000D02*
X309007000Y-146147000D01*
X311007000Y-145307000D02*
X309007000Y-145307000D01*
X309007000Y-149547000D02*
X311007000Y-149547000D01*
X310007000Y-144657000D02*
X310007000Y-145307000D01*
X311007000Y-149547000D02*
X311007000Y-145307000D01*
X311007000Y-146027000D02*
X309007000Y-146027000D01*
X311007000Y-145907000D02*
X309007000Y-145907000D01*
X309007000Y-145307000D02*
X309007000Y-149547000D01*
%TO.C,SW504*%
X107300000Y-142700000D02*
X107300000Y-157300000D01*
X92700000Y-142700000D02*
X107300000Y-142700000D01*
X92700000Y-157300000D02*
X92700000Y-142700000D01*
X107300000Y-157300000D02*
X92700000Y-157300000D01*
%TO.C,SW309*%
X207300000Y-177700000D02*
X207300000Y-192300000D01*
X192700000Y-177700000D02*
X207300000Y-177700000D01*
X207300000Y-192300000D02*
X192700000Y-192300000D01*
X192700000Y-192300000D02*
X192700000Y-177700000D01*
%TO.C,SW109*%
X207300000Y-212700000D02*
X207300000Y-227300000D01*
X207300000Y-227300000D02*
X192700000Y-227300000D01*
X192700000Y-227300000D02*
X192700000Y-212700000D01*
X192700000Y-212700000D02*
X207300000Y-212700000D01*
%TO.C,D37*%
X130048000Y-144657000D02*
X130048000Y-145307000D01*
X130048000Y-150197000D02*
X130048000Y-149547000D01*
X131048000Y-146147000D02*
X129048000Y-146147000D01*
X131048000Y-145307000D02*
X129048000Y-145307000D01*
X129048000Y-149547000D02*
X131048000Y-149547000D01*
X129048000Y-145307000D02*
X129048000Y-149547000D01*
X131048000Y-149547000D02*
X131048000Y-145307000D01*
X131048000Y-146027000D02*
X129048000Y-146027000D01*
X131048000Y-145907000D02*
X129048000Y-145907000D01*
%TO.C,SW304*%
X92700000Y-177700000D02*
X107300000Y-177700000D01*
X107300000Y-192300000D02*
X92700000Y-192300000D01*
X92700000Y-192300000D02*
X92700000Y-177700000D01*
X107300000Y-177700000D02*
X107300000Y-192300000D01*
%TO.C,SW207*%
X142700000Y-209800000D02*
X142700000Y-195200000D01*
X157300000Y-209800000D02*
X142700000Y-209800000D01*
X142700000Y-195200000D02*
X157300000Y-195200000D01*
X157300000Y-195200000D02*
X157300000Y-209800000D01*
%TO.C,D34*%
X70977000Y-149547000D02*
X70977000Y-145307000D01*
X68977000Y-145307000D02*
X68977000Y-149547000D01*
X70977000Y-146027000D02*
X68977000Y-146027000D01*
X69977000Y-144657000D02*
X69977000Y-145307000D01*
X68977000Y-149547000D02*
X70977000Y-149547000D01*
X70977000Y-145907000D02*
X68977000Y-145907000D01*
X70977000Y-145307000D02*
X68977000Y-145307000D01*
X69977000Y-150197000D02*
X69977000Y-149547000D01*
X70977000Y-146147000D02*
X68977000Y-146147000D01*
%TO.C,SW210*%
X202700000Y-195200000D02*
X217300000Y-195200000D01*
X217300000Y-195200000D02*
X217300000Y-209800000D01*
X202700000Y-209800000D02*
X202700000Y-195200000D01*
X217300000Y-209800000D02*
X202700000Y-209800000D01*
%TO.C,SW507*%
X167300000Y-142700000D02*
X167300000Y-157300000D01*
X152700000Y-157300000D02*
X152700000Y-142700000D01*
X167300000Y-157300000D02*
X152700000Y-157300000D01*
X152700000Y-142700000D02*
X167300000Y-142700000D01*
%TO.C,D21*%
X130921000Y-181079000D02*
X128921000Y-181079000D01*
X129921000Y-179709000D02*
X129921000Y-180359000D01*
X130921000Y-181199000D02*
X128921000Y-181199000D01*
X128921000Y-180359000D02*
X128921000Y-184599000D01*
X130921000Y-180359000D02*
X128921000Y-180359000D01*
X128921000Y-184599000D02*
X130921000Y-184599000D01*
X130921000Y-184599000D02*
X130921000Y-180359000D01*
X130921000Y-180959000D02*
X128921000Y-180959000D01*
X129921000Y-185249000D02*
X129921000Y-184599000D01*
%TO.C,D10*%
X60944000Y-198739000D02*
X58944000Y-198739000D01*
X60944000Y-198859000D02*
X58944000Y-198859000D01*
X59944000Y-203029000D02*
X59944000Y-202379000D01*
X58944000Y-202379000D02*
X60944000Y-202379000D01*
X60944000Y-198139000D02*
X58944000Y-198139000D01*
X60944000Y-198979000D02*
X58944000Y-198979000D01*
X58944000Y-198139000D02*
X58944000Y-202379000D01*
X59944000Y-197489000D02*
X59944000Y-198139000D01*
X60944000Y-202379000D02*
X60944000Y-198139000D01*
%TO.C,SW214*%
X282700000Y-209800000D02*
X282700000Y-195200000D01*
X297300000Y-209800000D02*
X282700000Y-209800000D01*
X282700000Y-195200000D02*
X297300000Y-195200000D01*
X297300000Y-195200000D02*
X297300000Y-209800000D01*
%TO.C,D38*%
X150987000Y-145780000D02*
X148987000Y-145780000D01*
X150987000Y-145180000D02*
X148987000Y-145180000D01*
X150987000Y-146020000D02*
X148987000Y-146020000D01*
X149987000Y-150070000D02*
X149987000Y-149420000D01*
X148987000Y-149420000D02*
X150987000Y-149420000D01*
X149987000Y-144530000D02*
X149987000Y-145180000D01*
X148987000Y-145180000D02*
X148987000Y-149420000D01*
X150987000Y-149420000D02*
X150987000Y-145180000D01*
X150987000Y-145900000D02*
X148987000Y-145900000D01*
%TO.C,SW115*%
X312700000Y-227300000D02*
X312700000Y-212700000D01*
X327300000Y-227300000D02*
X312700000Y-227300000D01*
X312700000Y-212700000D02*
X327300000Y-212700000D01*
X327300000Y-212700000D02*
X327300000Y-227300000D01*
%TO.C,SW111*%
X247300000Y-227300000D02*
X232700000Y-227300000D01*
X232700000Y-212700000D02*
X247300000Y-212700000D01*
X247300000Y-212700000D02*
X247300000Y-227300000D01*
X232700000Y-227300000D02*
X232700000Y-212700000D01*
%TO.C,D89*%
X370078000Y-179963000D02*
X370078000Y-180613000D01*
X369078000Y-180613000D02*
X369078000Y-184853000D01*
X369078000Y-184853000D02*
X371078000Y-184853000D01*
X370078000Y-185503000D02*
X370078000Y-184853000D01*
X371078000Y-181213000D02*
X369078000Y-181213000D01*
X371078000Y-181333000D02*
X369078000Y-181333000D01*
X371078000Y-181453000D02*
X369078000Y-181453000D01*
X371078000Y-180613000D02*
X369078000Y-180613000D01*
X371078000Y-184853000D02*
X371078000Y-180613000D01*
%TO.C,SW404*%
X97300000Y-160200000D02*
X97300000Y-174800000D01*
X82700000Y-174800000D02*
X82700000Y-160200000D01*
X82700000Y-160200000D02*
X97300000Y-160200000D01*
X97300000Y-174800000D02*
X82700000Y-174800000D01*
%TO.C,SW501*%
X32700000Y-157300000D02*
X32700000Y-142700000D01*
X47300000Y-157300000D02*
X32700000Y-157300000D01*
X47300000Y-142700000D02*
X47300000Y-157300000D01*
X32700000Y-142700000D02*
X47300000Y-142700000D01*
%TO.C,D59*%
X250682000Y-180578000D02*
X248682000Y-180578000D01*
X249682000Y-184868000D02*
X249682000Y-184218000D01*
X249682000Y-179328000D02*
X249682000Y-179978000D01*
X250682000Y-180818000D02*
X248682000Y-180818000D01*
X250682000Y-179978000D02*
X248682000Y-179978000D01*
X248682000Y-184218000D02*
X250682000Y-184218000D01*
X250682000Y-180698000D02*
X248682000Y-180698000D01*
X248682000Y-179978000D02*
X248682000Y-184218000D01*
X250682000Y-184218000D02*
X250682000Y-179978000D01*
%TO.C,SW408*%
X162700000Y-174800000D02*
X162700000Y-160200000D01*
X162700000Y-160200000D02*
X177300000Y-160200000D01*
X177300000Y-160200000D02*
X177300000Y-174800000D01*
X177300000Y-174800000D02*
X162700000Y-174800000D01*
%TO.C,SW409*%
X182700000Y-174800000D02*
X182700000Y-160200000D01*
X197300000Y-174800000D02*
X182700000Y-174800000D01*
X182700000Y-160200000D02*
X197300000Y-160200000D01*
X197300000Y-160200000D02*
X197300000Y-174800000D01*
%TO.C,SW212*%
X242700000Y-195200000D02*
X257300000Y-195200000D01*
X242700000Y-209800000D02*
X242700000Y-195200000D01*
X257300000Y-209800000D02*
X242700000Y-209800000D01*
X257300000Y-195200000D02*
X257300000Y-209800000D01*
%TO.C,D45*%
X290941000Y-215411000D02*
X288941000Y-215411000D01*
X290941000Y-216011000D02*
X288941000Y-216011000D01*
X290941000Y-219651000D02*
X290941000Y-215411000D01*
X290941000Y-216251000D02*
X288941000Y-216251000D01*
X289941000Y-220301000D02*
X289941000Y-219651000D01*
X289941000Y-214761000D02*
X289941000Y-215411000D01*
X290941000Y-216131000D02*
X288941000Y-216131000D01*
X288941000Y-219651000D02*
X290941000Y-219651000D01*
X288941000Y-215411000D02*
X288941000Y-219651000D01*
%TO.C,D30*%
X139081000Y-167200000D02*
X141081000Y-167200000D01*
X140081000Y-167850000D02*
X140081000Y-167200000D01*
X141081000Y-162960000D02*
X139081000Y-162960000D01*
X141081000Y-163680000D02*
X139081000Y-163680000D01*
X139081000Y-162960000D02*
X139081000Y-167200000D01*
X141081000Y-167200000D02*
X141081000Y-162960000D01*
X141081000Y-163800000D02*
X139081000Y-163800000D01*
X140081000Y-162310000D02*
X140081000Y-162960000D01*
X141081000Y-163560000D02*
X139081000Y-163560000D01*
%TO.C,D5*%
X128921000Y-219397000D02*
X130921000Y-219397000D01*
X130921000Y-215997000D02*
X128921000Y-215997000D01*
X130921000Y-215877000D02*
X128921000Y-215877000D01*
X128921000Y-215157000D02*
X128921000Y-219397000D01*
X130921000Y-219397000D02*
X130921000Y-215157000D01*
X129921000Y-214507000D02*
X129921000Y-215157000D01*
X129921000Y-220047000D02*
X129921000Y-219397000D01*
X130921000Y-215157000D02*
X128921000Y-215157000D01*
X130921000Y-215757000D02*
X128921000Y-215757000D01*
%TO.C,SW308*%
X172700000Y-177700000D02*
X187300000Y-177700000D01*
X172700000Y-192300000D02*
X172700000Y-177700000D01*
X187300000Y-177700000D02*
X187300000Y-192300000D01*
X187300000Y-192300000D02*
X172700000Y-192300000D01*
%TO.C,D51*%
X241030000Y-201998000D02*
X241030000Y-197758000D01*
X240030000Y-197108000D02*
X240030000Y-197758000D01*
X240030000Y-202648000D02*
X240030000Y-201998000D01*
X241030000Y-198598000D02*
X239030000Y-198598000D01*
X241030000Y-198478000D02*
X239030000Y-198478000D01*
X241030000Y-198358000D02*
X239030000Y-198358000D01*
X241030000Y-197758000D02*
X239030000Y-197758000D01*
X239030000Y-201998000D02*
X241030000Y-201998000D01*
X239030000Y-197758000D02*
X239030000Y-201998000D01*
%TO.C,D40*%
X190992000Y-145307000D02*
X188992000Y-145307000D01*
X190992000Y-146147000D02*
X188992000Y-146147000D01*
X190992000Y-145907000D02*
X188992000Y-145907000D01*
X188992000Y-145307000D02*
X188992000Y-149547000D01*
X188992000Y-149547000D02*
X190992000Y-149547000D01*
X190992000Y-149547000D02*
X190992000Y-145307000D01*
X190992000Y-146027000D02*
X188992000Y-146027000D01*
X189992000Y-144657000D02*
X189992000Y-145307000D01*
X189992000Y-150197000D02*
X189992000Y-149547000D01*
%TO.C,SW117*%
X352700000Y-212700000D02*
X367300000Y-212700000D01*
X367300000Y-227300000D02*
X352700000Y-227300000D01*
X367300000Y-212700000D02*
X367300000Y-227300000D01*
X352700000Y-227300000D02*
X352700000Y-212700000D01*
%TO.C,SW508*%
X172700000Y-157300000D02*
X172700000Y-142700000D01*
X187300000Y-142700000D02*
X187300000Y-157300000D01*
X172700000Y-142700000D02*
X187300000Y-142700000D01*
X187300000Y-157300000D02*
X172700000Y-157300000D01*
%TO.C,D64*%
X351139000Y-180832000D02*
X349139000Y-180832000D01*
X349139000Y-184472000D02*
X351139000Y-184472000D01*
X350139000Y-179582000D02*
X350139000Y-180232000D01*
X350139000Y-185122000D02*
X350139000Y-184472000D01*
X351139000Y-180232000D02*
X349139000Y-180232000D01*
X349139000Y-180232000D02*
X349139000Y-184472000D01*
X351139000Y-181072000D02*
X349139000Y-181072000D01*
X351139000Y-184472000D02*
X351139000Y-180232000D01*
X351139000Y-180952000D02*
X349139000Y-180952000D01*
%TO.C,D58*%
X231124000Y-180232000D02*
X229124000Y-180232000D01*
X231124000Y-180952000D02*
X229124000Y-180952000D01*
X231124000Y-180832000D02*
X229124000Y-180832000D01*
X229124000Y-184472000D02*
X231124000Y-184472000D01*
X231124000Y-184472000D02*
X231124000Y-180232000D01*
X231124000Y-181072000D02*
X229124000Y-181072000D01*
X229124000Y-180232000D02*
X229124000Y-184472000D01*
X230124000Y-179582000D02*
X230124000Y-180232000D01*
X230124000Y-185122000D02*
X230124000Y-184472000D01*
%TO.C,SW517*%
X352700000Y-142700000D02*
X367300000Y-142700000D01*
X367300000Y-142700000D02*
X367300000Y-157300000D01*
X367300000Y-157300000D02*
X352700000Y-157300000D01*
X352700000Y-157300000D02*
X352700000Y-142700000D01*
%TO.C,SW203*%
X77300000Y-209800000D02*
X62700000Y-209800000D01*
X62700000Y-209800000D02*
X62700000Y-195200000D01*
X62700000Y-195200000D02*
X77300000Y-195200000D01*
X77300000Y-195200000D02*
X77300000Y-209800000D01*
%TO.C,SW219*%
X397300000Y-209800000D02*
X382700000Y-209800000D01*
X397300000Y-195200000D02*
X397300000Y-209800000D01*
X382700000Y-195200000D02*
X397300000Y-195200000D01*
X382700000Y-209800000D02*
X382700000Y-195200000D01*
%TO.C,SW217*%
X342700000Y-195200000D02*
X357300000Y-195200000D01*
X342700000Y-209800000D02*
X342700000Y-195200000D01*
X357300000Y-195200000D02*
X357300000Y-209800000D01*
X357300000Y-209800000D02*
X342700000Y-209800000D01*
%TO.C,C1*%
X143295000Y-136963000D02*
X143610000Y-136963000D01*
X143295000Y-132023000D02*
X143610000Y-132023000D01*
X140870000Y-136963000D02*
X140870000Y-132023000D01*
X143610000Y-136963000D02*
X143610000Y-132023000D01*
X140870000Y-132023000D02*
X141185000Y-132023000D01*
X140870000Y-136963000D02*
X141185000Y-136963000D01*
%TO.C,SW310*%
X227300000Y-192300000D02*
X212700000Y-192300000D01*
X212700000Y-192300000D02*
X212700000Y-177700000D01*
X227300000Y-177700000D02*
X227300000Y-192300000D01*
X212700000Y-177700000D02*
X227300000Y-177700000D01*
%TO.C,D6*%
X149987000Y-214507000D02*
X149987000Y-215157000D01*
X148987000Y-219397000D02*
X150987000Y-219397000D01*
X149987000Y-220047000D02*
X149987000Y-219397000D01*
X150987000Y-215157000D02*
X148987000Y-215157000D01*
X150987000Y-215997000D02*
X148987000Y-215997000D01*
X150987000Y-215877000D02*
X148987000Y-215877000D01*
X148987000Y-215157000D02*
X148987000Y-219397000D01*
X150987000Y-215757000D02*
X148987000Y-215757000D01*
X150987000Y-219397000D02*
X150987000Y-215157000D01*
%TO.C,SW318*%
X387300000Y-192300000D02*
X372700000Y-192300000D01*
X372700000Y-192300000D02*
X372700000Y-177700000D01*
X372700000Y-177700000D02*
X387300000Y-177700000D01*
X387300000Y-177700000D02*
X387300000Y-192300000D01*
%TO.C,SW306*%
X147300000Y-177700000D02*
X147300000Y-192300000D01*
X132700000Y-192300000D02*
X132700000Y-177700000D01*
X132700000Y-177700000D02*
X147300000Y-177700000D01*
X147300000Y-192300000D02*
X132700000Y-192300000D01*
%TO.C,SW118*%
X372700000Y-212700000D02*
X387300000Y-212700000D01*
X372700000Y-227300000D02*
X372700000Y-212700000D01*
X387300000Y-227300000D02*
X372700000Y-227300000D01*
X387300000Y-212700000D02*
X387300000Y-227300000D01*
%TO.C,D9*%
X40878000Y-198725000D02*
X38878000Y-198725000D01*
X40878000Y-198605000D02*
X38878000Y-198605000D01*
X39878000Y-197235000D02*
X39878000Y-197885000D01*
X38878000Y-197885000D02*
X38878000Y-202125000D01*
X38878000Y-202125000D02*
X40878000Y-202125000D01*
X40878000Y-197885000D02*
X38878000Y-197885000D01*
X40878000Y-198485000D02*
X38878000Y-198485000D01*
X39878000Y-202775000D02*
X39878000Y-202125000D01*
X40878000Y-202125000D02*
X40878000Y-197885000D01*
%TO.C,SW415*%
X317300000Y-160200000D02*
X317300000Y-174800000D01*
X302700000Y-174800000D02*
X302700000Y-160200000D01*
X302700000Y-160200000D02*
X317300000Y-160200000D01*
X317300000Y-174800000D02*
X302700000Y-174800000D01*
%TO.C,D24*%
X189865000Y-185122000D02*
X189865000Y-184472000D01*
X190865000Y-180832000D02*
X188865000Y-180832000D01*
X188865000Y-180232000D02*
X188865000Y-184472000D01*
X189865000Y-179582000D02*
X189865000Y-180232000D01*
X190865000Y-184472000D02*
X190865000Y-180232000D01*
X190865000Y-180952000D02*
X188865000Y-180952000D01*
X188865000Y-184472000D02*
X190865000Y-184472000D01*
X190865000Y-180232000D02*
X188865000Y-180232000D01*
X190865000Y-181072000D02*
X188865000Y-181072000D01*
%TO.C,D83*%
X392827000Y-182264000D02*
X392827000Y-186504000D01*
X394827000Y-182864000D02*
X392827000Y-182864000D01*
X394827000Y-186504000D02*
X394827000Y-182264000D01*
X392827000Y-186504000D02*
X394827000Y-186504000D01*
X394827000Y-182264000D02*
X392827000Y-182264000D01*
X393827000Y-187154000D02*
X393827000Y-186504000D01*
X394827000Y-183104000D02*
X392827000Y-183104000D01*
X393827000Y-181614000D02*
X393827000Y-182264000D01*
X394827000Y-182984000D02*
X392827000Y-182984000D01*
%TO.C,SW301*%
X47300000Y-177700000D02*
X47300000Y-192300000D01*
X32700000Y-192300000D02*
X32700000Y-177700000D01*
X47300000Y-192300000D02*
X32700000Y-192300000D01*
X32700000Y-177700000D02*
X47300000Y-177700000D01*
%TO.C,SW506*%
X147300000Y-142700000D02*
X147300000Y-157300000D01*
X132700000Y-142700000D02*
X147300000Y-142700000D01*
X147300000Y-157300000D02*
X132700000Y-157300000D01*
X132700000Y-157300000D02*
X132700000Y-142700000D01*
%TO.C,R2*%
X149765000Y-131345000D02*
X149765000Y-134085000D01*
X156305000Y-134085000D02*
X156305000Y-131345000D01*
X149765000Y-134085000D02*
X156305000Y-134085000D01*
X157075000Y-132715000D02*
X156305000Y-132715000D01*
X148995000Y-132715000D02*
X149765000Y-132715000D01*
X156305000Y-131345000D02*
X149765000Y-131345000D01*
%TO.C,D13*%
X120015000Y-197235000D02*
X120015000Y-197885000D01*
X121015000Y-198605000D02*
X119015000Y-198605000D01*
X119015000Y-202125000D02*
X121015000Y-202125000D01*
X121015000Y-202125000D02*
X121015000Y-197885000D01*
X120015000Y-202775000D02*
X120015000Y-202125000D01*
X121015000Y-198485000D02*
X119015000Y-198485000D01*
X119015000Y-197885000D02*
X119015000Y-202125000D01*
X121015000Y-197885000D02*
X119015000Y-197885000D01*
X121015000Y-198725000D02*
X119015000Y-198725000D01*
%TO.C,SW416*%
X337300000Y-160200000D02*
X337300000Y-174800000D01*
X322700000Y-174800000D02*
X322700000Y-160200000D01*
X337300000Y-174800000D02*
X322700000Y-174800000D01*
X322700000Y-160200000D02*
X337300000Y-160200000D01*
%TO.C,D71*%
X321040000Y-166946000D02*
X321040000Y-162706000D01*
X320040000Y-162056000D02*
X320040000Y-162706000D01*
X321040000Y-163546000D02*
X319040000Y-163546000D01*
X321040000Y-163306000D02*
X319040000Y-163306000D01*
X321040000Y-162706000D02*
X319040000Y-162706000D01*
X320040000Y-167596000D02*
X320040000Y-166946000D01*
X319040000Y-166946000D02*
X321040000Y-166946000D01*
X319040000Y-162706000D02*
X319040000Y-166946000D01*
X321040000Y-163426000D02*
X319040000Y-163426000D01*
%TO.C,D8*%
X191119000Y-215757000D02*
X189119000Y-215757000D01*
X191119000Y-219397000D02*
X191119000Y-215157000D01*
X189119000Y-215157000D02*
X189119000Y-219397000D01*
X191119000Y-215997000D02*
X189119000Y-215997000D01*
X190119000Y-214507000D02*
X190119000Y-215157000D01*
X191119000Y-215157000D02*
X189119000Y-215157000D01*
X190119000Y-220047000D02*
X190119000Y-219397000D01*
X189119000Y-219397000D02*
X191119000Y-219397000D01*
X191119000Y-215877000D02*
X189119000Y-215877000D01*
%TO.C,SW518*%
X387300000Y-142700000D02*
X387300000Y-157300000D01*
X387300000Y-157300000D02*
X372700000Y-157300000D01*
X372700000Y-157300000D02*
X372700000Y-142700000D01*
X372700000Y-142700000D02*
X387300000Y-142700000D01*
%TO.C,D18*%
X69977000Y-185249000D02*
X69977000Y-184599000D01*
X70977000Y-180959000D02*
X68977000Y-180959000D01*
X70977000Y-180359000D02*
X68977000Y-180359000D01*
X70977000Y-184599000D02*
X70977000Y-180359000D01*
X69977000Y-179709000D02*
X69977000Y-180359000D01*
X68977000Y-184599000D02*
X70977000Y-184599000D01*
X70977000Y-181079000D02*
X68977000Y-181079000D01*
X70977000Y-181199000D02*
X68977000Y-181199000D01*
X68977000Y-180359000D02*
X68977000Y-184599000D01*
%TO.C,J1*%
X238745000Y-140870000D02*
X238745000Y-138270000D01*
X236145000Y-140870000D02*
X236145000Y-139540000D01*
X237475000Y-140870000D02*
X236145000Y-140870000D01*
X238745000Y-140870000D02*
X261665000Y-140870000D01*
X236145000Y-135670000D02*
X261665000Y-135670000D01*
X261665000Y-140870000D02*
X261665000Y-135670000D01*
X238745000Y-138270000D02*
X236145000Y-138270000D01*
X236145000Y-138270000D02*
X236145000Y-135670000D01*
%TO.C,D35*%
X89043000Y-149547000D02*
X91043000Y-149547000D01*
X90043000Y-150197000D02*
X90043000Y-149547000D01*
X91043000Y-146027000D02*
X89043000Y-146027000D01*
X89043000Y-145307000D02*
X89043000Y-149547000D01*
X91043000Y-149547000D02*
X91043000Y-145307000D01*
X91043000Y-145907000D02*
X89043000Y-145907000D01*
X90043000Y-144657000D02*
X90043000Y-145307000D01*
X91043000Y-146147000D02*
X89043000Y-146147000D01*
X91043000Y-145307000D02*
X89043000Y-145307000D01*
%TD*%
M02*
