%TF.GenerationSoftware,KiCad,Pcbnew,6.0.11+dfsg-1*%
%TF.CreationDate,2025-04-19T12:41:23+02:00*%
%TF.ProjectId,AkkordeonDiskant,416b6b6f-7264-4656-9f6e-4469736b616e,rev?*%
%TF.SameCoordinates,Original*%
%TF.FileFunction,Legend,Top*%
%TF.FilePolarity,Positive*%
%FSLAX46Y46*%
G04 Gerber Fmt 4.6, Leading zero omitted, Abs format (unit mm)*
G04 Created by KiCad (PCBNEW 6.0.11+dfsg-1) date 2025-04-19 12:41:23*
%MOMM*%
%LPD*%
G01*
G04 APERTURE LIST*
%ADD10C,0.300000*%
%ADD11C,0.150000*%
%ADD12C,0.120000*%
G04 APERTURE END LIST*
D10*
X328582428Y-130082333D02*
X329534809Y-130082333D01*
X328391952Y-130653761D02*
X329058619Y-128653761D01*
X329725285Y-130653761D01*
X330391952Y-130653761D02*
X330391952Y-128653761D01*
X330582428Y-129891857D02*
X331153857Y-130653761D01*
X331153857Y-129320428D02*
X330391952Y-130082333D01*
X332011000Y-130653761D02*
X332011000Y-128653761D01*
X332201476Y-129891857D02*
X332772904Y-130653761D01*
X332772904Y-129320428D02*
X332011000Y-130082333D01*
X333915761Y-130653761D02*
X333725285Y-130558523D01*
X333630047Y-130463285D01*
X333534809Y-130272809D01*
X333534809Y-129701380D01*
X333630047Y-129510904D01*
X333725285Y-129415666D01*
X333915761Y-129320428D01*
X334201476Y-129320428D01*
X334391952Y-129415666D01*
X334487190Y-129510904D01*
X334582428Y-129701380D01*
X334582428Y-130272809D01*
X334487190Y-130463285D01*
X334391952Y-130558523D01*
X334201476Y-130653761D01*
X333915761Y-130653761D01*
X335439571Y-130653761D02*
X335439571Y-129320428D01*
X335439571Y-129701380D02*
X335534809Y-129510904D01*
X335630047Y-129415666D01*
X335820523Y-129320428D01*
X336011000Y-129320428D01*
X337534809Y-130653761D02*
X337534809Y-128653761D01*
X337534809Y-130558523D02*
X337344333Y-130653761D01*
X336963380Y-130653761D01*
X336772904Y-130558523D01*
X336677666Y-130463285D01*
X336582428Y-130272809D01*
X336582428Y-129701380D01*
X336677666Y-129510904D01*
X336772904Y-129415666D01*
X336963380Y-129320428D01*
X337344333Y-129320428D01*
X337534809Y-129415666D01*
X339249095Y-130558523D02*
X339058619Y-130653761D01*
X338677666Y-130653761D01*
X338487190Y-130558523D01*
X338391952Y-130368047D01*
X338391952Y-129606142D01*
X338487190Y-129415666D01*
X338677666Y-129320428D01*
X339058619Y-129320428D01*
X339249095Y-129415666D01*
X339344333Y-129606142D01*
X339344333Y-129796619D01*
X338391952Y-129987095D01*
X340487190Y-130653761D02*
X340296714Y-130558523D01*
X340201476Y-130463285D01*
X340106238Y-130272809D01*
X340106238Y-129701380D01*
X340201476Y-129510904D01*
X340296714Y-129415666D01*
X340487190Y-129320428D01*
X340772904Y-129320428D01*
X340963380Y-129415666D01*
X341058619Y-129510904D01*
X341153857Y-129701380D01*
X341153857Y-130272809D01*
X341058619Y-130463285D01*
X340963380Y-130558523D01*
X340772904Y-130653761D01*
X340487190Y-130653761D01*
X342011000Y-129320428D02*
X342011000Y-130653761D01*
X342011000Y-129510904D02*
X342106238Y-129415666D01*
X342296714Y-129320428D01*
X342582428Y-129320428D01*
X342772904Y-129415666D01*
X342868142Y-129606142D01*
X342868142Y-130653761D01*
X345344333Y-130653761D02*
X345344333Y-128653761D01*
X345820523Y-128653761D01*
X346106238Y-128749000D01*
X346296714Y-128939476D01*
X346391952Y-129129952D01*
X346487190Y-129510904D01*
X346487190Y-129796619D01*
X346391952Y-130177571D01*
X346296714Y-130368047D01*
X346106238Y-130558523D01*
X345820523Y-130653761D01*
X345344333Y-130653761D01*
X347344333Y-130653761D02*
X347344333Y-129320428D01*
X347344333Y-128653761D02*
X347249095Y-128749000D01*
X347344333Y-128844238D01*
X347439571Y-128749000D01*
X347344333Y-128653761D01*
X347344333Y-128844238D01*
X348201476Y-130558523D02*
X348391952Y-130653761D01*
X348772904Y-130653761D01*
X348963380Y-130558523D01*
X349058619Y-130368047D01*
X349058619Y-130272809D01*
X348963380Y-130082333D01*
X348772904Y-129987095D01*
X348487190Y-129987095D01*
X348296714Y-129891857D01*
X348201476Y-129701380D01*
X348201476Y-129606142D01*
X348296714Y-129415666D01*
X348487190Y-129320428D01*
X348772904Y-129320428D01*
X348963380Y-129415666D01*
X349915761Y-130653761D02*
X349915761Y-128653761D01*
X350106238Y-129891857D02*
X350677666Y-130653761D01*
X350677666Y-129320428D02*
X349915761Y-130082333D01*
X352391952Y-130653761D02*
X352391952Y-129606142D01*
X352296714Y-129415666D01*
X352106238Y-129320428D01*
X351725285Y-129320428D01*
X351534809Y-129415666D01*
X352391952Y-130558523D02*
X352201476Y-130653761D01*
X351725285Y-130653761D01*
X351534809Y-130558523D01*
X351439571Y-130368047D01*
X351439571Y-130177571D01*
X351534809Y-129987095D01*
X351725285Y-129891857D01*
X352201476Y-129891857D01*
X352391952Y-129796619D01*
X353344333Y-129320428D02*
X353344333Y-130653761D01*
X353344333Y-129510904D02*
X353439571Y-129415666D01*
X353630047Y-129320428D01*
X353915761Y-129320428D01*
X354106238Y-129415666D01*
X354201476Y-129606142D01*
X354201476Y-130653761D01*
X354868142Y-129320428D02*
X355630047Y-129320428D01*
X355153857Y-128653761D02*
X355153857Y-130368047D01*
X355249095Y-130558523D01*
X355439571Y-130653761D01*
X355630047Y-130653761D01*
X304249095Y-133683285D02*
X304153857Y-133778523D01*
X303868142Y-133873761D01*
X303677666Y-133873761D01*
X303391952Y-133778523D01*
X303201476Y-133588047D01*
X303106238Y-133397571D01*
X303011000Y-133016619D01*
X303011000Y-132730904D01*
X303106238Y-132349952D01*
X303201476Y-132159476D01*
X303391952Y-131969000D01*
X303677666Y-131873761D01*
X303868142Y-131873761D01*
X304153857Y-131969000D01*
X304249095Y-132064238D01*
X305391952Y-133873761D02*
X305201476Y-133778523D01*
X305106238Y-133683285D01*
X305011000Y-133492809D01*
X305011000Y-132921380D01*
X305106238Y-132730904D01*
X305201476Y-132635666D01*
X305391952Y-132540428D01*
X305677666Y-132540428D01*
X305868142Y-132635666D01*
X305963380Y-132730904D01*
X306058619Y-132921380D01*
X306058619Y-133492809D01*
X305963380Y-133683285D01*
X305868142Y-133778523D01*
X305677666Y-133873761D01*
X305391952Y-133873761D01*
X306915761Y-132540428D02*
X306915761Y-134540428D01*
X306915761Y-132635666D02*
X307106238Y-132540428D01*
X307487190Y-132540428D01*
X307677666Y-132635666D01*
X307772904Y-132730904D01*
X307868142Y-132921380D01*
X307868142Y-133492809D01*
X307772904Y-133683285D01*
X307677666Y-133778523D01*
X307487190Y-133873761D01*
X307106238Y-133873761D01*
X306915761Y-133778523D01*
X308534809Y-132540428D02*
X309011000Y-133873761D01*
X309487190Y-132540428D02*
X309011000Y-133873761D01*
X308820523Y-134349952D01*
X308725285Y-134445190D01*
X308534809Y-134540428D01*
X310249095Y-133873761D02*
X310249095Y-132540428D01*
X310249095Y-132921380D02*
X310344333Y-132730904D01*
X310439571Y-132635666D01*
X310630047Y-132540428D01*
X310820523Y-132540428D01*
X311487190Y-133873761D02*
X311487190Y-132540428D01*
X311487190Y-131873761D02*
X311391952Y-131969000D01*
X311487190Y-132064238D01*
X311582428Y-131969000D01*
X311487190Y-131873761D01*
X311487190Y-132064238D01*
X313296714Y-132540428D02*
X313296714Y-134159476D01*
X313201476Y-134349952D01*
X313106238Y-134445190D01*
X312915761Y-134540428D01*
X312630047Y-134540428D01*
X312439571Y-134445190D01*
X313296714Y-133778523D02*
X313106238Y-133873761D01*
X312725285Y-133873761D01*
X312534809Y-133778523D01*
X312439571Y-133683285D01*
X312344333Y-133492809D01*
X312344333Y-132921380D01*
X312439571Y-132730904D01*
X312534809Y-132635666D01*
X312725285Y-132540428D01*
X313106238Y-132540428D01*
X313296714Y-132635666D01*
X314249095Y-133873761D02*
X314249095Y-131873761D01*
X315106238Y-133873761D02*
X315106238Y-132826142D01*
X315011000Y-132635666D01*
X314820523Y-132540428D01*
X314534809Y-132540428D01*
X314344333Y-132635666D01*
X314249095Y-132730904D01*
X315772904Y-132540428D02*
X316534809Y-132540428D01*
X316058619Y-131873761D02*
X316058619Y-133588047D01*
X316153857Y-133778523D01*
X316344333Y-133873761D01*
X316534809Y-133873761D01*
X318630047Y-132064238D02*
X318725285Y-131969000D01*
X318915761Y-131873761D01*
X319391952Y-131873761D01*
X319582428Y-131969000D01*
X319677666Y-132064238D01*
X319772904Y-132254714D01*
X319772904Y-132445190D01*
X319677666Y-132730904D01*
X318534809Y-133873761D01*
X319772904Y-133873761D01*
X321011000Y-131873761D02*
X321201476Y-131873761D01*
X321391952Y-131969000D01*
X321487190Y-132064238D01*
X321582428Y-132254714D01*
X321677666Y-132635666D01*
X321677666Y-133111857D01*
X321582428Y-133492809D01*
X321487190Y-133683285D01*
X321391952Y-133778523D01*
X321201476Y-133873761D01*
X321011000Y-133873761D01*
X320820523Y-133778523D01*
X320725285Y-133683285D01*
X320630047Y-133492809D01*
X320534809Y-133111857D01*
X320534809Y-132635666D01*
X320630047Y-132254714D01*
X320725285Y-132064238D01*
X320820523Y-131969000D01*
X321011000Y-131873761D01*
X322439571Y-132064238D02*
X322534809Y-131969000D01*
X322725285Y-131873761D01*
X323201476Y-131873761D01*
X323391952Y-131969000D01*
X323487190Y-132064238D01*
X323582428Y-132254714D01*
X323582428Y-132445190D01*
X323487190Y-132730904D01*
X322344333Y-133873761D01*
X323582428Y-133873761D01*
X325391952Y-131873761D02*
X324439571Y-131873761D01*
X324344333Y-132826142D01*
X324439571Y-132730904D01*
X324630047Y-132635666D01*
X325106238Y-132635666D01*
X325296714Y-132730904D01*
X325391952Y-132826142D01*
X325487190Y-133016619D01*
X325487190Y-133492809D01*
X325391952Y-133683285D01*
X325296714Y-133778523D01*
X325106238Y-133873761D01*
X324630047Y-133873761D01*
X324439571Y-133778523D01*
X324344333Y-133683285D01*
X328439571Y-131873761D02*
X328439571Y-133302333D01*
X328344333Y-133588047D01*
X328153857Y-133778523D01*
X327868142Y-133873761D01*
X327677666Y-133873761D01*
X330249095Y-132540428D02*
X330249095Y-133873761D01*
X329391952Y-132540428D02*
X329391952Y-133588047D01*
X329487190Y-133778523D01*
X329677666Y-133873761D01*
X329963380Y-133873761D01*
X330153857Y-133778523D01*
X330249095Y-133683285D01*
X329487190Y-131873761D02*
X329582428Y-131969000D01*
X329487190Y-132064238D01*
X329391952Y-131969000D01*
X329487190Y-131873761D01*
X329487190Y-132064238D01*
X330249095Y-131873761D02*
X330344333Y-131969000D01*
X330249095Y-132064238D01*
X330153857Y-131969000D01*
X330249095Y-131873761D01*
X330249095Y-132064238D01*
X331201476Y-133873761D02*
X331201476Y-132540428D01*
X331201476Y-132921380D02*
X331296714Y-132730904D01*
X331391952Y-132635666D01*
X331582428Y-132540428D01*
X331772904Y-132540428D01*
X333296714Y-132540428D02*
X333296714Y-134159476D01*
X333201476Y-134349952D01*
X333106238Y-134445190D01*
X332915761Y-134540428D01*
X332630047Y-134540428D01*
X332439571Y-134445190D01*
X333296714Y-133778523D02*
X333106238Y-133873761D01*
X332725285Y-133873761D01*
X332534809Y-133778523D01*
X332439571Y-133683285D01*
X332344333Y-133492809D01*
X332344333Y-132921380D01*
X332439571Y-132730904D01*
X332534809Y-132635666D01*
X332725285Y-132540428D01*
X333106238Y-132540428D01*
X333296714Y-132635666D01*
X335772904Y-133873761D02*
X335772904Y-131873761D01*
X336439571Y-133302333D01*
X337106238Y-131873761D01*
X337106238Y-133873761D01*
X338915761Y-132540428D02*
X338915761Y-133873761D01*
X338058619Y-132540428D02*
X338058619Y-133588047D01*
X338153857Y-133778523D01*
X338344333Y-133873761D01*
X338630047Y-133873761D01*
X338820523Y-133778523D01*
X338915761Y-133683285D01*
X338153857Y-131873761D02*
X338249095Y-131969000D01*
X338153857Y-132064238D01*
X338058619Y-131969000D01*
X338153857Y-131873761D01*
X338153857Y-132064238D01*
X338915761Y-131873761D02*
X339011000Y-131969000D01*
X338915761Y-132064238D01*
X338820523Y-131969000D01*
X338915761Y-131873761D01*
X338915761Y-132064238D01*
X340153857Y-133873761D02*
X339963380Y-133778523D01*
X339868142Y-133588047D01*
X339868142Y-131873761D01*
X341201476Y-133873761D02*
X341011000Y-133778523D01*
X340915761Y-133588047D01*
X340915761Y-131873761D01*
X342725285Y-133778523D02*
X342534809Y-133873761D01*
X342153857Y-133873761D01*
X341963380Y-133778523D01*
X341868142Y-133588047D01*
X341868142Y-132826142D01*
X341963380Y-132635666D01*
X342153857Y-132540428D01*
X342534809Y-132540428D01*
X342725285Y-132635666D01*
X342820523Y-132826142D01*
X342820523Y-133016619D01*
X341868142Y-133207095D01*
X343677666Y-133873761D02*
X343677666Y-132540428D01*
X343677666Y-132921380D02*
X343772904Y-132730904D01*
X343868142Y-132635666D01*
X344058619Y-132540428D01*
X344249095Y-132540428D01*
X345011000Y-133778523D02*
X345011000Y-133873761D01*
X344915761Y-134064238D01*
X344820523Y-134159476D01*
X348534809Y-133683285D02*
X348439571Y-133778523D01*
X348153857Y-133873761D01*
X347963380Y-133873761D01*
X347677666Y-133778523D01*
X347487190Y-133588047D01*
X347391952Y-133397571D01*
X347296714Y-133016619D01*
X347296714Y-132730904D01*
X347391952Y-132349952D01*
X347487190Y-132159476D01*
X347677666Y-131969000D01*
X347963380Y-131873761D01*
X348153857Y-131873761D01*
X348439571Y-131969000D01*
X348534809Y-132064238D01*
X349391952Y-133873761D02*
X349391952Y-131873761D01*
X349391952Y-132826142D02*
X350534809Y-132826142D01*
X350534809Y-133873761D02*
X350534809Y-131873761D01*
X351487190Y-133111857D02*
X353011000Y-133111857D01*
X354915761Y-131873761D02*
X353963380Y-131873761D01*
X353868142Y-132826142D01*
X353963380Y-132730904D01*
X354153857Y-132635666D01*
X354630047Y-132635666D01*
X354820523Y-132730904D01*
X354915761Y-132826142D01*
X355011000Y-133016619D01*
X355011000Y-133492809D01*
X354915761Y-133683285D01*
X354820523Y-133778523D01*
X354630047Y-133873761D01*
X354153857Y-133873761D01*
X353963380Y-133778523D01*
X353868142Y-133683285D01*
X356820523Y-131873761D02*
X355868142Y-131873761D01*
X355772904Y-132826142D01*
X355868142Y-132730904D01*
X356058619Y-132635666D01*
X356534809Y-132635666D01*
X356725285Y-132730904D01*
X356820523Y-132826142D01*
X356915761Y-133016619D01*
X356915761Y-133492809D01*
X356820523Y-133683285D01*
X356725285Y-133778523D01*
X356534809Y-133873761D01*
X356058619Y-133873761D01*
X355868142Y-133778523D01*
X355772904Y-133683285D01*
X357677666Y-132064238D02*
X357772904Y-131969000D01*
X357963380Y-131873761D01*
X358439571Y-131873761D01*
X358630047Y-131969000D01*
X358725285Y-132064238D01*
X358820523Y-132254714D01*
X358820523Y-132445190D01*
X358725285Y-132730904D01*
X357582428Y-133873761D01*
X358820523Y-133873761D01*
X360534809Y-132540428D02*
X360534809Y-133873761D01*
X360058619Y-131778523D02*
X359582428Y-133207095D01*
X360820523Y-133207095D01*
X363106238Y-133873761D02*
X363106238Y-131873761D01*
X364249095Y-133873761D01*
X364249095Y-131873761D01*
X365963380Y-133778523D02*
X365772904Y-133873761D01*
X365391952Y-133873761D01*
X365201476Y-133778523D01*
X365106238Y-133588047D01*
X365106238Y-132826142D01*
X365201476Y-132635666D01*
X365391952Y-132540428D01*
X365772904Y-132540428D01*
X365963380Y-132635666D01*
X366058619Y-132826142D01*
X366058619Y-133016619D01*
X365106238Y-133207095D01*
X366820523Y-133778523D02*
X367011000Y-133873761D01*
X367391952Y-133873761D01*
X367582428Y-133778523D01*
X367677666Y-133588047D01*
X367677666Y-133492809D01*
X367582428Y-133302333D01*
X367391952Y-133207095D01*
X367106238Y-133207095D01*
X366915761Y-133111857D01*
X366820523Y-132921380D01*
X366820523Y-132826142D01*
X366915761Y-132635666D01*
X367106238Y-132540428D01*
X367391952Y-132540428D01*
X367582428Y-132635666D01*
X368439571Y-133778523D02*
X368630047Y-133873761D01*
X369011000Y-133873761D01*
X369201476Y-133778523D01*
X369296714Y-133588047D01*
X369296714Y-133492809D01*
X369201476Y-133302333D01*
X369011000Y-133207095D01*
X368725285Y-133207095D01*
X368534809Y-133111857D01*
X368439571Y-132921380D01*
X368439571Y-132826142D01*
X368534809Y-132635666D01*
X368725285Y-132540428D01*
X369011000Y-132540428D01*
X369201476Y-132635666D01*
X370915761Y-133778523D02*
X370725285Y-133873761D01*
X370344333Y-133873761D01*
X370153857Y-133778523D01*
X370058619Y-133588047D01*
X370058619Y-132826142D01*
X370153857Y-132635666D01*
X370344333Y-132540428D01*
X370725285Y-132540428D01*
X370915761Y-132635666D01*
X371011000Y-132826142D01*
X371011000Y-133016619D01*
X370058619Y-133207095D01*
X372153857Y-133873761D02*
X371963380Y-133778523D01*
X371868142Y-133588047D01*
X371868142Y-131873761D01*
X372915761Y-132540428D02*
X372915761Y-133873761D01*
X372915761Y-132730904D02*
X373011000Y-132635666D01*
X373201476Y-132540428D01*
X373487190Y-132540428D01*
X373677666Y-132635666D01*
X373772904Y-132826142D01*
X373772904Y-133873761D01*
X374725285Y-133873761D02*
X374725285Y-131873761D01*
X374725285Y-132635666D02*
X374915761Y-132540428D01*
X375296714Y-132540428D01*
X375487190Y-132635666D01*
X375582428Y-132730904D01*
X375677666Y-132921380D01*
X375677666Y-133492809D01*
X375582428Y-133683285D01*
X375487190Y-133778523D01*
X375296714Y-133873761D01*
X374915761Y-133873761D01*
X374725285Y-133778523D01*
X377391952Y-133873761D02*
X377391952Y-132826142D01*
X377296714Y-132635666D01*
X377106238Y-132540428D01*
X376725285Y-132540428D01*
X376534809Y-132635666D01*
X377391952Y-133778523D02*
X377201476Y-133873761D01*
X376725285Y-133873761D01*
X376534809Y-133778523D01*
X376439571Y-133588047D01*
X376439571Y-133397571D01*
X376534809Y-133207095D01*
X376725285Y-133111857D01*
X377201476Y-133111857D01*
X377391952Y-133016619D01*
X379201476Y-133778523D02*
X379011000Y-133873761D01*
X378630047Y-133873761D01*
X378439571Y-133778523D01*
X378344333Y-133683285D01*
X378249095Y-133492809D01*
X378249095Y-132921380D01*
X378344333Y-132730904D01*
X378439571Y-132635666D01*
X378630047Y-132540428D01*
X379011000Y-132540428D01*
X379201476Y-132635666D01*
X380058619Y-133873761D02*
X380058619Y-131873761D01*
X380915761Y-133873761D02*
X380915761Y-132826142D01*
X380820523Y-132635666D01*
X380630047Y-132540428D01*
X380344333Y-132540428D01*
X380153857Y-132635666D01*
X380058619Y-132730904D01*
X326058619Y-135284238D02*
X326153857Y-135189000D01*
X326344333Y-135093761D01*
X326820523Y-135093761D01*
X327011000Y-135189000D01*
X327106238Y-135284238D01*
X327201476Y-135474714D01*
X327201476Y-135665190D01*
X327106238Y-135950904D01*
X325963380Y-137093761D01*
X327201476Y-137093761D01*
X328439571Y-135093761D02*
X328630047Y-135093761D01*
X328820523Y-135189000D01*
X328915761Y-135284238D01*
X329011000Y-135474714D01*
X329106238Y-135855666D01*
X329106238Y-136331857D01*
X329011000Y-136712809D01*
X328915761Y-136903285D01*
X328820523Y-136998523D01*
X328630047Y-137093761D01*
X328439571Y-137093761D01*
X328249095Y-136998523D01*
X328153857Y-136903285D01*
X328058619Y-136712809D01*
X327963380Y-136331857D01*
X327963380Y-135855666D01*
X328058619Y-135474714D01*
X328153857Y-135284238D01*
X328249095Y-135189000D01*
X328439571Y-135093761D01*
X331487190Y-137093761D02*
X331487190Y-135760428D01*
X331487190Y-135950904D02*
X331582428Y-135855666D01*
X331772904Y-135760428D01*
X332058619Y-135760428D01*
X332249095Y-135855666D01*
X332344333Y-136046142D01*
X332344333Y-137093761D01*
X332344333Y-136046142D02*
X332439571Y-135855666D01*
X332630047Y-135760428D01*
X332915761Y-135760428D01*
X333106238Y-135855666D01*
X333201476Y-136046142D01*
X333201476Y-137093761D01*
X334153857Y-137093761D02*
X334153857Y-135760428D01*
X334153857Y-135950904D02*
X334249095Y-135855666D01*
X334439571Y-135760428D01*
X334725285Y-135760428D01*
X334915761Y-135855666D01*
X335011000Y-136046142D01*
X335011000Y-137093761D01*
X335011000Y-136046142D02*
X335106238Y-135855666D01*
X335296714Y-135760428D01*
X335582428Y-135760428D01*
X335772904Y-135855666D01*
X335868142Y-136046142D01*
X335868142Y-137093761D01*
X339201476Y-135760428D02*
X339201476Y-137093761D01*
X338344333Y-135760428D02*
X338344333Y-136808047D01*
X338439571Y-136998523D01*
X338630047Y-137093761D01*
X338915761Y-137093761D01*
X339106238Y-136998523D01*
X339201476Y-136903285D01*
X340153857Y-135760428D02*
X340153857Y-137093761D01*
X340153857Y-135950904D02*
X340249095Y-135855666D01*
X340439571Y-135760428D01*
X340725285Y-135760428D01*
X340915761Y-135855666D01*
X341011000Y-136046142D01*
X341011000Y-137093761D01*
X342820523Y-137093761D02*
X342820523Y-135093761D01*
X342820523Y-136998523D02*
X342630047Y-137093761D01*
X342249095Y-137093761D01*
X342058619Y-136998523D01*
X341963380Y-136903285D01*
X341868142Y-136712809D01*
X341868142Y-136141380D01*
X341963380Y-135950904D01*
X342058619Y-135855666D01*
X342249095Y-135760428D01*
X342630047Y-135760428D01*
X342820523Y-135855666D01*
X346344333Y-137093761D02*
X345201476Y-137093761D01*
X345772904Y-137093761D02*
X345772904Y-135093761D01*
X345582428Y-135379476D01*
X345391952Y-135569952D01*
X345201476Y-135665190D01*
X347011000Y-135093761D02*
X348344333Y-135093761D01*
X347487190Y-137093761D01*
X349106238Y-136903285D02*
X349201476Y-136998523D01*
X349106238Y-137093761D01*
X349011000Y-136998523D01*
X349106238Y-136903285D01*
X349106238Y-137093761D01*
X351011000Y-135093761D02*
X350058619Y-135093761D01*
X349963380Y-136046142D01*
X350058619Y-135950904D01*
X350249095Y-135855666D01*
X350725285Y-135855666D01*
X350915761Y-135950904D01*
X351011000Y-136046142D01*
X351106238Y-136236619D01*
X351106238Y-136712809D01*
X351011000Y-136903285D01*
X350915761Y-136998523D01*
X350725285Y-137093761D01*
X350249095Y-137093761D01*
X350058619Y-136998523D01*
X349963380Y-136903285D01*
X353487190Y-137093761D02*
X353487190Y-135760428D01*
X353487190Y-135950904D02*
X353582428Y-135855666D01*
X353772904Y-135760428D01*
X354058619Y-135760428D01*
X354249095Y-135855666D01*
X354344333Y-136046142D01*
X354344333Y-137093761D01*
X354344333Y-136046142D02*
X354439571Y-135855666D01*
X354630047Y-135760428D01*
X354915761Y-135760428D01*
X355106238Y-135855666D01*
X355201476Y-136046142D01*
X355201476Y-137093761D01*
X356153857Y-137093761D02*
X356153857Y-135760428D01*
X356153857Y-135950904D02*
X356249095Y-135855666D01*
X356439571Y-135760428D01*
X356725285Y-135760428D01*
X356915761Y-135855666D01*
X357011000Y-136046142D01*
X357011000Y-137093761D01*
X357011000Y-136046142D02*
X357106238Y-135855666D01*
X357296714Y-135760428D01*
X357582428Y-135760428D01*
X357772904Y-135855666D01*
X357868142Y-136046142D01*
X357868142Y-137093761D01*
D11*
%TO.C,R3*%
X151963571Y-137358380D02*
X151392142Y-137358380D01*
X151677857Y-137358380D02*
X151677857Y-136358380D01*
X151582619Y-136501238D01*
X151487380Y-136596476D01*
X151392142Y-136644095D01*
X152582619Y-136358380D02*
X152677857Y-136358380D01*
X152773095Y-136406000D01*
X152820714Y-136453619D01*
X152868333Y-136548857D01*
X152915952Y-136739333D01*
X152915952Y-136977428D01*
X152868333Y-137167904D01*
X152820714Y-137263142D01*
X152773095Y-137310761D01*
X152677857Y-137358380D01*
X152582619Y-137358380D01*
X152487380Y-137310761D01*
X152439761Y-137263142D01*
X152392142Y-137167904D01*
X152344523Y-136977428D01*
X152344523Y-136739333D01*
X152392142Y-136548857D01*
X152439761Y-136453619D01*
X152487380Y-136406000D01*
X152582619Y-136358380D01*
X153535000Y-136358380D02*
X153630238Y-136358380D01*
X153725476Y-136406000D01*
X153773095Y-136453619D01*
X153820714Y-136548857D01*
X153868333Y-136739333D01*
X153868333Y-136977428D01*
X153820714Y-137167904D01*
X153773095Y-137263142D01*
X153725476Y-137310761D01*
X153630238Y-137358380D01*
X153535000Y-137358380D01*
X153439761Y-137310761D01*
X153392142Y-137263142D01*
X153344523Y-137167904D01*
X153296904Y-136977428D01*
X153296904Y-136739333D01*
X153344523Y-136548857D01*
X153392142Y-136453619D01*
X153439761Y-136406000D01*
X153535000Y-136358380D01*
X154296904Y-137358380D02*
X154296904Y-136358380D01*
X154392142Y-136977428D02*
X154677857Y-137358380D01*
X154677857Y-136691714D02*
X154296904Y-137072666D01*
%TO.C,R1*%
X152217571Y-128976380D02*
X151646142Y-128976380D01*
X151931857Y-128976380D02*
X151931857Y-127976380D01*
X151836619Y-128119238D01*
X151741380Y-128214476D01*
X151646142Y-128262095D01*
X152836619Y-127976380D02*
X152931857Y-127976380D01*
X153027095Y-128024000D01*
X153074714Y-128071619D01*
X153122333Y-128166857D01*
X153169952Y-128357333D01*
X153169952Y-128595428D01*
X153122333Y-128785904D01*
X153074714Y-128881142D01*
X153027095Y-128928761D01*
X152931857Y-128976380D01*
X152836619Y-128976380D01*
X152741380Y-128928761D01*
X152693761Y-128881142D01*
X152646142Y-128785904D01*
X152598523Y-128595428D01*
X152598523Y-128357333D01*
X152646142Y-128166857D01*
X152693761Y-128071619D01*
X152741380Y-128024000D01*
X152836619Y-127976380D01*
X153789000Y-127976380D02*
X153884238Y-127976380D01*
X153979476Y-128024000D01*
X154027095Y-128071619D01*
X154074714Y-128166857D01*
X154122333Y-128357333D01*
X154122333Y-128595428D01*
X154074714Y-128785904D01*
X154027095Y-128881142D01*
X153979476Y-128928761D01*
X153884238Y-128976380D01*
X153789000Y-128976380D01*
X153693761Y-128928761D01*
X153646142Y-128881142D01*
X153598523Y-128785904D01*
X153550904Y-128595428D01*
X153550904Y-128357333D01*
X153598523Y-128166857D01*
X153646142Y-128071619D01*
X153693761Y-128024000D01*
X153789000Y-127976380D01*
X154550904Y-128976380D02*
X154550904Y-127976380D01*
X154646142Y-128595428D02*
X154931857Y-128976380D01*
X154931857Y-128309714D02*
X154550904Y-128690666D01*
%TO.C,C1*%
X145192380Y-135612047D02*
X145192380Y-136183476D01*
X145192380Y-135897761D02*
X144192380Y-135897761D01*
X144335238Y-135993000D01*
X144430476Y-136088238D01*
X144478095Y-136183476D01*
X144192380Y-134993000D02*
X144192380Y-134897761D01*
X144240000Y-134802523D01*
X144287619Y-134754904D01*
X144382857Y-134707285D01*
X144573333Y-134659666D01*
X144811428Y-134659666D01*
X145001904Y-134707285D01*
X145097142Y-134754904D01*
X145144761Y-134802523D01*
X145192380Y-134897761D01*
X145192380Y-134993000D01*
X145144761Y-135088238D01*
X145097142Y-135135857D01*
X145001904Y-135183476D01*
X144811428Y-135231095D01*
X144573333Y-135231095D01*
X144382857Y-135183476D01*
X144287619Y-135135857D01*
X144240000Y-135088238D01*
X144192380Y-134993000D01*
X144192380Y-134040619D02*
X144192380Y-133945380D01*
X144240000Y-133850142D01*
X144287619Y-133802523D01*
X144382857Y-133754904D01*
X144573333Y-133707285D01*
X144811428Y-133707285D01*
X145001904Y-133754904D01*
X145097142Y-133802523D01*
X145144761Y-133850142D01*
X145192380Y-133945380D01*
X145192380Y-134040619D01*
X145144761Y-134135857D01*
X145097142Y-134183476D01*
X145001904Y-134231095D01*
X144811428Y-134278714D01*
X144573333Y-134278714D01*
X144382857Y-134231095D01*
X144287619Y-134183476D01*
X144240000Y-134135857D01*
X144192380Y-134040619D01*
X144525714Y-133278714D02*
X145192380Y-133278714D01*
X144620952Y-133278714D02*
X144573333Y-133231095D01*
X144525714Y-133135857D01*
X144525714Y-132993000D01*
X144573333Y-132897761D01*
X144668571Y-132850142D01*
X145192380Y-132850142D01*
%TO.C,R2*%
X151963571Y-133167380D02*
X151392142Y-133167380D01*
X151677857Y-133167380D02*
X151677857Y-132167380D01*
X151582619Y-132310238D01*
X151487380Y-132405476D01*
X151392142Y-132453095D01*
X152582619Y-132167380D02*
X152677857Y-132167380D01*
X152773095Y-132215000D01*
X152820714Y-132262619D01*
X152868333Y-132357857D01*
X152915952Y-132548333D01*
X152915952Y-132786428D01*
X152868333Y-132976904D01*
X152820714Y-133072142D01*
X152773095Y-133119761D01*
X152677857Y-133167380D01*
X152582619Y-133167380D01*
X152487380Y-133119761D01*
X152439761Y-133072142D01*
X152392142Y-132976904D01*
X152344523Y-132786428D01*
X152344523Y-132548333D01*
X152392142Y-132357857D01*
X152439761Y-132262619D01*
X152487380Y-132215000D01*
X152582619Y-132167380D01*
X153535000Y-132167380D02*
X153630238Y-132167380D01*
X153725476Y-132215000D01*
X153773095Y-132262619D01*
X153820714Y-132357857D01*
X153868333Y-132548333D01*
X153868333Y-132786428D01*
X153820714Y-132976904D01*
X153773095Y-133072142D01*
X153725476Y-133119761D01*
X153630238Y-133167380D01*
X153535000Y-133167380D01*
X153439761Y-133119761D01*
X153392142Y-133072142D01*
X153344523Y-132976904D01*
X153296904Y-132786428D01*
X153296904Y-132548333D01*
X153344523Y-132357857D01*
X153392142Y-132262619D01*
X153439761Y-132215000D01*
X153535000Y-132167380D01*
X154296904Y-133167380D02*
X154296904Y-132167380D01*
X154392142Y-132786428D02*
X154677857Y-133167380D01*
X154677857Y-132500714D02*
X154296904Y-132881666D01*
D12*
%TO.C,D76*%
X271002000Y-146274000D02*
X269002000Y-146274000D01*
X270002000Y-150324000D02*
X270002000Y-149674000D01*
X271002000Y-146154000D02*
X269002000Y-146154000D01*
X269002000Y-149674000D02*
X271002000Y-149674000D01*
X271002000Y-149674000D02*
X271002000Y-145434000D01*
X269002000Y-145434000D02*
X269002000Y-149674000D01*
X271002000Y-146034000D02*
X269002000Y-146034000D01*
X271002000Y-145434000D02*
X269002000Y-145434000D01*
X270002000Y-144784000D02*
X270002000Y-145434000D01*
%TO.C,D39*%
X170053000Y-144657000D02*
X170053000Y-145307000D01*
X171053000Y-149547000D02*
X171053000Y-145307000D01*
X169053000Y-149547000D02*
X171053000Y-149547000D01*
X169053000Y-145307000D02*
X169053000Y-149547000D01*
X170053000Y-150197000D02*
X170053000Y-149547000D01*
X171053000Y-146147000D02*
X169053000Y-146147000D01*
X171053000Y-145907000D02*
X169053000Y-145907000D01*
X171053000Y-145307000D02*
X169053000Y-145307000D01*
X171053000Y-146027000D02*
X169053000Y-146027000D01*
%TO.C,D47*%
X329946000Y-220174000D02*
X329946000Y-219524000D01*
X330946000Y-216124000D02*
X328946000Y-216124000D01*
X328946000Y-219524000D02*
X330946000Y-219524000D01*
X330946000Y-216004000D02*
X328946000Y-216004000D01*
X329946000Y-214634000D02*
X329946000Y-215284000D01*
X330946000Y-215884000D02*
X328946000Y-215884000D01*
X330946000Y-215284000D02*
X328946000Y-215284000D01*
X328946000Y-215284000D02*
X328946000Y-219524000D01*
X330946000Y-219524000D02*
X330946000Y-215284000D01*
%TO.C,SW406*%
X122700000Y-174800000D02*
X122700000Y-160200000D01*
X137300000Y-174800000D02*
X122700000Y-174800000D01*
X137300000Y-160200000D02*
X137300000Y-174800000D01*
X122700000Y-160200000D02*
X137300000Y-160200000D01*
%TO.C,SW307*%
X152700000Y-192300000D02*
X152700000Y-177700000D01*
X167300000Y-192300000D02*
X152700000Y-192300000D01*
X152700000Y-177700000D02*
X167300000Y-177700000D01*
X167300000Y-177700000D02*
X167300000Y-192300000D01*
%TO.C,SW205*%
X117300000Y-209800000D02*
X102700000Y-209800000D01*
X102700000Y-195200000D02*
X117300000Y-195200000D01*
X102700000Y-209800000D02*
X102700000Y-195200000D01*
X117300000Y-195200000D02*
X117300000Y-209800000D01*
%TO.C,D73*%
X211058000Y-145434000D02*
X209058000Y-145434000D01*
X211058000Y-146274000D02*
X209058000Y-146274000D01*
X210058000Y-144784000D02*
X210058000Y-145434000D01*
X210058000Y-150324000D02*
X210058000Y-149674000D01*
X209058000Y-145434000D02*
X209058000Y-149674000D01*
X211058000Y-146154000D02*
X209058000Y-146154000D01*
X211058000Y-146034000D02*
X209058000Y-146034000D01*
X211058000Y-149674000D02*
X211058000Y-145434000D01*
X209058000Y-149674000D02*
X211058000Y-149674000D01*
%TO.C,D26*%
X59944000Y-162310000D02*
X59944000Y-162960000D01*
X58944000Y-167200000D02*
X60944000Y-167200000D01*
X59944000Y-167850000D02*
X59944000Y-167200000D01*
X60944000Y-163560000D02*
X58944000Y-163560000D01*
X60944000Y-162960000D02*
X58944000Y-162960000D01*
X60944000Y-167200000D02*
X60944000Y-162960000D01*
X60944000Y-163680000D02*
X58944000Y-163680000D01*
X60944000Y-163800000D02*
X58944000Y-163800000D01*
X58944000Y-162960000D02*
X58944000Y-167200000D01*
%TO.C,D79*%
X331073000Y-144115000D02*
X329073000Y-144115000D01*
X331073000Y-143275000D02*
X329073000Y-143275000D01*
X331073000Y-143875000D02*
X329073000Y-143875000D01*
X331073000Y-147515000D02*
X331073000Y-143275000D01*
X329073000Y-147515000D02*
X331073000Y-147515000D01*
X330073000Y-142625000D02*
X330073000Y-143275000D01*
X330073000Y-148165000D02*
X330073000Y-147515000D01*
X329073000Y-143275000D02*
X329073000Y-147515000D01*
X331073000Y-143995000D02*
X329073000Y-143995000D01*
%TO.C,D68*%
X258969000Y-162960000D02*
X258969000Y-167200000D01*
X260969000Y-163560000D02*
X258969000Y-163560000D01*
X259969000Y-167850000D02*
X259969000Y-167200000D01*
X260969000Y-163680000D02*
X258969000Y-163680000D01*
X260969000Y-162960000D02*
X258969000Y-162960000D01*
X260969000Y-167200000D02*
X260969000Y-162960000D01*
X259969000Y-162310000D02*
X259969000Y-162960000D01*
X260969000Y-163800000D02*
X258969000Y-163800000D01*
X258969000Y-167200000D02*
X260969000Y-167200000D01*
%TO.C,D82*%
X380984000Y-200982000D02*
X380984000Y-196742000D01*
X380984000Y-196742000D02*
X378984000Y-196742000D01*
X378984000Y-200982000D02*
X380984000Y-200982000D01*
X380984000Y-197582000D02*
X378984000Y-197582000D01*
X379984000Y-201632000D02*
X379984000Y-200982000D01*
X380984000Y-197462000D02*
X378984000Y-197462000D01*
X379984000Y-196092000D02*
X379984000Y-196742000D01*
X378984000Y-196742000D02*
X378984000Y-200982000D01*
X380984000Y-197342000D02*
X378984000Y-197342000D01*
%TO.C,D65*%
X200898000Y-163800000D02*
X198898000Y-163800000D01*
X200898000Y-163680000D02*
X198898000Y-163680000D01*
X200898000Y-163560000D02*
X198898000Y-163560000D01*
X200898000Y-162960000D02*
X198898000Y-162960000D01*
X200898000Y-167200000D02*
X200898000Y-162960000D01*
X198898000Y-167200000D02*
X200898000Y-167200000D01*
X199898000Y-167850000D02*
X199898000Y-167200000D01*
X199898000Y-162310000D02*
X199898000Y-162960000D01*
X198898000Y-162960000D02*
X198898000Y-167200000D01*
%TO.C,D53*%
X281035000Y-202125000D02*
X281035000Y-197885000D01*
X280035000Y-197235000D02*
X280035000Y-197885000D01*
X281035000Y-198485000D02*
X279035000Y-198485000D01*
X281035000Y-198605000D02*
X279035000Y-198605000D01*
X281035000Y-197885000D02*
X279035000Y-197885000D01*
X281035000Y-198725000D02*
X279035000Y-198725000D01*
X279035000Y-202125000D02*
X281035000Y-202125000D01*
X279035000Y-197885000D02*
X279035000Y-202125000D01*
X280035000Y-202775000D02*
X280035000Y-202125000D01*
%TO.C,SW211*%
X237300000Y-209800000D02*
X222700000Y-209800000D01*
X222700000Y-195200000D02*
X237300000Y-195200000D01*
X237300000Y-195200000D02*
X237300000Y-209800000D01*
X222700000Y-209800000D02*
X222700000Y-195200000D01*
%TO.C,D90*%
X390033000Y-182137000D02*
X390033000Y-186377000D01*
X392033000Y-182857000D02*
X390033000Y-182857000D01*
X392033000Y-182737000D02*
X390033000Y-182737000D01*
X392033000Y-182137000D02*
X390033000Y-182137000D01*
X392033000Y-186377000D02*
X392033000Y-182137000D01*
X391033000Y-181487000D02*
X391033000Y-182137000D01*
X390033000Y-186377000D02*
X392033000Y-186377000D01*
X391033000Y-187027000D02*
X391033000Y-186377000D01*
X392033000Y-182977000D02*
X390033000Y-182977000D01*
%TO.C,SW202*%
X57300000Y-209800000D02*
X42700000Y-209800000D01*
X42700000Y-209800000D02*
X42700000Y-195200000D01*
X57300000Y-195200000D02*
X57300000Y-209800000D01*
X42700000Y-195200000D02*
X57300000Y-195200000D01*
%TO.C,D81*%
X360918000Y-198478000D02*
X358918000Y-198478000D01*
X360918000Y-197758000D02*
X358918000Y-197758000D01*
X360918000Y-201998000D02*
X360918000Y-197758000D01*
X359918000Y-202648000D02*
X359918000Y-201998000D01*
X358918000Y-201998000D02*
X360918000Y-201998000D01*
X360918000Y-198358000D02*
X358918000Y-198358000D01*
X358918000Y-197758000D02*
X358918000Y-201998000D01*
X359918000Y-197108000D02*
X359918000Y-197758000D01*
X360918000Y-198598000D02*
X358918000Y-198598000D01*
%TO.C,D32*%
X181086000Y-163553000D02*
X179086000Y-163553000D01*
X179086000Y-167073000D02*
X181086000Y-167073000D01*
X180086000Y-167723000D02*
X180086000Y-167073000D01*
X181086000Y-162833000D02*
X179086000Y-162833000D01*
X180086000Y-162183000D02*
X180086000Y-162833000D01*
X181086000Y-163433000D02*
X179086000Y-163433000D01*
X181086000Y-163673000D02*
X179086000Y-163673000D01*
X179086000Y-162833000D02*
X179086000Y-167073000D01*
X181086000Y-167073000D02*
X181086000Y-162833000D01*
%TO.C,D69*%
X279162000Y-162960000D02*
X279162000Y-167200000D01*
X281162000Y-163560000D02*
X279162000Y-163560000D01*
X281162000Y-162960000D02*
X279162000Y-162960000D01*
X281162000Y-163800000D02*
X279162000Y-163800000D01*
X279162000Y-167200000D02*
X281162000Y-167200000D01*
X281162000Y-163680000D02*
X279162000Y-163680000D01*
X281162000Y-167200000D02*
X281162000Y-162960000D01*
X280162000Y-162310000D02*
X280162000Y-162960000D01*
X280162000Y-167850000D02*
X280162000Y-167200000D01*
%TO.C,SW302*%
X67300000Y-177700000D02*
X67300000Y-192300000D01*
X67300000Y-192300000D02*
X52700000Y-192300000D01*
X52700000Y-177700000D02*
X67300000Y-177700000D01*
X52700000Y-192300000D02*
X52700000Y-177700000D01*
%TO.C,SW108*%
X172700000Y-212700000D02*
X187300000Y-212700000D01*
X172700000Y-227300000D02*
X172700000Y-212700000D01*
X187300000Y-227300000D02*
X172700000Y-227300000D01*
X187300000Y-212700000D02*
X187300000Y-227300000D01*
%TO.C,D1*%
X49784000Y-220174000D02*
X49784000Y-219524000D01*
X50784000Y-215884000D02*
X48784000Y-215884000D01*
X50784000Y-215284000D02*
X48784000Y-215284000D01*
X50784000Y-216004000D02*
X48784000Y-216004000D01*
X49784000Y-214634000D02*
X49784000Y-215284000D01*
X50784000Y-216124000D02*
X48784000Y-216124000D01*
X48784000Y-215284000D02*
X48784000Y-219524000D01*
X50784000Y-219524000D02*
X50784000Y-215284000D01*
X48784000Y-219524000D02*
X50784000Y-219524000D01*
%TO.C,D62*%
X311007000Y-184599000D02*
X311007000Y-180359000D01*
X311007000Y-181079000D02*
X309007000Y-181079000D01*
X309007000Y-184599000D02*
X311007000Y-184599000D01*
X311007000Y-181199000D02*
X309007000Y-181199000D01*
X311007000Y-180359000D02*
X309007000Y-180359000D01*
X311007000Y-180959000D02*
X309007000Y-180959000D01*
X310007000Y-179709000D02*
X310007000Y-180359000D01*
X309007000Y-180359000D02*
X309007000Y-184599000D01*
X310007000Y-185249000D02*
X310007000Y-184599000D01*
%TO.C,SW405*%
X102700000Y-160200000D02*
X117300000Y-160200000D01*
X117300000Y-160200000D02*
X117300000Y-174800000D01*
X117300000Y-174800000D02*
X102700000Y-174800000D01*
X102700000Y-174800000D02*
X102700000Y-160200000D01*
%TO.C,D48*%
X349885000Y-214634000D02*
X349885000Y-215284000D01*
X348885000Y-215284000D02*
X348885000Y-219524000D01*
X349885000Y-220174000D02*
X349885000Y-219524000D01*
X350885000Y-216124000D02*
X348885000Y-216124000D01*
X350885000Y-219524000D02*
X350885000Y-215284000D01*
X350885000Y-215884000D02*
X348885000Y-215884000D01*
X348885000Y-219524000D02*
X350885000Y-219524000D01*
X350885000Y-215284000D02*
X348885000Y-215284000D01*
X350885000Y-216004000D02*
X348885000Y-216004000D01*
%TO.C,SW313*%
X287300000Y-192300000D02*
X272700000Y-192300000D01*
X272700000Y-192300000D02*
X272700000Y-177700000D01*
X287300000Y-177700000D02*
X287300000Y-192300000D01*
X272700000Y-177700000D02*
X287300000Y-177700000D01*
%TO.C,SW303*%
X87300000Y-192300000D02*
X72700000Y-192300000D01*
X72700000Y-177700000D02*
X87300000Y-177700000D01*
X72700000Y-192300000D02*
X72700000Y-177700000D01*
X87300000Y-177700000D02*
X87300000Y-192300000D01*
%TO.C,SW511*%
X247300000Y-157300000D02*
X232700000Y-157300000D01*
X232700000Y-142700000D02*
X247300000Y-142700000D01*
X232700000Y-157300000D02*
X232700000Y-142700000D01*
X247300000Y-142700000D02*
X247300000Y-157300000D01*
%TO.C,SW402*%
X42700000Y-174800000D02*
X42700000Y-160200000D01*
X57300000Y-174800000D02*
X42700000Y-174800000D01*
X42700000Y-160200000D02*
X57300000Y-160200000D01*
X57300000Y-160200000D02*
X57300000Y-174800000D01*
%TO.C,SW502*%
X52700000Y-157300000D02*
X52700000Y-142700000D01*
X52700000Y-142700000D02*
X67300000Y-142700000D01*
X67300000Y-142700000D02*
X67300000Y-157300000D01*
X67300000Y-157300000D02*
X52700000Y-157300000D01*
%TO.C,D12*%
X100949000Y-202379000D02*
X100949000Y-198139000D01*
X98949000Y-198139000D02*
X98949000Y-202379000D01*
X100949000Y-198859000D02*
X98949000Y-198859000D01*
X100949000Y-198979000D02*
X98949000Y-198979000D01*
X100949000Y-198739000D02*
X98949000Y-198739000D01*
X99949000Y-197489000D02*
X99949000Y-198139000D01*
X99949000Y-203029000D02*
X99949000Y-202379000D01*
X98949000Y-202379000D02*
X100949000Y-202379000D01*
X100949000Y-198139000D02*
X98949000Y-198139000D01*
%TO.C,D50*%
X219091000Y-201998000D02*
X221091000Y-201998000D01*
X220091000Y-197108000D02*
X220091000Y-197758000D01*
X220091000Y-202648000D02*
X220091000Y-201998000D01*
X221091000Y-201998000D02*
X221091000Y-197758000D01*
X219091000Y-197758000D02*
X219091000Y-201998000D01*
X221091000Y-198598000D02*
X219091000Y-198598000D01*
X221091000Y-198358000D02*
X219091000Y-198358000D01*
X221091000Y-198478000D02*
X219091000Y-198478000D01*
X221091000Y-197758000D02*
X219091000Y-197758000D01*
%TO.C,D23*%
X170926000Y-180232000D02*
X168926000Y-180232000D01*
X168926000Y-180232000D02*
X168926000Y-184472000D01*
X168926000Y-184472000D02*
X170926000Y-184472000D01*
X170926000Y-181072000D02*
X168926000Y-181072000D01*
X170926000Y-180952000D02*
X168926000Y-180952000D01*
X169926000Y-179582000D02*
X169926000Y-180232000D01*
X169926000Y-185122000D02*
X169926000Y-184472000D01*
X170926000Y-184472000D02*
X170926000Y-180232000D01*
X170926000Y-180832000D02*
X168926000Y-180832000D01*
%TO.C,SW403*%
X77300000Y-160200000D02*
X77300000Y-174800000D01*
X62700000Y-160200000D02*
X77300000Y-160200000D01*
X77300000Y-174800000D02*
X62700000Y-174800000D01*
X62700000Y-174800000D02*
X62700000Y-160200000D01*
%TO.C,D20*%
X110982000Y-180959000D02*
X108982000Y-180959000D01*
X109982000Y-185249000D02*
X109982000Y-184599000D01*
X110982000Y-181199000D02*
X108982000Y-181199000D01*
X110982000Y-180359000D02*
X108982000Y-180359000D01*
X108982000Y-180359000D02*
X108982000Y-184599000D01*
X109982000Y-179709000D02*
X109982000Y-180359000D01*
X110982000Y-181079000D02*
X108982000Y-181079000D01*
X108982000Y-184599000D02*
X110982000Y-184599000D01*
X110982000Y-184599000D02*
X110982000Y-180359000D01*
%TO.C,D60*%
X269002000Y-180486000D02*
X269002000Y-184726000D01*
X271002000Y-181086000D02*
X269002000Y-181086000D01*
X271002000Y-181326000D02*
X269002000Y-181326000D01*
X271002000Y-181206000D02*
X269002000Y-181206000D01*
X269002000Y-184726000D02*
X271002000Y-184726000D01*
X271002000Y-180486000D02*
X269002000Y-180486000D01*
X270002000Y-185376000D02*
X270002000Y-184726000D01*
X271002000Y-184726000D02*
X271002000Y-180486000D01*
X270002000Y-179836000D02*
X270002000Y-180486000D01*
%TO.C,SW505*%
X112700000Y-157300000D02*
X112700000Y-142700000D01*
X127300000Y-142700000D02*
X127300000Y-157300000D01*
X112700000Y-142700000D02*
X127300000Y-142700000D01*
X127300000Y-157300000D02*
X112700000Y-157300000D01*
%TO.C,D7*%
X169926000Y-214507000D02*
X169926000Y-215157000D01*
X168926000Y-215157000D02*
X168926000Y-219397000D01*
X170926000Y-215757000D02*
X168926000Y-215757000D01*
X168926000Y-219397000D02*
X170926000Y-219397000D01*
X170926000Y-219397000D02*
X170926000Y-215157000D01*
X170926000Y-215877000D02*
X168926000Y-215877000D01*
X170926000Y-215157000D02*
X168926000Y-215157000D01*
X170926000Y-215997000D02*
X168926000Y-215997000D01*
X169926000Y-220047000D02*
X169926000Y-219397000D01*
%TO.C,SW317*%
X367300000Y-177700000D02*
X367300000Y-192300000D01*
X352700000Y-177700000D02*
X367300000Y-177700000D01*
X352700000Y-192300000D02*
X352700000Y-177700000D01*
X367300000Y-192300000D02*
X352700000Y-192300000D01*
%TO.C,D70*%
X301228000Y-163087000D02*
X299228000Y-163087000D01*
X301228000Y-167327000D02*
X301228000Y-163087000D01*
X299228000Y-167327000D02*
X301228000Y-167327000D01*
X301228000Y-163927000D02*
X299228000Y-163927000D01*
X300228000Y-162437000D02*
X300228000Y-163087000D01*
X301228000Y-163807000D02*
X299228000Y-163807000D01*
X300228000Y-167977000D02*
X300228000Y-167327000D01*
X299228000Y-163087000D02*
X299228000Y-167327000D01*
X301228000Y-163687000D02*
X299228000Y-163687000D01*
%TO.C,D2*%
X71104000Y-215877000D02*
X69104000Y-215877000D01*
X70104000Y-220047000D02*
X70104000Y-219397000D01*
X71104000Y-215757000D02*
X69104000Y-215757000D01*
X71104000Y-215997000D02*
X69104000Y-215997000D01*
X71104000Y-219397000D02*
X71104000Y-215157000D01*
X69104000Y-219397000D02*
X71104000Y-219397000D01*
X70104000Y-214507000D02*
X70104000Y-215157000D01*
X71104000Y-215157000D02*
X69104000Y-215157000D01*
X69104000Y-215157000D02*
X69104000Y-219397000D01*
%TO.C,D14*%
X139827000Y-202775000D02*
X139827000Y-202125000D01*
X138827000Y-197885000D02*
X138827000Y-202125000D01*
X140827000Y-198485000D02*
X138827000Y-198485000D01*
X140827000Y-198605000D02*
X138827000Y-198605000D01*
X140827000Y-202125000D02*
X140827000Y-197885000D01*
X139827000Y-197235000D02*
X139827000Y-197885000D01*
X140827000Y-198725000D02*
X138827000Y-198725000D01*
X138827000Y-202125000D02*
X140827000Y-202125000D01*
X140827000Y-197885000D02*
X138827000Y-197885000D01*
%TO.C,SW103*%
X72700000Y-212700000D02*
X87300000Y-212700000D01*
X87300000Y-227300000D02*
X72700000Y-227300000D01*
X87300000Y-212700000D02*
X87300000Y-227300000D01*
X72700000Y-227300000D02*
X72700000Y-212700000D01*
%TO.C,SW101*%
X32700000Y-212700000D02*
X47300000Y-212700000D01*
X47300000Y-227300000D02*
X32700000Y-227300000D01*
X47300000Y-212700000D02*
X47300000Y-227300000D01*
X32700000Y-227300000D02*
X32700000Y-212700000D01*
%TO.C,D44*%
X269002000Y-219524000D02*
X271002000Y-219524000D01*
X271002000Y-215284000D02*
X269002000Y-215284000D01*
X269002000Y-215284000D02*
X269002000Y-219524000D01*
X271002000Y-216004000D02*
X269002000Y-216004000D01*
X270002000Y-214634000D02*
X270002000Y-215284000D01*
X271002000Y-219524000D02*
X271002000Y-215284000D01*
X270002000Y-220174000D02*
X270002000Y-219524000D01*
X271002000Y-216124000D02*
X269002000Y-216124000D01*
X271002000Y-215884000D02*
X269002000Y-215884000D01*
%TO.C,SW419*%
X397300000Y-160200000D02*
X397300000Y-174800000D01*
X382700000Y-160200000D02*
X397300000Y-160200000D01*
X397300000Y-174800000D02*
X382700000Y-174800000D01*
X382700000Y-174800000D02*
X382700000Y-160200000D01*
%TO.C,D43*%
X251063000Y-219651000D02*
X251063000Y-215411000D01*
X250063000Y-220301000D02*
X250063000Y-219651000D01*
X251063000Y-216251000D02*
X249063000Y-216251000D01*
X251063000Y-215411000D02*
X249063000Y-215411000D01*
X249063000Y-219651000D02*
X251063000Y-219651000D01*
X250063000Y-214761000D02*
X250063000Y-215411000D01*
X251063000Y-216131000D02*
X249063000Y-216131000D01*
X251063000Y-216011000D02*
X249063000Y-216011000D01*
X249063000Y-215411000D02*
X249063000Y-219651000D01*
%TO.C,D85*%
X380984000Y-163546000D02*
X378984000Y-163546000D01*
X378984000Y-166946000D02*
X380984000Y-166946000D01*
X380984000Y-163306000D02*
X378984000Y-163306000D01*
X379984000Y-162056000D02*
X379984000Y-162706000D01*
X380984000Y-163426000D02*
X378984000Y-163426000D01*
X379984000Y-167596000D02*
X379984000Y-166946000D01*
X380984000Y-166946000D02*
X380984000Y-162706000D01*
X380984000Y-162706000D02*
X378984000Y-162706000D01*
X378984000Y-162706000D02*
X378984000Y-166946000D01*
%TO.C,D3*%
X91043000Y-216011000D02*
X89043000Y-216011000D01*
X91043000Y-216131000D02*
X89043000Y-216131000D01*
X91043000Y-219651000D02*
X91043000Y-215411000D01*
X90043000Y-220301000D02*
X90043000Y-219651000D01*
X91043000Y-216251000D02*
X89043000Y-216251000D01*
X89043000Y-219651000D02*
X91043000Y-219651000D01*
X90043000Y-214761000D02*
X90043000Y-215411000D01*
X89043000Y-215411000D02*
X89043000Y-219651000D01*
X91043000Y-215411000D02*
X89043000Y-215411000D01*
%TO.C,D25*%
X41005000Y-167073000D02*
X41005000Y-162833000D01*
X41005000Y-163673000D02*
X39005000Y-163673000D01*
X41005000Y-162833000D02*
X39005000Y-162833000D01*
X39005000Y-162833000D02*
X39005000Y-167073000D01*
X41005000Y-163553000D02*
X39005000Y-163553000D01*
X41005000Y-163433000D02*
X39005000Y-163433000D01*
X39005000Y-167073000D02*
X41005000Y-167073000D01*
X40005000Y-162183000D02*
X40005000Y-162833000D01*
X40005000Y-167723000D02*
X40005000Y-167073000D01*
%TO.C,U1*%
X140151000Y-132233000D02*
G75*
G03*
X140151000Y-134233000I0J-1000000D01*
G01*
X119651000Y-127983000D02*
X119651000Y-138483000D01*
X119711000Y-135483000D02*
X140151000Y-135483000D01*
X140211000Y-127983000D02*
X119651000Y-127983000D01*
X119651000Y-138483000D02*
X140211000Y-138483000D01*
X140151000Y-135483000D02*
X140151000Y-134233000D01*
X119711000Y-130983000D02*
X119711000Y-135483000D01*
X140151000Y-130983000D02*
X119711000Y-130983000D01*
X140211000Y-138483000D02*
X140211000Y-127983000D01*
X140151000Y-132233000D02*
X140151000Y-130983000D01*
%TO.C,D86*%
X393954000Y-149737000D02*
X393954000Y-150387000D01*
X394954000Y-151107000D02*
X392954000Y-151107000D01*
X392954000Y-150387000D02*
X392954000Y-154627000D01*
X394954000Y-151227000D02*
X392954000Y-151227000D01*
X394954000Y-150387000D02*
X392954000Y-150387000D01*
X393954000Y-155277000D02*
X393954000Y-154627000D01*
X394954000Y-150987000D02*
X392954000Y-150987000D01*
X394954000Y-154627000D02*
X394954000Y-150387000D01*
X392954000Y-154627000D02*
X394954000Y-154627000D01*
%TO.C,D42*%
X231124000Y-215870000D02*
X229124000Y-215870000D01*
X231124000Y-215030000D02*
X229124000Y-215030000D01*
X229124000Y-219270000D02*
X231124000Y-219270000D01*
X229124000Y-215030000D02*
X229124000Y-219270000D01*
X230124000Y-219920000D02*
X230124000Y-219270000D01*
X230124000Y-214380000D02*
X230124000Y-215030000D01*
X231124000Y-215750000D02*
X229124000Y-215750000D01*
X231124000Y-215630000D02*
X229124000Y-215630000D01*
X231124000Y-219270000D02*
X231124000Y-215030000D01*
%TO.C,SW515*%
X327300000Y-142700000D02*
X327300000Y-157300000D01*
X312700000Y-157300000D02*
X312700000Y-142700000D01*
X327300000Y-157300000D02*
X312700000Y-157300000D01*
X312700000Y-142700000D02*
X327300000Y-142700000D01*
%TO.C,SW116*%
X332700000Y-212700000D02*
X347300000Y-212700000D01*
X347300000Y-227300000D02*
X332700000Y-227300000D01*
X347300000Y-212700000D02*
X347300000Y-227300000D01*
X332700000Y-227300000D02*
X332700000Y-212700000D01*
%TO.C,D31*%
X159147000Y-162960000D02*
X159147000Y-167200000D01*
X160147000Y-167850000D02*
X160147000Y-167200000D01*
X161147000Y-167200000D02*
X161147000Y-162960000D01*
X161147000Y-162960000D02*
X159147000Y-162960000D01*
X161147000Y-163680000D02*
X159147000Y-163680000D01*
X159147000Y-167200000D02*
X161147000Y-167200000D01*
X161147000Y-163560000D02*
X159147000Y-163560000D01*
X160147000Y-162310000D02*
X160147000Y-162960000D01*
X161147000Y-163800000D02*
X159147000Y-163800000D01*
%TO.C,SW215*%
X317300000Y-195200000D02*
X317300000Y-209800000D01*
X302700000Y-209800000D02*
X302700000Y-195200000D01*
X302700000Y-195200000D02*
X317300000Y-195200000D01*
X317300000Y-209800000D02*
X302700000Y-209800000D01*
%TO.C,D17*%
X50784000Y-180486000D02*
X48784000Y-180486000D01*
X50784000Y-181326000D02*
X48784000Y-181326000D01*
X49784000Y-185376000D02*
X49784000Y-184726000D01*
X50784000Y-184726000D02*
X50784000Y-180486000D01*
X50784000Y-181086000D02*
X48784000Y-181086000D01*
X48784000Y-184726000D02*
X50784000Y-184726000D01*
X49784000Y-179836000D02*
X49784000Y-180486000D01*
X50784000Y-181206000D02*
X48784000Y-181206000D01*
X48784000Y-180486000D02*
X48784000Y-184726000D01*
%TO.C,D57*%
X211058000Y-184599000D02*
X211058000Y-180359000D01*
X211058000Y-181199000D02*
X209058000Y-181199000D01*
X209058000Y-184599000D02*
X211058000Y-184599000D01*
X210058000Y-185249000D02*
X210058000Y-184599000D01*
X211058000Y-180959000D02*
X209058000Y-180959000D01*
X210058000Y-179709000D02*
X210058000Y-180359000D01*
X211058000Y-181079000D02*
X209058000Y-181079000D01*
X211058000Y-180359000D02*
X209058000Y-180359000D01*
X209058000Y-180359000D02*
X209058000Y-184599000D01*
%TO.C,R3*%
X148995000Y-136906000D02*
X149765000Y-136906000D01*
X156305000Y-135536000D02*
X149765000Y-135536000D01*
X149765000Y-138276000D02*
X156305000Y-138276000D01*
X156305000Y-138276000D02*
X156305000Y-135536000D01*
X157075000Y-136906000D02*
X156305000Y-136906000D01*
X149765000Y-135536000D02*
X149765000Y-138276000D01*
%TO.C,SW315*%
X312700000Y-192300000D02*
X312700000Y-177700000D01*
X327300000Y-177700000D02*
X327300000Y-192300000D01*
X327300000Y-192300000D02*
X312700000Y-192300000D01*
X312700000Y-177700000D02*
X327300000Y-177700000D01*
%TO.C,SW503*%
X87300000Y-157300000D02*
X72700000Y-157300000D01*
X72700000Y-157300000D02*
X72700000Y-142700000D01*
X72700000Y-142700000D02*
X87300000Y-142700000D01*
X87300000Y-142700000D02*
X87300000Y-157300000D01*
%TO.C,SW411*%
X237300000Y-174800000D02*
X222700000Y-174800000D01*
X222700000Y-160200000D02*
X237300000Y-160200000D01*
X222700000Y-174800000D02*
X222700000Y-160200000D01*
X237300000Y-160200000D02*
X237300000Y-174800000D01*
%TO.C,D4*%
X109982000Y-214888000D02*
X109982000Y-215538000D01*
X110982000Y-215538000D02*
X108982000Y-215538000D01*
X108982000Y-219778000D02*
X110982000Y-219778000D01*
X109982000Y-220428000D02*
X109982000Y-219778000D01*
X110982000Y-216258000D02*
X108982000Y-216258000D01*
X110982000Y-216378000D02*
X108982000Y-216378000D01*
X110982000Y-219778000D02*
X110982000Y-215538000D01*
X108982000Y-215538000D02*
X108982000Y-219778000D01*
X110982000Y-216138000D02*
X108982000Y-216138000D01*
%TO.C,SW208*%
X162700000Y-195200000D02*
X177300000Y-195200000D01*
X177300000Y-209800000D02*
X162700000Y-209800000D01*
X162700000Y-209800000D02*
X162700000Y-195200000D01*
X177300000Y-195200000D02*
X177300000Y-209800000D01*
%TO.C,SW410*%
X217300000Y-174800000D02*
X202700000Y-174800000D01*
X202700000Y-174800000D02*
X202700000Y-160200000D01*
X217300000Y-160200000D02*
X217300000Y-174800000D01*
X202700000Y-160200000D02*
X217300000Y-160200000D01*
%TO.C,D88*%
X395589000Y-220202000D02*
X393589000Y-220202000D01*
X394589000Y-224492000D02*
X394589000Y-223842000D01*
X395589000Y-220442000D02*
X393589000Y-220442000D01*
X395589000Y-223842000D02*
X395589000Y-219602000D01*
X393589000Y-219602000D02*
X393589000Y-223842000D01*
X395589000Y-220322000D02*
X393589000Y-220322000D01*
X393589000Y-223842000D02*
X395589000Y-223842000D01*
X395589000Y-219602000D02*
X393589000Y-219602000D01*
X394589000Y-218952000D02*
X394589000Y-219602000D01*
%TO.C,D15*%
X160020000Y-202648000D02*
X160020000Y-201998000D01*
X161020000Y-201998000D02*
X161020000Y-197758000D01*
X159020000Y-201998000D02*
X161020000Y-201998000D01*
X161020000Y-198598000D02*
X159020000Y-198598000D01*
X161020000Y-198358000D02*
X159020000Y-198358000D01*
X160020000Y-197108000D02*
X160020000Y-197758000D01*
X161020000Y-197758000D02*
X159020000Y-197758000D01*
X161020000Y-198478000D02*
X159020000Y-198478000D01*
X159020000Y-197758000D02*
X159020000Y-201998000D01*
%TO.C,SW509*%
X207300000Y-157300000D02*
X192700000Y-157300000D01*
X207300000Y-142700000D02*
X207300000Y-157300000D01*
X192700000Y-142700000D02*
X207300000Y-142700000D01*
X192700000Y-157300000D02*
X192700000Y-142700000D01*
%TO.C,SW107*%
X167300000Y-212700000D02*
X167300000Y-227300000D01*
X152700000Y-212700000D02*
X167300000Y-212700000D01*
X167300000Y-227300000D02*
X152700000Y-227300000D01*
X152700000Y-227300000D02*
X152700000Y-212700000D01*
%TO.C,SW218*%
X362700000Y-195200000D02*
X377300000Y-195200000D01*
X377300000Y-209800000D02*
X362700000Y-209800000D01*
X377300000Y-195200000D02*
X377300000Y-209800000D01*
X362700000Y-209800000D02*
X362700000Y-195200000D01*
%TO.C,D87*%
X369078000Y-219524000D02*
X371078000Y-219524000D01*
X371078000Y-215284000D02*
X369078000Y-215284000D01*
X371078000Y-215884000D02*
X369078000Y-215884000D01*
X371078000Y-216124000D02*
X369078000Y-216124000D01*
X370078000Y-220174000D02*
X370078000Y-219524000D01*
X370078000Y-214634000D02*
X370078000Y-215284000D01*
X371078000Y-216004000D02*
X369078000Y-216004000D01*
X371078000Y-219524000D02*
X371078000Y-215284000D01*
X369078000Y-215284000D02*
X369078000Y-219524000D01*
%TO.C,SW305*%
X127300000Y-177700000D02*
X127300000Y-192300000D01*
X112700000Y-192300000D02*
X112700000Y-177700000D01*
X112700000Y-177700000D02*
X127300000Y-177700000D01*
X127300000Y-192300000D02*
X112700000Y-192300000D01*
%TO.C,SW414*%
X282700000Y-174800000D02*
X282700000Y-160200000D01*
X297300000Y-174800000D02*
X282700000Y-174800000D01*
X297300000Y-160200000D02*
X297300000Y-174800000D01*
X282700000Y-160200000D02*
X297300000Y-160200000D01*
%TO.C,D56*%
X338979000Y-197758000D02*
X338979000Y-201998000D01*
X340979000Y-198598000D02*
X338979000Y-198598000D01*
X339979000Y-197108000D02*
X339979000Y-197758000D01*
X340979000Y-198358000D02*
X338979000Y-198358000D01*
X340979000Y-201998000D02*
X340979000Y-197758000D01*
X338979000Y-201998000D02*
X340979000Y-201998000D01*
X340979000Y-197758000D02*
X338979000Y-197758000D01*
X340979000Y-198478000D02*
X338979000Y-198478000D01*
X339979000Y-202648000D02*
X339979000Y-201998000D01*
%TO.C,D72*%
X339979000Y-167596000D02*
X339979000Y-166946000D01*
X338979000Y-166946000D02*
X340979000Y-166946000D01*
X340979000Y-163306000D02*
X338979000Y-163306000D01*
X339979000Y-162056000D02*
X339979000Y-162706000D01*
X340979000Y-163426000D02*
X338979000Y-163426000D01*
X340979000Y-162706000D02*
X338979000Y-162706000D01*
X340979000Y-166946000D02*
X340979000Y-162706000D01*
X340979000Y-163546000D02*
X338979000Y-163546000D01*
X338979000Y-162706000D02*
X338979000Y-166946000D01*
%TO.C,SW513*%
X287300000Y-142700000D02*
X287300000Y-157300000D01*
X287300000Y-157300000D02*
X272700000Y-157300000D01*
X272700000Y-157300000D02*
X272700000Y-142700000D01*
X272700000Y-142700000D02*
X287300000Y-142700000D01*
%TO.C,SW418*%
X377300000Y-160200000D02*
X377300000Y-174800000D01*
X362700000Y-160200000D02*
X377300000Y-160200000D01*
X377300000Y-174800000D02*
X362700000Y-174800000D01*
X362700000Y-174800000D02*
X362700000Y-160200000D01*
%TO.C,SW104*%
X107300000Y-212700000D02*
X107300000Y-227300000D01*
X92700000Y-212700000D02*
X107300000Y-212700000D01*
X92700000Y-227300000D02*
X92700000Y-212700000D01*
X107300000Y-227300000D02*
X92700000Y-227300000D01*
%TO.C,SW216*%
X322700000Y-209800000D02*
X322700000Y-195200000D01*
X337300000Y-209800000D02*
X322700000Y-209800000D01*
X337300000Y-195200000D02*
X337300000Y-209800000D01*
X322700000Y-195200000D02*
X337300000Y-195200000D01*
%TO.C,SW417*%
X357300000Y-160200000D02*
X357300000Y-174800000D01*
X357300000Y-174800000D02*
X342700000Y-174800000D01*
X342700000Y-174800000D02*
X342700000Y-160200000D01*
X342700000Y-160200000D02*
X357300000Y-160200000D01*
%TO.C,SW412*%
X242700000Y-160200000D02*
X257300000Y-160200000D01*
X257300000Y-160200000D02*
X257300000Y-174800000D01*
X257300000Y-174800000D02*
X242700000Y-174800000D01*
X242700000Y-174800000D02*
X242700000Y-160200000D01*
%TO.C,D22*%
X150860000Y-181079000D02*
X148860000Y-181079000D01*
X150860000Y-180359000D02*
X148860000Y-180359000D01*
X150860000Y-181199000D02*
X148860000Y-181199000D01*
X148860000Y-184599000D02*
X150860000Y-184599000D01*
X150860000Y-180959000D02*
X148860000Y-180959000D01*
X150860000Y-184599000D02*
X150860000Y-180359000D01*
X149860000Y-179709000D02*
X149860000Y-180359000D01*
X148860000Y-180359000D02*
X148860000Y-184599000D01*
X149860000Y-185249000D02*
X149860000Y-184599000D01*
%TO.C,SW407*%
X142700000Y-160200000D02*
X157300000Y-160200000D01*
X157300000Y-160200000D02*
X157300000Y-174800000D01*
X142700000Y-174800000D02*
X142700000Y-160200000D01*
X157300000Y-174800000D02*
X142700000Y-174800000D01*
%TO.C,SW213*%
X262700000Y-195200000D02*
X277300000Y-195200000D01*
X277300000Y-209800000D02*
X262700000Y-209800000D01*
X262700000Y-209800000D02*
X262700000Y-195200000D01*
X277300000Y-195200000D02*
X277300000Y-209800000D01*
%TO.C,D84*%
X359045000Y-166946000D02*
X361045000Y-166946000D01*
X360045000Y-162056000D02*
X360045000Y-162706000D01*
X361045000Y-163546000D02*
X359045000Y-163546000D01*
X361045000Y-162706000D02*
X359045000Y-162706000D01*
X361045000Y-166946000D02*
X361045000Y-162706000D01*
X359045000Y-162706000D02*
X359045000Y-166946000D01*
X361045000Y-163306000D02*
X359045000Y-163306000D01*
X361045000Y-163426000D02*
X359045000Y-163426000D01*
X360045000Y-167596000D02*
X360045000Y-166946000D01*
%TO.C,D66*%
X219964000Y-162056000D02*
X219964000Y-162706000D01*
X220964000Y-163306000D02*
X218964000Y-163306000D01*
X220964000Y-163426000D02*
X218964000Y-163426000D01*
X219964000Y-167596000D02*
X219964000Y-166946000D01*
X220964000Y-166946000D02*
X220964000Y-162706000D01*
X218964000Y-166946000D02*
X220964000Y-166946000D01*
X218964000Y-162706000D02*
X218964000Y-166946000D01*
X220964000Y-163546000D02*
X218964000Y-163546000D01*
X220964000Y-162706000D02*
X218964000Y-162706000D01*
%TO.C,D46*%
X311007000Y-216124000D02*
X309007000Y-216124000D01*
X309007000Y-215284000D02*
X309007000Y-219524000D01*
X310007000Y-214634000D02*
X310007000Y-215284000D01*
X311007000Y-216004000D02*
X309007000Y-216004000D01*
X311007000Y-215884000D02*
X309007000Y-215884000D01*
X311007000Y-219524000D02*
X311007000Y-215284000D01*
X310007000Y-220174000D02*
X310007000Y-219524000D01*
X309007000Y-219524000D02*
X311007000Y-219524000D01*
X311007000Y-215284000D02*
X309007000Y-215284000D01*
%TO.C,SW209*%
X197300000Y-195200000D02*
X197300000Y-209800000D01*
X182700000Y-209800000D02*
X182700000Y-195200000D01*
X182700000Y-195200000D02*
X197300000Y-195200000D01*
X197300000Y-209800000D02*
X182700000Y-209800000D01*
%TO.C,SW314*%
X307300000Y-192300000D02*
X292700000Y-192300000D01*
X307300000Y-177700000D02*
X307300000Y-192300000D01*
X292700000Y-192300000D02*
X292700000Y-177700000D01*
X292700000Y-177700000D02*
X307300000Y-177700000D01*
%TO.C,SW112*%
X267300000Y-212700000D02*
X267300000Y-227300000D01*
X252700000Y-227300000D02*
X252700000Y-212700000D01*
X252700000Y-212700000D02*
X267300000Y-212700000D01*
X267300000Y-227300000D02*
X252700000Y-227300000D01*
%TO.C,SW113*%
X287300000Y-227300000D02*
X272700000Y-227300000D01*
X272700000Y-227300000D02*
X272700000Y-212700000D01*
X287300000Y-212700000D02*
X287300000Y-227300000D01*
X272700000Y-212700000D02*
X287300000Y-212700000D01*
%TO.C,SW114*%
X292700000Y-227300000D02*
X292700000Y-212700000D01*
X307300000Y-227300000D02*
X292700000Y-227300000D01*
X292700000Y-212700000D02*
X307300000Y-212700000D01*
X307300000Y-212700000D02*
X307300000Y-227300000D01*
%TO.C,SW512*%
X252700000Y-157300000D02*
X252700000Y-142700000D01*
X252700000Y-142700000D02*
X267300000Y-142700000D01*
X267300000Y-157300000D02*
X252700000Y-157300000D01*
X267300000Y-142700000D02*
X267300000Y-157300000D01*
%TO.C,SW106*%
X132700000Y-212700000D02*
X147300000Y-212700000D01*
X132700000Y-227300000D02*
X132700000Y-212700000D01*
X147300000Y-227300000D02*
X132700000Y-227300000D01*
X147300000Y-212700000D02*
X147300000Y-227300000D01*
%TO.C,D29*%
X118888000Y-162833000D02*
X118888000Y-167073000D01*
X120888000Y-163553000D02*
X118888000Y-163553000D01*
X119888000Y-167723000D02*
X119888000Y-167073000D01*
X120888000Y-163433000D02*
X118888000Y-163433000D01*
X120888000Y-162833000D02*
X118888000Y-162833000D01*
X119888000Y-162183000D02*
X119888000Y-162833000D01*
X120888000Y-163673000D02*
X118888000Y-163673000D01*
X118888000Y-167073000D02*
X120888000Y-167073000D01*
X120888000Y-167073000D02*
X120888000Y-162833000D01*
%TO.C,D91*%
X368951000Y-143148000D02*
X368951000Y-147388000D01*
X369951000Y-148038000D02*
X369951000Y-147388000D01*
X368951000Y-147388000D02*
X370951000Y-147388000D01*
X370951000Y-143748000D02*
X368951000Y-143748000D01*
X369951000Y-142498000D02*
X369951000Y-143148000D01*
X370951000Y-143148000D02*
X368951000Y-143148000D01*
X370951000Y-143988000D02*
X368951000Y-143988000D01*
X370951000Y-147388000D02*
X370951000Y-143148000D01*
X370951000Y-143868000D02*
X368951000Y-143868000D01*
%TO.C,SW510*%
X227300000Y-142700000D02*
X227300000Y-157300000D01*
X227300000Y-157300000D02*
X212700000Y-157300000D01*
X212700000Y-157300000D02*
X212700000Y-142700000D01*
X212700000Y-142700000D02*
X227300000Y-142700000D01*
%TO.C,SW413*%
X262700000Y-174800000D02*
X262700000Y-160200000D01*
X277300000Y-160200000D02*
X277300000Y-174800000D01*
X262700000Y-160200000D02*
X277300000Y-160200000D01*
X277300000Y-174800000D02*
X262700000Y-174800000D01*
%TO.C,R1*%
X156305000Y-127154000D02*
X149765000Y-127154000D01*
X149765000Y-127154000D02*
X149765000Y-129894000D01*
X157075000Y-128524000D02*
X156305000Y-128524000D01*
X148995000Y-128524000D02*
X149765000Y-128524000D01*
X156305000Y-129894000D02*
X156305000Y-127154000D01*
X149765000Y-129894000D02*
X156305000Y-129894000D01*
%TO.C,SW204*%
X97300000Y-209800000D02*
X82700000Y-209800000D01*
X97300000Y-195200000D02*
X97300000Y-209800000D01*
X82700000Y-209800000D02*
X82700000Y-195200000D01*
X82700000Y-195200000D02*
X97300000Y-195200000D01*
%TO.C,D33*%
X51038000Y-145907000D02*
X49038000Y-145907000D01*
X49038000Y-149547000D02*
X51038000Y-149547000D01*
X50038000Y-150197000D02*
X50038000Y-149547000D01*
X51038000Y-145307000D02*
X49038000Y-145307000D01*
X49038000Y-145307000D02*
X49038000Y-149547000D01*
X51038000Y-146027000D02*
X49038000Y-146027000D01*
X51038000Y-149547000D02*
X51038000Y-145307000D01*
X50038000Y-144657000D02*
X50038000Y-145307000D01*
X51038000Y-146147000D02*
X49038000Y-146147000D01*
%TO.C,SW312*%
X267300000Y-192300000D02*
X252700000Y-192300000D01*
X252700000Y-192300000D02*
X252700000Y-177700000D01*
X252700000Y-177700000D02*
X267300000Y-177700000D01*
X267300000Y-177700000D02*
X267300000Y-192300000D01*
%TO.C,SW514*%
X307300000Y-157300000D02*
X292700000Y-157300000D01*
X292700000Y-157300000D02*
X292700000Y-142700000D01*
X307300000Y-142700000D02*
X307300000Y-157300000D01*
X292700000Y-142700000D02*
X307300000Y-142700000D01*
%TO.C,D11*%
X80756000Y-198478000D02*
X78756000Y-198478000D01*
X80756000Y-201998000D02*
X80756000Y-197758000D01*
X80756000Y-198598000D02*
X78756000Y-198598000D01*
X80756000Y-198358000D02*
X78756000Y-198358000D01*
X79756000Y-202648000D02*
X79756000Y-201998000D01*
X78756000Y-197758000D02*
X78756000Y-201998000D01*
X78756000Y-201998000D02*
X80756000Y-201998000D01*
X80756000Y-197758000D02*
X78756000Y-197758000D01*
X79756000Y-197108000D02*
X79756000Y-197758000D01*
%TO.C,D92*%
X392160000Y-151227000D02*
X390160000Y-151227000D01*
X391160000Y-149737000D02*
X391160000Y-150387000D01*
X392160000Y-150387000D02*
X390160000Y-150387000D01*
X392160000Y-154627000D02*
X392160000Y-150387000D01*
X392160000Y-150987000D02*
X390160000Y-150987000D01*
X391160000Y-155277000D02*
X391160000Y-154627000D01*
X390160000Y-150387000D02*
X390160000Y-154627000D01*
X390160000Y-154627000D02*
X392160000Y-154627000D01*
X392160000Y-151107000D02*
X390160000Y-151107000D01*
%TO.C,D77*%
X291195000Y-151074000D02*
X289195000Y-151074000D01*
X289195000Y-154594000D02*
X291195000Y-154594000D01*
X289195000Y-150354000D02*
X289195000Y-154594000D01*
X290195000Y-155244000D02*
X290195000Y-154594000D01*
X290195000Y-149704000D02*
X290195000Y-150354000D01*
X291195000Y-150354000D02*
X289195000Y-150354000D01*
X291195000Y-150954000D02*
X289195000Y-150954000D01*
X291195000Y-151194000D02*
X289195000Y-151194000D01*
X291195000Y-154594000D02*
X291195000Y-150354000D01*
%TO.C,SW401*%
X37300000Y-174800000D02*
X22700000Y-174800000D01*
X37300000Y-160200000D02*
X37300000Y-174800000D01*
X22700000Y-174800000D02*
X22700000Y-160200000D01*
X22700000Y-160200000D02*
X37300000Y-160200000D01*
%TO.C,SW110*%
X212700000Y-227300000D02*
X212700000Y-212700000D01*
X212700000Y-212700000D02*
X227300000Y-212700000D01*
X227300000Y-227300000D02*
X212700000Y-227300000D01*
X227300000Y-212700000D02*
X227300000Y-227300000D01*
%TO.C,D27*%
X80010000Y-162183000D02*
X80010000Y-162833000D01*
X80010000Y-167723000D02*
X80010000Y-167073000D01*
X81010000Y-163553000D02*
X79010000Y-163553000D01*
X79010000Y-162833000D02*
X79010000Y-167073000D01*
X81010000Y-162833000D02*
X79010000Y-162833000D01*
X79010000Y-167073000D02*
X81010000Y-167073000D01*
X81010000Y-167073000D02*
X81010000Y-162833000D01*
X81010000Y-163433000D02*
X79010000Y-163433000D01*
X81010000Y-163673000D02*
X79010000Y-163673000D01*
%TO.C,SW311*%
X232700000Y-192300000D02*
X232700000Y-177700000D01*
X232700000Y-177700000D02*
X247300000Y-177700000D01*
X247300000Y-192300000D02*
X232700000Y-192300000D01*
X247300000Y-177700000D02*
X247300000Y-192300000D01*
%TO.C,D16*%
X181213000Y-198725000D02*
X179213000Y-198725000D01*
X180213000Y-202775000D02*
X180213000Y-202125000D01*
X179213000Y-197885000D02*
X179213000Y-202125000D01*
X181213000Y-197885000D02*
X179213000Y-197885000D01*
X181213000Y-198485000D02*
X179213000Y-198485000D01*
X181213000Y-198605000D02*
X179213000Y-198605000D01*
X181213000Y-202125000D02*
X181213000Y-197885000D01*
X179213000Y-202125000D02*
X181213000Y-202125000D01*
X180213000Y-197235000D02*
X180213000Y-197885000D01*
%TO.C,SW316*%
X332700000Y-192300000D02*
X332700000Y-177700000D01*
X347300000Y-192300000D02*
X332700000Y-192300000D01*
X332700000Y-177700000D02*
X347300000Y-177700000D01*
X347300000Y-177700000D02*
X347300000Y-192300000D01*
%TO.C,D49*%
X200152000Y-197108000D02*
X200152000Y-197758000D01*
X201152000Y-197758000D02*
X199152000Y-197758000D01*
X199152000Y-197758000D02*
X199152000Y-201998000D01*
X201152000Y-198478000D02*
X199152000Y-198478000D01*
X200152000Y-202648000D02*
X200152000Y-201998000D01*
X199152000Y-201998000D02*
X201152000Y-201998000D01*
X201152000Y-201998000D02*
X201152000Y-197758000D01*
X201152000Y-198598000D02*
X199152000Y-198598000D01*
X201152000Y-198358000D02*
X199152000Y-198358000D01*
%TO.C,SW105*%
X112700000Y-212700000D02*
X127300000Y-212700000D01*
X127300000Y-212700000D02*
X127300000Y-227300000D01*
X112700000Y-227300000D02*
X112700000Y-212700000D01*
X127300000Y-227300000D02*
X112700000Y-227300000D01*
%TO.C,D41*%
X211058000Y-215157000D02*
X209058000Y-215157000D01*
X209058000Y-219397000D02*
X211058000Y-219397000D01*
X209058000Y-215157000D02*
X209058000Y-219397000D01*
X210058000Y-214507000D02*
X210058000Y-215157000D01*
X211058000Y-215997000D02*
X209058000Y-215997000D01*
X210058000Y-220047000D02*
X210058000Y-219397000D01*
X211058000Y-219397000D02*
X211058000Y-215157000D01*
X211058000Y-215757000D02*
X209058000Y-215757000D01*
X211058000Y-215877000D02*
X209058000Y-215877000D01*
%TO.C,D63*%
X330946000Y-180705000D02*
X328946000Y-180705000D01*
X330946000Y-184345000D02*
X330946000Y-180105000D01*
X330946000Y-180825000D02*
X328946000Y-180825000D01*
X329946000Y-184995000D02*
X329946000Y-184345000D01*
X330946000Y-180105000D02*
X328946000Y-180105000D01*
X328946000Y-184345000D02*
X330946000Y-184345000D01*
X329946000Y-179455000D02*
X329946000Y-180105000D01*
X328946000Y-180105000D02*
X328946000Y-184345000D01*
X330946000Y-180945000D02*
X328946000Y-180945000D01*
%TO.C,SW516*%
X347300000Y-142700000D02*
X347300000Y-157300000D01*
X347300000Y-157300000D02*
X332700000Y-157300000D01*
X332700000Y-157300000D02*
X332700000Y-142700000D01*
X332700000Y-142700000D02*
X347300000Y-142700000D01*
%TO.C,D80*%
X351012000Y-143741000D02*
X349012000Y-143741000D01*
X349012000Y-147261000D02*
X351012000Y-147261000D01*
X351012000Y-143861000D02*
X349012000Y-143861000D01*
X351012000Y-143021000D02*
X349012000Y-143021000D01*
X351012000Y-143621000D02*
X349012000Y-143621000D01*
X351012000Y-147261000D02*
X351012000Y-143021000D01*
X349012000Y-143021000D02*
X349012000Y-147261000D01*
X350012000Y-147911000D02*
X350012000Y-147261000D01*
X350012000Y-142371000D02*
X350012000Y-143021000D01*
%TO.C,D52*%
X260969000Y-202125000D02*
X260969000Y-197885000D01*
X258969000Y-197885000D02*
X258969000Y-202125000D01*
X260969000Y-197885000D02*
X258969000Y-197885000D01*
X259969000Y-202775000D02*
X259969000Y-202125000D01*
X260969000Y-198485000D02*
X258969000Y-198485000D01*
X258969000Y-202125000D02*
X260969000Y-202125000D01*
X260969000Y-198725000D02*
X258969000Y-198725000D01*
X260969000Y-198605000D02*
X258969000Y-198605000D01*
X259969000Y-197235000D02*
X259969000Y-197885000D01*
%TO.C,D28*%
X101076000Y-163426000D02*
X99076000Y-163426000D01*
X100076000Y-167596000D02*
X100076000Y-166946000D01*
X99076000Y-166946000D02*
X101076000Y-166946000D01*
X101076000Y-162706000D02*
X99076000Y-162706000D01*
X101076000Y-163546000D02*
X99076000Y-163546000D01*
X101076000Y-166946000D02*
X101076000Y-162706000D01*
X101076000Y-163306000D02*
X99076000Y-163306000D01*
X100076000Y-162056000D02*
X100076000Y-162706000D01*
X99076000Y-162706000D02*
X99076000Y-166946000D01*
%TO.C,D75*%
X251063000Y-149674000D02*
X251063000Y-145434000D01*
X249063000Y-149674000D02*
X251063000Y-149674000D01*
X251063000Y-146034000D02*
X249063000Y-146034000D01*
X250063000Y-144784000D02*
X250063000Y-145434000D01*
X250063000Y-150324000D02*
X250063000Y-149674000D01*
X251063000Y-146154000D02*
X249063000Y-146154000D01*
X251063000Y-145434000D02*
X249063000Y-145434000D01*
X251063000Y-146274000D02*
X249063000Y-146274000D01*
X249063000Y-145434000D02*
X249063000Y-149674000D01*
%TO.C,D19*%
X90916000Y-181199000D02*
X88916000Y-181199000D01*
X89916000Y-179709000D02*
X89916000Y-180359000D01*
X90916000Y-180959000D02*
X88916000Y-180959000D01*
X88916000Y-184599000D02*
X90916000Y-184599000D01*
X90916000Y-184599000D02*
X90916000Y-180359000D01*
X89916000Y-185249000D02*
X89916000Y-184599000D01*
X90916000Y-181079000D02*
X88916000Y-181079000D01*
X88916000Y-180359000D02*
X88916000Y-184599000D01*
X90916000Y-180359000D02*
X88916000Y-180359000D01*
%TO.C,D55*%
X319040000Y-197885000D02*
X319040000Y-202125000D01*
X321040000Y-198725000D02*
X319040000Y-198725000D01*
X320040000Y-202775000D02*
X320040000Y-202125000D01*
X319040000Y-202125000D02*
X321040000Y-202125000D01*
X320040000Y-197235000D02*
X320040000Y-197885000D01*
X321040000Y-197885000D02*
X319040000Y-197885000D01*
X321040000Y-198605000D02*
X319040000Y-198605000D01*
X321040000Y-198485000D02*
X319040000Y-198485000D01*
X321040000Y-202125000D02*
X321040000Y-197885000D01*
%TO.C,D74*%
X230997000Y-145907000D02*
X228997000Y-145907000D01*
X229997000Y-144657000D02*
X229997000Y-145307000D01*
X228997000Y-145307000D02*
X228997000Y-149547000D01*
X228997000Y-149547000D02*
X230997000Y-149547000D01*
X229997000Y-150197000D02*
X229997000Y-149547000D01*
X230997000Y-146147000D02*
X228997000Y-146147000D01*
X230997000Y-145307000D02*
X228997000Y-145307000D01*
X230997000Y-146027000D02*
X228997000Y-146027000D01*
X230997000Y-149547000D02*
X230997000Y-145307000D01*
%TO.C,SW201*%
X22700000Y-209800000D02*
X22700000Y-195200000D01*
X37300000Y-195200000D02*
X37300000Y-209800000D01*
X22700000Y-195200000D02*
X37300000Y-195200000D01*
X37300000Y-209800000D02*
X22700000Y-209800000D01*
%TO.C,D61*%
X290941000Y-180945000D02*
X288941000Y-180945000D01*
X289941000Y-184995000D02*
X289941000Y-184345000D01*
X290941000Y-180825000D02*
X288941000Y-180825000D01*
X289941000Y-179455000D02*
X289941000Y-180105000D01*
X290941000Y-184345000D02*
X290941000Y-180105000D01*
X290941000Y-180105000D02*
X288941000Y-180105000D01*
X290941000Y-180705000D02*
X288941000Y-180705000D01*
X288941000Y-180105000D02*
X288941000Y-184345000D01*
X288941000Y-184345000D02*
X290941000Y-184345000D01*
%TO.C,SW206*%
X122700000Y-209800000D02*
X122700000Y-195200000D01*
X137300000Y-209800000D02*
X122700000Y-209800000D01*
X122700000Y-195200000D02*
X137300000Y-195200000D01*
X137300000Y-195200000D02*
X137300000Y-209800000D01*
%TO.C,D67*%
X238903000Y-167073000D02*
X240903000Y-167073000D01*
X240903000Y-162833000D02*
X238903000Y-162833000D01*
X240903000Y-163433000D02*
X238903000Y-163433000D01*
X240903000Y-163553000D02*
X238903000Y-163553000D01*
X240903000Y-167073000D02*
X240903000Y-162833000D01*
X238903000Y-162833000D02*
X238903000Y-167073000D01*
X240903000Y-163673000D02*
X238903000Y-163673000D01*
X239903000Y-167723000D02*
X239903000Y-167073000D01*
X239903000Y-162183000D02*
X239903000Y-162833000D01*
%TO.C,D54*%
X299101000Y-197758000D02*
X299101000Y-201998000D01*
X299101000Y-201998000D02*
X301101000Y-201998000D01*
X300101000Y-197108000D02*
X300101000Y-197758000D01*
X301101000Y-198358000D02*
X299101000Y-198358000D01*
X301101000Y-197758000D02*
X299101000Y-197758000D01*
X301101000Y-198478000D02*
X299101000Y-198478000D01*
X301101000Y-198598000D02*
X299101000Y-198598000D01*
X301101000Y-201998000D02*
X301101000Y-197758000D01*
X300101000Y-202648000D02*
X300101000Y-201998000D01*
%TO.C,SW102*%
X52700000Y-212700000D02*
X67300000Y-212700000D01*
X52700000Y-227300000D02*
X52700000Y-212700000D01*
X67300000Y-212700000D02*
X67300000Y-227300000D01*
X67300000Y-227300000D02*
X52700000Y-227300000D01*
%TO.C,D36*%
X108982000Y-145307000D02*
X108982000Y-149547000D01*
X110982000Y-146147000D02*
X108982000Y-146147000D01*
X110982000Y-149547000D02*
X110982000Y-145307000D01*
X110982000Y-145907000D02*
X108982000Y-145907000D01*
X109982000Y-144657000D02*
X109982000Y-145307000D01*
X110982000Y-146027000D02*
X108982000Y-146027000D01*
X108982000Y-149547000D02*
X110982000Y-149547000D01*
X109982000Y-150197000D02*
X109982000Y-149547000D01*
X110982000Y-145307000D02*
X108982000Y-145307000D01*
%TO.C,D78*%
X310007000Y-150197000D02*
X310007000Y-149547000D01*
X311007000Y-146147000D02*
X309007000Y-146147000D01*
X311007000Y-145307000D02*
X309007000Y-145307000D01*
X309007000Y-149547000D02*
X311007000Y-149547000D01*
X310007000Y-144657000D02*
X310007000Y-145307000D01*
X311007000Y-149547000D02*
X311007000Y-145307000D01*
X311007000Y-146027000D02*
X309007000Y-146027000D01*
X311007000Y-145907000D02*
X309007000Y-145907000D01*
X309007000Y-145307000D02*
X309007000Y-149547000D01*
%TO.C,SW504*%
X107300000Y-157300000D02*
X92700000Y-157300000D01*
X92700000Y-157300000D02*
X92700000Y-142700000D01*
X92700000Y-142700000D02*
X107300000Y-142700000D01*
X107300000Y-142700000D02*
X107300000Y-157300000D01*
%TO.C,SW309*%
X192700000Y-192300000D02*
X192700000Y-177700000D01*
X207300000Y-192300000D02*
X192700000Y-192300000D01*
X192700000Y-177700000D02*
X207300000Y-177700000D01*
X207300000Y-177700000D02*
X207300000Y-192300000D01*
%TO.C,SW109*%
X192700000Y-212700000D02*
X207300000Y-212700000D01*
X192700000Y-227300000D02*
X192700000Y-212700000D01*
X207300000Y-227300000D02*
X192700000Y-227300000D01*
X207300000Y-212700000D02*
X207300000Y-227300000D01*
%TO.C,D37*%
X130048000Y-144657000D02*
X130048000Y-145307000D01*
X130048000Y-150197000D02*
X130048000Y-149547000D01*
X131048000Y-146147000D02*
X129048000Y-146147000D01*
X131048000Y-145307000D02*
X129048000Y-145307000D01*
X129048000Y-149547000D02*
X131048000Y-149547000D01*
X129048000Y-145307000D02*
X129048000Y-149547000D01*
X131048000Y-149547000D02*
X131048000Y-145307000D01*
X131048000Y-146027000D02*
X129048000Y-146027000D01*
X131048000Y-145907000D02*
X129048000Y-145907000D01*
%TO.C,SW304*%
X107300000Y-177700000D02*
X107300000Y-192300000D01*
X92700000Y-192300000D02*
X92700000Y-177700000D01*
X107300000Y-192300000D02*
X92700000Y-192300000D01*
X92700000Y-177700000D02*
X107300000Y-177700000D01*
%TO.C,SW207*%
X157300000Y-195200000D02*
X157300000Y-209800000D01*
X142700000Y-195200000D02*
X157300000Y-195200000D01*
X157300000Y-209800000D02*
X142700000Y-209800000D01*
X142700000Y-209800000D02*
X142700000Y-195200000D01*
%TO.C,D34*%
X70977000Y-149547000D02*
X70977000Y-145307000D01*
X68977000Y-145307000D02*
X68977000Y-149547000D01*
X70977000Y-146027000D02*
X68977000Y-146027000D01*
X69977000Y-144657000D02*
X69977000Y-145307000D01*
X68977000Y-149547000D02*
X70977000Y-149547000D01*
X70977000Y-145907000D02*
X68977000Y-145907000D01*
X70977000Y-145307000D02*
X68977000Y-145307000D01*
X69977000Y-150197000D02*
X69977000Y-149547000D01*
X70977000Y-146147000D02*
X68977000Y-146147000D01*
%TO.C,SW210*%
X217300000Y-209800000D02*
X202700000Y-209800000D01*
X202700000Y-209800000D02*
X202700000Y-195200000D01*
X217300000Y-195200000D02*
X217300000Y-209800000D01*
X202700000Y-195200000D02*
X217300000Y-195200000D01*
%TO.C,SW507*%
X152700000Y-142700000D02*
X167300000Y-142700000D01*
X167300000Y-157300000D02*
X152700000Y-157300000D01*
X152700000Y-157300000D02*
X152700000Y-142700000D01*
X167300000Y-142700000D02*
X167300000Y-157300000D01*
%TO.C,D21*%
X130921000Y-181079000D02*
X128921000Y-181079000D01*
X129921000Y-179709000D02*
X129921000Y-180359000D01*
X130921000Y-181199000D02*
X128921000Y-181199000D01*
X128921000Y-180359000D02*
X128921000Y-184599000D01*
X130921000Y-180359000D02*
X128921000Y-180359000D01*
X128921000Y-184599000D02*
X130921000Y-184599000D01*
X130921000Y-184599000D02*
X130921000Y-180359000D01*
X130921000Y-180959000D02*
X128921000Y-180959000D01*
X129921000Y-185249000D02*
X129921000Y-184599000D01*
%TO.C,D10*%
X60944000Y-198739000D02*
X58944000Y-198739000D01*
X60944000Y-198859000D02*
X58944000Y-198859000D01*
X59944000Y-203029000D02*
X59944000Y-202379000D01*
X58944000Y-202379000D02*
X60944000Y-202379000D01*
X60944000Y-198139000D02*
X58944000Y-198139000D01*
X60944000Y-198979000D02*
X58944000Y-198979000D01*
X58944000Y-198139000D02*
X58944000Y-202379000D01*
X59944000Y-197489000D02*
X59944000Y-198139000D01*
X60944000Y-202379000D02*
X60944000Y-198139000D01*
%TO.C,SW214*%
X297300000Y-195200000D02*
X297300000Y-209800000D01*
X282700000Y-195200000D02*
X297300000Y-195200000D01*
X297300000Y-209800000D02*
X282700000Y-209800000D01*
X282700000Y-209800000D02*
X282700000Y-195200000D01*
%TO.C,D38*%
X150987000Y-145780000D02*
X148987000Y-145780000D01*
X150987000Y-145180000D02*
X148987000Y-145180000D01*
X150987000Y-146020000D02*
X148987000Y-146020000D01*
X149987000Y-150070000D02*
X149987000Y-149420000D01*
X148987000Y-149420000D02*
X150987000Y-149420000D01*
X149987000Y-144530000D02*
X149987000Y-145180000D01*
X148987000Y-145180000D02*
X148987000Y-149420000D01*
X150987000Y-149420000D02*
X150987000Y-145180000D01*
X150987000Y-145900000D02*
X148987000Y-145900000D01*
%TO.C,SW115*%
X327300000Y-212700000D02*
X327300000Y-227300000D01*
X312700000Y-212700000D02*
X327300000Y-212700000D01*
X327300000Y-227300000D02*
X312700000Y-227300000D01*
X312700000Y-227300000D02*
X312700000Y-212700000D01*
%TO.C,SW111*%
X232700000Y-227300000D02*
X232700000Y-212700000D01*
X247300000Y-212700000D02*
X247300000Y-227300000D01*
X232700000Y-212700000D02*
X247300000Y-212700000D01*
X247300000Y-227300000D02*
X232700000Y-227300000D01*
%TO.C,D89*%
X370078000Y-179963000D02*
X370078000Y-180613000D01*
X369078000Y-180613000D02*
X369078000Y-184853000D01*
X369078000Y-184853000D02*
X371078000Y-184853000D01*
X370078000Y-185503000D02*
X370078000Y-184853000D01*
X371078000Y-181213000D02*
X369078000Y-181213000D01*
X371078000Y-181333000D02*
X369078000Y-181333000D01*
X371078000Y-181453000D02*
X369078000Y-181453000D01*
X371078000Y-180613000D02*
X369078000Y-180613000D01*
X371078000Y-184853000D02*
X371078000Y-180613000D01*
%TO.C,SW404*%
X97300000Y-174800000D02*
X82700000Y-174800000D01*
X82700000Y-160200000D02*
X97300000Y-160200000D01*
X82700000Y-174800000D02*
X82700000Y-160200000D01*
X97300000Y-160200000D02*
X97300000Y-174800000D01*
%TO.C,SW501*%
X32700000Y-142700000D02*
X47300000Y-142700000D01*
X47300000Y-142700000D02*
X47300000Y-157300000D01*
X47300000Y-157300000D02*
X32700000Y-157300000D01*
X32700000Y-157300000D02*
X32700000Y-142700000D01*
%TO.C,D59*%
X250682000Y-180578000D02*
X248682000Y-180578000D01*
X249682000Y-184868000D02*
X249682000Y-184218000D01*
X249682000Y-179328000D02*
X249682000Y-179978000D01*
X250682000Y-180818000D02*
X248682000Y-180818000D01*
X250682000Y-179978000D02*
X248682000Y-179978000D01*
X248682000Y-184218000D02*
X250682000Y-184218000D01*
X250682000Y-180698000D02*
X248682000Y-180698000D01*
X248682000Y-179978000D02*
X248682000Y-184218000D01*
X250682000Y-184218000D02*
X250682000Y-179978000D01*
%TO.C,SW408*%
X177300000Y-174800000D02*
X162700000Y-174800000D01*
X177300000Y-160200000D02*
X177300000Y-174800000D01*
X162700000Y-160200000D02*
X177300000Y-160200000D01*
X162700000Y-174800000D02*
X162700000Y-160200000D01*
%TO.C,SW409*%
X197300000Y-160200000D02*
X197300000Y-174800000D01*
X182700000Y-160200000D02*
X197300000Y-160200000D01*
X197300000Y-174800000D02*
X182700000Y-174800000D01*
X182700000Y-174800000D02*
X182700000Y-160200000D01*
%TO.C,SW212*%
X257300000Y-195200000D02*
X257300000Y-209800000D01*
X257300000Y-209800000D02*
X242700000Y-209800000D01*
X242700000Y-209800000D02*
X242700000Y-195200000D01*
X242700000Y-195200000D02*
X257300000Y-195200000D01*
%TO.C,D45*%
X290941000Y-215411000D02*
X288941000Y-215411000D01*
X290941000Y-216011000D02*
X288941000Y-216011000D01*
X290941000Y-219651000D02*
X290941000Y-215411000D01*
X290941000Y-216251000D02*
X288941000Y-216251000D01*
X289941000Y-220301000D02*
X289941000Y-219651000D01*
X289941000Y-214761000D02*
X289941000Y-215411000D01*
X290941000Y-216131000D02*
X288941000Y-216131000D01*
X288941000Y-219651000D02*
X290941000Y-219651000D01*
X288941000Y-215411000D02*
X288941000Y-219651000D01*
%TO.C,D30*%
X139081000Y-167200000D02*
X141081000Y-167200000D01*
X140081000Y-167850000D02*
X140081000Y-167200000D01*
X141081000Y-162960000D02*
X139081000Y-162960000D01*
X141081000Y-163680000D02*
X139081000Y-163680000D01*
X139081000Y-162960000D02*
X139081000Y-167200000D01*
X141081000Y-167200000D02*
X141081000Y-162960000D01*
X141081000Y-163800000D02*
X139081000Y-163800000D01*
X140081000Y-162310000D02*
X140081000Y-162960000D01*
X141081000Y-163560000D02*
X139081000Y-163560000D01*
%TO.C,D5*%
X128921000Y-219397000D02*
X130921000Y-219397000D01*
X130921000Y-215997000D02*
X128921000Y-215997000D01*
X130921000Y-215877000D02*
X128921000Y-215877000D01*
X128921000Y-215157000D02*
X128921000Y-219397000D01*
X130921000Y-219397000D02*
X130921000Y-215157000D01*
X129921000Y-214507000D02*
X129921000Y-215157000D01*
X129921000Y-220047000D02*
X129921000Y-219397000D01*
X130921000Y-215157000D02*
X128921000Y-215157000D01*
X130921000Y-215757000D02*
X128921000Y-215757000D01*
%TO.C,SW308*%
X187300000Y-192300000D02*
X172700000Y-192300000D01*
X187300000Y-177700000D02*
X187300000Y-192300000D01*
X172700000Y-192300000D02*
X172700000Y-177700000D01*
X172700000Y-177700000D02*
X187300000Y-177700000D01*
%TO.C,D51*%
X241030000Y-201998000D02*
X241030000Y-197758000D01*
X240030000Y-197108000D02*
X240030000Y-197758000D01*
X240030000Y-202648000D02*
X240030000Y-201998000D01*
X241030000Y-198598000D02*
X239030000Y-198598000D01*
X241030000Y-198478000D02*
X239030000Y-198478000D01*
X241030000Y-198358000D02*
X239030000Y-198358000D01*
X241030000Y-197758000D02*
X239030000Y-197758000D01*
X239030000Y-201998000D02*
X241030000Y-201998000D01*
X239030000Y-197758000D02*
X239030000Y-201998000D01*
%TO.C,D40*%
X190992000Y-145307000D02*
X188992000Y-145307000D01*
X190992000Y-146147000D02*
X188992000Y-146147000D01*
X190992000Y-145907000D02*
X188992000Y-145907000D01*
X188992000Y-145307000D02*
X188992000Y-149547000D01*
X188992000Y-149547000D02*
X190992000Y-149547000D01*
X190992000Y-149547000D02*
X190992000Y-145307000D01*
X190992000Y-146027000D02*
X188992000Y-146027000D01*
X189992000Y-144657000D02*
X189992000Y-145307000D01*
X189992000Y-150197000D02*
X189992000Y-149547000D01*
%TO.C,SW117*%
X352700000Y-227300000D02*
X352700000Y-212700000D01*
X367300000Y-212700000D02*
X367300000Y-227300000D01*
X367300000Y-227300000D02*
X352700000Y-227300000D01*
X352700000Y-212700000D02*
X367300000Y-212700000D01*
%TO.C,SW508*%
X187300000Y-157300000D02*
X172700000Y-157300000D01*
X172700000Y-142700000D02*
X187300000Y-142700000D01*
X187300000Y-142700000D02*
X187300000Y-157300000D01*
X172700000Y-157300000D02*
X172700000Y-142700000D01*
%TO.C,D64*%
X351139000Y-180832000D02*
X349139000Y-180832000D01*
X349139000Y-184472000D02*
X351139000Y-184472000D01*
X350139000Y-179582000D02*
X350139000Y-180232000D01*
X350139000Y-185122000D02*
X350139000Y-184472000D01*
X351139000Y-180232000D02*
X349139000Y-180232000D01*
X349139000Y-180232000D02*
X349139000Y-184472000D01*
X351139000Y-181072000D02*
X349139000Y-181072000D01*
X351139000Y-184472000D02*
X351139000Y-180232000D01*
X351139000Y-180952000D02*
X349139000Y-180952000D01*
%TO.C,D58*%
X231124000Y-180232000D02*
X229124000Y-180232000D01*
X231124000Y-180952000D02*
X229124000Y-180952000D01*
X231124000Y-180832000D02*
X229124000Y-180832000D01*
X229124000Y-184472000D02*
X231124000Y-184472000D01*
X231124000Y-184472000D02*
X231124000Y-180232000D01*
X231124000Y-181072000D02*
X229124000Y-181072000D01*
X229124000Y-180232000D02*
X229124000Y-184472000D01*
X230124000Y-179582000D02*
X230124000Y-180232000D01*
X230124000Y-185122000D02*
X230124000Y-184472000D01*
%TO.C,SW517*%
X352700000Y-157300000D02*
X352700000Y-142700000D01*
X367300000Y-157300000D02*
X352700000Y-157300000D01*
X367300000Y-142700000D02*
X367300000Y-157300000D01*
X352700000Y-142700000D02*
X367300000Y-142700000D01*
%TO.C,SW203*%
X77300000Y-195200000D02*
X77300000Y-209800000D01*
X62700000Y-195200000D02*
X77300000Y-195200000D01*
X62700000Y-209800000D02*
X62700000Y-195200000D01*
X77300000Y-209800000D02*
X62700000Y-209800000D01*
%TO.C,SW219*%
X382700000Y-209800000D02*
X382700000Y-195200000D01*
X382700000Y-195200000D02*
X397300000Y-195200000D01*
X397300000Y-195200000D02*
X397300000Y-209800000D01*
X397300000Y-209800000D02*
X382700000Y-209800000D01*
%TO.C,SW217*%
X357300000Y-209800000D02*
X342700000Y-209800000D01*
X357300000Y-195200000D02*
X357300000Y-209800000D01*
X342700000Y-209800000D02*
X342700000Y-195200000D01*
X342700000Y-195200000D02*
X357300000Y-195200000D01*
%TO.C,C1*%
X143295000Y-136963000D02*
X143610000Y-136963000D01*
X143295000Y-132023000D02*
X143610000Y-132023000D01*
X140870000Y-136963000D02*
X140870000Y-132023000D01*
X143610000Y-136963000D02*
X143610000Y-132023000D01*
X140870000Y-132023000D02*
X141185000Y-132023000D01*
X140870000Y-136963000D02*
X141185000Y-136963000D01*
%TO.C,SW310*%
X212700000Y-177700000D02*
X227300000Y-177700000D01*
X227300000Y-177700000D02*
X227300000Y-192300000D01*
X212700000Y-192300000D02*
X212700000Y-177700000D01*
X227300000Y-192300000D02*
X212700000Y-192300000D01*
%TO.C,D6*%
X149987000Y-214507000D02*
X149987000Y-215157000D01*
X148987000Y-219397000D02*
X150987000Y-219397000D01*
X149987000Y-220047000D02*
X149987000Y-219397000D01*
X150987000Y-215157000D02*
X148987000Y-215157000D01*
X150987000Y-215997000D02*
X148987000Y-215997000D01*
X150987000Y-215877000D02*
X148987000Y-215877000D01*
X148987000Y-215157000D02*
X148987000Y-219397000D01*
X150987000Y-215757000D02*
X148987000Y-215757000D01*
X150987000Y-219397000D02*
X150987000Y-215157000D01*
%TO.C,SW318*%
X387300000Y-177700000D02*
X387300000Y-192300000D01*
X372700000Y-177700000D02*
X387300000Y-177700000D01*
X372700000Y-192300000D02*
X372700000Y-177700000D01*
X387300000Y-192300000D02*
X372700000Y-192300000D01*
%TO.C,SW306*%
X147300000Y-192300000D02*
X132700000Y-192300000D01*
X132700000Y-177700000D02*
X147300000Y-177700000D01*
X132700000Y-192300000D02*
X132700000Y-177700000D01*
X147300000Y-177700000D02*
X147300000Y-192300000D01*
%TO.C,SW118*%
X387300000Y-212700000D02*
X387300000Y-227300000D01*
X387300000Y-227300000D02*
X372700000Y-227300000D01*
X372700000Y-227300000D02*
X372700000Y-212700000D01*
X372700000Y-212700000D02*
X387300000Y-212700000D01*
%TO.C,D9*%
X40878000Y-198725000D02*
X38878000Y-198725000D01*
X40878000Y-198605000D02*
X38878000Y-198605000D01*
X39878000Y-197235000D02*
X39878000Y-197885000D01*
X38878000Y-197885000D02*
X38878000Y-202125000D01*
X38878000Y-202125000D02*
X40878000Y-202125000D01*
X40878000Y-197885000D02*
X38878000Y-197885000D01*
X40878000Y-198485000D02*
X38878000Y-198485000D01*
X39878000Y-202775000D02*
X39878000Y-202125000D01*
X40878000Y-202125000D02*
X40878000Y-197885000D01*
%TO.C,SW415*%
X317300000Y-174800000D02*
X302700000Y-174800000D01*
X302700000Y-160200000D02*
X317300000Y-160200000D01*
X302700000Y-174800000D02*
X302700000Y-160200000D01*
X317300000Y-160200000D02*
X317300000Y-174800000D01*
%TO.C,D24*%
X189865000Y-185122000D02*
X189865000Y-184472000D01*
X190865000Y-180832000D02*
X188865000Y-180832000D01*
X188865000Y-180232000D02*
X188865000Y-184472000D01*
X189865000Y-179582000D02*
X189865000Y-180232000D01*
X190865000Y-184472000D02*
X190865000Y-180232000D01*
X190865000Y-180952000D02*
X188865000Y-180952000D01*
X188865000Y-184472000D02*
X190865000Y-184472000D01*
X190865000Y-180232000D02*
X188865000Y-180232000D01*
X190865000Y-181072000D02*
X188865000Y-181072000D01*
%TO.C,D83*%
X392827000Y-182264000D02*
X392827000Y-186504000D01*
X394827000Y-182864000D02*
X392827000Y-182864000D01*
X394827000Y-186504000D02*
X394827000Y-182264000D01*
X392827000Y-186504000D02*
X394827000Y-186504000D01*
X394827000Y-182264000D02*
X392827000Y-182264000D01*
X393827000Y-187154000D02*
X393827000Y-186504000D01*
X394827000Y-183104000D02*
X392827000Y-183104000D01*
X393827000Y-181614000D02*
X393827000Y-182264000D01*
X394827000Y-182984000D02*
X392827000Y-182984000D01*
%TO.C,SW301*%
X32700000Y-177700000D02*
X47300000Y-177700000D01*
X47300000Y-192300000D02*
X32700000Y-192300000D01*
X32700000Y-192300000D02*
X32700000Y-177700000D01*
X47300000Y-177700000D02*
X47300000Y-192300000D01*
%TO.C,SW506*%
X132700000Y-157300000D02*
X132700000Y-142700000D01*
X147300000Y-157300000D02*
X132700000Y-157300000D01*
X132700000Y-142700000D02*
X147300000Y-142700000D01*
X147300000Y-142700000D02*
X147300000Y-157300000D01*
%TO.C,R2*%
X156305000Y-131345000D02*
X149765000Y-131345000D01*
X148995000Y-132715000D02*
X149765000Y-132715000D01*
X157075000Y-132715000D02*
X156305000Y-132715000D01*
X149765000Y-134085000D02*
X156305000Y-134085000D01*
X156305000Y-134085000D02*
X156305000Y-131345000D01*
X149765000Y-131345000D02*
X149765000Y-134085000D01*
%TO.C,D13*%
X120015000Y-197235000D02*
X120015000Y-197885000D01*
X121015000Y-198605000D02*
X119015000Y-198605000D01*
X119015000Y-202125000D02*
X121015000Y-202125000D01*
X121015000Y-202125000D02*
X121015000Y-197885000D01*
X120015000Y-202775000D02*
X120015000Y-202125000D01*
X121015000Y-198485000D02*
X119015000Y-198485000D01*
X119015000Y-197885000D02*
X119015000Y-202125000D01*
X121015000Y-197885000D02*
X119015000Y-197885000D01*
X121015000Y-198725000D02*
X119015000Y-198725000D01*
%TO.C,SW416*%
X322700000Y-160200000D02*
X337300000Y-160200000D01*
X337300000Y-174800000D02*
X322700000Y-174800000D01*
X322700000Y-174800000D02*
X322700000Y-160200000D01*
X337300000Y-160200000D02*
X337300000Y-174800000D01*
%TO.C,D71*%
X321040000Y-166946000D02*
X321040000Y-162706000D01*
X320040000Y-162056000D02*
X320040000Y-162706000D01*
X321040000Y-163546000D02*
X319040000Y-163546000D01*
X321040000Y-163306000D02*
X319040000Y-163306000D01*
X321040000Y-162706000D02*
X319040000Y-162706000D01*
X320040000Y-167596000D02*
X320040000Y-166946000D01*
X319040000Y-166946000D02*
X321040000Y-166946000D01*
X319040000Y-162706000D02*
X319040000Y-166946000D01*
X321040000Y-163426000D02*
X319040000Y-163426000D01*
%TO.C,D8*%
X191119000Y-215757000D02*
X189119000Y-215757000D01*
X191119000Y-219397000D02*
X191119000Y-215157000D01*
X189119000Y-215157000D02*
X189119000Y-219397000D01*
X191119000Y-215997000D02*
X189119000Y-215997000D01*
X190119000Y-214507000D02*
X190119000Y-215157000D01*
X191119000Y-215157000D02*
X189119000Y-215157000D01*
X190119000Y-220047000D02*
X190119000Y-219397000D01*
X189119000Y-219397000D02*
X191119000Y-219397000D01*
X191119000Y-215877000D02*
X189119000Y-215877000D01*
%TO.C,SW518*%
X372700000Y-142700000D02*
X387300000Y-142700000D01*
X372700000Y-157300000D02*
X372700000Y-142700000D01*
X387300000Y-157300000D02*
X372700000Y-157300000D01*
X387300000Y-142700000D02*
X387300000Y-157300000D01*
%TO.C,D18*%
X69977000Y-185249000D02*
X69977000Y-184599000D01*
X70977000Y-180959000D02*
X68977000Y-180959000D01*
X70977000Y-180359000D02*
X68977000Y-180359000D01*
X70977000Y-184599000D02*
X70977000Y-180359000D01*
X69977000Y-179709000D02*
X69977000Y-180359000D01*
X68977000Y-184599000D02*
X70977000Y-184599000D01*
X70977000Y-181079000D02*
X68977000Y-181079000D01*
X70977000Y-181199000D02*
X68977000Y-181199000D01*
X68977000Y-180359000D02*
X68977000Y-184599000D01*
%TO.C,J1*%
X236145000Y-138270000D02*
X236145000Y-135670000D01*
X238745000Y-138270000D02*
X236145000Y-138270000D01*
X261665000Y-140870000D02*
X261665000Y-135670000D01*
X236145000Y-135670000D02*
X261665000Y-135670000D01*
X238745000Y-140870000D02*
X261665000Y-140870000D01*
X237475000Y-140870000D02*
X236145000Y-140870000D01*
X236145000Y-140870000D02*
X236145000Y-139540000D01*
X238745000Y-140870000D02*
X238745000Y-138270000D01*
%TO.C,D35*%
X89043000Y-149547000D02*
X91043000Y-149547000D01*
X90043000Y-150197000D02*
X90043000Y-149547000D01*
X91043000Y-146027000D02*
X89043000Y-146027000D01*
X89043000Y-145307000D02*
X89043000Y-149547000D01*
X91043000Y-149547000D02*
X91043000Y-145307000D01*
X91043000Y-145907000D02*
X89043000Y-145907000D01*
X90043000Y-144657000D02*
X90043000Y-145307000D01*
X91043000Y-146147000D02*
X89043000Y-146147000D01*
X91043000Y-145307000D02*
X89043000Y-145307000D01*
%TD*%
M02*
