%TF.GenerationSoftware,KiCad,Pcbnew,6.0.11+dfsg-1*%
%TF.CreationDate,2025-04-19T12:41:36+02:00*%
%TF.ProjectId,AkkordeonDiskant,416b6b6f-7264-4656-9f6e-4469736b616e,rev?*%
%TF.SameCoordinates,Original*%
%TF.FileFunction,Drillmap*%
%TF.FilePolarity,Positive*%
%FSLAX45Y45*%
G04 Gerber Fmt 4.5, Leading zero omitted, Abs format (unit mm)*
G04 Created by KiCad (PCBNEW 6.0.11+dfsg-1) date 2025-04-19 12:41:36*
%MOMM*%
%LPD*%
G01*
G04 APERTURE LIST*
%ADD10C,0.100000*%
%ADD11C,0.200000*%
%ADD12C,0.040000*%
%ADD13C,0.080000*%
%ADD14C,0.120000*%
G04 APERTURE END LIST*
D10*
X2200000Y-11700000D02*
X40000000Y-11700000D01*
X40000000Y-11700000D02*
X40000000Y-23200000D01*
X40000000Y-23200000D02*
X2200000Y-23200000D01*
X2200000Y-23200000D02*
X2200000Y-11700000D01*
D11*
D12*
X18026700Y-15524800D02*
X18066700Y-15564800D01*
X18066700Y-15524800D02*
X18026700Y-15564800D01*
X18217200Y-17010700D02*
X18257200Y-17050700D01*
X18257200Y-17010700D02*
X18217200Y-17050700D01*
X18268000Y-19931700D02*
X18308000Y-19971700D01*
X18308000Y-19931700D02*
X18268000Y-19971700D01*
X18344200Y-16477300D02*
X18384200Y-16517300D01*
X18384200Y-16477300D02*
X18344200Y-16517300D01*
X19131600Y-15575600D02*
X19171600Y-15615600D01*
X19171600Y-15575600D02*
X19131600Y-15615600D01*
X19360200Y-15626400D02*
X19400200Y-15666400D01*
X19400200Y-15626400D02*
X19360200Y-15666400D01*
X19576100Y-14813600D02*
X19616100Y-14853600D01*
X19616100Y-14813600D02*
X19576100Y-14853600D01*
X21290600Y-18458500D02*
X21330600Y-18498500D01*
X21330600Y-18458500D02*
X21290600Y-18498500D01*
X24287800Y-19322100D02*
X24327800Y-19362100D01*
X24327800Y-19322100D02*
X24287800Y-19362100D01*
X27208800Y-17217650D02*
X27248800Y-17257650D01*
X27248800Y-17217650D02*
X27208800Y-17257650D01*
X36962400Y-15905800D02*
X37002400Y-15945800D01*
X37002400Y-15905800D02*
X36962400Y-15945800D01*
X37114800Y-22547900D02*
X37154800Y-22587900D01*
X37154800Y-22547900D02*
X37114800Y-22587900D01*
D13*
X4027800Y-19621500D02*
G75*
G03*
X4027800Y-19621500I-40000J0D01*
G01*
X4027800Y-20383500D02*
G75*
G03*
X4027800Y-20383500I-40000J0D01*
G01*
X4040500Y-16116300D02*
G75*
G03*
X4040500Y-16116300I-40000J0D01*
G01*
X4040500Y-16878300D02*
G75*
G03*
X4040500Y-16878300I-40000J0D01*
G01*
X5018400Y-17881600D02*
G75*
G03*
X5018400Y-17881600I-40000J0D01*
G01*
X5018400Y-18643600D02*
G75*
G03*
X5018400Y-18643600I-40000J0D01*
G01*
X5018400Y-21361400D02*
G75*
G03*
X5018400Y-21361400I-40000J0D01*
G01*
X5018400Y-22123400D02*
G75*
G03*
X5018400Y-22123400I-40000J0D01*
G01*
X5043800Y-14363700D02*
G75*
G03*
X5043800Y-14363700I-40000J0D01*
G01*
X5043800Y-15125700D02*
G75*
G03*
X5043800Y-15125700I-40000J0D01*
G01*
X6034400Y-16129000D02*
G75*
G03*
X6034400Y-16129000I-40000J0D01*
G01*
X6034400Y-16891000D02*
G75*
G03*
X6034400Y-16891000I-40000J0D01*
G01*
X6034400Y-19646900D02*
G75*
G03*
X6034400Y-19646900I-40000J0D01*
G01*
X6034400Y-20408900D02*
G75*
G03*
X6034400Y-20408900I-40000J0D01*
G01*
X7037700Y-14363700D02*
G75*
G03*
X7037700Y-14363700I-40000J0D01*
G01*
X7037700Y-15125700D02*
G75*
G03*
X7037700Y-15125700I-40000J0D01*
G01*
X7037700Y-17868900D02*
G75*
G03*
X7037700Y-17868900I-40000J0D01*
G01*
X7037700Y-18630900D02*
G75*
G03*
X7037700Y-18630900I-40000J0D01*
G01*
X7050400Y-21348700D02*
G75*
G03*
X7050400Y-21348700I-40000J0D01*
G01*
X7050400Y-22110700D02*
G75*
G03*
X7050400Y-22110700I-40000J0D01*
G01*
X8015600Y-19608800D02*
G75*
G03*
X8015600Y-19608800I-40000J0D01*
G01*
X8015600Y-20370800D02*
G75*
G03*
X8015600Y-20370800I-40000J0D01*
G01*
X8041000Y-16116300D02*
G75*
G03*
X8041000Y-16116300I-40000J0D01*
G01*
X8041000Y-16878300D02*
G75*
G03*
X8041000Y-16878300I-40000J0D01*
G01*
X9031600Y-17868900D02*
G75*
G03*
X9031600Y-17868900I-40000J0D01*
G01*
X9031600Y-18630900D02*
G75*
G03*
X9031600Y-18630900I-40000J0D01*
G01*
X9044300Y-14363700D02*
G75*
G03*
X9044300Y-14363700I-40000J0D01*
G01*
X9044300Y-15125700D02*
G75*
G03*
X9044300Y-15125700I-40000J0D01*
G01*
X9044300Y-21374100D02*
G75*
G03*
X9044300Y-21374100I-40000J0D01*
G01*
X9044300Y-22136100D02*
G75*
G03*
X9044300Y-22136100I-40000J0D01*
G01*
X10034900Y-19646900D02*
G75*
G03*
X10034900Y-19646900I-40000J0D01*
G01*
X10034900Y-20408900D02*
G75*
G03*
X10034900Y-20408900I-40000J0D01*
G01*
X10047600Y-16103600D02*
G75*
G03*
X10047600Y-16103600I-40000J0D01*
G01*
X10047600Y-16865600D02*
G75*
G03*
X10047600Y-16865600I-40000J0D01*
G01*
X11038200Y-14363700D02*
G75*
G03*
X11038200Y-14363700I-40000J0D01*
G01*
X11038200Y-15125700D02*
G75*
G03*
X11038200Y-15125700I-40000J0D01*
G01*
X11038200Y-17868900D02*
G75*
G03*
X11038200Y-17868900I-40000J0D01*
G01*
X11038200Y-18630900D02*
G75*
G03*
X11038200Y-18630900I-40000J0D01*
G01*
X11038200Y-21386800D02*
G75*
G03*
X11038200Y-21386800I-40000J0D01*
G01*
X11038200Y-22148800D02*
G75*
G03*
X11038200Y-22148800I-40000J0D01*
G01*
X12028800Y-16116300D02*
G75*
G03*
X12028800Y-16116300I-40000J0D01*
G01*
X12028800Y-16878300D02*
G75*
G03*
X12028800Y-16878300I-40000J0D01*
G01*
X12041500Y-19621500D02*
G75*
G03*
X12041500Y-19621500I-40000J0D01*
G01*
X12041500Y-20383500D02*
G75*
G03*
X12041500Y-20383500I-40000J0D01*
G01*
X12144100Y-12942300D02*
G75*
G03*
X12144100Y-12942300I-40000J0D01*
G01*
X12144100Y-13704300D02*
G75*
G03*
X12144100Y-13704300I-40000J0D01*
G01*
X12398100Y-12942300D02*
G75*
G03*
X12398100Y-12942300I-40000J0D01*
G01*
X12398100Y-13704300D02*
G75*
G03*
X12398100Y-13704300I-40000J0D01*
G01*
X12652100Y-12942300D02*
G75*
G03*
X12652100Y-12942300I-40000J0D01*
G01*
X12652100Y-13704300D02*
G75*
G03*
X12652100Y-13704300I-40000J0D01*
G01*
X12906100Y-12942300D02*
G75*
G03*
X12906100Y-12942300I-40000J0D01*
G01*
X12906100Y-13704300D02*
G75*
G03*
X12906100Y-13704300I-40000J0D01*
G01*
X13032100Y-17868900D02*
G75*
G03*
X13032100Y-17868900I-40000J0D01*
G01*
X13032100Y-18630900D02*
G75*
G03*
X13032100Y-18630900I-40000J0D01*
G01*
X13032100Y-21348700D02*
G75*
G03*
X13032100Y-21348700I-40000J0D01*
G01*
X13032100Y-22110700D02*
G75*
G03*
X13032100Y-22110700I-40000J0D01*
G01*
X13044800Y-14363700D02*
G75*
G03*
X13044800Y-14363700I-40000J0D01*
G01*
X13044800Y-15125700D02*
G75*
G03*
X13044800Y-15125700I-40000J0D01*
G01*
X13160100Y-12942300D02*
G75*
G03*
X13160100Y-12942300I-40000J0D01*
G01*
X13160100Y-13704300D02*
G75*
G03*
X13160100Y-13704300I-40000J0D01*
G01*
X13414100Y-12942300D02*
G75*
G03*
X13414100Y-12942300I-40000J0D01*
G01*
X13414100Y-13704300D02*
G75*
G03*
X13414100Y-13704300I-40000J0D01*
G01*
X13668100Y-12942300D02*
G75*
G03*
X13668100Y-12942300I-40000J0D01*
G01*
X13668100Y-13704300D02*
G75*
G03*
X13668100Y-13704300I-40000J0D01*
G01*
X13922100Y-12942300D02*
G75*
G03*
X13922100Y-12942300I-40000J0D01*
G01*
X13922100Y-13704300D02*
G75*
G03*
X13922100Y-13704300I-40000J0D01*
G01*
X14022700Y-19621500D02*
G75*
G03*
X14022700Y-19621500I-40000J0D01*
G01*
X14022700Y-20383500D02*
G75*
G03*
X14022700Y-20383500I-40000J0D01*
G01*
X14048100Y-16129000D02*
G75*
G03*
X14048100Y-16129000I-40000J0D01*
G01*
X14048100Y-16891000D02*
G75*
G03*
X14048100Y-16891000I-40000J0D01*
G01*
X14264000Y-13199300D02*
G75*
G03*
X14264000Y-13199300I-40000J0D01*
G01*
X14264000Y-13699300D02*
G75*
G03*
X14264000Y-13699300I-40000J0D01*
G01*
X14835500Y-12852400D02*
G75*
G03*
X14835500Y-12852400I-40000J0D01*
G01*
X14835500Y-13271500D02*
G75*
G03*
X14835500Y-13271500I-40000J0D01*
G01*
X14835500Y-13690600D02*
G75*
G03*
X14835500Y-13690600I-40000J0D01*
G01*
X15026000Y-17868900D02*
G75*
G03*
X15026000Y-17868900I-40000J0D01*
G01*
X15026000Y-18630900D02*
G75*
G03*
X15026000Y-18630900I-40000J0D01*
G01*
X15038700Y-14351000D02*
G75*
G03*
X15038700Y-14351000I-40000J0D01*
G01*
X15038700Y-15113000D02*
G75*
G03*
X15038700Y-15113000I-40000J0D01*
G01*
X15038700Y-21348700D02*
G75*
G03*
X15038700Y-21348700I-40000J0D01*
G01*
X15038700Y-22110700D02*
G75*
G03*
X15038700Y-22110700I-40000J0D01*
G01*
X15851500Y-12852400D02*
G75*
G03*
X15851500Y-12852400I-40000J0D01*
G01*
X15851500Y-13271500D02*
G75*
G03*
X15851500Y-13271500I-40000J0D01*
G01*
X15851500Y-13690600D02*
G75*
G03*
X15851500Y-13690600I-40000J0D01*
G01*
X16042000Y-19608800D02*
G75*
G03*
X16042000Y-19608800I-40000J0D01*
G01*
X16042000Y-20370800D02*
G75*
G03*
X16042000Y-20370800I-40000J0D01*
G01*
X16054700Y-16129000D02*
G75*
G03*
X16054700Y-16129000I-40000J0D01*
G01*
X16054700Y-16891000D02*
G75*
G03*
X16054700Y-16891000I-40000J0D01*
G01*
X17032600Y-17856200D02*
G75*
G03*
X17032600Y-17856200I-40000J0D01*
G01*
X17032600Y-18618200D02*
G75*
G03*
X17032600Y-18618200I-40000J0D01*
G01*
X17032600Y-21348700D02*
G75*
G03*
X17032600Y-21348700I-40000J0D01*
G01*
X17032600Y-22110700D02*
G75*
G03*
X17032600Y-22110700I-40000J0D01*
G01*
X17045300Y-14363700D02*
G75*
G03*
X17045300Y-14363700I-40000J0D01*
G01*
X17045300Y-15125700D02*
G75*
G03*
X17045300Y-15125700I-40000J0D01*
G01*
X18048600Y-16116300D02*
G75*
G03*
X18048600Y-16116300I-40000J0D01*
G01*
X18048600Y-16878300D02*
G75*
G03*
X18048600Y-16878300I-40000J0D01*
G01*
X18061300Y-19621500D02*
G75*
G03*
X18061300Y-19621500I-40000J0D01*
G01*
X18061300Y-20383500D02*
G75*
G03*
X18061300Y-20383500I-40000J0D01*
G01*
X19026500Y-17856200D02*
G75*
G03*
X19026500Y-17856200I-40000J0D01*
G01*
X19026500Y-18618200D02*
G75*
G03*
X19026500Y-18618200I-40000J0D01*
G01*
X19039200Y-14363700D02*
G75*
G03*
X19039200Y-14363700I-40000J0D01*
G01*
X19039200Y-15125700D02*
G75*
G03*
X19039200Y-15125700I-40000J0D01*
G01*
X19051900Y-21348700D02*
G75*
G03*
X19051900Y-21348700I-40000J0D01*
G01*
X19051900Y-22110700D02*
G75*
G03*
X19051900Y-22110700I-40000J0D01*
G01*
X20029800Y-16129000D02*
G75*
G03*
X20029800Y-16129000I-40000J0D01*
G01*
X20029800Y-16891000D02*
G75*
G03*
X20029800Y-16891000I-40000J0D01*
G01*
X20055200Y-19608800D02*
G75*
G03*
X20055200Y-19608800I-40000J0D01*
G01*
X20055200Y-20370800D02*
G75*
G03*
X20055200Y-20370800I-40000J0D01*
G01*
X21045800Y-14376400D02*
G75*
G03*
X21045800Y-14376400I-40000J0D01*
G01*
X21045800Y-15138400D02*
G75*
G03*
X21045800Y-15138400I-40000J0D01*
G01*
X21045800Y-17868900D02*
G75*
G03*
X21045800Y-17868900I-40000J0D01*
G01*
X21045800Y-18630900D02*
G75*
G03*
X21045800Y-18630900I-40000J0D01*
G01*
X21045800Y-21348700D02*
G75*
G03*
X21045800Y-21348700I-40000J0D01*
G01*
X21045800Y-22110700D02*
G75*
G03*
X21045800Y-22110700I-40000J0D01*
G01*
X22036400Y-16103600D02*
G75*
G03*
X22036400Y-16103600I-40000J0D01*
G01*
X22036400Y-16865600D02*
G75*
G03*
X22036400Y-16865600I-40000J0D01*
G01*
X22049100Y-19608800D02*
G75*
G03*
X22049100Y-19608800I-40000J0D01*
G01*
X22049100Y-20370800D02*
G75*
G03*
X22049100Y-20370800I-40000J0D01*
G01*
X23039700Y-14363700D02*
G75*
G03*
X23039700Y-14363700I-40000J0D01*
G01*
X23039700Y-15125700D02*
G75*
G03*
X23039700Y-15125700I-40000J0D01*
G01*
X23052400Y-17856200D02*
G75*
G03*
X23052400Y-17856200I-40000J0D01*
G01*
X23052400Y-18618200D02*
G75*
G03*
X23052400Y-18618200I-40000J0D01*
G01*
X23052400Y-21336000D02*
G75*
G03*
X23052400Y-21336000I-40000J0D01*
G01*
X23052400Y-22098000D02*
G75*
G03*
X23052400Y-22098000I-40000J0D01*
G01*
X24030300Y-16116300D02*
G75*
G03*
X24030300Y-16116300I-40000J0D01*
G01*
X24030300Y-16878300D02*
G75*
G03*
X24030300Y-16878300I-40000J0D01*
G01*
X24043000Y-19608800D02*
G75*
G03*
X24043000Y-19608800I-40000J0D01*
G01*
X24043000Y-20370800D02*
G75*
G03*
X24043000Y-20370800I-40000J0D01*
G01*
X25008200Y-17830800D02*
G75*
G03*
X25008200Y-17830800I-40000J0D01*
G01*
X25008200Y-18592800D02*
G75*
G03*
X25008200Y-18592800I-40000J0D01*
G01*
X25046300Y-14376400D02*
G75*
G03*
X25046300Y-14376400I-40000J0D01*
G01*
X25046300Y-15138400D02*
G75*
G03*
X25046300Y-15138400I-40000J0D01*
G01*
X25046300Y-21374100D02*
G75*
G03*
X25046300Y-21374100I-40000J0D01*
G01*
X25046300Y-22136100D02*
G75*
G03*
X25046300Y-22136100I-40000J0D01*
G01*
X26036900Y-16129000D02*
G75*
G03*
X26036900Y-16129000I-40000J0D01*
G01*
X26036900Y-16891000D02*
G75*
G03*
X26036900Y-16891000I-40000J0D01*
G01*
X26036900Y-19621500D02*
G75*
G03*
X26036900Y-19621500I-40000J0D01*
G01*
X26036900Y-20383500D02*
G75*
G03*
X26036900Y-20383500I-40000J0D01*
G01*
X27040200Y-14376400D02*
G75*
G03*
X27040200Y-14376400I-40000J0D01*
G01*
X27040200Y-15138400D02*
G75*
G03*
X27040200Y-15138400I-40000J0D01*
G01*
X27040200Y-17881600D02*
G75*
G03*
X27040200Y-17881600I-40000J0D01*
G01*
X27040200Y-18643600D02*
G75*
G03*
X27040200Y-18643600I-40000J0D01*
G01*
X27040200Y-21361400D02*
G75*
G03*
X27040200Y-21361400I-40000J0D01*
G01*
X27040200Y-22123400D02*
G75*
G03*
X27040200Y-22123400I-40000J0D01*
G01*
X28043500Y-19621500D02*
G75*
G03*
X28043500Y-19621500I-40000J0D01*
G01*
X28043500Y-20383500D02*
G75*
G03*
X28043500Y-20383500I-40000J0D01*
G01*
X28056200Y-16129000D02*
G75*
G03*
X28056200Y-16129000I-40000J0D01*
G01*
X28056200Y-16891000D02*
G75*
G03*
X28056200Y-16891000I-40000J0D01*
G01*
X29034100Y-17843500D02*
G75*
G03*
X29034100Y-17843500I-40000J0D01*
G01*
X29034100Y-18605500D02*
G75*
G03*
X29034100Y-18605500I-40000J0D01*
G01*
X29034100Y-21374100D02*
G75*
G03*
X29034100Y-21374100I-40000J0D01*
G01*
X29034100Y-22136100D02*
G75*
G03*
X29034100Y-22136100I-40000J0D01*
G01*
X29059500Y-14868400D02*
G75*
G03*
X29059500Y-14868400I-40000J0D01*
G01*
X29059500Y-15630400D02*
G75*
G03*
X29059500Y-15630400I-40000J0D01*
G01*
X30050100Y-19608800D02*
G75*
G03*
X30050100Y-19608800I-40000J0D01*
G01*
X30050100Y-20370800D02*
G75*
G03*
X30050100Y-20370800I-40000J0D01*
G01*
X30062800Y-16141700D02*
G75*
G03*
X30062800Y-16141700I-40000J0D01*
G01*
X30062800Y-16903700D02*
G75*
G03*
X30062800Y-16903700I-40000J0D01*
G01*
X31040700Y-14363700D02*
G75*
G03*
X31040700Y-14363700I-40000J0D01*
G01*
X31040700Y-15125700D02*
G75*
G03*
X31040700Y-15125700I-40000J0D01*
G01*
X31040700Y-17868900D02*
G75*
G03*
X31040700Y-17868900I-40000J0D01*
G01*
X31040700Y-18630900D02*
G75*
G03*
X31040700Y-18630900I-40000J0D01*
G01*
X31040700Y-21361400D02*
G75*
G03*
X31040700Y-21361400I-40000J0D01*
G01*
X31040700Y-22123400D02*
G75*
G03*
X31040700Y-22123400I-40000J0D01*
G01*
X32044000Y-16103600D02*
G75*
G03*
X32044000Y-16103600I-40000J0D01*
G01*
X32044000Y-16865600D02*
G75*
G03*
X32044000Y-16865600I-40000J0D01*
G01*
X32044000Y-19621500D02*
G75*
G03*
X32044000Y-19621500I-40000J0D01*
G01*
X32044000Y-20383500D02*
G75*
G03*
X32044000Y-20383500I-40000J0D01*
G01*
X33034600Y-17843500D02*
G75*
G03*
X33034600Y-17843500I-40000J0D01*
G01*
X33034600Y-18605500D02*
G75*
G03*
X33034600Y-18605500I-40000J0D01*
G01*
X33034600Y-21361400D02*
G75*
G03*
X33034600Y-21361400I-40000J0D01*
G01*
X33034600Y-22123400D02*
G75*
G03*
X33034600Y-22123400I-40000J0D01*
G01*
X33047300Y-14160500D02*
G75*
G03*
X33047300Y-14160500I-40000J0D01*
G01*
X33047300Y-14922500D02*
G75*
G03*
X33047300Y-14922500I-40000J0D01*
G01*
X34037900Y-16103600D02*
G75*
G03*
X34037900Y-16103600I-40000J0D01*
G01*
X34037900Y-16865600D02*
G75*
G03*
X34037900Y-16865600I-40000J0D01*
G01*
X34037900Y-19608800D02*
G75*
G03*
X34037900Y-19608800I-40000J0D01*
G01*
X34037900Y-20370800D02*
G75*
G03*
X34037900Y-20370800I-40000J0D01*
G01*
X35028500Y-21361400D02*
G75*
G03*
X35028500Y-21361400I-40000J0D01*
G01*
X35028500Y-22123400D02*
G75*
G03*
X35028500Y-22123400I-40000J0D01*
G01*
X35041200Y-14135100D02*
G75*
G03*
X35041200Y-14135100I-40000J0D01*
G01*
X35041200Y-14897100D02*
G75*
G03*
X35041200Y-14897100I-40000J0D01*
G01*
X35053900Y-17856200D02*
G75*
G03*
X35053900Y-17856200I-40000J0D01*
G01*
X35053900Y-18618200D02*
G75*
G03*
X35053900Y-18618200I-40000J0D01*
G01*
X36031800Y-19608800D02*
G75*
G03*
X36031800Y-19608800I-40000J0D01*
G01*
X36031800Y-20370800D02*
G75*
G03*
X36031800Y-20370800I-40000J0D01*
G01*
X36044500Y-16103600D02*
G75*
G03*
X36044500Y-16103600I-40000J0D01*
G01*
X36044500Y-16865600D02*
G75*
G03*
X36044500Y-16865600I-40000J0D01*
G01*
X37035100Y-14147800D02*
G75*
G03*
X37035100Y-14147800I-40000J0D01*
G01*
X37035100Y-14909800D02*
G75*
G03*
X37035100Y-14909800I-40000J0D01*
G01*
X37047800Y-17894300D02*
G75*
G03*
X37047800Y-17894300I-40000J0D01*
G01*
X37047800Y-18656300D02*
G75*
G03*
X37047800Y-18656300I-40000J0D01*
G01*
X37047800Y-21361400D02*
G75*
G03*
X37047800Y-21361400I-40000J0D01*
G01*
X37047800Y-22123400D02*
G75*
G03*
X37047800Y-22123400I-40000J0D01*
G01*
X38038400Y-16103600D02*
G75*
G03*
X38038400Y-16103600I-40000J0D01*
G01*
X38038400Y-16865600D02*
G75*
G03*
X38038400Y-16865600I-40000J0D01*
G01*
X38038400Y-19507200D02*
G75*
G03*
X38038400Y-19507200I-40000J0D01*
G01*
X38038400Y-20269200D02*
G75*
G03*
X38038400Y-20269200I-40000J0D01*
G01*
X39143300Y-18046700D02*
G75*
G03*
X39143300Y-18046700I-40000J0D01*
G01*
X39143300Y-18808700D02*
G75*
G03*
X39143300Y-18808700I-40000J0D01*
G01*
X39156000Y-14871700D02*
G75*
G03*
X39156000Y-14871700I-40000J0D01*
G01*
X39156000Y-15633700D02*
G75*
G03*
X39156000Y-15633700I-40000J0D01*
G01*
X39422700Y-18059400D02*
G75*
G03*
X39422700Y-18059400I-40000J0D01*
G01*
X39422700Y-18821400D02*
G75*
G03*
X39422700Y-18821400I-40000J0D01*
G01*
X39435400Y-14871700D02*
G75*
G03*
X39435400Y-14871700I-40000J0D01*
G01*
X39435400Y-15633700D02*
G75*
G03*
X39435400Y-15633700I-40000J0D01*
G01*
X39498900Y-21793200D02*
G75*
G03*
X39498900Y-21793200I-40000J0D01*
G01*
X39498900Y-22555200D02*
G75*
G03*
X39498900Y-22555200I-40000J0D01*
G01*
D10*
X23747500Y-13650000D02*
X23747500Y-13750000D01*
X23697500Y-13700000D02*
X23797500Y-13700000D01*
X23747500Y-13904000D02*
X23747500Y-14004000D01*
X23697500Y-13954000D02*
X23797500Y-13954000D01*
X24001500Y-13650000D02*
X24001500Y-13750000D01*
X23951500Y-13700000D02*
X24051500Y-13700000D01*
X24001500Y-13904000D02*
X24001500Y-14004000D01*
X23951500Y-13954000D02*
X24051500Y-13954000D01*
X24255500Y-13650000D02*
X24255500Y-13750000D01*
X24205500Y-13700000D02*
X24305500Y-13700000D01*
X24255500Y-13904000D02*
X24255500Y-14004000D01*
X24205500Y-13954000D02*
X24305500Y-13954000D01*
X24509500Y-13650000D02*
X24509500Y-13750000D01*
X24459500Y-13700000D02*
X24559500Y-13700000D01*
X24509500Y-13904000D02*
X24509500Y-14004000D01*
X24459500Y-13954000D02*
X24559500Y-13954000D01*
X24763500Y-13650000D02*
X24763500Y-13750000D01*
X24713500Y-13700000D02*
X24813500Y-13700000D01*
X24763500Y-13904000D02*
X24763500Y-14004000D01*
X24713500Y-13954000D02*
X24813500Y-13954000D01*
X25017500Y-13650000D02*
X25017500Y-13750000D01*
X24967500Y-13700000D02*
X25067500Y-13700000D01*
X25017500Y-13904000D02*
X25017500Y-14004000D01*
X24967500Y-13954000D02*
X25067500Y-13954000D01*
X25271500Y-13650000D02*
X25271500Y-13750000D01*
X25221500Y-13700000D02*
X25321500Y-13700000D01*
X25271500Y-13904000D02*
X25271500Y-14004000D01*
X25221500Y-13954000D02*
X25321500Y-13954000D01*
X25525500Y-13650000D02*
X25525500Y-13750000D01*
X25475500Y-13700000D02*
X25575500Y-13700000D01*
X25525500Y-13904000D02*
X25525500Y-14004000D01*
X25475500Y-13954000D02*
X25575500Y-13954000D01*
X25779500Y-13650000D02*
X25779500Y-13750000D01*
X25729500Y-13700000D02*
X25829500Y-13700000D01*
X25779500Y-13904000D02*
X25779500Y-14004000D01*
X25729500Y-13954000D02*
X25829500Y-13954000D01*
X26033500Y-13650000D02*
X26033500Y-13750000D01*
X25983500Y-13700000D02*
X26083500Y-13700000D01*
X26033500Y-13904000D02*
X26033500Y-14004000D01*
X25983500Y-13954000D02*
X26083500Y-13954000D01*
D14*
X3296427Y-16411427D02*
X3296427Y-16326573D01*
X3211573Y-16326573D01*
X3211573Y-16411427D01*
X3296427Y-16411427D01*
X3296427Y-19911427D02*
X3296427Y-19826573D01*
X3211573Y-19826573D01*
X3211573Y-19911427D01*
X3296427Y-19911427D01*
X3550427Y-17046427D02*
X3550427Y-16961573D01*
X3465573Y-16961573D01*
X3465573Y-17046427D01*
X3550427Y-17046427D01*
X3550427Y-20546427D02*
X3550427Y-20461573D01*
X3465573Y-20461573D01*
X3465573Y-20546427D01*
X3550427Y-20546427D01*
X4296427Y-14661427D02*
X4296427Y-14576573D01*
X4211573Y-14576573D01*
X4211573Y-14661427D01*
X4296427Y-14661427D01*
X4296427Y-18161427D02*
X4296427Y-18076573D01*
X4211573Y-18076573D01*
X4211573Y-18161427D01*
X4296427Y-18161427D01*
X4296427Y-21661427D02*
X4296427Y-21576573D01*
X4211573Y-21576573D01*
X4211573Y-21661427D01*
X4296427Y-21661427D01*
X4550427Y-15296427D02*
X4550427Y-15211573D01*
X4465573Y-15211573D01*
X4465573Y-15296427D01*
X4550427Y-15296427D01*
X4550427Y-18796427D02*
X4550427Y-18711573D01*
X4465573Y-18711573D01*
X4465573Y-18796427D01*
X4550427Y-18796427D01*
X4550427Y-22296427D02*
X4550427Y-22211573D01*
X4465573Y-22211573D01*
X4465573Y-22296427D01*
X4550427Y-22296427D01*
X5296427Y-16411427D02*
X5296427Y-16326573D01*
X5211573Y-16326573D01*
X5211573Y-16411427D01*
X5296427Y-16411427D01*
X5296427Y-19911427D02*
X5296427Y-19826573D01*
X5211573Y-19826573D01*
X5211573Y-19911427D01*
X5296427Y-19911427D01*
X5550427Y-17046427D02*
X5550427Y-16961573D01*
X5465573Y-16961573D01*
X5465573Y-17046427D01*
X5550427Y-17046427D01*
X5550427Y-20546427D02*
X5550427Y-20461573D01*
X5465573Y-20461573D01*
X5465573Y-20546427D01*
X5550427Y-20546427D01*
X6296427Y-14661427D02*
X6296427Y-14576573D01*
X6211573Y-14576573D01*
X6211573Y-14661427D01*
X6296427Y-14661427D01*
X6296427Y-18161427D02*
X6296427Y-18076573D01*
X6211573Y-18076573D01*
X6211573Y-18161427D01*
X6296427Y-18161427D01*
X6296427Y-21661427D02*
X6296427Y-21576573D01*
X6211573Y-21576573D01*
X6211573Y-21661427D01*
X6296427Y-21661427D01*
X6550427Y-15296427D02*
X6550427Y-15211573D01*
X6465573Y-15211573D01*
X6465573Y-15296427D01*
X6550427Y-15296427D01*
X6550427Y-18796427D02*
X6550427Y-18711573D01*
X6465573Y-18711573D01*
X6465573Y-18796427D01*
X6550427Y-18796427D01*
X6550427Y-22296427D02*
X6550427Y-22211573D01*
X6465573Y-22211573D01*
X6465573Y-22296427D01*
X6550427Y-22296427D01*
X7296427Y-16411427D02*
X7296427Y-16326573D01*
X7211573Y-16326573D01*
X7211573Y-16411427D01*
X7296427Y-16411427D01*
X7296427Y-19911427D02*
X7296427Y-19826573D01*
X7211573Y-19826573D01*
X7211573Y-19911427D01*
X7296427Y-19911427D01*
X7550427Y-17046427D02*
X7550427Y-16961573D01*
X7465573Y-16961573D01*
X7465573Y-17046427D01*
X7550427Y-17046427D01*
X7550427Y-20546427D02*
X7550427Y-20461573D01*
X7465573Y-20461573D01*
X7465573Y-20546427D01*
X7550427Y-20546427D01*
X8296427Y-14661427D02*
X8296427Y-14576573D01*
X8211573Y-14576573D01*
X8211573Y-14661427D01*
X8296427Y-14661427D01*
X8296427Y-18161427D02*
X8296427Y-18076573D01*
X8211573Y-18076573D01*
X8211573Y-18161427D01*
X8296427Y-18161427D01*
X8296427Y-21661427D02*
X8296427Y-21576573D01*
X8211573Y-21576573D01*
X8211573Y-21661427D01*
X8296427Y-21661427D01*
X8550427Y-15296427D02*
X8550427Y-15211573D01*
X8465573Y-15211573D01*
X8465573Y-15296427D01*
X8550427Y-15296427D01*
X8550427Y-18796427D02*
X8550427Y-18711573D01*
X8465573Y-18711573D01*
X8465573Y-18796427D01*
X8550427Y-18796427D01*
X8550427Y-22296427D02*
X8550427Y-22211573D01*
X8465573Y-22211573D01*
X8465573Y-22296427D01*
X8550427Y-22296427D01*
X9296427Y-16411427D02*
X9296427Y-16326573D01*
X9211573Y-16326573D01*
X9211573Y-16411427D01*
X9296427Y-16411427D01*
X9296427Y-19911427D02*
X9296427Y-19826573D01*
X9211573Y-19826573D01*
X9211573Y-19911427D01*
X9296427Y-19911427D01*
X9550427Y-17046427D02*
X9550427Y-16961573D01*
X9465573Y-16961573D01*
X9465573Y-17046427D01*
X9550427Y-17046427D01*
X9550427Y-20546427D02*
X9550427Y-20461573D01*
X9465573Y-20461573D01*
X9465573Y-20546427D01*
X9550427Y-20546427D01*
X10296427Y-14661427D02*
X10296427Y-14576573D01*
X10211573Y-14576573D01*
X10211573Y-14661427D01*
X10296427Y-14661427D01*
X10296427Y-18161427D02*
X10296427Y-18076573D01*
X10211573Y-18076573D01*
X10211573Y-18161427D01*
X10296427Y-18161427D01*
X10296427Y-21661427D02*
X10296427Y-21576573D01*
X10211573Y-21576573D01*
X10211573Y-21661427D01*
X10296427Y-21661427D01*
X10550427Y-15296427D02*
X10550427Y-15211573D01*
X10465573Y-15211573D01*
X10465573Y-15296427D01*
X10550427Y-15296427D01*
X10550427Y-18796427D02*
X10550427Y-18711573D01*
X10465573Y-18711573D01*
X10465573Y-18796427D01*
X10550427Y-18796427D01*
X10550427Y-22296427D02*
X10550427Y-22211573D01*
X10465573Y-22211573D01*
X10465573Y-22296427D01*
X10550427Y-22296427D01*
X11296427Y-16411427D02*
X11296427Y-16326573D01*
X11211573Y-16326573D01*
X11211573Y-16411427D01*
X11296427Y-16411427D01*
X11296427Y-19911427D02*
X11296427Y-19826573D01*
X11211573Y-19826573D01*
X11211573Y-19911427D01*
X11296427Y-19911427D01*
X11550427Y-17046427D02*
X11550427Y-16961573D01*
X11465573Y-16961573D01*
X11465573Y-17046427D01*
X11550427Y-17046427D01*
X11550427Y-20546427D02*
X11550427Y-20461573D01*
X11465573Y-20461573D01*
X11465573Y-20546427D01*
X11550427Y-20546427D01*
X12296427Y-14661427D02*
X12296427Y-14576573D01*
X12211573Y-14576573D01*
X12211573Y-14661427D01*
X12296427Y-14661427D01*
X12296427Y-18161427D02*
X12296427Y-18076573D01*
X12211573Y-18076573D01*
X12211573Y-18161427D01*
X12296427Y-18161427D01*
X12296427Y-21661427D02*
X12296427Y-21576573D01*
X12211573Y-21576573D01*
X12211573Y-21661427D01*
X12296427Y-21661427D01*
X12550427Y-15296427D02*
X12550427Y-15211573D01*
X12465573Y-15211573D01*
X12465573Y-15296427D01*
X12550427Y-15296427D01*
X12550427Y-18796427D02*
X12550427Y-18711573D01*
X12465573Y-18711573D01*
X12465573Y-18796427D01*
X12550427Y-18796427D01*
X12550427Y-22296427D02*
X12550427Y-22211573D01*
X12465573Y-22211573D01*
X12465573Y-22296427D01*
X12550427Y-22296427D01*
X13296427Y-16411427D02*
X13296427Y-16326573D01*
X13211573Y-16326573D01*
X13211573Y-16411427D01*
X13296427Y-16411427D01*
X13296427Y-19911427D02*
X13296427Y-19826573D01*
X13211573Y-19826573D01*
X13211573Y-19911427D01*
X13296427Y-19911427D01*
X13550427Y-17046427D02*
X13550427Y-16961573D01*
X13465573Y-16961573D01*
X13465573Y-17046427D01*
X13550427Y-17046427D01*
X13550427Y-20546427D02*
X13550427Y-20461573D01*
X13465573Y-20461573D01*
X13465573Y-20546427D01*
X13550427Y-20546427D01*
X14296427Y-14661427D02*
X14296427Y-14576573D01*
X14211573Y-14576573D01*
X14211573Y-14661427D01*
X14296427Y-14661427D01*
X14296427Y-18161427D02*
X14296427Y-18076573D01*
X14211573Y-18076573D01*
X14211573Y-18161427D01*
X14296427Y-18161427D01*
X14296427Y-21661427D02*
X14296427Y-21576573D01*
X14211573Y-21576573D01*
X14211573Y-21661427D01*
X14296427Y-21661427D01*
X14550427Y-15296427D02*
X14550427Y-15211573D01*
X14465573Y-15211573D01*
X14465573Y-15296427D01*
X14550427Y-15296427D01*
X14550427Y-18796427D02*
X14550427Y-18711573D01*
X14465573Y-18711573D01*
X14465573Y-18796427D01*
X14550427Y-18796427D01*
X14550427Y-22296427D02*
X14550427Y-22211573D01*
X14465573Y-22211573D01*
X14465573Y-22296427D01*
X14550427Y-22296427D01*
X15296427Y-16411427D02*
X15296427Y-16326573D01*
X15211573Y-16326573D01*
X15211573Y-16411427D01*
X15296427Y-16411427D01*
X15296427Y-19911427D02*
X15296427Y-19826573D01*
X15211573Y-19826573D01*
X15211573Y-19911427D01*
X15296427Y-19911427D01*
X15550427Y-17046427D02*
X15550427Y-16961573D01*
X15465573Y-16961573D01*
X15465573Y-17046427D01*
X15550427Y-17046427D01*
X15550427Y-20546427D02*
X15550427Y-20461573D01*
X15465573Y-20461573D01*
X15465573Y-20546427D01*
X15550427Y-20546427D01*
X16296427Y-14661427D02*
X16296427Y-14576573D01*
X16211573Y-14576573D01*
X16211573Y-14661427D01*
X16296427Y-14661427D01*
X16296427Y-18161427D02*
X16296427Y-18076573D01*
X16211573Y-18076573D01*
X16211573Y-18161427D01*
X16296427Y-18161427D01*
X16296427Y-21661427D02*
X16296427Y-21576573D01*
X16211573Y-21576573D01*
X16211573Y-21661427D01*
X16296427Y-21661427D01*
X16550427Y-15296427D02*
X16550427Y-15211573D01*
X16465573Y-15211573D01*
X16465573Y-15296427D01*
X16550427Y-15296427D01*
X16550427Y-18796427D02*
X16550427Y-18711573D01*
X16465573Y-18711573D01*
X16465573Y-18796427D01*
X16550427Y-18796427D01*
X16550427Y-22296427D02*
X16550427Y-22211573D01*
X16465573Y-22211573D01*
X16465573Y-22296427D01*
X16550427Y-22296427D01*
X17296427Y-16411427D02*
X17296427Y-16326573D01*
X17211573Y-16326573D01*
X17211573Y-16411427D01*
X17296427Y-16411427D01*
X17296427Y-19911427D02*
X17296427Y-19826573D01*
X17211573Y-19826573D01*
X17211573Y-19911427D01*
X17296427Y-19911427D01*
X17550427Y-17046427D02*
X17550427Y-16961573D01*
X17465573Y-16961573D01*
X17465573Y-17046427D01*
X17550427Y-17046427D01*
X17550427Y-20546427D02*
X17550427Y-20461573D01*
X17465573Y-20461573D01*
X17465573Y-20546427D01*
X17550427Y-20546427D01*
X18296427Y-14661427D02*
X18296427Y-14576573D01*
X18211573Y-14576573D01*
X18211573Y-14661427D01*
X18296427Y-14661427D01*
X18296427Y-18161427D02*
X18296427Y-18076573D01*
X18211573Y-18076573D01*
X18211573Y-18161427D01*
X18296427Y-18161427D01*
X18296427Y-21661427D02*
X18296427Y-21576573D01*
X18211573Y-21576573D01*
X18211573Y-21661427D01*
X18296427Y-21661427D01*
X18550427Y-15296427D02*
X18550427Y-15211573D01*
X18465573Y-15211573D01*
X18465573Y-15296427D01*
X18550427Y-15296427D01*
X18550427Y-18796427D02*
X18550427Y-18711573D01*
X18465573Y-18711573D01*
X18465573Y-18796427D01*
X18550427Y-18796427D01*
X18550427Y-22296427D02*
X18550427Y-22211573D01*
X18465573Y-22211573D01*
X18465573Y-22296427D01*
X18550427Y-22296427D01*
X19296427Y-16411427D02*
X19296427Y-16326573D01*
X19211573Y-16326573D01*
X19211573Y-16411427D01*
X19296427Y-16411427D01*
X19296427Y-19911427D02*
X19296427Y-19826573D01*
X19211573Y-19826573D01*
X19211573Y-19911427D01*
X19296427Y-19911427D01*
X19550427Y-17046427D02*
X19550427Y-16961573D01*
X19465573Y-16961573D01*
X19465573Y-17046427D01*
X19550427Y-17046427D01*
X19550427Y-20546427D02*
X19550427Y-20461573D01*
X19465573Y-20461573D01*
X19465573Y-20546427D01*
X19550427Y-20546427D01*
X20296427Y-14661427D02*
X20296427Y-14576573D01*
X20211573Y-14576573D01*
X20211573Y-14661427D01*
X20296427Y-14661427D01*
X20296427Y-18161427D02*
X20296427Y-18076573D01*
X20211573Y-18076573D01*
X20211573Y-18161427D01*
X20296427Y-18161427D01*
X20296427Y-21661427D02*
X20296427Y-21576573D01*
X20211573Y-21576573D01*
X20211573Y-21661427D01*
X20296427Y-21661427D01*
X20550427Y-15296427D02*
X20550427Y-15211573D01*
X20465573Y-15211573D01*
X20465573Y-15296427D01*
X20550427Y-15296427D01*
X20550427Y-18796427D02*
X20550427Y-18711573D01*
X20465573Y-18711573D01*
X20465573Y-18796427D01*
X20550427Y-18796427D01*
X20550427Y-22296427D02*
X20550427Y-22211573D01*
X20465573Y-22211573D01*
X20465573Y-22296427D01*
X20550427Y-22296427D01*
X21296427Y-16411427D02*
X21296427Y-16326573D01*
X21211573Y-16326573D01*
X21211573Y-16411427D01*
X21296427Y-16411427D01*
X21296427Y-19911427D02*
X21296427Y-19826573D01*
X21211573Y-19826573D01*
X21211573Y-19911427D01*
X21296427Y-19911427D01*
X21550427Y-17046427D02*
X21550427Y-16961573D01*
X21465573Y-16961573D01*
X21465573Y-17046427D01*
X21550427Y-17046427D01*
X21550427Y-20546427D02*
X21550427Y-20461573D01*
X21465573Y-20461573D01*
X21465573Y-20546427D01*
X21550427Y-20546427D01*
X22296427Y-14661427D02*
X22296427Y-14576573D01*
X22211573Y-14576573D01*
X22211573Y-14661427D01*
X22296427Y-14661427D01*
X22296427Y-18161427D02*
X22296427Y-18076573D01*
X22211573Y-18076573D01*
X22211573Y-18161427D01*
X22296427Y-18161427D01*
X22296427Y-21661427D02*
X22296427Y-21576573D01*
X22211573Y-21576573D01*
X22211573Y-21661427D01*
X22296427Y-21661427D01*
X22550427Y-15296427D02*
X22550427Y-15211573D01*
X22465573Y-15211573D01*
X22465573Y-15296427D01*
X22550427Y-15296427D01*
X22550427Y-18796427D02*
X22550427Y-18711573D01*
X22465573Y-18711573D01*
X22465573Y-18796427D01*
X22550427Y-18796427D01*
X22550427Y-22296427D02*
X22550427Y-22211573D01*
X22465573Y-22211573D01*
X22465573Y-22296427D01*
X22550427Y-22296427D01*
X23296427Y-16411427D02*
X23296427Y-16326573D01*
X23211573Y-16326573D01*
X23211573Y-16411427D01*
X23296427Y-16411427D01*
X23296427Y-19911427D02*
X23296427Y-19826573D01*
X23211573Y-19826573D01*
X23211573Y-19911427D01*
X23296427Y-19911427D01*
X23550427Y-17046427D02*
X23550427Y-16961573D01*
X23465573Y-16961573D01*
X23465573Y-17046427D01*
X23550427Y-17046427D01*
X23550427Y-20546427D02*
X23550427Y-20461573D01*
X23465573Y-20461573D01*
X23465573Y-20546427D01*
X23550427Y-20546427D01*
X24296427Y-14661427D02*
X24296427Y-14576573D01*
X24211573Y-14576573D01*
X24211573Y-14661427D01*
X24296427Y-14661427D01*
X24296427Y-18161427D02*
X24296427Y-18076573D01*
X24211573Y-18076573D01*
X24211573Y-18161427D01*
X24296427Y-18161427D01*
X24296427Y-21661427D02*
X24296427Y-21576573D01*
X24211573Y-21576573D01*
X24211573Y-21661427D01*
X24296427Y-21661427D01*
X24550427Y-15296427D02*
X24550427Y-15211573D01*
X24465573Y-15211573D01*
X24465573Y-15296427D01*
X24550427Y-15296427D01*
X24550427Y-18796427D02*
X24550427Y-18711573D01*
X24465573Y-18711573D01*
X24465573Y-18796427D01*
X24550427Y-18796427D01*
X24550427Y-22296427D02*
X24550427Y-22211573D01*
X24465573Y-22211573D01*
X24465573Y-22296427D01*
X24550427Y-22296427D01*
X25296427Y-16411427D02*
X25296427Y-16326573D01*
X25211573Y-16326573D01*
X25211573Y-16411427D01*
X25296427Y-16411427D01*
X25296427Y-19911427D02*
X25296427Y-19826573D01*
X25211573Y-19826573D01*
X25211573Y-19911427D01*
X25296427Y-19911427D01*
X25550427Y-17046427D02*
X25550427Y-16961573D01*
X25465573Y-16961573D01*
X25465573Y-17046427D01*
X25550427Y-17046427D01*
X25550427Y-20546427D02*
X25550427Y-20461573D01*
X25465573Y-20461573D01*
X25465573Y-20546427D01*
X25550427Y-20546427D01*
X26296427Y-14661427D02*
X26296427Y-14576573D01*
X26211573Y-14576573D01*
X26211573Y-14661427D01*
X26296427Y-14661427D01*
X26296427Y-18161427D02*
X26296427Y-18076573D01*
X26211573Y-18076573D01*
X26211573Y-18161427D01*
X26296427Y-18161427D01*
X26296427Y-21661427D02*
X26296427Y-21576573D01*
X26211573Y-21576573D01*
X26211573Y-21661427D01*
X26296427Y-21661427D01*
X26550427Y-15296427D02*
X26550427Y-15211573D01*
X26465573Y-15211573D01*
X26465573Y-15296427D01*
X26550427Y-15296427D01*
X26550427Y-18796427D02*
X26550427Y-18711573D01*
X26465573Y-18711573D01*
X26465573Y-18796427D01*
X26550427Y-18796427D01*
X26550427Y-22296427D02*
X26550427Y-22211573D01*
X26465573Y-22211573D01*
X26465573Y-22296427D01*
X26550427Y-22296427D01*
X27296427Y-16411427D02*
X27296427Y-16326573D01*
X27211573Y-16326573D01*
X27211573Y-16411427D01*
X27296427Y-16411427D01*
X27296427Y-19911427D02*
X27296427Y-19826573D01*
X27211573Y-19826573D01*
X27211573Y-19911427D01*
X27296427Y-19911427D01*
X27550427Y-17046427D02*
X27550427Y-16961573D01*
X27465573Y-16961573D01*
X27465573Y-17046427D01*
X27550427Y-17046427D01*
X27550427Y-20546427D02*
X27550427Y-20461573D01*
X27465573Y-20461573D01*
X27465573Y-20546427D01*
X27550427Y-20546427D01*
X28296427Y-14661427D02*
X28296427Y-14576573D01*
X28211573Y-14576573D01*
X28211573Y-14661427D01*
X28296427Y-14661427D01*
X28296427Y-18161427D02*
X28296427Y-18076573D01*
X28211573Y-18076573D01*
X28211573Y-18161427D01*
X28296427Y-18161427D01*
X28296427Y-21661427D02*
X28296427Y-21576573D01*
X28211573Y-21576573D01*
X28211573Y-21661427D01*
X28296427Y-21661427D01*
X28550427Y-15296427D02*
X28550427Y-15211573D01*
X28465573Y-15211573D01*
X28465573Y-15296427D01*
X28550427Y-15296427D01*
X28550427Y-18796427D02*
X28550427Y-18711573D01*
X28465573Y-18711573D01*
X28465573Y-18796427D01*
X28550427Y-18796427D01*
X28550427Y-22296427D02*
X28550427Y-22211573D01*
X28465573Y-22211573D01*
X28465573Y-22296427D01*
X28550427Y-22296427D01*
X29296427Y-16411427D02*
X29296427Y-16326573D01*
X29211573Y-16326573D01*
X29211573Y-16411427D01*
X29296427Y-16411427D01*
X29296427Y-19911427D02*
X29296427Y-19826573D01*
X29211573Y-19826573D01*
X29211573Y-19911427D01*
X29296427Y-19911427D01*
X29550427Y-17046427D02*
X29550427Y-16961573D01*
X29465573Y-16961573D01*
X29465573Y-17046427D01*
X29550427Y-17046427D01*
X29550427Y-20546427D02*
X29550427Y-20461573D01*
X29465573Y-20461573D01*
X29465573Y-20546427D01*
X29550427Y-20546427D01*
X30296427Y-14661427D02*
X30296427Y-14576573D01*
X30211573Y-14576573D01*
X30211573Y-14661427D01*
X30296427Y-14661427D01*
X30296427Y-18161427D02*
X30296427Y-18076573D01*
X30211573Y-18076573D01*
X30211573Y-18161427D01*
X30296427Y-18161427D01*
X30296427Y-21661427D02*
X30296427Y-21576573D01*
X30211573Y-21576573D01*
X30211573Y-21661427D01*
X30296427Y-21661427D01*
X30550427Y-15296427D02*
X30550427Y-15211573D01*
X30465573Y-15211573D01*
X30465573Y-15296427D01*
X30550427Y-15296427D01*
X30550427Y-18796427D02*
X30550427Y-18711573D01*
X30465573Y-18711573D01*
X30465573Y-18796427D01*
X30550427Y-18796427D01*
X30550427Y-22296427D02*
X30550427Y-22211573D01*
X30465573Y-22211573D01*
X30465573Y-22296427D01*
X30550427Y-22296427D01*
X31296427Y-16411427D02*
X31296427Y-16326573D01*
X31211573Y-16326573D01*
X31211573Y-16411427D01*
X31296427Y-16411427D01*
X31296427Y-19911427D02*
X31296427Y-19826573D01*
X31211573Y-19826573D01*
X31211573Y-19911427D01*
X31296427Y-19911427D01*
X31550427Y-17046427D02*
X31550427Y-16961573D01*
X31465573Y-16961573D01*
X31465573Y-17046427D01*
X31550427Y-17046427D01*
X31550427Y-20546427D02*
X31550427Y-20461573D01*
X31465573Y-20461573D01*
X31465573Y-20546427D01*
X31550427Y-20546427D01*
X32296427Y-14661427D02*
X32296427Y-14576573D01*
X32211573Y-14576573D01*
X32211573Y-14661427D01*
X32296427Y-14661427D01*
X32296427Y-18161427D02*
X32296427Y-18076573D01*
X32211573Y-18076573D01*
X32211573Y-18161427D01*
X32296427Y-18161427D01*
X32296427Y-21661427D02*
X32296427Y-21576573D01*
X32211573Y-21576573D01*
X32211573Y-21661427D01*
X32296427Y-21661427D01*
X32550427Y-15296427D02*
X32550427Y-15211573D01*
X32465573Y-15211573D01*
X32465573Y-15296427D01*
X32550427Y-15296427D01*
X32550427Y-18796427D02*
X32550427Y-18711573D01*
X32465573Y-18711573D01*
X32465573Y-18796427D01*
X32550427Y-18796427D01*
X32550427Y-22296427D02*
X32550427Y-22211573D01*
X32465573Y-22211573D01*
X32465573Y-22296427D01*
X32550427Y-22296427D01*
X33296427Y-16411427D02*
X33296427Y-16326573D01*
X33211573Y-16326573D01*
X33211573Y-16411427D01*
X33296427Y-16411427D01*
X33296427Y-19911427D02*
X33296427Y-19826573D01*
X33211573Y-19826573D01*
X33211573Y-19911427D01*
X33296427Y-19911427D01*
X33550427Y-17046427D02*
X33550427Y-16961573D01*
X33465573Y-16961573D01*
X33465573Y-17046427D01*
X33550427Y-17046427D01*
X33550427Y-20546427D02*
X33550427Y-20461573D01*
X33465573Y-20461573D01*
X33465573Y-20546427D01*
X33550427Y-20546427D01*
X34296427Y-14661427D02*
X34296427Y-14576573D01*
X34211573Y-14576573D01*
X34211573Y-14661427D01*
X34296427Y-14661427D01*
X34296427Y-18161427D02*
X34296427Y-18076573D01*
X34211573Y-18076573D01*
X34211573Y-18161427D01*
X34296427Y-18161427D01*
X34296427Y-21661427D02*
X34296427Y-21576573D01*
X34211573Y-21576573D01*
X34211573Y-21661427D01*
X34296427Y-21661427D01*
X34550427Y-15296427D02*
X34550427Y-15211573D01*
X34465573Y-15211573D01*
X34465573Y-15296427D01*
X34550427Y-15296427D01*
X34550427Y-18796427D02*
X34550427Y-18711573D01*
X34465573Y-18711573D01*
X34465573Y-18796427D01*
X34550427Y-18796427D01*
X34550427Y-22296427D02*
X34550427Y-22211573D01*
X34465573Y-22211573D01*
X34465573Y-22296427D01*
X34550427Y-22296427D01*
X35296427Y-16411427D02*
X35296427Y-16326573D01*
X35211573Y-16326573D01*
X35211573Y-16411427D01*
X35296427Y-16411427D01*
X35296427Y-19911427D02*
X35296427Y-19826573D01*
X35211573Y-19826573D01*
X35211573Y-19911427D01*
X35296427Y-19911427D01*
X35550427Y-17046427D02*
X35550427Y-16961573D01*
X35465573Y-16961573D01*
X35465573Y-17046427D01*
X35550427Y-17046427D01*
X35550427Y-20546427D02*
X35550427Y-20461573D01*
X35465573Y-20461573D01*
X35465573Y-20546427D01*
X35550427Y-20546427D01*
X36296427Y-14661427D02*
X36296427Y-14576573D01*
X36211573Y-14576573D01*
X36211573Y-14661427D01*
X36296427Y-14661427D01*
X36296427Y-18161427D02*
X36296427Y-18076573D01*
X36211573Y-18076573D01*
X36211573Y-18161427D01*
X36296427Y-18161427D01*
X36296427Y-21661427D02*
X36296427Y-21576573D01*
X36211573Y-21576573D01*
X36211573Y-21661427D01*
X36296427Y-21661427D01*
X36550427Y-15296427D02*
X36550427Y-15211573D01*
X36465573Y-15211573D01*
X36465573Y-15296427D01*
X36550427Y-15296427D01*
X36550427Y-18796427D02*
X36550427Y-18711573D01*
X36465573Y-18711573D01*
X36465573Y-18796427D01*
X36550427Y-18796427D01*
X36550427Y-22296427D02*
X36550427Y-22211573D01*
X36465573Y-22211573D01*
X36465573Y-22296427D01*
X36550427Y-22296427D01*
X37296427Y-16411427D02*
X37296427Y-16326573D01*
X37211573Y-16326573D01*
X37211573Y-16411427D01*
X37296427Y-16411427D01*
X37296427Y-19911427D02*
X37296427Y-19826573D01*
X37211573Y-19826573D01*
X37211573Y-19911427D01*
X37296427Y-19911427D01*
X37550427Y-17046427D02*
X37550427Y-16961573D01*
X37465573Y-16961573D01*
X37465573Y-17046427D01*
X37550427Y-17046427D01*
X37550427Y-20546427D02*
X37550427Y-20461573D01*
X37465573Y-20461573D01*
X37465573Y-20546427D01*
X37550427Y-20546427D01*
X38296427Y-14661427D02*
X38296427Y-14576573D01*
X38211573Y-14576573D01*
X38211573Y-14661427D01*
X38296427Y-14661427D01*
X38296427Y-18161427D02*
X38296427Y-18076573D01*
X38211573Y-18076573D01*
X38211573Y-18161427D01*
X38296427Y-18161427D01*
X38296427Y-21661427D02*
X38296427Y-21576573D01*
X38211573Y-21576573D01*
X38211573Y-21661427D01*
X38296427Y-21661427D01*
X38550427Y-15296427D02*
X38550427Y-15211573D01*
X38465573Y-15211573D01*
X38465573Y-15296427D01*
X38550427Y-15296427D01*
X38550427Y-18796427D02*
X38550427Y-18711573D01*
X38465573Y-18711573D01*
X38465573Y-18796427D01*
X38550427Y-18796427D01*
X38550427Y-22296427D02*
X38550427Y-22211573D01*
X38465573Y-22211573D01*
X38465573Y-22296427D01*
X38550427Y-22296427D01*
X39296427Y-16411427D02*
X39296427Y-16326573D01*
X39211573Y-16326573D01*
X39211573Y-16411427D01*
X39296427Y-16411427D01*
X39296427Y-19911427D02*
X39296427Y-19826573D01*
X39211573Y-19826573D01*
X39211573Y-19911427D01*
X39296427Y-19911427D01*
X39550427Y-17046427D02*
X39550427Y-16961573D01*
X39465573Y-16961573D01*
X39465573Y-17046427D01*
X39550427Y-17046427D01*
X39550427Y-20546427D02*
X39550427Y-20461573D01*
X39465573Y-20461573D01*
X39465573Y-20546427D01*
X39550427Y-20546427D01*
D11*
X2452619Y-23515476D02*
X2452619Y-23315476D01*
X2500238Y-23315476D01*
X2528810Y-23325000D01*
X2547857Y-23344048D01*
X2557381Y-23363095D01*
X2566905Y-23401190D01*
X2566905Y-23429762D01*
X2557381Y-23467857D01*
X2547857Y-23486905D01*
X2528810Y-23505952D01*
X2500238Y-23515476D01*
X2452619Y-23515476D01*
X2652619Y-23515476D02*
X2652619Y-23382143D01*
X2652619Y-23420238D02*
X2662143Y-23401190D01*
X2671667Y-23391667D01*
X2690714Y-23382143D01*
X2709762Y-23382143D01*
X2776429Y-23515476D02*
X2776429Y-23382143D01*
X2776429Y-23315476D02*
X2766905Y-23325000D01*
X2776429Y-23334524D01*
X2785952Y-23325000D01*
X2776429Y-23315476D01*
X2776429Y-23334524D01*
X2900238Y-23515476D02*
X2881190Y-23505952D01*
X2871667Y-23486905D01*
X2871667Y-23315476D01*
X3005000Y-23515476D02*
X2985952Y-23505952D01*
X2976428Y-23486905D01*
X2976428Y-23315476D01*
X3233571Y-23515476D02*
X3233571Y-23315476D01*
X3300238Y-23458333D01*
X3366905Y-23315476D01*
X3366905Y-23515476D01*
X3547857Y-23515476D02*
X3547857Y-23410714D01*
X3538333Y-23391667D01*
X3519286Y-23382143D01*
X3481190Y-23382143D01*
X3462143Y-23391667D01*
X3547857Y-23505952D02*
X3528809Y-23515476D01*
X3481190Y-23515476D01*
X3462143Y-23505952D01*
X3452619Y-23486905D01*
X3452619Y-23467857D01*
X3462143Y-23448809D01*
X3481190Y-23439286D01*
X3528809Y-23439286D01*
X3547857Y-23429762D01*
X3643095Y-23382143D02*
X3643095Y-23582143D01*
X3643095Y-23391667D02*
X3662143Y-23382143D01*
X3700238Y-23382143D01*
X3719286Y-23391667D01*
X3728809Y-23401190D01*
X3738333Y-23420238D01*
X3738333Y-23477381D01*
X3728809Y-23496428D01*
X3719286Y-23505952D01*
X3700238Y-23515476D01*
X3662143Y-23515476D01*
X3643095Y-23505952D01*
X3824048Y-23496428D02*
X3833571Y-23505952D01*
X3824048Y-23515476D01*
X3814524Y-23505952D01*
X3824048Y-23496428D01*
X3824048Y-23515476D01*
X3824048Y-23391667D02*
X3833571Y-23401190D01*
X3824048Y-23410714D01*
X3814524Y-23401190D01*
X3824048Y-23391667D01*
X3824048Y-23410714D01*
D12*
X2155000Y-23825000D02*
X2195000Y-23865000D01*
X2195000Y-23825000D02*
X2155000Y-23865000D01*
D11*
X2490714Y-23735476D02*
X2509762Y-23735476D01*
X2528810Y-23745000D01*
X2538333Y-23754524D01*
X2547857Y-23773571D01*
X2557381Y-23811667D01*
X2557381Y-23859286D01*
X2547857Y-23897381D01*
X2538333Y-23916428D01*
X2528810Y-23925952D01*
X2509762Y-23935476D01*
X2490714Y-23935476D01*
X2471667Y-23925952D01*
X2462143Y-23916428D01*
X2452619Y-23897381D01*
X2443095Y-23859286D01*
X2443095Y-23811667D01*
X2452619Y-23773571D01*
X2462143Y-23754524D01*
X2471667Y-23745000D01*
X2490714Y-23735476D01*
X2643095Y-23916428D02*
X2652619Y-23925952D01*
X2643095Y-23935476D01*
X2633571Y-23925952D01*
X2643095Y-23916428D01*
X2643095Y-23935476D01*
X2824048Y-23802143D02*
X2824048Y-23935476D01*
X2776429Y-23725952D02*
X2728810Y-23868809D01*
X2852619Y-23868809D01*
X2966905Y-23735476D02*
X2985952Y-23735476D01*
X3005000Y-23745000D01*
X3014524Y-23754524D01*
X3024048Y-23773571D01*
X3033571Y-23811667D01*
X3033571Y-23859286D01*
X3024048Y-23897381D01*
X3014524Y-23916428D01*
X3005000Y-23925952D01*
X2985952Y-23935476D01*
X2966905Y-23935476D01*
X2947857Y-23925952D01*
X2938333Y-23916428D01*
X2928809Y-23897381D01*
X2919286Y-23859286D01*
X2919286Y-23811667D01*
X2928809Y-23773571D01*
X2938333Y-23754524D01*
X2947857Y-23745000D01*
X2966905Y-23735476D01*
X3157381Y-23735476D02*
X3176428Y-23735476D01*
X3195476Y-23745000D01*
X3205000Y-23754524D01*
X3214524Y-23773571D01*
X3224048Y-23811667D01*
X3224048Y-23859286D01*
X3214524Y-23897381D01*
X3205000Y-23916428D01*
X3195476Y-23925952D01*
X3176428Y-23935476D01*
X3157381Y-23935476D01*
X3138333Y-23925952D01*
X3128809Y-23916428D01*
X3119286Y-23897381D01*
X3109762Y-23859286D01*
X3109762Y-23811667D01*
X3119286Y-23773571D01*
X3128809Y-23754524D01*
X3138333Y-23745000D01*
X3157381Y-23735476D01*
X3309762Y-23935476D02*
X3309762Y-23802143D01*
X3309762Y-23821190D02*
X3319286Y-23811667D01*
X3338333Y-23802143D01*
X3366905Y-23802143D01*
X3385952Y-23811667D01*
X3395476Y-23830714D01*
X3395476Y-23935476D01*
X3395476Y-23830714D02*
X3405000Y-23811667D01*
X3424048Y-23802143D01*
X3452619Y-23802143D01*
X3471667Y-23811667D01*
X3481190Y-23830714D01*
X3481190Y-23935476D01*
X3576428Y-23935476D02*
X3576428Y-23802143D01*
X3576428Y-23821190D02*
X3585952Y-23811667D01*
X3605000Y-23802143D01*
X3633571Y-23802143D01*
X3652619Y-23811667D01*
X3662143Y-23830714D01*
X3662143Y-23935476D01*
X3662143Y-23830714D02*
X3671667Y-23811667D01*
X3690714Y-23802143D01*
X3719286Y-23802143D01*
X3738333Y-23811667D01*
X3747857Y-23830714D01*
X3747857Y-23935476D01*
X4138333Y-23725952D02*
X3966905Y-23983095D01*
X4395476Y-23735476D02*
X4414524Y-23735476D01*
X4433571Y-23745000D01*
X4443095Y-23754524D01*
X4452619Y-23773571D01*
X4462143Y-23811667D01*
X4462143Y-23859286D01*
X4452619Y-23897381D01*
X4443095Y-23916428D01*
X4433571Y-23925952D01*
X4414524Y-23935476D01*
X4395476Y-23935476D01*
X4376429Y-23925952D01*
X4366905Y-23916428D01*
X4357381Y-23897381D01*
X4347857Y-23859286D01*
X4347857Y-23811667D01*
X4357381Y-23773571D01*
X4366905Y-23754524D01*
X4376429Y-23745000D01*
X4395476Y-23735476D01*
X4547857Y-23916428D02*
X4557381Y-23925952D01*
X4547857Y-23935476D01*
X4538333Y-23925952D01*
X4547857Y-23916428D01*
X4547857Y-23935476D01*
X4681190Y-23735476D02*
X4700238Y-23735476D01*
X4719286Y-23745000D01*
X4728810Y-23754524D01*
X4738333Y-23773571D01*
X4747857Y-23811667D01*
X4747857Y-23859286D01*
X4738333Y-23897381D01*
X4728810Y-23916428D01*
X4719286Y-23925952D01*
X4700238Y-23935476D01*
X4681190Y-23935476D01*
X4662143Y-23925952D01*
X4652619Y-23916428D01*
X4643095Y-23897381D01*
X4633571Y-23859286D01*
X4633571Y-23811667D01*
X4643095Y-23773571D01*
X4652619Y-23754524D01*
X4662143Y-23745000D01*
X4681190Y-23735476D01*
X4938333Y-23935476D02*
X4824048Y-23935476D01*
X4881190Y-23935476D02*
X4881190Y-23735476D01*
X4862143Y-23764048D01*
X4843095Y-23783095D01*
X4824048Y-23792619D01*
X5119286Y-23735476D02*
X5024048Y-23735476D01*
X5014524Y-23830714D01*
X5024048Y-23821190D01*
X5043095Y-23811667D01*
X5090714Y-23811667D01*
X5109762Y-23821190D01*
X5119286Y-23830714D01*
X5128810Y-23849762D01*
X5128810Y-23897381D01*
X5119286Y-23916428D01*
X5109762Y-23925952D01*
X5090714Y-23935476D01*
X5043095Y-23935476D01*
X5024048Y-23925952D01*
X5014524Y-23916428D01*
X5195476Y-23735476D02*
X5328810Y-23735476D01*
X5243095Y-23935476D01*
X5395476Y-23735476D02*
X5395476Y-23773571D01*
X5471667Y-23735476D02*
X5471667Y-23773571D01*
X5766905Y-24011667D02*
X5757381Y-24002143D01*
X5738333Y-23973571D01*
X5728809Y-23954524D01*
X5719286Y-23925952D01*
X5709762Y-23878333D01*
X5709762Y-23840238D01*
X5719286Y-23792619D01*
X5728809Y-23764048D01*
X5738333Y-23745000D01*
X5757381Y-23716428D01*
X5766905Y-23706905D01*
X5947857Y-23935476D02*
X5833571Y-23935476D01*
X5890714Y-23935476D02*
X5890714Y-23735476D01*
X5871667Y-23764048D01*
X5852619Y-23783095D01*
X5833571Y-23792619D01*
X6024048Y-23754524D02*
X6033571Y-23745000D01*
X6052619Y-23735476D01*
X6100238Y-23735476D01*
X6119286Y-23745000D01*
X6128809Y-23754524D01*
X6138333Y-23773571D01*
X6138333Y-23792619D01*
X6128809Y-23821190D01*
X6014524Y-23935476D01*
X6138333Y-23935476D01*
X6376428Y-23935476D02*
X6376428Y-23735476D01*
X6462143Y-23935476D02*
X6462143Y-23830714D01*
X6452619Y-23811667D01*
X6433571Y-23802143D01*
X6405000Y-23802143D01*
X6385952Y-23811667D01*
X6376428Y-23821190D01*
X6585952Y-23935476D02*
X6566905Y-23925952D01*
X6557381Y-23916428D01*
X6547857Y-23897381D01*
X6547857Y-23840238D01*
X6557381Y-23821190D01*
X6566905Y-23811667D01*
X6585952Y-23802143D01*
X6614524Y-23802143D01*
X6633571Y-23811667D01*
X6643095Y-23821190D01*
X6652619Y-23840238D01*
X6652619Y-23897381D01*
X6643095Y-23916428D01*
X6633571Y-23925952D01*
X6614524Y-23935476D01*
X6585952Y-23935476D01*
X6766905Y-23935476D02*
X6747857Y-23925952D01*
X6738333Y-23906905D01*
X6738333Y-23735476D01*
X6919286Y-23925952D02*
X6900238Y-23935476D01*
X6862143Y-23935476D01*
X6843095Y-23925952D01*
X6833571Y-23906905D01*
X6833571Y-23830714D01*
X6843095Y-23811667D01*
X6862143Y-23802143D01*
X6900238Y-23802143D01*
X6919286Y-23811667D01*
X6928809Y-23830714D01*
X6928809Y-23849762D01*
X6833571Y-23868809D01*
X7005000Y-23925952D02*
X7024048Y-23935476D01*
X7062143Y-23935476D01*
X7081190Y-23925952D01*
X7090714Y-23906905D01*
X7090714Y-23897381D01*
X7081190Y-23878333D01*
X7062143Y-23868809D01*
X7033571Y-23868809D01*
X7014524Y-23859286D01*
X7005000Y-23840238D01*
X7005000Y-23830714D01*
X7014524Y-23811667D01*
X7033571Y-23802143D01*
X7062143Y-23802143D01*
X7081190Y-23811667D01*
X7157381Y-24011667D02*
X7166905Y-24002143D01*
X7185952Y-23973571D01*
X7195476Y-23954524D01*
X7205000Y-23925952D01*
X7214524Y-23878333D01*
X7214524Y-23840238D01*
X7205000Y-23792619D01*
X7195476Y-23764048D01*
X7185952Y-23745000D01*
X7166905Y-23716428D01*
X7157381Y-23706905D01*
D13*
X2195000Y-24109000D02*
G75*
G03*
X2195000Y-24109000I-40000J0D01*
G01*
D11*
X2490714Y-23999476D02*
X2509762Y-23999476D01*
X2528810Y-24009000D01*
X2538333Y-24018524D01*
X2547857Y-24037571D01*
X2557381Y-24075667D01*
X2557381Y-24123286D01*
X2547857Y-24161381D01*
X2538333Y-24180428D01*
X2528810Y-24189952D01*
X2509762Y-24199476D01*
X2490714Y-24199476D01*
X2471667Y-24189952D01*
X2462143Y-24180428D01*
X2452619Y-24161381D01*
X2443095Y-24123286D01*
X2443095Y-24075667D01*
X2452619Y-24037571D01*
X2462143Y-24018524D01*
X2471667Y-24009000D01*
X2490714Y-23999476D01*
X2643095Y-24180428D02*
X2652619Y-24189952D01*
X2643095Y-24199476D01*
X2633571Y-24189952D01*
X2643095Y-24180428D01*
X2643095Y-24199476D01*
X2766905Y-24085190D02*
X2747857Y-24075667D01*
X2738333Y-24066143D01*
X2728810Y-24047095D01*
X2728810Y-24037571D01*
X2738333Y-24018524D01*
X2747857Y-24009000D01*
X2766905Y-23999476D01*
X2805000Y-23999476D01*
X2824048Y-24009000D01*
X2833571Y-24018524D01*
X2843095Y-24037571D01*
X2843095Y-24047095D01*
X2833571Y-24066143D01*
X2824048Y-24075667D01*
X2805000Y-24085190D01*
X2766905Y-24085190D01*
X2747857Y-24094714D01*
X2738333Y-24104238D01*
X2728810Y-24123286D01*
X2728810Y-24161381D01*
X2738333Y-24180428D01*
X2747857Y-24189952D01*
X2766905Y-24199476D01*
X2805000Y-24199476D01*
X2824048Y-24189952D01*
X2833571Y-24180428D01*
X2843095Y-24161381D01*
X2843095Y-24123286D01*
X2833571Y-24104238D01*
X2824048Y-24094714D01*
X2805000Y-24085190D01*
X2966905Y-23999476D02*
X2985952Y-23999476D01*
X3005000Y-24009000D01*
X3014524Y-24018524D01*
X3024048Y-24037571D01*
X3033571Y-24075667D01*
X3033571Y-24123286D01*
X3024048Y-24161381D01*
X3014524Y-24180428D01*
X3005000Y-24189952D01*
X2985952Y-24199476D01*
X2966905Y-24199476D01*
X2947857Y-24189952D01*
X2938333Y-24180428D01*
X2928809Y-24161381D01*
X2919286Y-24123286D01*
X2919286Y-24075667D01*
X2928809Y-24037571D01*
X2938333Y-24018524D01*
X2947857Y-24009000D01*
X2966905Y-23999476D01*
X3157381Y-23999476D02*
X3176428Y-23999476D01*
X3195476Y-24009000D01*
X3205000Y-24018524D01*
X3214524Y-24037571D01*
X3224048Y-24075667D01*
X3224048Y-24123286D01*
X3214524Y-24161381D01*
X3205000Y-24180428D01*
X3195476Y-24189952D01*
X3176428Y-24199476D01*
X3157381Y-24199476D01*
X3138333Y-24189952D01*
X3128809Y-24180428D01*
X3119286Y-24161381D01*
X3109762Y-24123286D01*
X3109762Y-24075667D01*
X3119286Y-24037571D01*
X3128809Y-24018524D01*
X3138333Y-24009000D01*
X3157381Y-23999476D01*
X3309762Y-24199476D02*
X3309762Y-24066143D01*
X3309762Y-24085190D02*
X3319286Y-24075667D01*
X3338333Y-24066143D01*
X3366905Y-24066143D01*
X3385952Y-24075667D01*
X3395476Y-24094714D01*
X3395476Y-24199476D01*
X3395476Y-24094714D02*
X3405000Y-24075667D01*
X3424048Y-24066143D01*
X3452619Y-24066143D01*
X3471667Y-24075667D01*
X3481190Y-24094714D01*
X3481190Y-24199476D01*
X3576428Y-24199476D02*
X3576428Y-24066143D01*
X3576428Y-24085190D02*
X3585952Y-24075667D01*
X3605000Y-24066143D01*
X3633571Y-24066143D01*
X3652619Y-24075667D01*
X3662143Y-24094714D01*
X3662143Y-24199476D01*
X3662143Y-24094714D02*
X3671667Y-24075667D01*
X3690714Y-24066143D01*
X3719286Y-24066143D01*
X3738333Y-24075667D01*
X3747857Y-24094714D01*
X3747857Y-24199476D01*
X4138333Y-23989952D02*
X3966905Y-24247095D01*
X4395476Y-23999476D02*
X4414524Y-23999476D01*
X4433571Y-24009000D01*
X4443095Y-24018524D01*
X4452619Y-24037571D01*
X4462143Y-24075667D01*
X4462143Y-24123286D01*
X4452619Y-24161381D01*
X4443095Y-24180428D01*
X4433571Y-24189952D01*
X4414524Y-24199476D01*
X4395476Y-24199476D01*
X4376429Y-24189952D01*
X4366905Y-24180428D01*
X4357381Y-24161381D01*
X4347857Y-24123286D01*
X4347857Y-24075667D01*
X4357381Y-24037571D01*
X4366905Y-24018524D01*
X4376429Y-24009000D01*
X4395476Y-23999476D01*
X4547857Y-24180428D02*
X4557381Y-24189952D01*
X4547857Y-24199476D01*
X4538333Y-24189952D01*
X4547857Y-24180428D01*
X4547857Y-24199476D01*
X4681190Y-23999476D02*
X4700238Y-23999476D01*
X4719286Y-24009000D01*
X4728810Y-24018524D01*
X4738333Y-24037571D01*
X4747857Y-24075667D01*
X4747857Y-24123286D01*
X4738333Y-24161381D01*
X4728810Y-24180428D01*
X4719286Y-24189952D01*
X4700238Y-24199476D01*
X4681190Y-24199476D01*
X4662143Y-24189952D01*
X4652619Y-24180428D01*
X4643095Y-24161381D01*
X4633571Y-24123286D01*
X4633571Y-24075667D01*
X4643095Y-24037571D01*
X4652619Y-24018524D01*
X4662143Y-24009000D01*
X4681190Y-23999476D01*
X4814524Y-23999476D02*
X4938333Y-23999476D01*
X4871667Y-24075667D01*
X4900238Y-24075667D01*
X4919286Y-24085190D01*
X4928810Y-24094714D01*
X4938333Y-24113762D01*
X4938333Y-24161381D01*
X4928810Y-24180428D01*
X4919286Y-24189952D01*
X4900238Y-24199476D01*
X4843095Y-24199476D01*
X4824048Y-24189952D01*
X4814524Y-24180428D01*
X5128810Y-24199476D02*
X5014524Y-24199476D01*
X5071667Y-24199476D02*
X5071667Y-23999476D01*
X5052619Y-24028048D01*
X5033571Y-24047095D01*
X5014524Y-24056619D01*
X5309762Y-23999476D02*
X5214524Y-23999476D01*
X5205000Y-24094714D01*
X5214524Y-24085190D01*
X5233571Y-24075667D01*
X5281190Y-24075667D01*
X5300238Y-24085190D01*
X5309762Y-24094714D01*
X5319286Y-24113762D01*
X5319286Y-24161381D01*
X5309762Y-24180428D01*
X5300238Y-24189952D01*
X5281190Y-24199476D01*
X5233571Y-24199476D01*
X5214524Y-24189952D01*
X5205000Y-24180428D01*
X5395476Y-23999476D02*
X5395476Y-24037571D01*
X5471667Y-23999476D02*
X5471667Y-24037571D01*
X5766905Y-24275667D02*
X5757381Y-24266143D01*
X5738333Y-24237571D01*
X5728809Y-24218524D01*
X5719286Y-24189952D01*
X5709762Y-24142333D01*
X5709762Y-24104238D01*
X5719286Y-24056619D01*
X5728809Y-24028048D01*
X5738333Y-24009000D01*
X5757381Y-23980428D01*
X5766905Y-23970905D01*
X5833571Y-24018524D02*
X5843095Y-24009000D01*
X5862143Y-23999476D01*
X5909762Y-23999476D01*
X5928809Y-24009000D01*
X5938333Y-24018524D01*
X5947857Y-24037571D01*
X5947857Y-24056619D01*
X5938333Y-24085190D01*
X5824048Y-24199476D01*
X5947857Y-24199476D01*
X6071667Y-23999476D02*
X6090714Y-23999476D01*
X6109762Y-24009000D01*
X6119286Y-24018524D01*
X6128809Y-24037571D01*
X6138333Y-24075667D01*
X6138333Y-24123286D01*
X6128809Y-24161381D01*
X6119286Y-24180428D01*
X6109762Y-24189952D01*
X6090714Y-24199476D01*
X6071667Y-24199476D01*
X6052619Y-24189952D01*
X6043095Y-24180428D01*
X6033571Y-24161381D01*
X6024048Y-24123286D01*
X6024048Y-24075667D01*
X6033571Y-24037571D01*
X6043095Y-24018524D01*
X6052619Y-24009000D01*
X6071667Y-23999476D01*
X6252619Y-24085190D02*
X6233571Y-24075667D01*
X6224048Y-24066143D01*
X6214524Y-24047095D01*
X6214524Y-24037571D01*
X6224048Y-24018524D01*
X6233571Y-24009000D01*
X6252619Y-23999476D01*
X6290714Y-23999476D01*
X6309762Y-24009000D01*
X6319286Y-24018524D01*
X6328809Y-24037571D01*
X6328809Y-24047095D01*
X6319286Y-24066143D01*
X6309762Y-24075667D01*
X6290714Y-24085190D01*
X6252619Y-24085190D01*
X6233571Y-24094714D01*
X6224048Y-24104238D01*
X6214524Y-24123286D01*
X6214524Y-24161381D01*
X6224048Y-24180428D01*
X6233571Y-24189952D01*
X6252619Y-24199476D01*
X6290714Y-24199476D01*
X6309762Y-24189952D01*
X6319286Y-24180428D01*
X6328809Y-24161381D01*
X6328809Y-24123286D01*
X6319286Y-24104238D01*
X6309762Y-24094714D01*
X6290714Y-24085190D01*
X6566905Y-24199476D02*
X6566905Y-23999476D01*
X6652619Y-24199476D02*
X6652619Y-24094714D01*
X6643095Y-24075667D01*
X6624048Y-24066143D01*
X6595476Y-24066143D01*
X6576428Y-24075667D01*
X6566905Y-24085190D01*
X6776428Y-24199476D02*
X6757381Y-24189952D01*
X6747857Y-24180428D01*
X6738333Y-24161381D01*
X6738333Y-24104238D01*
X6747857Y-24085190D01*
X6757381Y-24075667D01*
X6776428Y-24066143D01*
X6805000Y-24066143D01*
X6824048Y-24075667D01*
X6833571Y-24085190D01*
X6843095Y-24104238D01*
X6843095Y-24161381D01*
X6833571Y-24180428D01*
X6824048Y-24189952D01*
X6805000Y-24199476D01*
X6776428Y-24199476D01*
X6957381Y-24199476D02*
X6938333Y-24189952D01*
X6928809Y-24170905D01*
X6928809Y-23999476D01*
X7109762Y-24189952D02*
X7090714Y-24199476D01*
X7052619Y-24199476D01*
X7033571Y-24189952D01*
X7024048Y-24170905D01*
X7024048Y-24094714D01*
X7033571Y-24075667D01*
X7052619Y-24066143D01*
X7090714Y-24066143D01*
X7109762Y-24075667D01*
X7119286Y-24094714D01*
X7119286Y-24113762D01*
X7024048Y-24132809D01*
X7195476Y-24189952D02*
X7214524Y-24199476D01*
X7252619Y-24199476D01*
X7271667Y-24189952D01*
X7281190Y-24170905D01*
X7281190Y-24161381D01*
X7271667Y-24142333D01*
X7252619Y-24132809D01*
X7224048Y-24132809D01*
X7205000Y-24123286D01*
X7195476Y-24104238D01*
X7195476Y-24094714D01*
X7205000Y-24075667D01*
X7224048Y-24066143D01*
X7252619Y-24066143D01*
X7271667Y-24075667D01*
X7347857Y-24275667D02*
X7357381Y-24266143D01*
X7376428Y-24237571D01*
X7385952Y-24218524D01*
X7395476Y-24189952D01*
X7405000Y-24142333D01*
X7405000Y-24104238D01*
X7395476Y-24056619D01*
X7385952Y-24028048D01*
X7376428Y-24009000D01*
X7357381Y-23980428D01*
X7347857Y-23970905D01*
D10*
X2145000Y-24323000D02*
X2145000Y-24423000D01*
X2095000Y-24373000D02*
X2195000Y-24373000D01*
D11*
X2557381Y-24463476D02*
X2443095Y-24463476D01*
X2500238Y-24463476D02*
X2500238Y-24263476D01*
X2481190Y-24292048D01*
X2462143Y-24311095D01*
X2443095Y-24320619D01*
X2643095Y-24444428D02*
X2652619Y-24453952D01*
X2643095Y-24463476D01*
X2633571Y-24453952D01*
X2643095Y-24444428D01*
X2643095Y-24463476D01*
X2776429Y-24263476D02*
X2795476Y-24263476D01*
X2814524Y-24273000D01*
X2824048Y-24282524D01*
X2833571Y-24301571D01*
X2843095Y-24339667D01*
X2843095Y-24387286D01*
X2833571Y-24425381D01*
X2824048Y-24444428D01*
X2814524Y-24453952D01*
X2795476Y-24463476D01*
X2776429Y-24463476D01*
X2757381Y-24453952D01*
X2747857Y-24444428D01*
X2738333Y-24425381D01*
X2728810Y-24387286D01*
X2728810Y-24339667D01*
X2738333Y-24301571D01*
X2747857Y-24282524D01*
X2757381Y-24273000D01*
X2776429Y-24263476D01*
X2966905Y-24263476D02*
X2985952Y-24263476D01*
X3005000Y-24273000D01*
X3014524Y-24282524D01*
X3024048Y-24301571D01*
X3033571Y-24339667D01*
X3033571Y-24387286D01*
X3024048Y-24425381D01*
X3014524Y-24444428D01*
X3005000Y-24453952D01*
X2985952Y-24463476D01*
X2966905Y-24463476D01*
X2947857Y-24453952D01*
X2938333Y-24444428D01*
X2928809Y-24425381D01*
X2919286Y-24387286D01*
X2919286Y-24339667D01*
X2928809Y-24301571D01*
X2938333Y-24282524D01*
X2947857Y-24273000D01*
X2966905Y-24263476D01*
X3157381Y-24263476D02*
X3176428Y-24263476D01*
X3195476Y-24273000D01*
X3205000Y-24282524D01*
X3214524Y-24301571D01*
X3224048Y-24339667D01*
X3224048Y-24387286D01*
X3214524Y-24425381D01*
X3205000Y-24444428D01*
X3195476Y-24453952D01*
X3176428Y-24463476D01*
X3157381Y-24463476D01*
X3138333Y-24453952D01*
X3128809Y-24444428D01*
X3119286Y-24425381D01*
X3109762Y-24387286D01*
X3109762Y-24339667D01*
X3119286Y-24301571D01*
X3128809Y-24282524D01*
X3138333Y-24273000D01*
X3157381Y-24263476D01*
X3309762Y-24463476D02*
X3309762Y-24330143D01*
X3309762Y-24349190D02*
X3319286Y-24339667D01*
X3338333Y-24330143D01*
X3366905Y-24330143D01*
X3385952Y-24339667D01*
X3395476Y-24358714D01*
X3395476Y-24463476D01*
X3395476Y-24358714D02*
X3405000Y-24339667D01*
X3424048Y-24330143D01*
X3452619Y-24330143D01*
X3471667Y-24339667D01*
X3481190Y-24358714D01*
X3481190Y-24463476D01*
X3576428Y-24463476D02*
X3576428Y-24330143D01*
X3576428Y-24349190D02*
X3585952Y-24339667D01*
X3605000Y-24330143D01*
X3633571Y-24330143D01*
X3652619Y-24339667D01*
X3662143Y-24358714D01*
X3662143Y-24463476D01*
X3662143Y-24358714D02*
X3671667Y-24339667D01*
X3690714Y-24330143D01*
X3719286Y-24330143D01*
X3738333Y-24339667D01*
X3747857Y-24358714D01*
X3747857Y-24463476D01*
X4138333Y-24253952D02*
X3966905Y-24511095D01*
X4395476Y-24263476D02*
X4414524Y-24263476D01*
X4433571Y-24273000D01*
X4443095Y-24282524D01*
X4452619Y-24301571D01*
X4462143Y-24339667D01*
X4462143Y-24387286D01*
X4452619Y-24425381D01*
X4443095Y-24444428D01*
X4433571Y-24453952D01*
X4414524Y-24463476D01*
X4395476Y-24463476D01*
X4376429Y-24453952D01*
X4366905Y-24444428D01*
X4357381Y-24425381D01*
X4347857Y-24387286D01*
X4347857Y-24339667D01*
X4357381Y-24301571D01*
X4366905Y-24282524D01*
X4376429Y-24273000D01*
X4395476Y-24263476D01*
X4547857Y-24444428D02*
X4557381Y-24453952D01*
X4547857Y-24463476D01*
X4538333Y-24453952D01*
X4547857Y-24444428D01*
X4547857Y-24463476D01*
X4681190Y-24263476D02*
X4700238Y-24263476D01*
X4719286Y-24273000D01*
X4728810Y-24282524D01*
X4738333Y-24301571D01*
X4747857Y-24339667D01*
X4747857Y-24387286D01*
X4738333Y-24425381D01*
X4728810Y-24444428D01*
X4719286Y-24453952D01*
X4700238Y-24463476D01*
X4681190Y-24463476D01*
X4662143Y-24453952D01*
X4652619Y-24444428D01*
X4643095Y-24425381D01*
X4633571Y-24387286D01*
X4633571Y-24339667D01*
X4643095Y-24301571D01*
X4652619Y-24282524D01*
X4662143Y-24273000D01*
X4681190Y-24263476D01*
X4814524Y-24263476D02*
X4938333Y-24263476D01*
X4871667Y-24339667D01*
X4900238Y-24339667D01*
X4919286Y-24349190D01*
X4928810Y-24358714D01*
X4938333Y-24377762D01*
X4938333Y-24425381D01*
X4928810Y-24444428D01*
X4919286Y-24453952D01*
X4900238Y-24463476D01*
X4843095Y-24463476D01*
X4824048Y-24453952D01*
X4814524Y-24444428D01*
X5033571Y-24463476D02*
X5071667Y-24463476D01*
X5090714Y-24453952D01*
X5100238Y-24444428D01*
X5119286Y-24415857D01*
X5128810Y-24377762D01*
X5128810Y-24301571D01*
X5119286Y-24282524D01*
X5109762Y-24273000D01*
X5090714Y-24263476D01*
X5052619Y-24263476D01*
X5033571Y-24273000D01*
X5024048Y-24282524D01*
X5014524Y-24301571D01*
X5014524Y-24349190D01*
X5024048Y-24368238D01*
X5033571Y-24377762D01*
X5052619Y-24387286D01*
X5090714Y-24387286D01*
X5109762Y-24377762D01*
X5119286Y-24368238D01*
X5128810Y-24349190D01*
X5300238Y-24330143D02*
X5300238Y-24463476D01*
X5252619Y-24253952D02*
X5205000Y-24396809D01*
X5328810Y-24396809D01*
X5395476Y-24263476D02*
X5395476Y-24301571D01*
X5471667Y-24263476D02*
X5471667Y-24301571D01*
X5766905Y-24539667D02*
X5757381Y-24530143D01*
X5738333Y-24501571D01*
X5728809Y-24482524D01*
X5719286Y-24453952D01*
X5709762Y-24406333D01*
X5709762Y-24368238D01*
X5719286Y-24320619D01*
X5728809Y-24292048D01*
X5738333Y-24273000D01*
X5757381Y-24244428D01*
X5766905Y-24234905D01*
X5833571Y-24282524D02*
X5843095Y-24273000D01*
X5862143Y-24263476D01*
X5909762Y-24263476D01*
X5928809Y-24273000D01*
X5938333Y-24282524D01*
X5947857Y-24301571D01*
X5947857Y-24320619D01*
X5938333Y-24349190D01*
X5824048Y-24463476D01*
X5947857Y-24463476D01*
X6071667Y-24263476D02*
X6090714Y-24263476D01*
X6109762Y-24273000D01*
X6119286Y-24282524D01*
X6128809Y-24301571D01*
X6138333Y-24339667D01*
X6138333Y-24387286D01*
X6128809Y-24425381D01*
X6119286Y-24444428D01*
X6109762Y-24453952D01*
X6090714Y-24463476D01*
X6071667Y-24463476D01*
X6052619Y-24453952D01*
X6043095Y-24444428D01*
X6033571Y-24425381D01*
X6024048Y-24387286D01*
X6024048Y-24339667D01*
X6033571Y-24301571D01*
X6043095Y-24282524D01*
X6052619Y-24273000D01*
X6071667Y-24263476D01*
X6376428Y-24463476D02*
X6376428Y-24263476D01*
X6462143Y-24463476D02*
X6462143Y-24358714D01*
X6452619Y-24339667D01*
X6433571Y-24330143D01*
X6405000Y-24330143D01*
X6385952Y-24339667D01*
X6376428Y-24349190D01*
X6585952Y-24463476D02*
X6566905Y-24453952D01*
X6557381Y-24444428D01*
X6547857Y-24425381D01*
X6547857Y-24368238D01*
X6557381Y-24349190D01*
X6566905Y-24339667D01*
X6585952Y-24330143D01*
X6614524Y-24330143D01*
X6633571Y-24339667D01*
X6643095Y-24349190D01*
X6652619Y-24368238D01*
X6652619Y-24425381D01*
X6643095Y-24444428D01*
X6633571Y-24453952D01*
X6614524Y-24463476D01*
X6585952Y-24463476D01*
X6766905Y-24463476D02*
X6747857Y-24453952D01*
X6738333Y-24434905D01*
X6738333Y-24263476D01*
X6919286Y-24453952D02*
X6900238Y-24463476D01*
X6862143Y-24463476D01*
X6843095Y-24453952D01*
X6833571Y-24434905D01*
X6833571Y-24358714D01*
X6843095Y-24339667D01*
X6862143Y-24330143D01*
X6900238Y-24330143D01*
X6919286Y-24339667D01*
X6928809Y-24358714D01*
X6928809Y-24377762D01*
X6833571Y-24396809D01*
X7005000Y-24453952D02*
X7024048Y-24463476D01*
X7062143Y-24463476D01*
X7081190Y-24453952D01*
X7090714Y-24434905D01*
X7090714Y-24425381D01*
X7081190Y-24406333D01*
X7062143Y-24396809D01*
X7033571Y-24396809D01*
X7014524Y-24387286D01*
X7005000Y-24368238D01*
X7005000Y-24358714D01*
X7014524Y-24339667D01*
X7033571Y-24330143D01*
X7062143Y-24330143D01*
X7081190Y-24339667D01*
X7157381Y-24539667D02*
X7166905Y-24530143D01*
X7185952Y-24501571D01*
X7195476Y-24482524D01*
X7205000Y-24453952D01*
X7214524Y-24406333D01*
X7214524Y-24368238D01*
X7205000Y-24320619D01*
X7195476Y-24292048D01*
X7185952Y-24273000D01*
X7166905Y-24244428D01*
X7157381Y-24234905D01*
D14*
X2177427Y-24679427D02*
X2177427Y-24594573D01*
X2092573Y-24594573D01*
X2092573Y-24679427D01*
X2177427Y-24679427D01*
D11*
X2557381Y-24727476D02*
X2443095Y-24727476D01*
X2500238Y-24727476D02*
X2500238Y-24527476D01*
X2481190Y-24556048D01*
X2462143Y-24575095D01*
X2443095Y-24584619D01*
X2643095Y-24708428D02*
X2652619Y-24717952D01*
X2643095Y-24727476D01*
X2633571Y-24717952D01*
X2643095Y-24708428D01*
X2643095Y-24727476D01*
X2728810Y-24546524D02*
X2738333Y-24537000D01*
X2757381Y-24527476D01*
X2805000Y-24527476D01*
X2824048Y-24537000D01*
X2833571Y-24546524D01*
X2843095Y-24565571D01*
X2843095Y-24584619D01*
X2833571Y-24613190D01*
X2719286Y-24727476D01*
X2843095Y-24727476D01*
X2966905Y-24527476D02*
X2985952Y-24527476D01*
X3005000Y-24537000D01*
X3014524Y-24546524D01*
X3024048Y-24565571D01*
X3033571Y-24603667D01*
X3033571Y-24651286D01*
X3024048Y-24689381D01*
X3014524Y-24708428D01*
X3005000Y-24717952D01*
X2985952Y-24727476D01*
X2966905Y-24727476D01*
X2947857Y-24717952D01*
X2938333Y-24708428D01*
X2928809Y-24689381D01*
X2919286Y-24651286D01*
X2919286Y-24603667D01*
X2928809Y-24565571D01*
X2938333Y-24546524D01*
X2947857Y-24537000D01*
X2966905Y-24527476D01*
X3157381Y-24527476D02*
X3176428Y-24527476D01*
X3195476Y-24537000D01*
X3205000Y-24546524D01*
X3214524Y-24565571D01*
X3224048Y-24603667D01*
X3224048Y-24651286D01*
X3214524Y-24689381D01*
X3205000Y-24708428D01*
X3195476Y-24717952D01*
X3176428Y-24727476D01*
X3157381Y-24727476D01*
X3138333Y-24717952D01*
X3128809Y-24708428D01*
X3119286Y-24689381D01*
X3109762Y-24651286D01*
X3109762Y-24603667D01*
X3119286Y-24565571D01*
X3128809Y-24546524D01*
X3138333Y-24537000D01*
X3157381Y-24527476D01*
X3309762Y-24727476D02*
X3309762Y-24594143D01*
X3309762Y-24613190D02*
X3319286Y-24603667D01*
X3338333Y-24594143D01*
X3366905Y-24594143D01*
X3385952Y-24603667D01*
X3395476Y-24622714D01*
X3395476Y-24727476D01*
X3395476Y-24622714D02*
X3405000Y-24603667D01*
X3424048Y-24594143D01*
X3452619Y-24594143D01*
X3471667Y-24603667D01*
X3481190Y-24622714D01*
X3481190Y-24727476D01*
X3576428Y-24727476D02*
X3576428Y-24594143D01*
X3576428Y-24613190D02*
X3585952Y-24603667D01*
X3605000Y-24594143D01*
X3633571Y-24594143D01*
X3652619Y-24603667D01*
X3662143Y-24622714D01*
X3662143Y-24727476D01*
X3662143Y-24622714D02*
X3671667Y-24603667D01*
X3690714Y-24594143D01*
X3719286Y-24594143D01*
X3738333Y-24603667D01*
X3747857Y-24622714D01*
X3747857Y-24727476D01*
X4138333Y-24517952D02*
X3966905Y-24775095D01*
X4395476Y-24527476D02*
X4414524Y-24527476D01*
X4433571Y-24537000D01*
X4443095Y-24546524D01*
X4452619Y-24565571D01*
X4462143Y-24603667D01*
X4462143Y-24651286D01*
X4452619Y-24689381D01*
X4443095Y-24708428D01*
X4433571Y-24717952D01*
X4414524Y-24727476D01*
X4395476Y-24727476D01*
X4376429Y-24717952D01*
X4366905Y-24708428D01*
X4357381Y-24689381D01*
X4347857Y-24651286D01*
X4347857Y-24603667D01*
X4357381Y-24565571D01*
X4366905Y-24546524D01*
X4376429Y-24537000D01*
X4395476Y-24527476D01*
X4547857Y-24708428D02*
X4557381Y-24717952D01*
X4547857Y-24727476D01*
X4538333Y-24717952D01*
X4547857Y-24708428D01*
X4547857Y-24727476D01*
X4681190Y-24527476D02*
X4700238Y-24527476D01*
X4719286Y-24537000D01*
X4728810Y-24546524D01*
X4738333Y-24565571D01*
X4747857Y-24603667D01*
X4747857Y-24651286D01*
X4738333Y-24689381D01*
X4728810Y-24708428D01*
X4719286Y-24717952D01*
X4700238Y-24727476D01*
X4681190Y-24727476D01*
X4662143Y-24717952D01*
X4652619Y-24708428D01*
X4643095Y-24689381D01*
X4633571Y-24651286D01*
X4633571Y-24603667D01*
X4643095Y-24565571D01*
X4652619Y-24546524D01*
X4662143Y-24537000D01*
X4681190Y-24527476D01*
X4919286Y-24594143D02*
X4919286Y-24727476D01*
X4871667Y-24517952D02*
X4824048Y-24660809D01*
X4947857Y-24660809D01*
X5005000Y-24527476D02*
X5138333Y-24527476D01*
X5052619Y-24727476D01*
X5205000Y-24546524D02*
X5214524Y-24537000D01*
X5233571Y-24527476D01*
X5281190Y-24527476D01*
X5300238Y-24537000D01*
X5309762Y-24546524D01*
X5319286Y-24565571D01*
X5319286Y-24584619D01*
X5309762Y-24613190D01*
X5195476Y-24727476D01*
X5319286Y-24727476D01*
X5395476Y-24527476D02*
X5395476Y-24565571D01*
X5471667Y-24527476D02*
X5471667Y-24565571D01*
X5766905Y-24803667D02*
X5757381Y-24794143D01*
X5738333Y-24765571D01*
X5728809Y-24746524D01*
X5719286Y-24717952D01*
X5709762Y-24670333D01*
X5709762Y-24632238D01*
X5719286Y-24584619D01*
X5728809Y-24556048D01*
X5738333Y-24537000D01*
X5757381Y-24508428D01*
X5766905Y-24498905D01*
X5947857Y-24727476D02*
X5833571Y-24727476D01*
X5890714Y-24727476D02*
X5890714Y-24527476D01*
X5871667Y-24556048D01*
X5852619Y-24575095D01*
X5833571Y-24584619D01*
X6062143Y-24613190D02*
X6043095Y-24603667D01*
X6033571Y-24594143D01*
X6024048Y-24575095D01*
X6024048Y-24565571D01*
X6033571Y-24546524D01*
X6043095Y-24537000D01*
X6062143Y-24527476D01*
X6100238Y-24527476D01*
X6119286Y-24537000D01*
X6128809Y-24546524D01*
X6138333Y-24565571D01*
X6138333Y-24575095D01*
X6128809Y-24594143D01*
X6119286Y-24603667D01*
X6100238Y-24613190D01*
X6062143Y-24613190D01*
X6043095Y-24622714D01*
X6033571Y-24632238D01*
X6024048Y-24651286D01*
X6024048Y-24689381D01*
X6033571Y-24708428D01*
X6043095Y-24717952D01*
X6062143Y-24727476D01*
X6100238Y-24727476D01*
X6119286Y-24717952D01*
X6128809Y-24708428D01*
X6138333Y-24689381D01*
X6138333Y-24651286D01*
X6128809Y-24632238D01*
X6119286Y-24622714D01*
X6100238Y-24613190D01*
X6309762Y-24594143D02*
X6309762Y-24727476D01*
X6262143Y-24517952D02*
X6214524Y-24660809D01*
X6338333Y-24660809D01*
X6566905Y-24727476D02*
X6566905Y-24527476D01*
X6652619Y-24727476D02*
X6652619Y-24622714D01*
X6643095Y-24603667D01*
X6624048Y-24594143D01*
X6595476Y-24594143D01*
X6576428Y-24603667D01*
X6566905Y-24613190D01*
X6776428Y-24727476D02*
X6757381Y-24717952D01*
X6747857Y-24708428D01*
X6738333Y-24689381D01*
X6738333Y-24632238D01*
X6747857Y-24613190D01*
X6757381Y-24603667D01*
X6776428Y-24594143D01*
X6805000Y-24594143D01*
X6824048Y-24603667D01*
X6833571Y-24613190D01*
X6843095Y-24632238D01*
X6843095Y-24689381D01*
X6833571Y-24708428D01*
X6824048Y-24717952D01*
X6805000Y-24727476D01*
X6776428Y-24727476D01*
X6957381Y-24727476D02*
X6938333Y-24717952D01*
X6928809Y-24698905D01*
X6928809Y-24527476D01*
X7109762Y-24717952D02*
X7090714Y-24727476D01*
X7052619Y-24727476D01*
X7033571Y-24717952D01*
X7024048Y-24698905D01*
X7024048Y-24622714D01*
X7033571Y-24603667D01*
X7052619Y-24594143D01*
X7090714Y-24594143D01*
X7109762Y-24603667D01*
X7119286Y-24622714D01*
X7119286Y-24641762D01*
X7024048Y-24660809D01*
X7195476Y-24717952D02*
X7214524Y-24727476D01*
X7252619Y-24727476D01*
X7271667Y-24717952D01*
X7281190Y-24698905D01*
X7281190Y-24689381D01*
X7271667Y-24670333D01*
X7252619Y-24660809D01*
X7224048Y-24660809D01*
X7205000Y-24651286D01*
X7195476Y-24632238D01*
X7195476Y-24622714D01*
X7205000Y-24603667D01*
X7224048Y-24594143D01*
X7252619Y-24594143D01*
X7271667Y-24603667D01*
X7347857Y-24803667D02*
X7357381Y-24794143D01*
X7376428Y-24765571D01*
X7385952Y-24746524D01*
X7395476Y-24717952D01*
X7405000Y-24670333D01*
X7405000Y-24632238D01*
X7395476Y-24584619D01*
X7385952Y-24556048D01*
X7376428Y-24537000D01*
X7357381Y-24508428D01*
X7347857Y-24498905D01*
M02*
