%TF.GenerationSoftware,KiCad,Pcbnew,6.0.11+dfsg-1*%
%TF.CreationDate,2025-05-09T07:28:32+02:00*%
%TF.ProjectId,AkkordeonDiskant,416b6b6f-7264-4656-9f6e-4469736b616e,rev?*%
%TF.SameCoordinates,Original*%
%TF.FileFunction,Drillmap*%
%TF.FilePolarity,Positive*%
%FSLAX45Y45*%
G04 Gerber Fmt 4.5, Leading zero omitted, Abs format (unit mm)*
G04 Created by KiCad (PCBNEW 6.0.11+dfsg-1) date 2025-05-09 07:28:32*
%MOMM*%
%LPD*%
G01*
G04 APERTURE LIST*
%ADD10C,0.100000*%
%ADD11C,0.200000*%
%ADD12C,0.320000*%
%ADD13C,0.390000*%
G04 APERTURE END LIST*
D10*
X2200000Y-12000000D02*
X40000000Y-12000000D01*
X40000000Y-12000000D02*
X40000000Y-23200000D01*
X40000000Y-23200000D02*
X2200000Y-23200000D01*
X2200000Y-23200000D02*
X2200000Y-12000000D01*
D11*
D12*
X2840000Y-12140000D02*
X3160000Y-12460000D01*
X3160000Y-12140000D02*
X2840000Y-12460000D01*
X2840000Y-22740000D02*
X3160000Y-23060000D01*
X3160000Y-22740000D02*
X2840000Y-23060000D01*
X10840000Y-12140000D02*
X11160000Y-12460000D01*
X11160000Y-12140000D02*
X10840000Y-12460000D01*
X10840000Y-22740000D02*
X11160000Y-23060000D01*
X11160000Y-22740000D02*
X10840000Y-23060000D01*
X20840000Y-12140000D02*
X21160000Y-12460000D01*
X21160000Y-12140000D02*
X20840000Y-12460000D01*
X20840000Y-22740000D02*
X21160000Y-23060000D01*
X21160000Y-22740000D02*
X20840000Y-23060000D01*
X28840000Y-12140000D02*
X29160000Y-12460000D01*
X29160000Y-12140000D02*
X28840000Y-12460000D01*
X30840000Y-22740000D02*
X31160000Y-23060000D01*
X31160000Y-22740000D02*
X30840000Y-23060000D01*
X38840000Y-12140000D02*
X39160000Y-12460000D01*
X39160000Y-12140000D02*
X38840000Y-12460000D01*
X38840000Y-22740000D02*
X39160000Y-23060000D01*
X39160000Y-22740000D02*
X38840000Y-23060000D01*
D13*
X3195000Y-16750000D02*
G75*
G03*
X3195000Y-16750000I-195000J0D01*
G01*
X3195000Y-20250000D02*
G75*
G03*
X3195000Y-20250000I-195000J0D01*
G01*
X4195000Y-15000000D02*
G75*
G03*
X4195000Y-15000000I-195000J0D01*
G01*
X4195000Y-18500000D02*
G75*
G03*
X4195000Y-18500000I-195000J0D01*
G01*
X4195000Y-22000000D02*
G75*
G03*
X4195000Y-22000000I-195000J0D01*
G01*
X5195000Y-16750000D02*
G75*
G03*
X5195000Y-16750000I-195000J0D01*
G01*
X5195000Y-20250000D02*
G75*
G03*
X5195000Y-20250000I-195000J0D01*
G01*
X6195000Y-15000000D02*
G75*
G03*
X6195000Y-15000000I-195000J0D01*
G01*
X6195000Y-18500000D02*
G75*
G03*
X6195000Y-18500000I-195000J0D01*
G01*
X6195000Y-22000000D02*
G75*
G03*
X6195000Y-22000000I-195000J0D01*
G01*
X7195000Y-16750000D02*
G75*
G03*
X7195000Y-16750000I-195000J0D01*
G01*
X7195000Y-20250000D02*
G75*
G03*
X7195000Y-20250000I-195000J0D01*
G01*
X8195000Y-15000000D02*
G75*
G03*
X8195000Y-15000000I-195000J0D01*
G01*
X8195000Y-18500000D02*
G75*
G03*
X8195000Y-18500000I-195000J0D01*
G01*
X8195000Y-22000000D02*
G75*
G03*
X8195000Y-22000000I-195000J0D01*
G01*
X9195000Y-16750000D02*
G75*
G03*
X9195000Y-16750000I-195000J0D01*
G01*
X9195000Y-20250000D02*
G75*
G03*
X9195000Y-20250000I-195000J0D01*
G01*
X10195000Y-15000000D02*
G75*
G03*
X10195000Y-15000000I-195000J0D01*
G01*
X10195000Y-18500000D02*
G75*
G03*
X10195000Y-18500000I-195000J0D01*
G01*
X10195000Y-22000000D02*
G75*
G03*
X10195000Y-22000000I-195000J0D01*
G01*
X11195000Y-16750000D02*
G75*
G03*
X11195000Y-16750000I-195000J0D01*
G01*
X11195000Y-20250000D02*
G75*
G03*
X11195000Y-20250000I-195000J0D01*
G01*
X12195000Y-15000000D02*
G75*
G03*
X12195000Y-15000000I-195000J0D01*
G01*
X12195000Y-18500000D02*
G75*
G03*
X12195000Y-18500000I-195000J0D01*
G01*
X12195000Y-22000000D02*
G75*
G03*
X12195000Y-22000000I-195000J0D01*
G01*
X13195000Y-16750000D02*
G75*
G03*
X13195000Y-16750000I-195000J0D01*
G01*
X13195000Y-20250000D02*
G75*
G03*
X13195000Y-20250000I-195000J0D01*
G01*
X14195000Y-15000000D02*
G75*
G03*
X14195000Y-15000000I-195000J0D01*
G01*
X14195000Y-18500000D02*
G75*
G03*
X14195000Y-18500000I-195000J0D01*
G01*
X14195000Y-22000000D02*
G75*
G03*
X14195000Y-22000000I-195000J0D01*
G01*
X15195000Y-16750000D02*
G75*
G03*
X15195000Y-16750000I-195000J0D01*
G01*
X15195000Y-20250000D02*
G75*
G03*
X15195000Y-20250000I-195000J0D01*
G01*
X16195000Y-15000000D02*
G75*
G03*
X16195000Y-15000000I-195000J0D01*
G01*
X16195000Y-18500000D02*
G75*
G03*
X16195000Y-18500000I-195000J0D01*
G01*
X16195000Y-22000000D02*
G75*
G03*
X16195000Y-22000000I-195000J0D01*
G01*
X17195000Y-16750000D02*
G75*
G03*
X17195000Y-16750000I-195000J0D01*
G01*
X17195000Y-20250000D02*
G75*
G03*
X17195000Y-20250000I-195000J0D01*
G01*
X18195000Y-15000000D02*
G75*
G03*
X18195000Y-15000000I-195000J0D01*
G01*
X18195000Y-18500000D02*
G75*
G03*
X18195000Y-18500000I-195000J0D01*
G01*
X18195000Y-22000000D02*
G75*
G03*
X18195000Y-22000000I-195000J0D01*
G01*
X19195000Y-16750000D02*
G75*
G03*
X19195000Y-16750000I-195000J0D01*
G01*
X19195000Y-20250000D02*
G75*
G03*
X19195000Y-20250000I-195000J0D01*
G01*
X20195000Y-15000000D02*
G75*
G03*
X20195000Y-15000000I-195000J0D01*
G01*
X20195000Y-18500000D02*
G75*
G03*
X20195000Y-18500000I-195000J0D01*
G01*
X20195000Y-22000000D02*
G75*
G03*
X20195000Y-22000000I-195000J0D01*
G01*
X21195000Y-16750000D02*
G75*
G03*
X21195000Y-16750000I-195000J0D01*
G01*
X21195000Y-20250000D02*
G75*
G03*
X21195000Y-20250000I-195000J0D01*
G01*
X22195000Y-15000000D02*
G75*
G03*
X22195000Y-15000000I-195000J0D01*
G01*
X22195000Y-18500000D02*
G75*
G03*
X22195000Y-18500000I-195000J0D01*
G01*
X22195000Y-22000000D02*
G75*
G03*
X22195000Y-22000000I-195000J0D01*
G01*
X23195000Y-16750000D02*
G75*
G03*
X23195000Y-16750000I-195000J0D01*
G01*
X23195000Y-20250000D02*
G75*
G03*
X23195000Y-20250000I-195000J0D01*
G01*
X24195000Y-15000000D02*
G75*
G03*
X24195000Y-15000000I-195000J0D01*
G01*
X24195000Y-18500000D02*
G75*
G03*
X24195000Y-18500000I-195000J0D01*
G01*
X24195000Y-22000000D02*
G75*
G03*
X24195000Y-22000000I-195000J0D01*
G01*
X25195000Y-16750000D02*
G75*
G03*
X25195000Y-16750000I-195000J0D01*
G01*
X25195000Y-20250000D02*
G75*
G03*
X25195000Y-20250000I-195000J0D01*
G01*
X26195000Y-15000000D02*
G75*
G03*
X26195000Y-15000000I-195000J0D01*
G01*
X26195000Y-18500000D02*
G75*
G03*
X26195000Y-18500000I-195000J0D01*
G01*
X26195000Y-22000000D02*
G75*
G03*
X26195000Y-22000000I-195000J0D01*
G01*
X27195000Y-16750000D02*
G75*
G03*
X27195000Y-16750000I-195000J0D01*
G01*
X27195000Y-20250000D02*
G75*
G03*
X27195000Y-20250000I-195000J0D01*
G01*
X28195000Y-15000000D02*
G75*
G03*
X28195000Y-15000000I-195000J0D01*
G01*
X28195000Y-18500000D02*
G75*
G03*
X28195000Y-18500000I-195000J0D01*
G01*
X28195000Y-22000000D02*
G75*
G03*
X28195000Y-22000000I-195000J0D01*
G01*
X29195000Y-16750000D02*
G75*
G03*
X29195000Y-16750000I-195000J0D01*
G01*
X29195000Y-20250000D02*
G75*
G03*
X29195000Y-20250000I-195000J0D01*
G01*
X30195000Y-15000000D02*
G75*
G03*
X30195000Y-15000000I-195000J0D01*
G01*
X30195000Y-18500000D02*
G75*
G03*
X30195000Y-18500000I-195000J0D01*
G01*
X30195000Y-22000000D02*
G75*
G03*
X30195000Y-22000000I-195000J0D01*
G01*
X31195000Y-16750000D02*
G75*
G03*
X31195000Y-16750000I-195000J0D01*
G01*
X31195000Y-20250000D02*
G75*
G03*
X31195000Y-20250000I-195000J0D01*
G01*
X32195000Y-15000000D02*
G75*
G03*
X32195000Y-15000000I-195000J0D01*
G01*
X32195000Y-18500000D02*
G75*
G03*
X32195000Y-18500000I-195000J0D01*
G01*
X32195000Y-22000000D02*
G75*
G03*
X32195000Y-22000000I-195000J0D01*
G01*
X33195000Y-16750000D02*
G75*
G03*
X33195000Y-16750000I-195000J0D01*
G01*
X33195000Y-20250000D02*
G75*
G03*
X33195000Y-20250000I-195000J0D01*
G01*
X34195000Y-15000000D02*
G75*
G03*
X34195000Y-15000000I-195000J0D01*
G01*
X34195000Y-18500000D02*
G75*
G03*
X34195000Y-18500000I-195000J0D01*
G01*
X34195000Y-22000000D02*
G75*
G03*
X34195000Y-22000000I-195000J0D01*
G01*
X35195000Y-16750000D02*
G75*
G03*
X35195000Y-16750000I-195000J0D01*
G01*
X35195000Y-20250000D02*
G75*
G03*
X35195000Y-20250000I-195000J0D01*
G01*
X36195000Y-15000000D02*
G75*
G03*
X36195000Y-15000000I-195000J0D01*
G01*
X36195000Y-18500000D02*
G75*
G03*
X36195000Y-18500000I-195000J0D01*
G01*
X36195000Y-22000000D02*
G75*
G03*
X36195000Y-22000000I-195000J0D01*
G01*
X37195000Y-16750000D02*
G75*
G03*
X37195000Y-16750000I-195000J0D01*
G01*
X37195000Y-20250000D02*
G75*
G03*
X37195000Y-20250000I-195000J0D01*
G01*
X38195000Y-15000000D02*
G75*
G03*
X38195000Y-15000000I-195000J0D01*
G01*
X38195000Y-18500000D02*
G75*
G03*
X38195000Y-18500000I-195000J0D01*
G01*
X38195000Y-22000000D02*
G75*
G03*
X38195000Y-22000000I-195000J0D01*
G01*
X39195000Y-16750000D02*
G75*
G03*
X39195000Y-16750000I-195000J0D01*
G01*
X39195000Y-20250000D02*
G75*
G03*
X39195000Y-20250000I-195000J0D01*
G01*
D11*
X2452619Y-23515476D02*
X2452619Y-23315476D01*
X2500238Y-23315476D01*
X2528810Y-23325000D01*
X2547857Y-23344048D01*
X2557381Y-23363095D01*
X2566905Y-23401190D01*
X2566905Y-23429762D01*
X2557381Y-23467857D01*
X2547857Y-23486905D01*
X2528810Y-23505952D01*
X2500238Y-23515476D01*
X2452619Y-23515476D01*
X2652619Y-23515476D02*
X2652619Y-23382143D01*
X2652619Y-23420238D02*
X2662143Y-23401190D01*
X2671667Y-23391667D01*
X2690714Y-23382143D01*
X2709762Y-23382143D01*
X2776429Y-23515476D02*
X2776429Y-23382143D01*
X2776429Y-23315476D02*
X2766905Y-23325000D01*
X2776429Y-23334524D01*
X2785952Y-23325000D01*
X2776429Y-23315476D01*
X2776429Y-23334524D01*
X2900238Y-23515476D02*
X2881190Y-23505952D01*
X2871667Y-23486905D01*
X2871667Y-23315476D01*
X3005000Y-23515476D02*
X2985952Y-23505952D01*
X2976428Y-23486905D01*
X2976428Y-23315476D01*
X3233571Y-23515476D02*
X3233571Y-23315476D01*
X3300238Y-23458333D01*
X3366905Y-23315476D01*
X3366905Y-23515476D01*
X3547857Y-23515476D02*
X3547857Y-23410714D01*
X3538333Y-23391667D01*
X3519286Y-23382143D01*
X3481190Y-23382143D01*
X3462143Y-23391667D01*
X3547857Y-23505952D02*
X3528809Y-23515476D01*
X3481190Y-23515476D01*
X3462143Y-23505952D01*
X3452619Y-23486905D01*
X3452619Y-23467857D01*
X3462143Y-23448809D01*
X3481190Y-23439286D01*
X3528809Y-23439286D01*
X3547857Y-23429762D01*
X3643095Y-23382143D02*
X3643095Y-23582143D01*
X3643095Y-23391667D02*
X3662143Y-23382143D01*
X3700238Y-23382143D01*
X3719286Y-23391667D01*
X3728809Y-23401190D01*
X3738333Y-23420238D01*
X3738333Y-23477381D01*
X3728809Y-23496428D01*
X3719286Y-23505952D01*
X3700238Y-23515476D01*
X3662143Y-23515476D01*
X3643095Y-23505952D01*
X3824048Y-23496428D02*
X3833571Y-23505952D01*
X3824048Y-23515476D01*
X3814524Y-23505952D01*
X3824048Y-23496428D01*
X3824048Y-23515476D01*
X3824048Y-23391667D02*
X3833571Y-23401190D01*
X3824048Y-23410714D01*
X3814524Y-23401190D01*
X3824048Y-23391667D01*
X3824048Y-23410714D01*
X1995000Y-23745000D02*
X2195000Y-23945000D01*
X2195000Y-23745000D02*
X1995000Y-23945000D01*
X2433571Y-23735476D02*
X2557381Y-23735476D01*
X2490714Y-23811667D01*
X2519286Y-23811667D01*
X2538333Y-23821190D01*
X2547857Y-23830714D01*
X2557381Y-23849762D01*
X2557381Y-23897381D01*
X2547857Y-23916428D01*
X2538333Y-23925952D01*
X2519286Y-23935476D01*
X2462143Y-23935476D01*
X2443095Y-23925952D01*
X2433571Y-23916428D01*
X2643095Y-23916428D02*
X2652619Y-23925952D01*
X2643095Y-23935476D01*
X2633571Y-23925952D01*
X2643095Y-23916428D01*
X2643095Y-23935476D01*
X2728810Y-23754524D02*
X2738333Y-23745000D01*
X2757381Y-23735476D01*
X2805000Y-23735476D01*
X2824048Y-23745000D01*
X2833571Y-23754524D01*
X2843095Y-23773571D01*
X2843095Y-23792619D01*
X2833571Y-23821190D01*
X2719286Y-23935476D01*
X2843095Y-23935476D01*
X2966905Y-23735476D02*
X2985952Y-23735476D01*
X3005000Y-23745000D01*
X3014524Y-23754524D01*
X3024048Y-23773571D01*
X3033571Y-23811667D01*
X3033571Y-23859286D01*
X3024048Y-23897381D01*
X3014524Y-23916428D01*
X3005000Y-23925952D01*
X2985952Y-23935476D01*
X2966905Y-23935476D01*
X2947857Y-23925952D01*
X2938333Y-23916428D01*
X2928809Y-23897381D01*
X2919286Y-23859286D01*
X2919286Y-23811667D01*
X2928809Y-23773571D01*
X2938333Y-23754524D01*
X2947857Y-23745000D01*
X2966905Y-23735476D01*
X3157381Y-23735476D02*
X3176428Y-23735476D01*
X3195476Y-23745000D01*
X3205000Y-23754524D01*
X3214524Y-23773571D01*
X3224048Y-23811667D01*
X3224048Y-23859286D01*
X3214524Y-23897381D01*
X3205000Y-23916428D01*
X3195476Y-23925952D01*
X3176428Y-23935476D01*
X3157381Y-23935476D01*
X3138333Y-23925952D01*
X3128809Y-23916428D01*
X3119286Y-23897381D01*
X3109762Y-23859286D01*
X3109762Y-23811667D01*
X3119286Y-23773571D01*
X3128809Y-23754524D01*
X3138333Y-23745000D01*
X3157381Y-23735476D01*
X3309762Y-23935476D02*
X3309762Y-23802143D01*
X3309762Y-23821190D02*
X3319286Y-23811667D01*
X3338333Y-23802143D01*
X3366905Y-23802143D01*
X3385952Y-23811667D01*
X3395476Y-23830714D01*
X3395476Y-23935476D01*
X3395476Y-23830714D02*
X3405000Y-23811667D01*
X3424048Y-23802143D01*
X3452619Y-23802143D01*
X3471667Y-23811667D01*
X3481190Y-23830714D01*
X3481190Y-23935476D01*
X3576428Y-23935476D02*
X3576428Y-23802143D01*
X3576428Y-23821190D02*
X3585952Y-23811667D01*
X3605000Y-23802143D01*
X3633571Y-23802143D01*
X3652619Y-23811667D01*
X3662143Y-23830714D01*
X3662143Y-23935476D01*
X3662143Y-23830714D02*
X3671667Y-23811667D01*
X3690714Y-23802143D01*
X3719286Y-23802143D01*
X3738333Y-23811667D01*
X3747857Y-23830714D01*
X3747857Y-23935476D01*
X4138333Y-23725952D02*
X3966905Y-23983095D01*
X4395476Y-23735476D02*
X4414524Y-23735476D01*
X4433571Y-23745000D01*
X4443095Y-23754524D01*
X4452619Y-23773571D01*
X4462143Y-23811667D01*
X4462143Y-23859286D01*
X4452619Y-23897381D01*
X4443095Y-23916428D01*
X4433571Y-23925952D01*
X4414524Y-23935476D01*
X4395476Y-23935476D01*
X4376429Y-23925952D01*
X4366905Y-23916428D01*
X4357381Y-23897381D01*
X4347857Y-23859286D01*
X4347857Y-23811667D01*
X4357381Y-23773571D01*
X4366905Y-23754524D01*
X4376429Y-23745000D01*
X4395476Y-23735476D01*
X4547857Y-23916428D02*
X4557381Y-23925952D01*
X4547857Y-23935476D01*
X4538333Y-23925952D01*
X4547857Y-23916428D01*
X4547857Y-23935476D01*
X4747857Y-23935476D02*
X4633571Y-23935476D01*
X4690714Y-23935476D02*
X4690714Y-23735476D01*
X4671667Y-23764048D01*
X4652619Y-23783095D01*
X4633571Y-23792619D01*
X4824048Y-23754524D02*
X4833571Y-23745000D01*
X4852619Y-23735476D01*
X4900238Y-23735476D01*
X4919286Y-23745000D01*
X4928810Y-23754524D01*
X4938333Y-23773571D01*
X4938333Y-23792619D01*
X4928810Y-23821190D01*
X4814524Y-23935476D01*
X4938333Y-23935476D01*
X5109762Y-23735476D02*
X5071667Y-23735476D01*
X5052619Y-23745000D01*
X5043095Y-23754524D01*
X5024048Y-23783095D01*
X5014524Y-23821190D01*
X5014524Y-23897381D01*
X5024048Y-23916428D01*
X5033571Y-23925952D01*
X5052619Y-23935476D01*
X5090714Y-23935476D01*
X5109762Y-23925952D01*
X5119286Y-23916428D01*
X5128810Y-23897381D01*
X5128810Y-23849762D01*
X5119286Y-23830714D01*
X5109762Y-23821190D01*
X5090714Y-23811667D01*
X5052619Y-23811667D01*
X5033571Y-23821190D01*
X5024048Y-23830714D01*
X5014524Y-23849762D01*
X5252619Y-23735476D02*
X5271667Y-23735476D01*
X5290714Y-23745000D01*
X5300238Y-23754524D01*
X5309762Y-23773571D01*
X5319286Y-23811667D01*
X5319286Y-23859286D01*
X5309762Y-23897381D01*
X5300238Y-23916428D01*
X5290714Y-23925952D01*
X5271667Y-23935476D01*
X5252619Y-23935476D01*
X5233571Y-23925952D01*
X5224048Y-23916428D01*
X5214524Y-23897381D01*
X5205000Y-23859286D01*
X5205000Y-23811667D01*
X5214524Y-23773571D01*
X5224048Y-23754524D01*
X5233571Y-23745000D01*
X5252619Y-23735476D01*
X5395476Y-23735476D02*
X5395476Y-23773571D01*
X5471667Y-23735476D02*
X5471667Y-23773571D01*
X5766905Y-24011667D02*
X5757381Y-24002143D01*
X5738333Y-23973571D01*
X5728809Y-23954524D01*
X5719286Y-23925952D01*
X5709762Y-23878333D01*
X5709762Y-23840238D01*
X5719286Y-23792619D01*
X5728809Y-23764048D01*
X5738333Y-23745000D01*
X5757381Y-23716428D01*
X5766905Y-23706905D01*
X5947857Y-23935476D02*
X5833571Y-23935476D01*
X5890714Y-23935476D02*
X5890714Y-23735476D01*
X5871667Y-23764048D01*
X5852619Y-23783095D01*
X5833571Y-23792619D01*
X6071667Y-23735476D02*
X6090714Y-23735476D01*
X6109762Y-23745000D01*
X6119286Y-23754524D01*
X6128809Y-23773571D01*
X6138333Y-23811667D01*
X6138333Y-23859286D01*
X6128809Y-23897381D01*
X6119286Y-23916428D01*
X6109762Y-23925952D01*
X6090714Y-23935476D01*
X6071667Y-23935476D01*
X6052619Y-23925952D01*
X6043095Y-23916428D01*
X6033571Y-23897381D01*
X6024048Y-23859286D01*
X6024048Y-23811667D01*
X6033571Y-23773571D01*
X6043095Y-23754524D01*
X6052619Y-23745000D01*
X6071667Y-23735476D01*
X6376428Y-23935476D02*
X6376428Y-23735476D01*
X6462143Y-23935476D02*
X6462143Y-23830714D01*
X6452619Y-23811667D01*
X6433571Y-23802143D01*
X6405000Y-23802143D01*
X6385952Y-23811667D01*
X6376428Y-23821190D01*
X6585952Y-23935476D02*
X6566905Y-23925952D01*
X6557381Y-23916428D01*
X6547857Y-23897381D01*
X6547857Y-23840238D01*
X6557381Y-23821190D01*
X6566905Y-23811667D01*
X6585952Y-23802143D01*
X6614524Y-23802143D01*
X6633571Y-23811667D01*
X6643095Y-23821190D01*
X6652619Y-23840238D01*
X6652619Y-23897381D01*
X6643095Y-23916428D01*
X6633571Y-23925952D01*
X6614524Y-23935476D01*
X6585952Y-23935476D01*
X6766905Y-23935476D02*
X6747857Y-23925952D01*
X6738333Y-23906905D01*
X6738333Y-23735476D01*
X6919286Y-23925952D02*
X6900238Y-23935476D01*
X6862143Y-23935476D01*
X6843095Y-23925952D01*
X6833571Y-23906905D01*
X6833571Y-23830714D01*
X6843095Y-23811667D01*
X6862143Y-23802143D01*
X6900238Y-23802143D01*
X6919286Y-23811667D01*
X6928809Y-23830714D01*
X6928809Y-23849762D01*
X6833571Y-23868809D01*
X7005000Y-23925952D02*
X7024048Y-23935476D01*
X7062143Y-23935476D01*
X7081190Y-23925952D01*
X7090714Y-23906905D01*
X7090714Y-23897381D01*
X7081190Y-23878333D01*
X7062143Y-23868809D01*
X7033571Y-23868809D01*
X7014524Y-23859286D01*
X7005000Y-23840238D01*
X7005000Y-23830714D01*
X7014524Y-23811667D01*
X7033571Y-23802143D01*
X7062143Y-23802143D01*
X7081190Y-23811667D01*
X7157381Y-24011667D02*
X7166905Y-24002143D01*
X7185952Y-23973571D01*
X7195476Y-23954524D01*
X7205000Y-23925952D01*
X7214524Y-23878333D01*
X7214524Y-23840238D01*
X7205000Y-23792619D01*
X7195476Y-23764048D01*
X7185952Y-23745000D01*
X7166905Y-23716428D01*
X7157381Y-23706905D01*
X7519286Y-24011667D02*
X7509762Y-24002143D01*
X7490714Y-23973571D01*
X7481190Y-23954524D01*
X7471667Y-23925952D01*
X7462143Y-23878333D01*
X7462143Y-23840238D01*
X7471667Y-23792619D01*
X7481190Y-23764048D01*
X7490714Y-23745000D01*
X7509762Y-23716428D01*
X7519286Y-23706905D01*
X7595476Y-23802143D02*
X7595476Y-23935476D01*
X7595476Y-23821190D02*
X7605000Y-23811667D01*
X7624048Y-23802143D01*
X7652619Y-23802143D01*
X7671667Y-23811667D01*
X7681190Y-23830714D01*
X7681190Y-23935476D01*
X7805000Y-23935476D02*
X7785952Y-23925952D01*
X7776428Y-23916428D01*
X7766905Y-23897381D01*
X7766905Y-23840238D01*
X7776428Y-23821190D01*
X7785952Y-23811667D01*
X7805000Y-23802143D01*
X7833571Y-23802143D01*
X7852619Y-23811667D01*
X7862143Y-23821190D01*
X7871667Y-23840238D01*
X7871667Y-23897381D01*
X7862143Y-23916428D01*
X7852619Y-23925952D01*
X7833571Y-23935476D01*
X7805000Y-23935476D01*
X7928809Y-23802143D02*
X8005000Y-23802143D01*
X7957381Y-23735476D02*
X7957381Y-23906905D01*
X7966905Y-23925952D01*
X7985952Y-23935476D01*
X8005000Y-23935476D01*
X8224048Y-23802143D02*
X8224048Y-24002143D01*
X8224048Y-23811667D02*
X8243095Y-23802143D01*
X8281190Y-23802143D01*
X8300238Y-23811667D01*
X8309762Y-23821190D01*
X8319286Y-23840238D01*
X8319286Y-23897381D01*
X8309762Y-23916428D01*
X8300238Y-23925952D01*
X8281190Y-23935476D01*
X8243095Y-23935476D01*
X8224048Y-23925952D01*
X8433571Y-23935476D02*
X8414524Y-23925952D01*
X8405000Y-23906905D01*
X8405000Y-23735476D01*
X8595476Y-23935476D02*
X8595476Y-23830714D01*
X8585952Y-23811667D01*
X8566905Y-23802143D01*
X8528810Y-23802143D01*
X8509762Y-23811667D01*
X8595476Y-23925952D02*
X8576429Y-23935476D01*
X8528810Y-23935476D01*
X8509762Y-23925952D01*
X8500238Y-23906905D01*
X8500238Y-23887857D01*
X8509762Y-23868809D01*
X8528810Y-23859286D01*
X8576429Y-23859286D01*
X8595476Y-23849762D01*
X8662143Y-23802143D02*
X8738333Y-23802143D01*
X8690714Y-23735476D02*
X8690714Y-23906905D01*
X8700238Y-23925952D01*
X8719286Y-23935476D01*
X8738333Y-23935476D01*
X8881190Y-23925952D02*
X8862143Y-23935476D01*
X8824048Y-23935476D01*
X8805000Y-23925952D01*
X8795476Y-23906905D01*
X8795476Y-23830714D01*
X8805000Y-23811667D01*
X8824048Y-23802143D01*
X8862143Y-23802143D01*
X8881190Y-23811667D01*
X8890714Y-23830714D01*
X8890714Y-23849762D01*
X8795476Y-23868809D01*
X9062143Y-23935476D02*
X9062143Y-23735476D01*
X9062143Y-23925952D02*
X9043095Y-23935476D01*
X9005000Y-23935476D01*
X8985952Y-23925952D01*
X8976429Y-23916428D01*
X8966905Y-23897381D01*
X8966905Y-23840238D01*
X8976429Y-23821190D01*
X8985952Y-23811667D01*
X9005000Y-23802143D01*
X9043095Y-23802143D01*
X9062143Y-23811667D01*
X9138333Y-24011667D02*
X9147857Y-24002143D01*
X9166905Y-23973571D01*
X9176429Y-23954524D01*
X9185952Y-23925952D01*
X9195476Y-23878333D01*
X9195476Y-23840238D01*
X9185952Y-23792619D01*
X9176429Y-23764048D01*
X9166905Y-23745000D01*
X9147857Y-23716428D01*
X9138333Y-23706905D01*
X2195000Y-24165000D02*
G75*
G03*
X2195000Y-24165000I-100000J0D01*
G01*
X2433571Y-24055476D02*
X2557381Y-24055476D01*
X2490714Y-24131667D01*
X2519286Y-24131667D01*
X2538333Y-24141190D01*
X2547857Y-24150714D01*
X2557381Y-24169762D01*
X2557381Y-24217381D01*
X2547857Y-24236428D01*
X2538333Y-24245952D01*
X2519286Y-24255476D01*
X2462143Y-24255476D01*
X2443095Y-24245952D01*
X2433571Y-24236428D01*
X2643095Y-24236428D02*
X2652619Y-24245952D01*
X2643095Y-24255476D01*
X2633571Y-24245952D01*
X2643095Y-24236428D01*
X2643095Y-24255476D01*
X2747857Y-24255476D02*
X2785952Y-24255476D01*
X2805000Y-24245952D01*
X2814524Y-24236428D01*
X2833571Y-24207857D01*
X2843095Y-24169762D01*
X2843095Y-24093571D01*
X2833571Y-24074524D01*
X2824048Y-24065000D01*
X2805000Y-24055476D01*
X2766905Y-24055476D01*
X2747857Y-24065000D01*
X2738333Y-24074524D01*
X2728810Y-24093571D01*
X2728810Y-24141190D01*
X2738333Y-24160238D01*
X2747857Y-24169762D01*
X2766905Y-24179286D01*
X2805000Y-24179286D01*
X2824048Y-24169762D01*
X2833571Y-24160238D01*
X2843095Y-24141190D01*
X2966905Y-24055476D02*
X2985952Y-24055476D01*
X3005000Y-24065000D01*
X3014524Y-24074524D01*
X3024048Y-24093571D01*
X3033571Y-24131667D01*
X3033571Y-24179286D01*
X3024048Y-24217381D01*
X3014524Y-24236428D01*
X3005000Y-24245952D01*
X2985952Y-24255476D01*
X2966905Y-24255476D01*
X2947857Y-24245952D01*
X2938333Y-24236428D01*
X2928809Y-24217381D01*
X2919286Y-24179286D01*
X2919286Y-24131667D01*
X2928809Y-24093571D01*
X2938333Y-24074524D01*
X2947857Y-24065000D01*
X2966905Y-24055476D01*
X3157381Y-24055476D02*
X3176428Y-24055476D01*
X3195476Y-24065000D01*
X3205000Y-24074524D01*
X3214524Y-24093571D01*
X3224048Y-24131667D01*
X3224048Y-24179286D01*
X3214524Y-24217381D01*
X3205000Y-24236428D01*
X3195476Y-24245952D01*
X3176428Y-24255476D01*
X3157381Y-24255476D01*
X3138333Y-24245952D01*
X3128809Y-24236428D01*
X3119286Y-24217381D01*
X3109762Y-24179286D01*
X3109762Y-24131667D01*
X3119286Y-24093571D01*
X3128809Y-24074524D01*
X3138333Y-24065000D01*
X3157381Y-24055476D01*
X3309762Y-24255476D02*
X3309762Y-24122143D01*
X3309762Y-24141190D02*
X3319286Y-24131667D01*
X3338333Y-24122143D01*
X3366905Y-24122143D01*
X3385952Y-24131667D01*
X3395476Y-24150714D01*
X3395476Y-24255476D01*
X3395476Y-24150714D02*
X3405000Y-24131667D01*
X3424048Y-24122143D01*
X3452619Y-24122143D01*
X3471667Y-24131667D01*
X3481190Y-24150714D01*
X3481190Y-24255476D01*
X3576428Y-24255476D02*
X3576428Y-24122143D01*
X3576428Y-24141190D02*
X3585952Y-24131667D01*
X3605000Y-24122143D01*
X3633571Y-24122143D01*
X3652619Y-24131667D01*
X3662143Y-24150714D01*
X3662143Y-24255476D01*
X3662143Y-24150714D02*
X3671667Y-24131667D01*
X3690714Y-24122143D01*
X3719286Y-24122143D01*
X3738333Y-24131667D01*
X3747857Y-24150714D01*
X3747857Y-24255476D01*
X4138333Y-24045952D02*
X3966905Y-24303095D01*
X4395476Y-24055476D02*
X4414524Y-24055476D01*
X4433571Y-24065000D01*
X4443095Y-24074524D01*
X4452619Y-24093571D01*
X4462143Y-24131667D01*
X4462143Y-24179286D01*
X4452619Y-24217381D01*
X4443095Y-24236428D01*
X4433571Y-24245952D01*
X4414524Y-24255476D01*
X4395476Y-24255476D01*
X4376429Y-24245952D01*
X4366905Y-24236428D01*
X4357381Y-24217381D01*
X4347857Y-24179286D01*
X4347857Y-24131667D01*
X4357381Y-24093571D01*
X4366905Y-24074524D01*
X4376429Y-24065000D01*
X4395476Y-24055476D01*
X4547857Y-24236428D02*
X4557381Y-24245952D01*
X4547857Y-24255476D01*
X4538333Y-24245952D01*
X4547857Y-24236428D01*
X4547857Y-24255476D01*
X4747857Y-24255476D02*
X4633571Y-24255476D01*
X4690714Y-24255476D02*
X4690714Y-24055476D01*
X4671667Y-24084048D01*
X4652619Y-24103095D01*
X4633571Y-24112619D01*
X4928810Y-24055476D02*
X4833571Y-24055476D01*
X4824048Y-24150714D01*
X4833571Y-24141190D01*
X4852619Y-24131667D01*
X4900238Y-24131667D01*
X4919286Y-24141190D01*
X4928810Y-24150714D01*
X4938333Y-24169762D01*
X4938333Y-24217381D01*
X4928810Y-24236428D01*
X4919286Y-24245952D01*
X4900238Y-24255476D01*
X4852619Y-24255476D01*
X4833571Y-24245952D01*
X4824048Y-24236428D01*
X5005000Y-24055476D02*
X5128810Y-24055476D01*
X5062143Y-24131667D01*
X5090714Y-24131667D01*
X5109762Y-24141190D01*
X5119286Y-24150714D01*
X5128810Y-24169762D01*
X5128810Y-24217381D01*
X5119286Y-24236428D01*
X5109762Y-24245952D01*
X5090714Y-24255476D01*
X5033571Y-24255476D01*
X5014524Y-24245952D01*
X5005000Y-24236428D01*
X5309762Y-24055476D02*
X5214524Y-24055476D01*
X5205000Y-24150714D01*
X5214524Y-24141190D01*
X5233571Y-24131667D01*
X5281190Y-24131667D01*
X5300238Y-24141190D01*
X5309762Y-24150714D01*
X5319286Y-24169762D01*
X5319286Y-24217381D01*
X5309762Y-24236428D01*
X5300238Y-24245952D01*
X5281190Y-24255476D01*
X5233571Y-24255476D01*
X5214524Y-24245952D01*
X5205000Y-24236428D01*
X5395476Y-24055476D02*
X5395476Y-24093571D01*
X5471667Y-24055476D02*
X5471667Y-24093571D01*
X5766905Y-24331667D02*
X5757381Y-24322143D01*
X5738333Y-24293571D01*
X5728809Y-24274524D01*
X5719286Y-24245952D01*
X5709762Y-24198333D01*
X5709762Y-24160238D01*
X5719286Y-24112619D01*
X5728809Y-24084048D01*
X5738333Y-24065000D01*
X5757381Y-24036428D01*
X5766905Y-24026905D01*
X5852619Y-24255476D02*
X5890714Y-24255476D01*
X5909762Y-24245952D01*
X5919286Y-24236428D01*
X5938333Y-24207857D01*
X5947857Y-24169762D01*
X5947857Y-24093571D01*
X5938333Y-24074524D01*
X5928809Y-24065000D01*
X5909762Y-24055476D01*
X5871667Y-24055476D01*
X5852619Y-24065000D01*
X5843095Y-24074524D01*
X5833571Y-24093571D01*
X5833571Y-24141190D01*
X5843095Y-24160238D01*
X5852619Y-24169762D01*
X5871667Y-24179286D01*
X5909762Y-24179286D01*
X5928809Y-24169762D01*
X5938333Y-24160238D01*
X5947857Y-24141190D01*
X6024048Y-24074524D02*
X6033571Y-24065000D01*
X6052619Y-24055476D01*
X6100238Y-24055476D01*
X6119286Y-24065000D01*
X6128809Y-24074524D01*
X6138333Y-24093571D01*
X6138333Y-24112619D01*
X6128809Y-24141190D01*
X6014524Y-24255476D01*
X6138333Y-24255476D01*
X6376428Y-24255476D02*
X6376428Y-24055476D01*
X6462143Y-24255476D02*
X6462143Y-24150714D01*
X6452619Y-24131667D01*
X6433571Y-24122143D01*
X6405000Y-24122143D01*
X6385952Y-24131667D01*
X6376428Y-24141190D01*
X6585952Y-24255476D02*
X6566905Y-24245952D01*
X6557381Y-24236428D01*
X6547857Y-24217381D01*
X6547857Y-24160238D01*
X6557381Y-24141190D01*
X6566905Y-24131667D01*
X6585952Y-24122143D01*
X6614524Y-24122143D01*
X6633571Y-24131667D01*
X6643095Y-24141190D01*
X6652619Y-24160238D01*
X6652619Y-24217381D01*
X6643095Y-24236428D01*
X6633571Y-24245952D01*
X6614524Y-24255476D01*
X6585952Y-24255476D01*
X6766905Y-24255476D02*
X6747857Y-24245952D01*
X6738333Y-24226905D01*
X6738333Y-24055476D01*
X6919286Y-24245952D02*
X6900238Y-24255476D01*
X6862143Y-24255476D01*
X6843095Y-24245952D01*
X6833571Y-24226905D01*
X6833571Y-24150714D01*
X6843095Y-24131667D01*
X6862143Y-24122143D01*
X6900238Y-24122143D01*
X6919286Y-24131667D01*
X6928809Y-24150714D01*
X6928809Y-24169762D01*
X6833571Y-24188809D01*
X7005000Y-24245952D02*
X7024048Y-24255476D01*
X7062143Y-24255476D01*
X7081190Y-24245952D01*
X7090714Y-24226905D01*
X7090714Y-24217381D01*
X7081190Y-24198333D01*
X7062143Y-24188809D01*
X7033571Y-24188809D01*
X7014524Y-24179286D01*
X7005000Y-24160238D01*
X7005000Y-24150714D01*
X7014524Y-24131667D01*
X7033571Y-24122143D01*
X7062143Y-24122143D01*
X7081190Y-24131667D01*
X7157381Y-24331667D02*
X7166905Y-24322143D01*
X7185952Y-24293571D01*
X7195476Y-24274524D01*
X7205000Y-24245952D01*
X7214524Y-24198333D01*
X7214524Y-24160238D01*
X7205000Y-24112619D01*
X7195476Y-24084048D01*
X7185952Y-24065000D01*
X7166905Y-24036428D01*
X7157381Y-24026905D01*
X7519286Y-24331667D02*
X7509762Y-24322143D01*
X7490714Y-24293571D01*
X7481190Y-24274524D01*
X7471667Y-24245952D01*
X7462143Y-24198333D01*
X7462143Y-24160238D01*
X7471667Y-24112619D01*
X7481190Y-24084048D01*
X7490714Y-24065000D01*
X7509762Y-24036428D01*
X7519286Y-24026905D01*
X7595476Y-24122143D02*
X7595476Y-24255476D01*
X7595476Y-24141190D02*
X7605000Y-24131667D01*
X7624048Y-24122143D01*
X7652619Y-24122143D01*
X7671667Y-24131667D01*
X7681190Y-24150714D01*
X7681190Y-24255476D01*
X7805000Y-24255476D02*
X7785952Y-24245952D01*
X7776428Y-24236428D01*
X7766905Y-24217381D01*
X7766905Y-24160238D01*
X7776428Y-24141190D01*
X7785952Y-24131667D01*
X7805000Y-24122143D01*
X7833571Y-24122143D01*
X7852619Y-24131667D01*
X7862143Y-24141190D01*
X7871667Y-24160238D01*
X7871667Y-24217381D01*
X7862143Y-24236428D01*
X7852619Y-24245952D01*
X7833571Y-24255476D01*
X7805000Y-24255476D01*
X7928809Y-24122143D02*
X8005000Y-24122143D01*
X7957381Y-24055476D02*
X7957381Y-24226905D01*
X7966905Y-24245952D01*
X7985952Y-24255476D01*
X8005000Y-24255476D01*
X8224048Y-24122143D02*
X8224048Y-24322143D01*
X8224048Y-24131667D02*
X8243095Y-24122143D01*
X8281190Y-24122143D01*
X8300238Y-24131667D01*
X8309762Y-24141190D01*
X8319286Y-24160238D01*
X8319286Y-24217381D01*
X8309762Y-24236428D01*
X8300238Y-24245952D01*
X8281190Y-24255476D01*
X8243095Y-24255476D01*
X8224048Y-24245952D01*
X8433571Y-24255476D02*
X8414524Y-24245952D01*
X8405000Y-24226905D01*
X8405000Y-24055476D01*
X8595476Y-24255476D02*
X8595476Y-24150714D01*
X8585952Y-24131667D01*
X8566905Y-24122143D01*
X8528810Y-24122143D01*
X8509762Y-24131667D01*
X8595476Y-24245952D02*
X8576429Y-24255476D01*
X8528810Y-24255476D01*
X8509762Y-24245952D01*
X8500238Y-24226905D01*
X8500238Y-24207857D01*
X8509762Y-24188809D01*
X8528810Y-24179286D01*
X8576429Y-24179286D01*
X8595476Y-24169762D01*
X8662143Y-24122143D02*
X8738333Y-24122143D01*
X8690714Y-24055476D02*
X8690714Y-24226905D01*
X8700238Y-24245952D01*
X8719286Y-24255476D01*
X8738333Y-24255476D01*
X8881190Y-24245952D02*
X8862143Y-24255476D01*
X8824048Y-24255476D01*
X8805000Y-24245952D01*
X8795476Y-24226905D01*
X8795476Y-24150714D01*
X8805000Y-24131667D01*
X8824048Y-24122143D01*
X8862143Y-24122143D01*
X8881190Y-24131667D01*
X8890714Y-24150714D01*
X8890714Y-24169762D01*
X8795476Y-24188809D01*
X9062143Y-24255476D02*
X9062143Y-24055476D01*
X9062143Y-24245952D02*
X9043095Y-24255476D01*
X9005000Y-24255476D01*
X8985952Y-24245952D01*
X8976429Y-24236428D01*
X8966905Y-24217381D01*
X8966905Y-24160238D01*
X8976429Y-24141190D01*
X8985952Y-24131667D01*
X9005000Y-24122143D01*
X9043095Y-24122143D01*
X9062143Y-24131667D01*
X9138333Y-24331667D02*
X9147857Y-24322143D01*
X9166905Y-24293571D01*
X9176429Y-24274524D01*
X9185952Y-24245952D01*
X9195476Y-24198333D01*
X9195476Y-24160238D01*
X9185952Y-24112619D01*
X9176429Y-24084048D01*
X9166905Y-24065000D01*
X9147857Y-24036428D01*
X9138333Y-24026905D01*
M02*
